<?xml version="1.0" encoding="UTF-8"?>
<!DOCTYPE svg PUBLIC "-//W3C//DTD SVG 1.1//EN" "http://www.w3.org/Graphics/SVG/1.1/DTD/svg11.dtd">
<!-- Creator: CorelDRAW 2017 -->
<svg xmlns="http://www.w3.org/2000/svg" xml:space="preserve" width="74mm" height="21mm" version="1.1" style="shape-rendering:geometricPrecision; text-rendering:geometricPrecision; image-rendering:optimizeQuality; fill-rule:evenodd; clip-rule:evenodd"
viewBox="0 0 7400 2100"
 xmlns:xlink="http://www.w3.org/1999/xlink">
 <defs>
  <style type="text/css">
   <![CDATA[
    .str0 {stroke:#2B2A29;stroke-width:105.27;stroke-linecap:round;stroke-linejoin:round;stroke-miterlimit:22.9256}
    .fil0 {fill:none;fill-rule:nonzero}
    .fil3 {fill:#2B2A29}
    .fil1 {fill:#FEFEFE;fill-rule:nonzero}
    .fil2 {fill:#E31E24;fill-rule:nonzero}
   ]]>
  </style>
 </defs>
 <g id="Capa_x0020_1">
  <metadata id="CorelCorpID_0Corel-Layer"/>
  <g id="_1788803916272">
   <g>
    <g>
     <path class="fil0 str0" d="M457.03 1156.17l-188.14 0 0 -125.43c0,-36.53 -1.98,-59.21 -5.94,-68.34 -3.95,-8.98 -12.78,-13.55 -26.33,-13.55 -15.22,0 -24.96,5.48 -29.07,16.44 -4.11,11.11 -6.24,34.86 -6.24,71.39l0 335.18c0,35.16 2.13,57.99 6.24,68.8 4.11,10.66 13.39,15.98 27.7,15.98 13.85,0 22.98,-5.32 27.25,-16.13 4.26,-10.66 6.39,-35.92 6.39,-75.65l0 -90.88 188.14 0 0 28.16c0,74.89 -5.33,128.02 -15.83,159.22 -10.5,31.36 -33.95,58.76 -70.02,82.35 -36.23,23.6 -80.68,35.32 -133.65,35.32 -54.95,0 -100.31,-9.9 -136.08,-29.84 -35.62,-19.94 -59.36,-47.49 -70.93,-82.8 -11.57,-35.32 -17.35,-88.29 -17.35,-159.07l0 -210.97c0,-52.06 1.82,-91.03 5.32,-117.06 3.66,-26.03 14.16,-51.14 31.97,-75.19 17.66,-24.05 42.16,-43.08 73.52,-56.93 31.36,-13.85 67.43,-20.7 108.23,-20.7 55.25,0 100.91,10.65 136.99,32.11 35.92,21.31 59.52,47.95 70.93,79.92 11.27,31.96 16.9,81.59 16.9,149.02l0 68.65zm222.54 44.75l-168.96 0 0 -39.73c0,-45.82 5.32,-81.13 15.83,-106.09 10.5,-24.81 31.81,-46.73 63.62,-65.76 31.82,-19.03 73.07,-28.62 124.06,-28.62 60.89,0 106.86,10.81 137.76,32.42 30.9,21.47 49.47,47.95 55.71,79.31 6.24,31.36 9.43,96.05 9.43,193.92l0 297.13 -175.35 0 0 -52.82c-10.96,21.31 -25.27,37.14 -42.62,47.8 -17.35,10.65 -38.05,15.98 -62.26,15.98 -31.51,0 -60.43,-8.83 -86.76,-26.49 -26.33,-17.81 -39.42,-56.47 -39.42,-116.29l0 -48.71c0,-44.29 7,-74.43 21,-90.57 14.01,-16.13 48.71,-34.86 104.12,-56.17 59.21,-23.28 90.87,-38.81 95.13,-46.88 4.11,-8.07 6.24,-24.35 6.24,-49.16 0,-30.9 -2.28,-51 -7,-60.43 -4.56,-9.29 -12.33,-14.01 -23.13,-14.01 -12.33,0 -19.95,3.96 -22.84,11.87 -3.04,7.77 -4.56,28.32 -4.56,61.35l0 61.95zm57.53 81.13c-29.07,21.16 -45.97,38.82 -50.53,53.13 -4.72,14.3 -7,34.7 -7,61.49 0,30.75 1.98,50.38 6.08,59.37 3.96,8.98 12.03,13.39 24.06,13.39 11.41,0 18.72,-3.5 22.22,-10.5 3.5,-7 5.17,-25.27 5.17,-55.11l0 -121.77zm427.28 -440.97l0 722.42 -185.4 0 0 -722.42 185.4 0zm473.08 436.56l-233.8 0 0 128.32c0,26.79 1.97,44.14 5.78,51.9 3.96,7.76 11.42,11.57 22.53,11.57 13.85,0 23.14,-5.18 27.7,-15.37 4.72,-10.35 7,-30.29 7,-59.82l0 -78.24 170.79 0 0 43.83c0,36.69 -2.28,64.85 -6.85,84.48 -4.72,19.64 -15.53,40.65 -32.42,63.02 -16.9,22.38 -38.51,39.12 -64.54,50.39 -26.03,11.11 -58.6,16.74 -97.88,16.74 -38.05,0 -71.69,-5.48 -100.92,-16.59 -29.07,-10.96 -51.75,-26.03 -68.04,-45.21 -16.28,-19.18 -27.4,-40.34 -33.64,-63.47 -6.24,-22.99 -9.43,-56.48 -9.43,-100.62l0 -172.77c0,-51.75 7,-92.54 21,-122.53 14.01,-29.83 36.84,-52.82 68.65,-68.65 31.97,-15.98 68.5,-23.9 109.9,-23.9 50.54,0 92.25,9.59 125.12,28.77 32.88,19.18 56.02,44.6 69.26,76.26 13.25,31.51 19.79,76.11 19.79,133.5l0 78.39zm-179.92 -95.9l0 -43.23c0,-30.75 -1.67,-50.38 -5.02,-59.36 -3.35,-8.98 -10.2,-13.4 -20.55,-13.4 -12.79,0 -20.7,3.81 -23.75,11.42 -3.04,7.61 -4.56,28.01 -4.56,61.34l0 43.23 53.88 0zm421.19 -210.06l-2.74 54.95c13.09,-21.92 29.07,-38.36 47.94,-49.47 18.88,-10.96 40.65,-16.44 65.46,-16.44 30.9,0 56.16,7.31 75.8,21.92 19.64,14.46 32.27,32.88 37.9,55.1 5.63,22.08 8.53,59.06 8.53,110.82l0 414.94 -179.92 0 0 -409.92c0,-40.64 -1.37,-65.6 -4.11,-74.43 -2.59,-8.98 -10.05,-13.4 -22.38,-13.4 -12.94,0 -21,5.18 -24.35,15.38 -3.2,10.35 -4.87,37.75 -4.87,82.34l0 400.03 -179.92 0 0 -591.82 182.66 0zm705.07 -130.6l0 722.42 -179.92 0 0 -43.08c-17.36,18.12 -35.47,31.51 -54.5,40.49 -19.18,8.98 -39.12,13.55 -59.97,13.55 -28.01,0 -52.36,-7.31 -72.91,-22.07 -20.55,-14.77 -33.79,-31.82 -39.58,-51.15 -5.78,-19.33 -8.67,-50.84 -8.67,-94.68l0 -277.18c0,-45.51 2.89,-77.78 8.67,-96.81 5.79,-19.03 19.18,-35.77 40.04,-50.23 20.85,-14.46 45.81,-21.62 74.73,-21.62 22.38,0 42.78,4.11 61.5,12.18 18.57,8.07 35.47,20.09 50.69,36.38l0 -168.2 179.92 0zm-179.92 279.47c0,-21.62 -1.83,-36.23 -5.63,-43.69 -3.81,-7.46 -11.27,-11.11 -22.38,-11.11 -10.96,0 -18.27,3.35 -22.07,10.05 -3.81,6.7 -5.63,21.61 -5.63,44.75l0 289.97c0,24.05 1.82,39.88 5.48,47.49 3.65,7.61 10.5,11.42 20.85,11.42 11.72,0 19.64,-4.26 23.44,-12.79 3.96,-8.37 5.94,-29.07 5.94,-62.1l0 -273.99zm405.05 80.37l-168.96 0 0 -39.73c0,-45.82 5.32,-81.13 15.83,-106.09 10.5,-24.81 31.81,-46.73 63.62,-65.76 31.82,-19.03 73.07,-28.62 124.06,-28.62 60.89,0 106.86,10.81 137.76,32.42 30.9,21.47 49.47,47.95 55.71,79.31 6.24,31.36 9.43,96.05 9.43,193.92l0 297.13 -175.35 0 0 -52.82c-10.96,21.31 -25.27,37.14 -42.62,47.8 -17.35,10.65 -38.05,15.98 -62.26,15.98 -31.51,0 -60.43,-8.83 -86.76,-26.49 -26.33,-17.81 -39.42,-56.47 -39.42,-116.29l0 -48.71c0,-44.29 7,-74.43 21,-90.57 14.01,-16.13 48.71,-34.86 104.12,-56.17 59.21,-23.28 90.87,-38.81 95.13,-46.88 4.11,-8.07 6.24,-24.35 6.24,-49.16 0,-30.9 -2.28,-51 -7,-60.43 -4.56,-9.29 -12.33,-14.01 -23.13,-14.01 -12.33,0 -19.95,3.96 -22.84,11.87 -3.04,7.77 -4.56,28.32 -4.56,61.35l0 61.95zm57.53 81.13c-29.07,21.16 -45.97,38.82 -50.53,53.13 -4.72,14.3 -7,34.7 -7,61.49 0,30.75 1.98,50.38 6.08,59.37 3.96,8.98 12.03,13.39 24.06,13.39 11.41,0 18.72,-3.5 22.22,-10.5 3.5,-7 5.17,-25.27 5.17,-55.11l0 -121.77zm420.88 -310.37l-6.39 77.94c26.33,-56.02 64.39,-85.55 114.16,-88.9l0 208.23c-33.03,0 -57.38,4.42 -72.91,13.4 -15.53,8.98 -24.96,21.31 -28.62,37.29 -3.5,15.83 -5.32,52.52 -5.32,110.06l0 233.8 -179.92 0 0 -591.82 179 0zm333.21 -130.6l0 94.07 -185.4 0 0 -94.07 185.4 0zm0 130.6l0 591.82 -185.4 0 0 -591.82 185.4 0zm472.17 207.78l0 145.06c0,53.28 -2.74,92.24 -8.07,117.21 -5.33,24.81 -16.74,47.94 -34.25,69.56 -17.5,21.61 -40.03,37.44 -67.58,47.8 -27.55,10.19 -59.06,15.37 -94.68,15.37 -39.88,0 -73.67,-4.41 -101.23,-13.09 -27.7,-8.83 -49.16,-22.07 -64.38,-39.73 -15.38,-17.81 -26.34,-39.27 -32.88,-64.39 -6.55,-25.11 -9.74,-62.86 -9.74,-113.09l0 -151.76c0,-55.11 5.93,-98.03 17.81,-129.08 11.87,-30.9 33.33,-55.72 64.23,-74.44 30.9,-18.72 70.48,-28.16 118.58,-28.16 40.33,0 75.04,6.09 104.11,18.12 28.92,12.02 51.3,27.7 67.13,47.03 15.68,19.33 26.49,39.27 32.27,59.82 5.79,20.55 8.68,51.76 8.68,93.77zm-179.92 -44.6c0,-30.29 -1.68,-49.47 -4.87,-57.24 -3.35,-7.91 -10.35,-11.87 -21.16,-11.87 -10.81,0 -17.96,3.96 -21.62,11.87 -3.5,7.77 -5.32,26.95 -5.32,57.24l0 267.14c0,28.01 1.82,46.27 5.32,54.64 3.66,8.53 10.66,12.79 21.16,12.79 10.81,0 17.81,-3.81 21.31,-11.57 3.5,-7.76 5.18,-24.35 5.18,-49.93l0 -273.07z"/>
     <path id="1" class="fil1" d="M457.03 1156.17l-188.14 0 0 -125.43c0,-36.53 -1.98,-59.21 -5.94,-68.34 -3.95,-8.98 -12.78,-13.55 -26.33,-13.55 -15.22,0 -24.96,5.48 -29.07,16.44 -4.11,11.11 -6.24,34.86 -6.24,71.39l0 335.18c0,35.16 2.13,57.99 6.24,68.8 4.11,10.66 13.39,15.98 27.7,15.98 13.85,0 22.98,-5.32 27.25,-16.13 4.26,-10.66 6.39,-35.92 6.39,-75.65l0 -90.88 188.14 0 0 28.16c0,74.89 -5.33,128.02 -15.83,159.22 -10.5,31.36 -33.95,58.76 -70.02,82.35 -36.23,23.6 -80.68,35.32 -133.65,35.32 -54.95,0 -100.31,-9.9 -136.08,-29.84 -35.62,-19.94 -59.36,-47.49 -70.93,-82.8 -11.57,-35.32 -17.35,-88.29 -17.35,-159.07l0 -210.97c0,-52.06 1.82,-91.03 5.32,-117.06 3.66,-26.03 14.16,-51.14 31.97,-75.19 17.66,-24.05 42.16,-43.08 73.52,-56.93 31.36,-13.85 67.43,-20.7 108.23,-20.7 55.25,0 100.91,10.65 136.99,32.11 35.92,21.31 59.52,47.95 70.93,79.92 11.27,31.96 16.9,81.59 16.9,149.02l0 68.65zm222.54 44.75l-168.96 0 0 -39.73c0,-45.82 5.32,-81.13 15.83,-106.09 10.5,-24.81 31.81,-46.73 63.62,-65.76 31.82,-19.03 73.07,-28.62 124.06,-28.62 60.89,0 106.86,10.81 137.76,32.42 30.9,21.47 49.47,47.95 55.71,79.31 6.24,31.36 9.43,96.05 9.43,193.92l0 297.13 -175.35 0 0 -52.82c-10.96,21.31 -25.27,37.14 -42.62,47.8 -17.35,10.65 -38.05,15.98 -62.26,15.98 -31.51,0 -60.43,-8.83 -86.76,-26.49 -26.33,-17.81 -39.42,-56.47 -39.42,-116.29l0 -48.71c0,-44.29 7,-74.43 21,-90.57 14.01,-16.13 48.71,-34.86 104.12,-56.17 59.21,-23.28 90.87,-38.81 95.13,-46.88 4.11,-8.07 6.24,-24.35 6.24,-49.16 0,-30.9 -2.28,-51 -7,-60.43 -4.56,-9.29 -12.33,-14.01 -23.13,-14.01 -12.33,0 -19.95,3.96 -22.84,11.87 -3.04,7.77 -4.56,28.32 -4.56,61.35l0 61.95zm57.53 81.13c-29.07,21.16 -45.97,38.82 -50.53,53.13 -4.72,14.3 -7,34.7 -7,61.49 0,30.75 1.98,50.38 6.08,59.37 3.96,8.98 12.03,13.39 24.06,13.39 11.41,0 18.72,-3.5 22.22,-10.5 3.5,-7 5.17,-25.27 5.17,-55.11l0 -121.77zm427.28 -440.97l0 722.42 -185.4 0 0 -722.42 185.4 0zm473.08 436.56l-233.8 0 0 128.32c0,26.79 1.97,44.14 5.78,51.9 3.96,7.76 11.42,11.57 22.53,11.57 13.85,0 23.14,-5.18 27.7,-15.37 4.72,-10.35 7,-30.29 7,-59.82l0 -78.24 170.79 0 0 43.83c0,36.69 -2.28,64.85 -6.85,84.48 -4.72,19.64 -15.53,40.65 -32.42,63.02 -16.9,22.38 -38.51,39.12 -64.54,50.39 -26.03,11.11 -58.6,16.74 -97.88,16.74 -38.05,0 -71.69,-5.48 -100.92,-16.59 -29.07,-10.96 -51.75,-26.03 -68.04,-45.21 -16.28,-19.18 -27.4,-40.34 -33.64,-63.47 -6.24,-22.99 -9.43,-56.48 -9.43,-100.62l0 -172.77c0,-51.75 7,-92.54 21,-122.53 14.01,-29.83 36.84,-52.82 68.65,-68.65 31.97,-15.98 68.5,-23.9 109.9,-23.9 50.54,0 92.25,9.59 125.12,28.77 32.88,19.18 56.02,44.6 69.26,76.26 13.25,31.51 19.79,76.11 19.79,133.5l0 78.39zm-179.92 -95.9l0 -43.23c0,-30.75 -1.67,-50.38 -5.02,-59.36 -3.35,-8.98 -10.2,-13.4 -20.55,-13.4 -12.79,0 -20.7,3.81 -23.75,11.42 -3.04,7.61 -4.56,28.01 -4.56,61.34l0 43.23 53.88 0zm421.19 -210.06l-2.74 54.95c13.09,-21.92 29.07,-38.36 47.94,-49.47 18.88,-10.96 40.65,-16.44 65.46,-16.44 30.9,0 56.16,7.31 75.8,21.92 19.64,14.46 32.27,32.88 37.9,55.1 5.63,22.08 8.53,59.06 8.53,110.82l0 414.94 -179.92 0 0 -409.92c0,-40.64 -1.37,-65.6 -4.11,-74.43 -2.59,-8.98 -10.05,-13.4 -22.38,-13.4 -12.94,0 -21,5.18 -24.35,15.38 -3.2,10.35 -4.87,37.75 -4.87,82.34l0 400.03 -179.92 0 0 -591.82 182.66 0zm705.07 -130.6l0 722.42 -179.92 0 0 -43.08c-17.36,18.12 -35.47,31.51 -54.5,40.49 -19.18,8.98 -39.12,13.55 -59.97,13.55 -28.01,0 -52.36,-7.31 -72.91,-22.07 -20.55,-14.77 -33.79,-31.82 -39.58,-51.15 -5.78,-19.33 -8.67,-50.84 -8.67,-94.68l0 -277.18c0,-45.51 2.89,-77.78 8.67,-96.81 5.79,-19.03 19.18,-35.77 40.04,-50.23 20.85,-14.46 45.81,-21.62 74.73,-21.62 22.38,0 42.78,4.11 61.5,12.18 18.57,8.07 35.47,20.09 50.69,36.38l0 -168.2 179.92 0zm-179.92 279.47c0,-21.62 -1.83,-36.23 -5.63,-43.69 -3.81,-7.46 -11.27,-11.11 -22.38,-11.11 -10.96,0 -18.27,3.35 -22.07,10.05 -3.81,6.7 -5.63,21.61 -5.63,44.75l0 289.97c0,24.05 1.82,39.88 5.48,47.49 3.65,7.61 10.5,11.42 20.85,11.42 11.72,0 19.64,-4.26 23.44,-12.79 3.96,-8.37 5.94,-29.07 5.94,-62.1l0 -273.99zm405.05 80.37l-168.96 0 0 -39.73c0,-45.82 5.32,-81.13 15.83,-106.09 10.5,-24.81 31.81,-46.73 63.62,-65.76 31.82,-19.03 73.07,-28.62 124.06,-28.62 60.89,0 106.86,10.81 137.76,32.42 30.9,21.47 49.47,47.95 55.71,79.31 6.24,31.36 9.43,96.05 9.43,193.92l0 297.13 -175.35 0 0 -52.82c-10.96,21.31 -25.27,37.14 -42.62,47.8 -17.35,10.65 -38.05,15.98 -62.26,15.98 -31.51,0 -60.43,-8.83 -86.76,-26.49 -26.33,-17.81 -39.42,-56.47 -39.42,-116.29l0 -48.71c0,-44.29 7,-74.43 21,-90.57 14.01,-16.13 48.71,-34.86 104.12,-56.17 59.21,-23.28 90.87,-38.81 95.13,-46.88 4.11,-8.07 6.24,-24.35 6.24,-49.16 0,-30.9 -2.28,-51 -7,-60.43 -4.56,-9.29 -12.33,-14.01 -23.13,-14.01 -12.33,0 -19.95,3.96 -22.84,11.87 -3.04,7.77 -4.56,28.32 -4.56,61.35l0 61.95zm57.53 81.13c-29.07,21.16 -45.97,38.82 -50.53,53.13 -4.72,14.3 -7,34.7 -7,61.49 0,30.75 1.98,50.38 6.08,59.37 3.96,8.98 12.03,13.39 24.06,13.39 11.41,0 18.72,-3.5 22.22,-10.5 3.5,-7 5.17,-25.27 5.17,-55.11l0 -121.77zm420.88 -310.37l-6.39 77.94c26.33,-56.02 64.39,-85.55 114.16,-88.9l0 208.23c-33.03,0 -57.38,4.42 -72.91,13.4 -15.53,8.98 -24.96,21.31 -28.62,37.29 -3.5,15.83 -5.32,52.52 -5.32,110.06l0 233.8 -179.92 0 0 -591.82 179 0zm333.21 -130.6l0 94.07 -185.4 0 0 -94.07 185.4 0zm0 130.6l0 591.82 -185.4 0 0 -591.82 185.4 0zm472.17 207.78l0 145.06c0,53.28 -2.74,92.24 -8.07,117.21 -5.33,24.81 -16.74,47.94 -34.25,69.56 -17.5,21.61 -40.03,37.44 -67.58,47.8 -27.55,10.19 -59.06,15.37 -94.68,15.37 -39.88,0 -73.67,-4.41 -101.23,-13.09 -27.7,-8.83 -49.16,-22.07 -64.38,-39.73 -15.38,-17.81 -26.34,-39.27 -32.88,-64.39 -6.55,-25.11 -9.74,-62.86 -9.74,-113.09l0 -151.76c0,-55.11 5.93,-98.03 17.81,-129.08 11.87,-30.9 33.33,-55.72 64.23,-74.44 30.9,-18.72 70.48,-28.16 118.58,-28.16 40.33,0 75.04,6.09 104.11,18.12 28.92,12.02 51.3,27.7 67.13,47.03 15.68,19.33 26.49,39.27 32.27,59.82 5.79,20.55 8.68,51.76 8.68,93.77zm-179.92 -44.6c0,-30.29 -1.68,-49.47 -4.87,-57.24 -3.35,-7.91 -10.35,-11.87 -21.16,-11.87 -10.81,0 -17.96,3.96 -21.62,11.87 -3.5,7.77 -5.32,26.95 -5.32,57.24l0 267.14c0,28.01 1.82,46.27 5.32,54.64 3.66,8.53 10.66,12.79 21.16,12.79 10.81,0 17.81,-3.81 21.31,-11.57 3.5,-7.76 5.18,-24.35 5.18,-49.93l0 -273.07z"/>
    </g>
    <g>
     <path class="fil0 str0" d="M4587.88 1107.76l-188.14 0 0 -65.6c0,-41.41 -1.67,-67.28 -5.18,-77.63 -3.5,-10.51 -11.87,-15.68 -24.96,-15.68 -11.26,0 -19.03,4.41 -23.14,13.39 -4.11,8.83 -6.08,31.82 -6.08,68.65l0 346.45c0,32.27 1.97,53.73 6.08,63.93 4.11,10.2 12.18,15.37 24.36,15.37 13.39,0 22.37,-5.78 27.25,-17.35 4.71,-11.57 7.15,-34.25 7.15,-67.89l0 -85.54 -36.53 0 0 -109.6 219.19 0 0 387.24 -118.27 0 -17.36 -51.75c-12.78,22.37 -28.92,39.12 -48.25,50.38 -19.48,11.26 -42.47,16.9 -68.8,16.9 -31.51,0 -60.89,-7.61 -88.44,-22.99 -27.4,-15.37 -48.25,-34.25 -62.41,-56.93 -14.31,-22.53 -23.13,-46.27 -26.79,-71.08 -3.5,-24.81 -5.32,-62.11 -5.32,-111.73l0 -214.63c0,-68.95 3.65,-119.03 11.11,-150.23 7.46,-31.36 28.77,-59.98 63.93,-86.01 35.16,-26.02 80.67,-38.96 136.54,-38.96 54.95,0 100.46,11.26 136.69,33.94 36.22,22.68 59.97,49.47 70.93,80.52 10.96,31.21 16.44,76.26 16.44,135.63l0 31.2z"/>
     <path id="1" class="fil2" d="M4587.88 1107.76l-188.14 0 0 -65.6c0,-41.41 -1.67,-67.28 -5.18,-77.63 -3.5,-10.51 -11.87,-15.68 -24.96,-15.68 -11.26,0 -19.03,4.41 -23.14,13.39 -4.11,8.83 -6.08,31.82 -6.08,68.65l0 346.45c0,32.27 1.97,53.73 6.08,63.93 4.11,10.2 12.18,15.37 24.36,15.37 13.39,0 22.37,-5.78 27.25,-17.35 4.71,-11.57 7.15,-34.25 7.15,-67.89l0 -85.54 -36.53 0 0 -109.6 219.19 0 0 387.24 -118.27 0 -17.36 -51.75c-12.78,22.37 -28.92,39.12 -48.25,50.38 -19.48,11.26 -42.47,16.9 -68.8,16.9 -31.51,0 -60.89,-7.61 -88.44,-22.99 -27.4,-15.37 -48.25,-34.25 -62.41,-56.93 -14.31,-22.53 -23.13,-46.27 -26.79,-71.08 -3.5,-24.81 -5.32,-62.11 -5.32,-111.73l0 -214.63c0,-68.95 3.65,-119.03 11.11,-150.23 7.46,-31.36 28.77,-59.98 63.93,-86.01 35.16,-26.02 80.67,-38.96 136.54,-38.96 54.95,0 100.46,11.26 136.69,33.94 36.22,22.68 59.97,49.47 70.93,80.52 10.96,31.21 16.44,76.26 16.44,135.63l0 31.2z"/>
    </g>
   </g>
   <path class="fil3" d="M6138.94 972.52c-122.77,0 -334.63,23.09 -414.36,66.34 51.69,10.89 86.08,10.89 139.93,26.23l190.02 82.18c133.03,79.87 58.53,37.18 191.21,37.18l67.66 -234.53c-161.69,-98.56 -706.43,-48.34 -863.04,-4.88 160.52,115.66 136.52,62.22 292.43,32.44 130.79,-25.05 229.92,-25.89 396.15,-25.89l0 20.93zm271.22 208.79c111.33,4.39 185.14,16.67 300.72,17.37 15.21,14.16 -19.46,12.83 47.16,17.3 -6,37.59 1.6,19.18 -12.77,47.29 -146.91,-55.66 -345.57,-50.99 -500.37,-50.71 -60.62,0.14 -416.73,5.58 -446.24,71.78 84.96,23.3 66.83,89.15 171.26,59.78 268.98,-75.62 443.79,-74.78 715.22,-74.78 -62.22,41.16 -529.95,12.14 -613.03,94.59 44.78,106.94 69.97,-3.97 211.79,94.1l152.63 59.86 161.42 79.03 -57.13 63.97c-1.75,2.93 -3.43,6.98 -5.1,9.91l-215.69 399.36c-188.48,0 -136.79,-51.48 -311.82,-120.19l0 -35.72c145.94,76.39 123.13,105.2 261.11,105.2l157.79 -261.11c48.48,-32.02 25.25,-18.62 57.2,-66.96l40.6 -47.23c10.04,-8.93 23.16,-18.76 24.97,-20.37 -14.99,-17.79 -33.97,-40.39 -69.27,-49.11 -177.25,-43.39 13.81,4.88 0,0 -31.6,-11.3 -44.15,-25.25 -211.71,-84.82 -40.6,-14.44 -39.27,-17.79 -86.01,-21.49 -64.88,-50.99 -149.91,-9.28 -175.65,-107.08 -112.18,32.16 -109.73,73.04 -253.92,-78.75l203.06 -71.85c3.7,-1.05 8.24,-2.65 11.51,-3.63 3.14,-0.98 8.44,-3.21 10.96,-4.12 2.44,-0.83 7.46,-2.23 10.67,-4.32l77.99 2.93c-47.51,-78.83 -265.57,-117.96 -347.05,-126.96 -53.01,-5.86 -47.15,-11.51 -100.24,-19.74 -82.17,-12.84 -63.2,34.25 -177.81,-90.27 -0.84,-0.98 -20.37,-23.44 -21.07,-24.28l35.51 -34.18c1.18,-4.88 5.44,-5.16 8.16,-7.88 281.82,-6.49 104.15,-81.75 676.02,-16.32 78.06,8.92 141.75,25.74 209.13,31.32 17.59,-65.99 54.48,-127.17 112.74,-217.86 22.6,-35.08 117.33,-161.21 150.18,-172.78 -14.44,61.45 -6.48,31.04 -48.62,78.75 -72.41,81.83 -277.91,486.7 -286.56,579.97l132.26 0z"/>
   <path class="fil3" d="M6630.78 1516.42c-34.57,-31.24 -21.95,9.28 -14.93,-37.61 4.58,-30.76 -3.81,3.99 15.29,-26.12 99.32,-156.45 236.96,-331.58 367.58,-461.84l378.22 -337.58c-0.41,58.08 -6.3,26.6 9.89,64.5 -42.44,11.37 -249.88,197.45 -273.15,222.74l-233.32 247.49c-21.07,24.87 -24.4,33.2 -46,59.21 -92.83,111.87 -122.88,185.36 -203.58,269.21z"/>
   <path class="fil3" d="M7361.89 632.14l-161.8 139.25c-46.47,45.7 -57.07,35.94 -120.02,105.09l-73.97 76.82c-18.39,17.73 -21.9,19.94 -38.21,36.54 -87.47,89.02 -134.43,186.62 -209.82,226.13 12.2,-80.87 43.68,-93.91 81.7,-143.71 16.43,-21.54 11.91,-19.88 32.38,-42.73l111.57 -113.78c73.49,-63.97 49.51,-67.18 98.49,-111.93 61.23,-55.94 100.62,-62.78 160.07,-125.38 37.79,-39.75 42.37,-28.74 69.5,-65.76 -12.55,-18.74 -8.39,-14.58 -27.13,-33.02 -2.14,-2.14 -5.77,-4.88 -8.03,-6.97l-237.02 -108.6c-21.3,-8.51 -17.32,-8.98 -28.33,-16.54 91.47,1.73 183.46,31.72 259.93,85.51 71.29,50.17 52.78,38.21 90.69,99.08z"/>
   <path class="fil3" d="M4837.14 229.12c-8.42,6.78 -17.07,10.2 -25.17,15.66 -25.16,16.98 -46.04,29.37 -69.18,52.82 -29.29,29.68 -31.08,41.44 -48.46,74.94 -3.66,7.02 -12.46,18.86 -9.19,28.21 9.97,3.74 11.69,-6.94 15.97,-15.74 21.43,-44.25 28.83,-65.91 67.94,-99.49 9.58,-8.18 27.34,-23.21 38.09,-28.51 -1.01,4.13 -1.01,4.21 -5.3,8.8 -21.73,23.53 -23.99,33.81 -29.68,39.97 -4.6,4.98 -8.88,7.63 -13.55,13.32 -15.43,18.78 -31.32,45.42 -44.18,66.45 -17.14,28.21 -8.88,14.57 -17.06,38.26 -2.49,7.4 -6.85,10.75 -9.27,19.08 -1.01,3.51 -1.09,12.7 -3.66,23.37l-9.04 33.5c-1.24,3.43 -2.49,6.31 -3.35,9.43 -5.14,18.85 -12.85,29.99 -6.23,37.71l2.26 2.18c0.15,-0.23 0.54,0.47 0.78,0.7 -3.04,3.9 -6.16,8.02 -10.13,11.53 -7.87,-2.49 -14.33,-6.7 -23.29,-9.58 -20.65,-6.7 -56.41,-12.47 -78.53,-15.12 -37.32,-4.59 -79.47,8.5 -96.37,28.83 0.23,-5.38 3.11,-13.17 6,-17.84 3.27,-5.53 6.38,-6.86 9.89,-14.18 10.28,-21.5 5.61,-4.13 16.59,-30.31 3.35,-7.94 5.38,-8.88 9.35,-14.72 3.43,-5.06 4.68,-9.89 8.42,-15.66 13.4,-20.49 24.85,-36.23 43.86,-51.18 13.16,-10.37 24.77,-21.97 36.3,-34.67 3.82,-4.29 6.47,-8.34 10.13,-12.54 3.89,-4.37 8.41,-7.33 12.54,-11.53l33.58 -37.4c5.84,-7.87 13.48,-12.46 20.88,-18.77 13.94,-11.85 10.67,-12.47 30.85,-24.47 10.52,-6.23 17.68,-13.32 27.81,-19.08l31.01 -17.22c12.15,-6.78 89.05,-35.22 105.25,-35.22 -7.32,5.38 -13.24,3.12 -25.86,18.47z"/>
   <path class="fil3" d="M5096.72 501.48c-15.12,-8.57 -23.22,-12 -42.3,-16.99 -8.57,-2.25 -17.46,-2.49 -26.96,-2.8 -12.31,-0.47 -9.19,-6 -25.55,1.25 -7.48,3.35 -26.26,3.97 -43.09,13.63 -12.62,7.25 -27.03,14.02 -39.03,20.65 -0.23,-6.24 -5.14,-23.07 -5.76,-35.53 -0.7,-13.17 0,-27.89 0,-41.21 0,-17.61 4.21,-46.82 4.36,-76.58 0.16,-24.62 15.35,-76.74 23.84,-101.05l10.28 -27.89c0.16,-0.23 0.39,-0.62 0.55,-0.86l1.09 -1.63c-2.8,36.69 3.12,69.49 6.93,101.43l4.91 48.93c1.25,9.19 1.56,15.66 2.03,25.01 0.93,18.93 0.7,19.32 7.09,19.86 5.68,-11.84 -13.87,-133.45 -15.58,-160.33 -1.87,-28.82 2.8,-36.3 2.8,-56.72 4.75,-4.9 5.45,-9.19 9.19,-14.88 2.11,-3.11 2.42,-3.81 5.85,-5.6 4.2,-2.19 6.15,0.93 4.83,-5.07l5.61 0c2.64,6.39 -0.32,-1.32 6.62,7.64l17.14 22.51c15.11,22.2 15.5,29.84 28.9,50.56 3.51,5.38 6.23,10.99 9.43,17.53 7.24,14.65 14.18,21.97 16.05,36.62 4.75,36.46 10.51,40.27 12.93,67.85 1.56,17.45 7.63,32.41 8.33,44.18 0.78,11.84 0.7,12.85 3.59,23.37l5.92 46.12z"/>
   <path class="fil3" d="M5490.92 465.1c-18.07,-6.24 -18.46,-10.29 -44.79,-12.08 -35.37,-2.34 -61.86,7.4 -90.69,23.06 -14.49,7.87 -25.24,12.93 -37.08,22.36 -5.45,-2.73 -6,-2.96 -9.74,-7.79 -0.78,-17.53 -4.44,-29.53 -10.67,-42.46l-18.54 -32.56c-12.39,-18.39 -9.04,-11.85 -19.79,-32.65 -11.3,-21.81 -46.12,-75.72 -61.62,-93.02 -15.59,-17.45 -27.5,-29.68 -46.28,-44.64 -3.9,-3.04 -4.13,-2.49 -6.15,-6.39 33.73,9.35 105.01,96.61 121.84,126.29 7.17,12.78 6.93,19.94 14.1,21.35 7.64,-19.79 -57.57,-89.28 -69.65,-103.46 -20.49,-24.23 -46.9,-42.77 -75.95,-55.94 -8.96,-4.05 -20.65,-9.35 -30.31,-12.23 -5.77,-6.23 -19.87,-9.74 -24.23,-16.28 13.32,1.17 25.79,3.5 37.4,5.84l64.5 20.8c21.5,7.71 39.58,13.4 59.76,23.92l54.22 30.85c20.1,11.92 58.66,38.17 74.09,52.2 8.26,7.55 13.4,11.45 21.97,20.56 4.13,4.44 6.7,6.47 10.51,10.75 11.3,12.55 13.56,20.34 27.51,34.98 3.81,3.98 6.46,6.86 10.43,10.83 4.99,4.83 7.25,5.61 11.61,9.66 5.85,5.46 14.49,16.21 19.87,22.67 4.59,5.38 16.75,19.17 17.68,23.38z"/>
   <path class="fil3" d="M4962.41 187.36c-10.68,1.71 -23.92,-0.31 -32.96,1.79 -12.77,2.96 -48.53,4.37 -63.65,4.52 -34.59,0.24 -100.81,8.03 -133.6,18.15l-10.13 4.21c-0.16,-0.31 -0.63,0.39 -0.94,0.62 -8.02,2.42 -20.72,3.82 -29.52,5.61 -9.98,2.03 -18.47,3.82 -29.06,6.39 -85.78,20.57 -98.24,55.39 -132.6,76.82 -5.14,1.79 -15.97,8.57 -21.11,12.07 -7.48,4.99 -9.66,8.34 -17.61,15.04l-53.44 43.08c-6.55,6 -8.57,9.74 -17.61,14.96l-55.47 41.05c-5.45,5.22 -9.03,12.39 -14.18,18.47 -5.06,6.15 -10.51,10.52 -15.58,17.14 -4.83,6.23 -6.7,13.63 -11.45,19.71l-26.8 38.41c-4.28,5.76 -8.02,15.34 -11.3,21.42 -4.28,8.1 -4.83,15.19 -4.05,24.54 -19.94,-6 -60.45,-5.14 -80.08,-0.39 1.87,-5.84 1.94,-9.82 4.12,-14.96l13.17 -22.2c1.95,-3.66 3.97,-7.87 5.61,-11.53 4.21,-9.51 6.39,-16.21 11.92,-23.53l41.52 -47.83c10.75,-12.55 13.79,-16.67 25.79,-26.8l37.32 -33.5c3.11,-3.59 4.83,-7.33 7.94,-10.52 3.28,-3.35 6.47,-4.44 9.35,-7.63 8.49,-9.12 8.65,-8.03 18.7,-16.75 3.66,-3.12 6.15,-5.38 10.28,-8.11 18.47,-12.31 40.83,-36.92 46.83,-41.21 4.05,-2.88 7.47,-4.28 10.9,-7.56 3.59,-3.5 5.07,-5.99 8.18,-8.8 6.62,-6.15 15.43,-7.63 20.96,-14.65 5.45,-1.79 19.16,-8.88 25.86,-12.3l55.32 -19.95c12.31,-4.67 71.83,-19.79 87.87,-24.15 4.99,-1.32 10.13,-2.8 15.51,-4.36 3.43,-1.09 3.58,-1.4 7.4,-2.42 20.96,-5.45 80.71,-16.2 99.25,-17.99 11.69,-1.09 22.28,-3.2 33.03,-5.46 40.52,-8.33 105.72,-3.11 135.17,-7.48 11.53,-1.79 19.87,2.03 29.14,6.08z"/>
   <path class="fil3" d="M5262.03 180.27c3.51,3.43 61.86,18.7 70.82,21.66 16.52,5.45 32.8,7.56 53.45,14.65 7.01,2.33 9.97,3.89 16.36,6.31 35.6,13.4 64.74,18.77 99.4,36.77 10.83,5.61 20.49,8.72 30.46,15.03 10.6,6.63 19.87,11.07 30.39,16.29 10.36,5.14 18.46,11.37 28.12,17.29 30.54,18.62 53.99,32.25 76.04,60.22 6.93,8.88 12.54,16.83 19.71,25.63 15.97,19.71 16.9,22.99 28.67,39.42 3.19,4.52 7.71,8.89 10.13,12.78 -19.95,-2.88 -22.21,-3.97 -42.31,1.56 -16.36,4.52 -19.79,12 -29.83,19.86 -1.95,-7.94 -4.91,-12.69 -8.42,-19 -2.26,-4.06 -3.19,-5.54 -4.75,-9.51 -4.6,-11.14 -19.79,-28.67 -28.12,-37.16l-26.65 -27.27c-29.37,-32.09 -56.87,-48.07 -87.41,-71.52 -9.89,-7.63 -18.62,-14.64 -31.4,-21.03 -58.97,-29.76 -77.2,-47.05 -147.94,-64.82 -14.57,-3.66 -27.27,-7.32 -41.76,-10.75 -14.72,-3.43 -28.12,-7.01 -43.55,-10.44 -6.23,-1.4 -14.33,-3.74 -21.19,-5.76l-65.13 -12.86c-9.5,-1.87 -35.52,-6.15 -41.68,-11.06 12.62,0.23 25.01,1.4 38.1,3.19 13.24,1.87 28.36,1.95 42.93,2.81 23.91,1.48 52.89,8.72 75.56,7.71z"/>
   <path class="fil3" d="M5725.58 446.32c-2.42,-3.89 -6.94,-8.26 -10.13,-12.78 -11.77,-16.43 -12.7,-19.71 -28.67,-39.42 -7.17,-8.8 -12.78,-16.75 -19.71,-25.63 -22.05,-27.97 -45.5,-41.6 -76.04,-60.22 -9.66,-5.92 -17.76,-12.15 -28.12,-17.29 -10.52,-5.22 -19.79,-9.66 -30.39,-16.29 -9.97,-6.31 -19.63,-9.42 -30.46,-15.03 -34.66,-18 -63.8,-23.37 -99.4,-36.77 -6.39,-2.42 -9.35,-3.98 -16.36,-6.31 -20.65,-7.09 -36.93,-9.2 -53.45,-14.65 -8.96,-2.96 -67.31,-18.23 -70.82,-21.66 48.93,-1.24 114.53,15.74 161.27,28.98 29.53,8.42 60.38,18.08 89.2,29.92 5.07,2.02 10.99,5.22 16.75,7.48 18.47,7.32 32.1,9.81 50.56,20.41 33.27,19.16 42.39,24.54 70.51,48.61 13.17,11.22 14.57,14.88 24.15,24.08 10.28,9.97 33.73,40.66 41.6,53.44l18.62 29.68c3.35,6.31 14.88,28.44 15.82,33.66 -6.47,-1.8 -6.63,-3.28 -12.31,-6 -4.05,-1.95 -8.81,-2.65 -12.62,-4.21z"/>
   <path class="fil3" d="M5009.15 897.32c-4.13,-6.39 1.56,-2.03 -4.75,-6.7 -7.4,-5.45 -10.52,-7.17 -13.95,-19.94 -3.42,-12.47 -2.49,-25.25 -6.85,-37.24 -5.38,-14.96 -4.99,-19.56 -7.95,-36.07 -4.67,-26.8 -1.87,-20.18 -3.5,-40.91 19.32,-5.14 -5.07,-4.75 37,-5.14l35.6 -2.57c14.11,20.02 3.35,15.74 5.69,34.9 0.86,7.72 2.73,8.42 2.65,20.03l9.19 56.09c5.85,20.8 2.5,20.49 -4.83,33.03 -16.67,-0.31 -31.24,4.75 -48.3,4.52z"/>
   <path class="fil3" d="M4987.03 622.86c-1.87,-18.86 -8.65,-97.62 -7.72,-111.41 5.77,-4.44 18.78,-7.56 26.96,-8.88 0.15,19.24 2.88,39.03 4.67,58.12 4.29,45.42 7.25,99.09 11.92,144.05 0.55,5.14 0.63,9.58 1.33,14.41 0.39,2.8 1.4,11.92 -0.86,13.87 -7.71,3.19 -19.16,-1.49 -28.43,-1.56l-7.87 -108.6z"/>
   <path class="fil3" d="M4201.27 570.97c-3.04,1.79 -7.33,3.19 -10.05,4.91 -7.56,4.75 -1.02,4.36 -11.46,7.63 0.63,-6.7 2.03,-10.59 1.87,-15.58 -0.54,-15.35 1.17,-19.63 4.05,-32.87 2.11,-9.74 1.17,-6.31 7.79,-12.24 30.39,-26.87 22.29,-27.89 32.34,-42.77 5.37,-7.86 11.29,-14.17 15.89,-21.03 12.93,-19.56 20.64,-24.15 38.41,-36.77l32.79 -23.92c17.61,-19.32 31.95,-25.47 50.02,-43.63 6.31,-6.39 11.84,-12.62 20.8,-17.6 22.28,-12.47 56.56,-50.72 90.14,-61.71 -5.53,7.02 -14.34,8.5 -20.96,14.65 -3.11,2.81 -4.59,5.3 -8.18,8.8 -3.43,3.28 -6.85,4.68 -10.9,7.56 -6,4.29 -28.36,28.9 -46.83,41.21 -4.13,2.73 -6.62,4.99 -10.28,8.11 -10.05,8.72 -10.21,7.63 -18.7,16.75 -2.88,3.19 -6.07,4.28 -9.35,7.63 -3.11,3.19 -4.83,6.93 -7.94,10.52l-37.32 33.5c-12,10.13 -15.04,14.25 -25.79,26.8l-41.52 47.83c-5.53,7.32 -7.71,14.02 -11.92,23.53 -1.64,3.66 -3.66,7.87 -5.61,11.53l-13.17 22.2c-2.18,5.14 -2.25,9.12 -4.12,14.96z"/>
   <path class="fil3" d="M4529.95 305.47c34.36,-21.43 46.82,-56.25 132.6,-76.82 10.59,-2.57 19.08,-4.36 29.06,-6.39 8.8,-1.79 21.5,-3.19 29.52,-5.61 28.2,-2.33 134.23,-23.06 154.65,-14.8 -0.86,10.99 -2.5,2.49 -34.05,4.6 -19.55,1.32 -85.23,12.23 -105.72,16.28 -131.04,26.02 -137.58,29.53 -219.3,112.65 -11.14,11.3 -28.44,21.74 -41.99,41.68 -7.72,11.22 -7.09,16.05 -11.69,29.45 -3.66,10.44 -10.99,23.53 -21.11,9.89 -1.02,-8.1 8.72,-30.69 12.38,-37.08 6.24,-10.83 13.56,-20.33 21.43,-28.2 12.93,-12.93 50.4,-38.8 54.22,-45.65z"/>
   <path class="fil3" d="M4967.08 33.34l11.14 132.21c-14.88,3.19 -7.87,4.52 -25.71,2.33l-10.44 -138.05c6.39,0.63 19.64,0.16 25.01,3.51z"/>
   <path class="fil3" d="M4807.14 257.01c-10.75,5.3 -28.51,20.33 -38.09,28.51 -39.11,33.58 -46.51,55.24 -67.94,99.49 -4.28,8.8 -6,19.48 -15.97,15.74 -3.27,-9.35 5.53,-21.19 9.19,-28.21 17.38,-33.5 19.17,-45.26 48.46,-74.94 23.14,-23.45 44.02,-35.84 69.18,-52.82 8.1,-5.46 16.75,-8.88 25.17,-15.66 9.42,-3.04 28.82,-17.3 60.68,-26.18 3.9,-1.09 7.09,-2.02 11.3,-2.88 6.78,-1.4 9.04,-1.95 12.08,2.1 -2.03,5.14 0.7,2.11 -6.47,3.66 -22.83,4.76 -31.86,7.8 -53.91,19.71 -5.46,2.89 -47.37,25.32 -52.35,29.92 -0.16,0.16 -0.55,0.62 -0.63,0.78 -0.15,0.16 -0.47,0.47 -0.7,0.78z"/>
   <path class="fil3" d="M5105.6 214.94c9.66,2.88 21.35,8.18 30.31,12.23 29.05,13.17 55.46,31.71 75.95,55.94 12.08,14.18 77.29,83.67 69.65,103.46 -7.17,-1.41 -6.93,-8.57 -14.1,-21.35 -16.83,-29.68 -88.11,-116.94 -121.84,-126.29l-8.11 -4.75c-3.81,-1.56 -5.14,-2.41 -8.88,-3.97 -5.76,-2.42 -11.45,-4.83 -18.23,-7.25 -46.59,-16.9 -64.43,-16.36 -98.55,-27.73 -14.96,-4.99 -13.09,1.64 -14.02,-7.25 16.36,1.56 6,-0.78 21.11,4.6 3.19,1.17 2.8,1.09 6.62,2.03l27.97 5.76c24.54,5.14 35.37,10.6 52.12,14.57z"/>
   <path class="fil3" d="M4962.33 210.65c0,20.42 -4.67,27.9 -2.8,56.72 1.71,26.88 21.26,148.49 15.58,160.33 -6.39,-0.54 -6.16,-0.93 -7.09,-19.86 -0.47,-9.35 -0.78,-15.82 -2.03,-25.01l-4.91 -48.93c-3.81,-31.94 -9.73,-64.74 -6.93,-101.43 4.67,-7.32 -1.48,-35.37 9.04,-38.8 2.18,3.74 1.48,2.26 0.39,6.78 -1.17,4.52 -1.25,3.97 -1.25,10.2z"/>
   <path class="fil2" d="M2851.73 1980.88c-25.01,0 -42.36,-8.19 -51.96,-24.64 -4.32,-7.37 -6.55,-15.11 -6.55,-23.08 0,-8.48 2.53,-17.19 7.52,-26.05l63.2 -112.49 -71.02 0 25.09 -44.67 71.02 0 43.63 -78.02 171.3 -3.72 -45.71 81.74 66.85 0 -24.94 44.67 -66.85 0 -66.04 117.25c-3.72,6.78 -4.39,12.43 -1.93,17.05 2.46,4.54 7.15,6.85 14.07,6.85l88.44 0 -25.09 45.11 -191.03 0zm528.95 -210.9c26.43,-21.45 50.55,-32.54 72.51,-33.43 41.02,-1.71 61.64,16.38 61.87,54.27 0.07,17.72 -6.55,34.62 -19.73,50.62 -14.89,17.95 -32.76,26.88 -53.75,26.88 -16.83,0 -30.15,-4.47 -39.98,-13.33 -9.9,-8.86 -16.45,-22.63 -19.73,-41.17 -6.85,6.26 -13.25,14.82 -19.35,25.76l-79.07 141.3 -170.48 0 127.45 -227.51 141.82 -3.35 -1.56 19.96zm431.42 -7.23l6.63 -4.69 6.7 -4.69 165.27 -3.42 -91.05 161.92c-1.71,3.13 -2.83,5.96 -3.27,8.56 -0.45,3.13 -0.08,5.96 1.19,8.49 2.46,4.54 7.15,6.85 14.22,6.85l47.42 0 -25.09 45.11 -188.2 0 -17.05 -17.42c-22.56,14.74 -53.23,22.34 -91.94,22.78 -35.58,0.38 -64.4,-5.88 -86.43,-18.76 -28.22,-16.45 -42.29,-42.95 -42.21,-79.43 0,-44.74 25.68,-80.48 76.97,-107.13 43.7,-22.71 93.58,-34.1 149.64,-34.1 30.82,0 56.58,5.29 77.2,15.93zm-82.63 150.39c0.37,-0.6 4.54,-8.04 12.5,-22.34l37.67 -67c4.55,-8.11 5.14,-15.11 1.79,-20.92 -3.2,-5.66 -9.08,-8.49 -17.42,-8.49 -16.23,-0.07 -28.51,7.45 -36.85,22.56 -2.83,4.99 -7.07,12.43 -12.66,22.41l-37.59 66.93c-4.54,8.11 -5.14,15.11 -1.86,20.84 3.27,5.73 9.08,8.64 17.42,8.64 8.41,0 15.78,-1.94 21.96,-5.88 5.81,-3.73 10.79,-9.31 15.04,-16.75zm413.85 -5.66l143.9 -157.53 78.99 0 -235.1 230.93 -139.74 0 9.6 -227.66 152.02 -3.27 -9.67 157.53zm523.21 -22.63l-218.13 0 -11.54 20.54c-4.47,8.04 -5.28,15.12 -2.31,21.22 3.13,6.48 9.31,9.6 18.54,9.46l181.35 -3.43 -27.02 48.24 -184.48 0c-36.93,0 -68.04,-7.07 -93.58,-21.21 -30.45,-16.98 -45.71,-41.1 -45.71,-72.37 0,-45.56 27.32,-82.41 82.04,-110.4 46.68,-23.9 99.01,-35.88 157.08,-35.88 43.33,0 78.62,6.03 105.79,18.09 35.36,15.63 53.38,40.42 53.98,74.29 0.14,8.49 -1.2,17.05 -4.1,25.69 -2.46,7.37 -6.48,15.93 -11.91,25.76zm-193.04 -45.12l58.81 0 5.96 -10.57 5.95 -10.65c4.69,-8.48 5.36,-15.78 1.94,-21.66 -3.35,-5.88 -9.46,-8.86 -18.24,-8.93 -16.75,-0.15 -29.63,7.74 -38.56,23.6l-15.86 28.21zm246.86 141.15c-25.01,0 -42.29,-8.19 -51.89,-24.64 -4.39,-7.44 -6.55,-15.11 -6.55,-23 0,-8.49 2.53,-17.27 7.52,-26.21l131.84 -235.1 171.31 -3.72 -136.76 243.59c-3.72,6.77 -4.39,12.43 -1.94,17.12 2.46,4.54 7.15,6.85 14.07,6.85l70.8 0 -25.09 45.11 -173.31 0z"/>
   <path class="fil3" d="M5899.32 1715.93c30.21,-3.28 186.26,-73.94 312.8,-102.12 59.5,-13.26 209.69,-53.51 268.49,-39.14 35.3,8.72 54.28,31.32 69.27,49.11 -1.81,1.61 -14.93,11.44 -24.97,20.37l-40.6 47.23c-31.95,48.34 -8.72,34.94 -57.2,66.96l49.53 -106.59c1.6,-3.06 4.53,-8.37 5.86,-10.81 1.39,-2.51 4.32,-7.32 6.48,-10.95l-58.17 12.98c-35.86,19.32 -73.25,20.5 -117.89,34.39l-328.15 132.67c29.23,-0.62 20.86,6.49 41.79,27.07 49.81,48.97 45.9,60.97 135.68,90.75 2.37,1.89 6,1.47 7.04,5.72 1.33,5.1 6.14,5.38 7.96,7.54l30.06 38.78c-101.01,-1.67 -206.13,-63.61 -244.57,-124.03 -19.04,-29.99 -12.98,-3.97 -3.35,-26.23l-28.88 18c-21.2,14.09 -11.44,7.12 -27.34,19.12 -337.98,-8.09 -422.04,-390.23 -752.9,-387.37 -12.42,-17.37 -90.54,-55.39 68.85,-109.38 172.44,-58.38 331.36,-104.49 534.21,-87.47 -32.86,49.39 48.41,22.25 -78.97,36.06 -285.38,30.7 -350.39,106.38 -462.56,120.47l273.31 142.45c129.4,56.78 76.73,41.3 180.46,119.63 51.9,39.21 75.06,56.92 149.14,89.08 25.26,-39.97 34.74,-58.59 84.62,-74.29z"/>
   <path class="fil3" d="M6612.99 1539.81c23.8,40.52 145.38,79.38 203.04,109.67l280.64 155.49c43.67,23.33 45.64,30.47 79.92,54.93 -13.1,-49.28 -56.42,-96.58 -95.4,-130.15l-32.72 -27.43c-25.89,-18.51 -24.82,-14.04 -48.86,-27.14l-133.89 -71.52 -19.7 -6.85c56.95,-7.2 66.41,10 120.15,22.67l92.89 57.25c11.78,8.81 30.94,25.05 40.88,34.28 103.6,95.69 136.69,94.61 136.69,238.92 -82.12,8.21 -33.74,2.62 -94.38,-55.76 -65.28,-62.84 -588.59,-364.54 -705.76,-376.26 -13.68,-17.56 -6.19,-11.25 -32.43,-27.56 -14.04,-8.74 -21.07,-8.03 -38.92,-17.43 98.73,0.18 141.75,63.43 247.85,66.89z"/>
   <path class="fil3" d="M5128.27 1978.34c-5.45,-0.07 -34.98,0.94 -37.63,-0.7 -3.19,-2.02 -8.96,-96.76 -9.27,-104.31 -0.7,-21.19 -3.19,-49.71 -5.14,-68.4 -2.42,-23.38 -2.57,-46.67 -5.22,-70.28l-30.93 -410.25c-1.32,-20.18 -4.05,-42.61 -5.3,-65.29 -1.24,-23.37 -2.57,-46.12 -4.75,-67.93 -4.6,-46.2 -6.08,-94.5 -10.98,-140.7l-9.9 -135.71 30.7 -4.52c1.4,23.61 3.89,47.13 6,69.49 3.42,36.78 6.31,98.17 10.9,133.77 4.91,37.94 5.61,90.14 10.99,133.84 2.65,21.66 3.11,45.11 5.68,68.01l10.91 130.96c1.01,21.74 3.97,45.42 5.38,65.68 0.78,11.61 2.18,22.59 2.96,33.65 0.78,11.22 1.32,23.38 2.57,34.44 4.98,45.65 6.31,91.62 11.29,136.26 4.99,44.25 5.69,90.99 10.99,133.68 2.8,23.06 3.43,43.24 5.37,65.68 1.95,22.36 4.21,41.6 5.38,62.63z"/>
  </g>
 </g>
</svg>
