<?xml version="1.0" encoding="UTF-8"?>
<!DOCTYPE svg PUBLIC "-//W3C//DTD SVG 1.1//EN" "http://www.w3.org/Graphics/SVG/1.1/DTD/svg11.dtd">
<!-- Creator: CorelDRAW 2017 -->
<svg xmlns="http://www.w3.org/2000/svg" xml:space="preserve" width="60mm" height="60mm" version="1.1" style="shape-rendering:geometricPrecision; text-rendering:geometricPrecision; image-rendering:optimizeQuality; fill-rule:evenodd; clip-rule:evenodd"
viewBox="0 0 6000 6000"
 xmlns:xlink="http://www.w3.org/1999/xlink">
 <defs>
  <style type="text/css">
   <![CDATA[
    .fil6 {fill:#020202}
    .fil2 {fill:#030303}
    .fil4 {fill:#231D1F}
    .fil0 {fill:#6A4339}
    .fil3 {fill:#89654F}
    .fil5 {fill:#BD3415}
    .fil1 {fill:#D5B9AE}
    .fil7 {fill:#F0C84E}
    .fil9 {fill:#FE7F2E}
    .fil8 {fill:white}
    .fil10 {fill:#373435;fill-rule:nonzero}
   ]]>
  </style>
 </defs>
 <g id="Capa_x0020_1">
  <metadata id="CorelCorpID_0Corel-Layer"/>
  <g id="_1752449939536">
   <path class="fil0" d="M2068.34 2582.97c-224.71,34.15 -386.73,64.14 -627.75,64.76 -247.36,0.64 -409.6,-34.25 -637.6,-66.31 32.22,34.42 81.61,60.44 124.07,82.63 350.17,182.99 832.71,147.99 1117.06,-60.43 2.62,-1.92 5.68,-4.57 8.04,-6.41l16.18 -14.24z"/>
   <path class="fil0" d="M2225.89 591.88l179.97 96.84c100.76,-219.85 -51.62,-408.39 -179.97,-96.84z"/>
   <path class="fil0" d="M462.94 687.64l180.96 -92.74c-84.86,-267.78 -293.03,-178.31 -180.96,92.74z"/>
   <path class="fil1" d="M1366.77 2888.62c-454.57,116 -570.86,906.98 163.53,824.65 668.68,-74.97 284.33,-938.93 -163.53,-824.65z"/>
   <path class="fil1" d="M1362.79 1412.58c-174.91,21.4 -357.31,151.94 -321.01,346.21 32.19,172.25 257.38,270.31 448.76,245.81 511.69,-65.51 384.48,-654.67 -127.75,-592.02z"/>
   <path class="fil2" d="M802.99 2581.42c228,32.06 390.24,66.95 637.6,66.31 241.02,-0.62 403.04,-30.61 627.75,-64.76l265.43 -86.62c132.78,172.82 207.94,289.13 279.44,560.87 26.4,100.31 69.49,248.52 27.07,342.16 -42.08,92.89 -140.35,148.91 -280.43,134.01 -12.78,-110.27 -11.53,-238.77 -20.63,-351.91 -4.45,-55.29 -10.25,-110.43 -16.48,-165.3 -8.52,-75.04 3.92,-119.61 -63.5,-119.18 -29.99,52.8 12.03,270.8 18.86,354.98 35.3,435.63 8.03,559.99 -29.3,956.2 -8.5,90.23 41,73.35 14.64,161.29 -82.2,126.24 -643.58,37.21 -784.6,-8.62l6.56 -507.27c76.73,-8.93 326.45,-39.1 308.31,-138.4 -53.37,-16.96 -118.14,25.25 -170.79,40.93 -61.86,18.43 -114.75,28.45 -182.07,28.24 -200.03,-0.6 -305.45,-96.57 -334.4,-60.72 -33.48,99.49 213.44,119.48 304.02,131.61l2.16 497.89c-117.7,61.71 -719.17,136.65 -793.67,14.46 -28.92,-84.95 25.98,-67.79 13,-169.51 -46.92,-367.74 -53.48,-577.84 -27.62,-954.67 5.64,-82.03 49.32,-294.95 18.28,-346.79 -67.47,2.5 -54.93,46.16 -63.27,119.64 -20.82,183.4 -20.74,376.79 -37.75,518.32 -379.73,25.54 -299.2,-295.77 -250.54,-486.75 64.7,-253.91 138.54,-367.67 277.49,-550.43 27.2,4.7 224.36,71.11 254.44,84.02zm1306.7 -2036.14c31.63,-94.04 184.02,-280.76 325.55,-242.84 156.14,41.83 158.27,248.84 112.44,407.35 -22,76.07 25.61,127.58 57.95,202.32 425.49,983.34 136.44,1663.71 -1152.67,1668.93 -719.67,2.91 -1396.74,-206.98 -1366.6,-962.2 19.44,-487.15 269.18,-795.52 242.53,-904.31 -41.35,-168.86 -50.84,-373.76 115.72,-413.28 155.48,-36.89 263.73,151.22 327.71,241.39 96.07,-8 209.54,-40.23 321.79,-49.71 439.96,-37.17 589.95,-8.39 1015.58,52.35zm-1621.71 1912.47c-31.89,71.54 -188.01,178.14 -293.88,623.45 -63.95,268.98 -65.1,513.93 325.78,521.67 17.38,135.37 9.78,302.09 24.69,444.11 7.39,70.38 29.31,145.52 13.49,214.74 -18.01,78.79 -16.19,148.62 42.58,189.09 86.1,59.29 314.63,47.49 431.7,39.53 73.68,-5.02 143.57,-12.4 212.59,-23.85 345.23,-57.28 40.01,-61.36 381.44,-1.79 152.85,26.67 543.1,62.82 654.62,-13.38 52.09,-35.59 64.86,-103.11 46.17,-179.65 -19.22,-78.67 0.26,-128.7 8.81,-208.78 16.12,-151.1 8.72,-316.1 25.76,-458.9 348.51,-20.51 404.6,-181.1 328.6,-513.3 -27.78,-121.38 -67.11,-235.25 -114.77,-342.17 -25.02,-56.13 -53.92,-106.14 -82.92,-152.19 -29.81,-47.35 -80.35,-97.42 -97.52,-136.04 157.46,-115.13 219.86,-136.9 323.97,-293.21 246.46,-370.03 115.17,-884.88 -44.5,-1262.37 -46.82,-110.7 -76.6,-109.77 -49.07,-227.8 113.2,-485.44 -343.25,-601.01 -551.74,-208.31 -364.28,-51.39 -622.95,-76.86 -987.61,-42.06 -90.08,8.6 -201.8,34.89 -285.58,39.32 -56.75,-89.72 -132.11,-189.23 -245.76,-224.92 -150.02,-47.1 -263.05,56.28 -299.84,154.96 -56.35,151.15 36.53,310.07 -9.8,411.04 -52.94,115.39 -92.22,209.73 -134.14,336.33 -80.92,244.32 -129.98,547.02 -53.68,807.05 67.81,231.13 238.96,425.01 430.61,507.43z"/>
   <path class="fil2" d="M1875.74 1318.65c-194.48,58.12 -104.07,320.29 76.19,266.87 166.6,-49.37 92.69,-317.34 -76.19,-266.87z"/>
   <path class="fil2" d="M937.56 1320.11c-190.43,58.39 -95.89,322.99 84.11,263.67 159.04,-52.42 91.8,-317.6 -84.11,-263.67z"/>
   <path class="fil3" d="M1362.79 1412.58c512.23,-62.65 639.44,526.51 127.75,592.02 -191.38,24.5 -416.57,-73.56 -448.76,-245.81 -36.3,-194.27 146.1,-324.81 321.01,-346.21zm512.95 -93.93c168.88,-50.47 242.79,217.5 76.19,266.87 -180.26,53.42 -270.67,-208.75 -76.19,-266.87zm-938.18 1.46c175.91,-53.93 243.15,211.25 84.11,263.67 -180,59.32 -274.54,-205.28 -84.11,-263.67zm1288.33 -728.23c128.35,-311.55 280.73,-123.01 179.97,96.84l-179.97 -96.84zm-1762.95 95.76c-112.07,-271.05 96.1,-360.52 180.96,-92.74l-180.96 92.74zm1646.75 -142.36c-425.63,-60.74 -575.62,-89.52 -1015.58,-52.35 -112.25,9.48 -225.72,41.71 -321.79,49.71 -63.98,-90.17 -172.23,-278.28 -327.71,-241.39 -166.56,39.52 -157.07,244.42 -115.72,413.28 26.65,108.79 -223.09,417.16 -242.53,904.31 -30.14,755.22 646.93,965.11 1366.6,962.2 1289.11,-5.22 1578.16,-685.59 1152.67,-1668.93 -32.34,-74.74 -79.95,-126.25 -57.95,-202.32 45.83,-158.51 43.7,-365.52 -112.44,-407.35 -141.53,-37.92 -293.92,148.8 -325.55,242.84z"/>
   <path class="fil3" d="M1366.77 2888.62c447.86,-114.28 832.21,749.68 163.53,824.65 -734.39,82.33 -618.1,-708.65 -163.53,-824.65zm701.57 -305.65l-16.18 14.24c-2.36,1.84 -5.42,4.49 -8.04,6.41 -284.35,208.42 -766.89,243.42 -1117.06,60.43 -42.46,-22.19 -91.85,-48.21 -124.07,-82.63 -30.08,-12.91 -227.24,-79.32 -254.44,-84.02 -138.95,182.76 -212.79,296.52 -277.49,550.43 -48.66,190.98 -129.19,512.29 250.54,486.75 17.01,-141.53 16.93,-334.92 37.75,-518.32 8.34,-73.48 -4.2,-117.14 63.27,-119.64 31.04,51.84 -12.64,264.76 -18.28,346.79 -25.86,376.83 -19.3,586.93 27.62,954.67 12.98,101.72 -41.92,84.56 -13,169.51 74.5,122.19 675.97,47.25 793.67,-14.46l-2.16 -497.89c-90.58,-12.13 -337.5,-32.12 -304.02,-131.61 28.95,-35.85 134.37,60.12 334.4,60.72 67.32,0.21 120.21,-9.81 182.07,-28.24 52.65,-15.68 117.42,-57.89 170.79,-40.93 18.14,99.3 -231.58,129.47 -308.31,138.4l-6.56 507.27c141.02,45.83 702.4,134.86 784.6,8.62 26.36,-87.94 -23.14,-71.06 -14.64,-161.29 37.33,-396.21 64.6,-520.57 29.3,-956.2 -6.83,-84.18 -48.85,-302.18 -18.86,-354.98 67.42,-0.43 54.98,44.14 63.5,119.18 6.23,54.87 12.03,110.01 16.48,165.3 9.1,113.14 7.85,241.64 20.63,351.91 140.08,14.9 238.35,-41.12 280.43,-134.01 42.42,-93.64 -0.67,-241.85 -27.07,-342.16 -71.5,-271.74 -146.66,-388.05 -279.44,-560.87l-265.43 86.62z"/>
   <path class="fil4" d="M1423.93 1730.08c17.41,-9.21 4.92,-3.37 26.05,-9.18 200.88,-55.3 118.86,-209.57 -28.99,-218.99 -74.75,-4.75 -156.24,26.98 -174.43,86.27 -27.29,88.99 58.62,106.51 110.52,135.33l7.97 110.21c-77.2,-17.19 -72.81,-36.55 -100.73,-51.08 -46.15,-24.01 -65.01,34.33 -41.13,60.55 41.25,45.31 138.19,74.78 222.61,71.35 213.37,-8.66 230.99,-148.78 151.49,-131.85 -20.51,4.37 -70.73,65.36 -164.98,56.53l-8.38 -109.14z"/>
   <path class="fil5" d="M4730.77 4310.16c13.03,61.36 96.87,192.62 51.71,246.77 -79.27,90.89 -259.79,-8.22 -266.41,-154.49l-111.65 27.67 32.31 3.26c34.88,155.5 128.95,256.01 319.09,228.77 204.11,-29.24 80.39,-255.2 49.77,-378.96 51.29,43.73 9.35,51.5 100.29,43.16 144.69,-13.29 218.31,-95.09 231.53,-252.7l116.48 -33.4c64.11,-139.48 1.97,-394.24 -95.15,-448.46 -25.34,278.14 -137.98,501.05 -347.13,662.77 -38.02,29.4 -46.36,23.84 -80.84,55.61z"/>
   <path class="fil6" d="M4458.1 2577.09c799.75,235.23 991.18,1856.43 -387.25,1799.29 -549.59,-22.78 -912.71,-246.99 -897.17,-822.18 12.07,-447.05 291.47,-996.17 728.19,-994.2 52.56,-11.69 36.52,-4.66 58.01,-73.82 10.36,-33.36 13.88,-43.36 29.98,-75.94 106.9,-216.26 151.32,-67.14 239.68,-1.32 190.16,-145.95 244.13,-68.03 228.56,168.17zm-990.63 1732.98c43.87,13.36 56.4,16.16 87.71,43.23 65.09,12.64 141.8,48.37 216.76,62.91l93.9 16.24c195.59,30.38 345.83,22.94 538.58,-2.34l111.65 -27.67 214.7 -92.28c34.48,-31.77 42.82,-26.21 80.84,-55.61 209.15,-161.72 321.79,-384.63 347.13,-662.77 -2.24,-439.22 -206.13,-920.84 -613.02,-1057.67 -5.9,-218.68 -82.21,-344.48 -301.91,-232.54 -102.39,-62.19 -183.18,-177.24 -312.25,51.02 -13.72,24.26 -17.55,35.45 -29.05,63.4 -43.83,106.49 -52.19,53.83 -179.93,99.3 -155.34,55.31 -227.45,128.4 -327.76,229.79 -297.74,300.93 -477.65,1130.03 -29.43,1488.57 38.19,30.55 73.86,45.52 102.08,76.42z"/>
   <path class="fil6" d="M5044.28 2582.83c270.67,-7.03 179.24,82.71 414.41,72.3 396.2,-17.55 609.05,-501.7 307.75,-804.83 -360.11,-362.29 -979.1,53.95 -751.54,539.23 40.57,86.51 23.22,90.66 29.38,193.3zm-72.57 74.08c-18.61,-96.13 13.89,-145.92 -27.22,-237.09 -32.49,-72.08 -51.26,-134.25 -52.98,-221.74 -9.78,-497.55 577.28,-727.53 923.85,-410 330.41,302.72 144.47,937.31 -370.18,943.18 -84.3,0.96 -155.36,-14.04 -222.72,-44.51 -97,-43.88 -135.47,-26.65 -250.75,-29.84z"/>
   <path class="fil6" d="M5513.28 2257.98l-83.08 59.82c39.17,27.25 29.12,22.53 86.29,12.62l-3.21 -72.44zm-144.17 -10.17c40.18,-8.48 66.04,-21.26 86.26,-58.88 -70.56,-35.98 -97.57,-23.9 -86.26,58.88zm235.24 44.08c99.22,-84.35 38,-255.69 -70,-290.52 -139.69,-45.05 -282.95,53.2 -259.18,197.35 39.81,-42.66 49.68,-163.64 222.96,-73.34 56.33,-34.51 1.49,-58.74 91.9,-44.97 17.43,104.33 -55.08,64.59 14.32,211.48zm-171.15 131.09c-26.7,-40.62 -183.58,-129.47 -213.21,-172.35 -70.24,-101.62 2.66,-223.7 60.7,-269.61 182.94,-144.72 453.44,-43.14 448.45,204.16 -3.14,155.66 -83.21,165.13 -166.36,223.85 -56.48,39.87 -133.93,148.31 -266.13,97.24 -64.37,-24.86 -227.93,-208.76 -106.76,-200.45 70.96,4.87 53.05,186.16 243.31,117.16z"/>
   <path class="fil7" d="M4008.41 3365.6c192.57,-44.76 392.05,18.77 474.57,135.45 126.2,178.45 -92.79,315.37 -241.1,344.06 -471.25,91.16 -729.68,-364.18 -233.47,-479.51zm344.72 -209.12c148.85,-80.74 236.08,130.78 116.83,199.44 -62.83,36.18 -138.55,5.19 -162.74,-38.25 -20.25,-36.35 -22.05,-65.55 -9.57,-105.16 15.62,-49.55 25.66,-39.86 55.48,-56.03zm-571.6 -1.29c157.16,-76.26 232.21,142.07 107.18,203.85 -76.64,37.87 -143.34,-7.14 -162.33,-57.79 -27.36,-72.98 -0.82,-118.9 55.15,-146.06zm676.57 -578.1c-94.38,-13.83 -205.51,-8.35 -300.86,16.12 -91.88,23.57 -165.52,90.95 -254.38,75.24l-0.99 -108.45c-436.72,-1.97 -716.12,547.15 -728.19,994.2 -15.54,575.19 347.58,799.4 897.17,822.18 1378.43,57.14 1187,-1564.06 387.25,-1799.29z"/>
   <path class="fil8" d="M5433.2 2422.98c-190.26,69 -172.35,-112.29 -243.31,-117.16 -121.17,-8.31 42.39,175.59 106.76,200.45 132.2,51.07 209.65,-57.37 266.13,-97.24 83.15,-58.72 163.22,-68.19 166.36,-223.85 4.99,-247.3 -265.51,-348.88 -448.45,-204.16 -58.04,45.91 -130.94,167.99 -60.7,269.61 29.63,42.88 186.51,131.73 213.21,172.35zm-388.92 159.85c-6.16,-102.64 11.19,-106.79 -29.38,-193.3 -227.56,-485.28 391.43,-901.52 751.54,-539.23 301.3,303.13 88.45,787.28 -307.75,804.83 -235.17,10.41 -143.74,-79.33 -414.41,-72.3z"/>
   <path class="fil8" d="M5604.35 2291.89c-69.4,-146.89 3.11,-107.15 -14.32,-211.48 -90.41,-13.77 -35.57,10.46 -91.9,44.97 -173.28,-90.3 -183.15,30.68 -222.96,73.34 -23.77,-144.15 119.49,-242.4 259.18,-197.35 108,34.83 169.22,206.17 70,290.52z"/>
   <path class="fil8" d="M5455.37 2188.93c-20.22,37.62 -46.08,50.4 -86.26,58.88 -11.31,-82.78 15.7,-94.86 86.26,-58.88z"/>
   <path class="fil8" d="M5516.49 2330.42c-57.17,9.91 -47.12,14.63 -86.29,-12.62l83.08 -59.82 3.21 72.44z"/>
   <path class="fil5" d="M4425.5 3647.15c-107.83,215.44 -680.88,134.64 -595.88,-82.6 37.19,-95.04 202.44,-140.08 348.46,-129.89 113.73,7.93 307.51,92.43 247.42,212.49zm-417.09 -281.55c-496.21,115.33 -237.78,570.67 233.47,479.51 148.31,-28.69 367.3,-165.61 241.1,-344.06 -82.52,-116.68 -282,-180.21 -474.57,-135.45z"/>
   <path class="fil5" d="M3865.84 4432.45l-93.9 -16.24c3.05,111.24 -192.4,217.4 -264.63,153.98 -35.35,-33.25 -13.19,-77.34 0.4,-120.64 13.48,-42.93 13.53,-77.35 47.47,-96.25 -31.31,-27.07 -43.84,-29.87 -87.71,-43.23 -36.12,123.77 -139.71,344.28 71.83,354.98 186.7,9.44 271.59,-94.07 326.54,-232.6z"/>
   <path class="fil6" d="M4353.13 3156.48c-29.82,16.17 -39.86,6.48 -55.48,56.03 -12.48,39.61 -10.68,68.81 9.57,105.16 24.19,43.44 99.91,74.43 162.74,38.25 119.25,-68.66 32.02,-280.18 -116.83,-199.44z"/>
   <path class="fil6" d="M3781.53 3155.19c-55.97,27.16 -82.51,73.08 -55.15,146.06 18.99,50.65 85.69,95.66 162.33,57.79 125.03,-61.78 49.98,-280.11 -107.18,-203.85z"/>
   <path class="fil9" d="M4425.5 3647.15c60.09,-120.06 -133.69,-204.56 -247.42,-212.49 -146.02,-10.19 -311.27,34.85 -348.46,129.89 -85,217.24 488.05,298.04 595.88,82.6z"/>
   <path class="fil9" d="M3901.87 2560l0.99 108.45c88.86,15.71 162.5,-51.67 254.38,-75.24 95.35,-24.47 206.48,-29.95 300.86,-16.12 15.57,-236.2 -38.4,-314.12 -228.56,-168.17 -88.36,-65.82 -132.78,-214.94 -239.68,1.32 -16.1,32.58 -19.62,42.58 -29.98,75.94 -21.49,69.16 -5.45,62.13 -58.01,73.82z"/>
   <path class="fil9" d="M4516.07 4402.44c6.62,146.27 187.14,245.38 266.41,154.49 45.16,-54.15 -38.68,-185.41 -51.71,-246.77l-214.7 92.28z"/>
   <path class="fil9" d="M3771.94 4416.21c-74.96,-14.54 -151.67,-50.27 -216.76,-62.91 -33.94,18.9 -33.99,53.32 -47.47,96.25 -13.59,43.3 -35.75,87.39 -0.4,120.64 72.23,63.42 267.68,-42.74 264.63,-153.98z"/>
   <path class="fil10" d="M302.3 5291.66c2.54,3.17 3.96,7.13 4.28,11.88 0.32,4.76 -0.47,8.72 -2.38,11.89 -3.16,6.97 -8.55,9.5 -16.15,7.6 -13.31,-3.17 -27.25,-4.44 -41.82,-3.8 -14.58,0.63 -29.15,6.33 -43.72,17.11 -14.58,10.77 -25.98,26.45 -34.22,47.04 -8.24,20.6 -12.36,41.98 -12.36,64.16 0,21.54 5.23,40.08 15.69,55.6 10.45,15.53 23.92,26.77 40.39,33.74 10.14,4.44 21.54,6.97 34.22,7.61 12.67,0.63 25.5,0.15 38.49,-1.43 12.99,-1.58 25.82,-4.12 38.49,-7.6 12.68,-3.49 24.72,-7.45 36.12,-11.88 3.8,-1.27 7.45,-0.95 10.93,0.95 3.49,1.9 5.86,4.43 7.13,7.6 3.17,8.24 1.58,16.48 -4.75,24.71 -7.61,8.24 -17.74,15.53 -30.42,21.86 -12.67,6.34 -26.61,11.41 -41.82,15.21 -15.2,3.8 -30.73,5.86 -46.57,6.18 -15.84,0.32 -30.73,-1.43 -44.67,-5.23 -19.64,-5.07 -36.28,-12.51 -49.9,-22.33 -13.62,-9.83 -24.87,-21.23 -33.74,-34.22 -8.87,-12.99 -15.53,-26.93 -19.96,-41.82 -4.44,-14.89 -6.97,-30.26 -7.6,-46.1 -1.27,-38.02 6.17,-72.23 22.33,-102.65 16.16,-30.41 38.81,-52.91 67.96,-67.48 21.54,-10.77 43.24,-15.05 65.11,-12.83 21.86,2.22 38.17,10.29 48.94,24.23zm196.75 -73.18c0,15.21 -0.16,32.31 -0.47,51.32 -0.32,19.01 -0.32,38.66 0,58.93 0.31,20.28 0.63,41.19 0.95,62.73 0.31,21.55 0.79,42.14 1.42,61.78 6.34,-12.67 13.94,-25.18 22.81,-37.54 8.87,-12.36 18.85,-23.29 29.94,-32.79 11.09,-9.51 22.81,-17.11 35.17,-22.81 12.36,-5.71 25.82,-8.56 40.39,-8.56 15.85,0 29.94,5.07 42.3,15.21 12.36,10.14 23.13,23.6 32.32,40.4 9.18,16.79 16.95,35.48 23.28,56.07 6.34,20.6 11.57,41.51 15.68,62.73 4.12,21.23 7.13,41.51 9.03,60.83 1.9,19.33 3.49,35.96 4.76,49.9 0,10.14 -2.54,18.38 -7.61,24.71 -5.07,6.34 -11.09,9.51 -18.06,9.51 -5.07,0 -11.24,-3.33 -18.53,-9.98 -7.29,-6.66 -12.52,-14.73 -15.68,-24.24 -1.9,-7.6 -3.81,-18.69 -5.71,-33.26 -1.9,-14.58 -4.11,-30.26 -6.65,-47.05 -2.53,-16.79 -5.7,-33.74 -9.5,-50.85 -3.81,-17.11 -8.4,-32.48 -13.79,-46.1 -5.38,-13.62 -11.88,-24.24 -19.48,-31.84 -7.6,-7.6 -16.47,-10.46 -26.61,-8.55 -15.84,3.16 -29.63,14.25 -41.35,33.26 -11.72,19.01 -21.86,40.55 -30.41,64.63 -8.56,24.08 -15.53,48.48 -20.91,73.19 -5.39,24.71 -9.35,44.67 -11.88,59.88 -2.54,11.4 -5.86,19.17 -9.98,23.28 -4.12,4.12 -8.72,6.18 -13.78,6.18 -5.07,0 -9.67,-2.53 -13.79,-7.6 -4.12,-5.07 -7.92,-11.25 -11.4,-18.54 -3.49,-7.28 -6.5,-14.89 -9.03,-22.81 -2.54,-7.92 -4.12,-14.73 -4.75,-20.43 -3.17,-34.22 -5.71,-67.01 -7.61,-98.37 -1.9,-31.37 -3.32,-62.89 -4.27,-94.58 -0.95,-31.68 -1.43,-64.15 -1.43,-97.42 0,-33.26 0.63,-68.91 1.9,-106.92 0,-31.69 11.41,-45.94 34.22,-42.77 7.6,1.26 14.25,6.81 19.96,16.63 5.7,9.82 8.55,20.43 8.55,31.84zm544.61 89.34c19.01,6.97 35.01,17.43 48,31.37 12.99,13.94 22.97,29.62 29.94,47.04 6.97,17.43 10.93,35.33 11.88,53.71 0.95,18.37 -1.11,35.48 -6.17,51.32 -6.97,17.74 -15.85,35.17 -26.62,52.28 -10.77,17.1 -23.13,32.31 -37.07,45.62 -13.94,13.3 -29.78,24.08 -47.52,32.31 -17.74,8.24 -37.38,12.36 -58.93,12.36 -25.98,0 -47.84,-6.02 -65.58,-18.06 -17.74,-12.04 -31.68,-27.56 -41.82,-46.57 -10.14,-19.01 -16.63,-40.55 -19.48,-64.63 -2.85,-24.08 -2.38,-48.16 1.42,-72.24 2.54,-17.74 6.81,-35.01 12.83,-51.8 6.02,-16.79 13.78,-31.68 23.29,-44.67 9.5,-12.99 20.43,-23.6 32.79,-31.84 12.36,-8.24 26.45,-12.36 42.3,-12.36 8.87,0 19.96,1.75 33.26,5.23 13.31,3.49 25.66,8.4 37.07,14.73 8.24,-7.6 18.38,-8.87 30.41,-3.8zm-36.11 69.39c-6.97,-4.44 -15.05,-10.3 -24.24,-17.59 -9.19,-7.28 -17.27,-10.93 -24.24,-10.93 -7.6,0 -15.05,3.49 -22.33,10.46 -7.29,6.97 -13.63,15.05 -19.01,24.23 -5.39,9.19 -9.98,18.54 -13.78,28.04 -3.8,9.51 -6.34,17.11 -7.61,22.81 -1.9,9.51 -3.16,20.91 -3.8,34.22 -0.63,13.31 0.32,26.45 2.85,39.44 2.54,12.99 7.45,24.72 14.74,35.17 7.28,10.46 18.21,17.9 32.79,22.34 8.87,2.53 19.32,2.37 31.36,-0.48 12.04,-2.85 23.92,-8.08 35.64,-15.68 11.73,-7.6 22.81,-17.74 33.27,-30.42 10.45,-12.67 18.53,-27.24 24.24,-43.72 6.33,-18.37 6.49,-37.54 0.47,-57.5 -6.02,-19.96 -18.22,-34.37 -36.59,-43.25 -4.44,3.17 -8.87,4.76 -13.31,4.76 -4.43,0 -7.92,-0.64 -10.45,-1.9zm363.08 365.92c-0.64,6.97 -3.8,13.47 -9.51,19.49 -5.7,6.02 -12.04,8.71 -19.01,8.08 -10.77,-0.64 -19.01,-4.76 -24.71,-12.36 -5.7,-7.6 -8.55,-13.94 -8.55,-19.01 0,-24.08 -0.64,-49.26 -1.9,-75.56 -1.27,-26.3 -2.86,-53.38 -4.76,-81.27 -8.23,1.27 -15.68,0.48 -22.33,-2.37 -6.66,-2.85 -11.25,-7.45 -13.78,-13.78 -4.44,-10.77 -3.81,-20.28 1.9,-28.52 5.7,-8.23 14.89,-16.15 27.56,-23.76 -3.17,-23.44 -6.18,-46.57 -9.03,-69.38 -2.85,-22.81 -5.86,-44.99 -9.03,-66.53 -0.63,-3.81 -0.31,-7.29 0.95,-10.46 1.27,-3.17 2.85,-6.18 4.75,-9.03 1.91,-2.85 5.39,-5.54 10.46,-8.08 8.24,-3.17 17.58,-0.63 28.04,7.61 10.45,8.23 17.58,18.69 21.38,31.36 1.9,12.04 3.96,25.82 6.18,41.35 2.22,15.52 4.28,32.47 6.18,50.85 13.31,-8.24 25.82,-17.11 37.54,-26.62 11.73,-9.5 21.86,-19.64 30.42,-30.41 8.55,-10.77 15.05,-22.02 19.48,-33.74 4.44,-11.73 5.7,-23.92 3.8,-36.6 -1.26,-10.77 -6.02,-20.43 -14.25,-28.98 -8.24,-8.56 -21.23,-13.15 -38.97,-13.79 -15.84,-0.63 -31.53,0.64 -47.05,3.81 -15.52,3.16 -30.73,7.28 -45.62,12.35 -14.89,5.07 -29.47,11.09 -43.72,18.06 -14.26,6.97 -28.04,13.94 -41.35,20.91 -8.87,5.07 -17.58,7.13 -26.14,6.18 -8.55,-0.95 -14.09,-3.96 -16.63,-9.03 -5.7,-12.67 -5.23,-24.08 1.43,-34.22 6.65,-10.14 16.95,-19.64 30.89,-28.51 12.04,-6.97 26.45,-14.1 43.24,-21.39 16.79,-7.28 34.54,-13.62 53.23,-19.01 18.69,-5.38 37.7,-9.18 57.03,-11.4 19.32,-2.22 37.86,-1.9 55.6,0.95 17.74,2.85 33.74,8.87 48,18.06 14.25,9.19 25.82,22.65 34.69,40.39 10.77,29.15 13.78,55.92 9.03,80.32 -4.75,24.39 -14.26,46.57 -28.52,66.53 -14.25,19.96 -31.68,38.02 -52.27,54.17 -20.59,16.16 -41.35,30.58 -62.26,43.25 3.17,34.22 5.39,68.12 6.66,101.7 1.26,33.58 1.58,63.05 0.95,88.39zm363.08 0c-0.64,6.97 -3.8,13.47 -9.51,19.49 -5.7,6.02 -12.04,8.71 -19.01,8.08 -10.77,-0.64 -19.01,-4.76 -24.71,-12.36 -5.7,-7.6 -8.55,-13.94 -8.55,-19.01 0,-24.08 -0.64,-49.26 -1.9,-75.56 -1.27,-26.3 -2.86,-53.38 -4.76,-81.27 -8.23,1.27 -15.68,0.48 -22.33,-2.37 -6.66,-2.85 -11.25,-7.45 -13.78,-13.78 -4.44,-10.77 -3.81,-20.28 1.9,-28.52 5.7,-8.23 14.89,-16.15 27.56,-23.76 -3.17,-23.44 -6.18,-46.57 -9.03,-69.38 -2.85,-22.81 -5.86,-44.99 -9.03,-66.53 -0.63,-3.81 -0.31,-7.29 0.95,-10.46 1.27,-3.17 2.85,-6.18 4.75,-9.03 1.91,-2.85 5.39,-5.54 10.46,-8.08 8.24,-3.17 17.58,-0.63 28.04,7.61 10.45,8.23 17.58,18.69 21.38,31.36 1.9,12.04 3.96,25.82 6.18,41.35 2.22,15.52 4.28,32.47 6.18,50.85 13.31,-8.24 25.82,-17.11 37.54,-26.62 11.73,-9.5 21.86,-19.64 30.42,-30.41 8.55,-10.77 15.05,-22.02 19.48,-33.74 4.44,-11.73 5.7,-23.92 3.8,-36.6 -1.26,-10.77 -6.02,-20.43 -14.25,-28.98 -8.24,-8.56 -21.23,-13.15 -38.97,-13.79 -15.84,-0.63 -31.53,0.64 -47.05,3.81 -15.52,3.16 -30.73,7.28 -45.62,12.35 -14.89,5.07 -29.47,11.09 -43.72,18.06 -14.26,6.97 -28.04,13.94 -41.35,20.91 -8.87,5.07 -17.58,7.13 -26.14,6.18 -8.55,-0.95 -14.09,-3.96 -16.63,-9.03 -5.7,-12.67 -5.23,-24.08 1.43,-34.22 6.65,-10.14 16.95,-19.64 30.89,-28.51 12.04,-6.97 26.45,-14.1 43.24,-21.39 16.79,-7.28 34.54,-13.62 53.23,-19.01 18.69,-5.38 37.7,-9.18 57.03,-11.4 19.32,-2.22 37.86,-1.9 55.6,0.95 17.74,2.85 33.74,8.87 48,18.06 14.25,9.19 25.82,22.65 34.69,40.39 10.77,29.15 13.78,55.92 9.03,80.32 -4.75,24.39 -14.26,46.57 -28.52,66.53 -14.25,19.96 -31.68,38.02 -52.27,54.17 -20.59,16.16 -41.35,30.58 -62.26,43.25 3.17,34.22 5.39,68.12 6.66,101.7 1.26,33.58 1.58,63.05 0.95,88.39zm431.51 -326.96c-24.71,14.58 -51.32,25.83 -79.84,33.75 -28.51,7.92 -59.24,11.88 -92.19,11.88 1.26,22.17 7.6,39.76 19.01,52.75 11.4,12.99 25.66,20.75 42.77,23.28 10.14,1.27 20.43,0.95 30.89,-0.95 10.45,-1.9 20.27,-4.91 29.46,-9.03 9.19,-4.12 17.58,-8.71 25.19,-13.78 7.6,-5.07 14.26,-10.14 19.96,-15.21 5.7,-5.06 11.72,-8.39 18.06,-9.98 6.33,-1.58 11.09,-1.74 14.25,-0.47 8.87,3.17 12.04,12.67 9.51,28.51 -10.14,20.28 -24.71,37.55 -43.72,51.8 -19.01,14.26 -40.24,23.29 -63.68,27.09 -20.28,3.8 -41.19,2.85 -62.73,-2.85 -21.55,-5.7 -40.87,-16.79 -57.98,-33.27 -14.58,-14.57 -25.66,-31.68 -33.27,-51.32 -7.6,-19.64 -12.35,-39.92 -14.26,-60.83 -1.9,-19.64 -0.15,-38.34 5.23,-56.08 5.39,-17.74 13.78,-33.42 25.19,-47.05 11.4,-13.62 25.66,-24.87 42.77,-33.74 17.11,-8.87 37.07,-13.94 59.88,-15.2 27.25,-1.9 51.96,3.16 74.13,15.2 22.18,12.04 37.71,28.83 46.58,50.38 5.07,12.04 6.49,22.49 4.27,31.36 -2.21,8.87 -8.71,16.79 -19.48,23.76zm-109.3 -64.63c-6.34,1.27 -13.15,3.49 -20.44,6.66 -7.28,3.16 -13.94,7.12 -19.96,11.88 -6.02,4.75 -11.4,10.14 -16.16,16.15 -4.75,6.02 -7.44,12.84 -8.07,20.44 10.77,0 22.65,-0.95 35.64,-2.85 12.99,-1.9 25.66,-4.28 38.02,-7.13 12.35,-2.85 23.76,-6.18 34.21,-9.98 10.46,-3.8 19.17,-7.92 26.14,-12.36 -5.07,-12.03 -14.41,-19.48 -28.04,-22.33 -13.62,-2.85 -27.4,-3.01 -41.34,-0.48zm497.09 -39.92c-11.41,6.34 -23.29,12.99 -35.65,19.96 -12.35,6.97 -24.71,15.05 -37.06,24.24 -12.36,9.19 -24.08,19.96 -35.17,32.32 -11.09,12.35 -21.07,27.08 -29.94,44.19 -12.67,24.08 -21.23,48.63 -25.66,73.66 -4.44,25.03 -7.29,49.59 -8.56,73.66 0,11.41 -2.69,22.97 -8.08,34.7 -5.38,11.72 -12.83,17.58 -22.33,17.58 -12.04,0 -21.7,-6.18 -28.99,-18.54 -7.29,-12.35 -12.2,-24.23 -14.73,-35.64 -10.77,-44.99 -19.65,-89.5 -26.62,-133.54 -6.97,-44.03 -12.99,-87.91 -18.05,-131.64 0,-8.87 2.69,-14.57 8.07,-17.1 5.39,-2.54 11.57,-3.49 18.54,-2.86 7.6,0.64 14.89,2.54 21.86,5.71 6.97,3.17 11.09,8.23 12.36,15.2 2.53,23.45 5.7,48 9.5,73.67 3.8,25.66 7.6,47.68 11.41,66.05 2.53,-21.54 9.5,-42.45 20.91,-62.73 11.4,-20.27 25.5,-38.65 42.29,-55.12 16.79,-16.48 35.8,-30.42 57.03,-41.82 21.23,-11.41 42.93,-19.01 65.1,-22.82 9.51,-1.26 17.43,-1.26 23.77,0 6.33,1.27 10.77,3.49 13.3,6.66 2.54,3.17 3.01,8.23 1.43,15.2 -1.59,6.97 -6.5,13.31 -14.73,19.01z"/>
   <path class="fil10" d="M3494.1 5683.59c-0.64,6.97 -3.8,13.47 -9.51,19.49 -5.7,6.02 -12.04,8.71 -19.01,8.08 -10.77,-0.64 -19.01,-4.76 -24.71,-12.36 -5.7,-7.6 -8.55,-13.94 -8.55,-19.01 0,-24.08 -0.64,-49.26 -1.9,-75.56 -1.27,-26.3 -2.86,-53.38 -4.76,-81.27 -8.23,1.27 -15.68,0.48 -22.33,-2.37 -6.66,-2.85 -11.25,-7.45 -13.78,-13.78 -4.44,-10.77 -3.81,-20.28 1.9,-28.52 5.7,-8.23 14.89,-16.15 27.56,-23.76 -3.17,-23.44 -6.18,-46.57 -9.03,-69.38 -2.85,-22.81 -5.86,-44.99 -9.03,-66.53 -0.63,-3.81 -0.31,-7.29 0.95,-10.46 1.27,-3.17 2.85,-6.18 4.75,-9.03 1.91,-2.85 5.39,-5.54 10.46,-8.08 8.24,-3.17 17.58,-0.63 28.04,7.61 10.45,8.23 17.58,18.69 21.38,31.36 1.9,12.04 3.96,25.82 6.18,41.35 2.22,15.52 4.28,32.47 6.18,50.85 13.31,-8.24 25.82,-17.11 37.54,-26.62 11.73,-9.5 21.86,-19.64 30.42,-30.41 8.55,-10.77 15.05,-22.02 19.48,-33.74 4.44,-11.73 5.7,-23.92 3.8,-36.6 -1.26,-10.77 -6.02,-20.43 -14.25,-28.98 -8.24,-8.56 -21.23,-13.15 -38.97,-13.79 -15.84,-0.63 -31.53,0.64 -47.05,3.81 -15.52,3.16 -30.73,7.28 -45.62,12.35 -14.89,5.07 -29.47,11.09 -43.72,18.06 -14.26,6.97 -28.04,13.94 -41.35,20.91 -8.87,5.07 -17.58,7.13 -26.14,6.18 -8.55,-0.95 -14.09,-3.96 -16.63,-9.03 -5.7,-12.67 -5.23,-24.08 1.43,-34.22 6.65,-10.14 16.95,-19.64 30.89,-28.51 12.04,-6.97 26.45,-14.1 43.24,-21.39 16.79,-7.28 34.54,-13.62 53.23,-19.01 18.69,-5.38 37.7,-9.18 57.03,-11.4 19.32,-2.22 37.86,-1.9 55.6,0.95 17.74,2.85 33.74,8.87 48,18.06 14.25,9.19 25.82,22.65 34.69,40.39 10.77,29.15 13.78,55.92 9.03,80.32 -4.75,24.39 -14.26,46.57 -28.52,66.53 -14.25,19.96 -31.68,38.02 -52.27,54.17 -20.59,16.16 -41.35,30.58 -62.26,43.25 3.17,34.22 5.39,68.12 6.66,101.7 1.26,33.58 1.58,63.05 0.95,88.39zm361.18 -491.39c-1.27,6.34 -5.71,9.83 -13.31,10.46 -7.6,0.63 -13.94,0.95 -19.01,0.95 -15.84,0.63 -32.16,2.22 -48.95,4.75 -16.79,2.54 -34.37,6.34 -52.75,11.41 -7.6,2.53 -15.84,1.58 -24.71,-2.85 -8.87,-4.44 -14.26,-13.31 -16.16,-26.62 0,-5.07 1.9,-9.18 5.7,-12.35 3.81,-3.17 8.24,-6.02 13.31,-8.56 8.24,-3.8 18.06,-7.12 29.46,-9.98 11.41,-2.85 22.97,-4.91 34.7,-6.17 11.72,-1.27 22.97,-1.75 33.74,-1.43 10.77,0.32 19.64,1.43 26.61,3.33 10.14,3.17 18.22,7.92 24.24,14.25 6.02,6.34 8.39,13.94 7.13,22.81zm-21.86 316.51c4.43,10.14 6.81,21.07 7.12,32.79 0.32,11.72 -3.01,19.8 -9.98,24.24 -8.87,5.7 -18.37,5.38 -28.51,-0.95 -10.14,-6.34 -17.74,-14.9 -22.81,-25.67 -6.97,-13.3 -12.36,-29.62 -16.16,-48.95 -3.8,-19.32 -6.65,-38.49 -8.55,-57.5 -1.9,-19.01 -3.01,-36.75 -3.33,-53.22 -0.32,-16.48 -0.47,-28.84 -0.47,-37.07 0.63,-8.87 3.16,-17.11 7.6,-24.71 4.43,-7.61 10.14,-12.04 17.11,-13.31 11.4,0.63 20.59,5.86 27.56,15.68 6.97,9.82 10.14,22.02 9.51,36.59 0,11.41 0.31,24.08 0.95,38.02 0.63,13.94 1.9,27.88 3.8,41.82 1.9,13.94 4.12,27.41 6.65,40.4 2.54,12.99 5.7,23.6 9.51,31.84zm310.79 -260.43c19.01,6.97 35.01,17.43 48,31.37 12.99,13.94 22.97,29.62 29.94,47.04 6.97,17.43 10.93,35.33 11.88,53.71 0.95,18.37 -1.11,35.48 -6.17,51.32 -6.97,17.74 -15.85,35.17 -26.62,52.28 -10.77,17.1 -23.13,32.31 -37.07,45.62 -13.94,13.3 -29.78,24.08 -47.52,32.31 -17.74,8.24 -37.38,12.36 -58.93,12.36 -25.98,0 -47.84,-6.02 -65.58,-18.06 -17.74,-12.04 -31.68,-27.56 -41.82,-46.57 -10.14,-19.01 -16.63,-40.55 -19.48,-64.63 -2.85,-24.08 -2.38,-48.16 1.42,-72.24 2.54,-17.74 6.81,-35.01 12.83,-51.8 6.02,-16.79 13.78,-31.68 23.29,-44.67 9.5,-12.99 20.43,-23.6 32.79,-31.84 12.36,-8.24 26.45,-12.36 42.3,-12.36 8.87,0 19.96,1.75 33.26,5.23 13.31,3.49 25.66,8.4 37.07,14.73 8.24,-7.6 18.38,-8.87 30.41,-3.8zm-36.11 69.39c-6.97,-4.44 -15.05,-10.3 -24.24,-17.59 -9.19,-7.28 -17.27,-10.93 -24.24,-10.93 -7.6,0 -15.05,3.49 -22.33,10.46 -7.29,6.97 -13.63,15.05 -19.01,24.23 -5.39,9.19 -9.98,18.54 -13.78,28.04 -3.8,9.51 -6.34,17.11 -7.61,22.81 -1.9,9.51 -3.16,20.91 -3.8,34.22 -0.63,13.31 0.32,26.45 2.85,39.44 2.54,12.99 7.45,24.72 14.74,35.17 7.28,10.46 18.21,17.9 32.79,22.34 8.87,2.53 19.32,2.37 31.36,-0.48 12.04,-2.85 23.92,-8.08 35.64,-15.68 11.73,-7.6 22.81,-17.74 33.27,-30.42 10.45,-12.67 18.53,-27.24 24.24,-43.72 6.33,-18.37 6.49,-37.54 0.47,-57.5 -6.02,-19.96 -18.22,-34.37 -36.59,-43.25 -4.44,3.17 -8.87,4.76 -13.31,4.76 -4.43,0 -7.92,-0.64 -10.45,-1.9zm363.08 365.92c-0.64,6.97 -3.8,13.47 -9.51,19.49 -5.7,6.02 -12.04,8.71 -19.01,8.08 -10.77,-0.64 -19.01,-4.76 -24.71,-12.36 -5.7,-7.6 -8.55,-13.94 -8.55,-19.01 0,-24.08 -0.64,-49.26 -1.9,-75.56 -1.27,-26.3 -2.86,-53.38 -4.76,-81.27 -8.23,1.27 -15.68,0.48 -22.33,-2.37 -6.66,-2.85 -11.25,-7.45 -13.78,-13.78 -4.44,-10.77 -3.81,-20.28 1.9,-28.52 5.7,-8.23 14.89,-16.15 27.56,-23.76 -3.17,-23.44 -6.18,-46.57 -9.03,-69.38 -2.85,-22.81 -5.86,-44.99 -9.03,-66.53 -0.63,-3.81 -0.31,-7.29 0.95,-10.46 1.27,-3.17 2.85,-6.18 4.75,-9.03 1.91,-2.85 5.39,-5.54 10.46,-8.08 8.24,-3.17 17.58,-0.63 28.04,7.61 10.45,8.23 17.58,18.69 21.38,31.36 1.9,12.04 3.96,25.82 6.18,41.35 2.22,15.52 4.28,32.47 6.18,50.85 13.31,-8.24 25.82,-17.11 37.54,-26.62 11.73,-9.5 21.86,-19.64 30.42,-30.41 8.55,-10.77 15.05,-22.02 19.48,-33.74 4.44,-11.73 5.7,-23.92 3.8,-36.6 -1.26,-10.77 -6.02,-20.43 -14.25,-28.98 -8.24,-8.56 -21.23,-13.15 -38.97,-13.79 -15.84,-0.63 -31.53,0.64 -47.05,3.81 -15.52,3.16 -30.73,7.28 -45.62,12.35 -14.89,5.07 -29.47,11.09 -43.72,18.06 -14.26,6.97 -28.04,13.94 -41.35,20.91 -8.87,5.07 -17.58,7.13 -26.14,6.18 -8.55,-0.95 -14.09,-3.96 -16.63,-9.03 -5.7,-12.67 -5.23,-24.08 1.43,-34.22 6.65,-10.14 16.95,-19.64 30.89,-28.51 12.04,-6.97 26.45,-14.1 43.24,-21.39 16.79,-7.28 34.54,-13.62 53.23,-19.01 18.69,-5.38 37.7,-9.18 57.03,-11.4 19.32,-2.22 37.86,-1.9 55.6,0.95 17.74,2.85 33.74,8.87 48,18.06 14.25,9.19 25.82,22.65 34.69,40.39 10.77,29.15 13.78,55.92 9.03,80.32 -4.75,24.39 -14.26,46.57 -28.52,66.53 -14.25,19.96 -31.68,38.02 -52.27,54.17 -20.59,16.16 -41.35,30.58 -62.26,43.25 3.17,34.22 5.39,68.12 6.66,101.7 1.26,33.58 1.58,63.05 0.95,88.39zm361.18 -491.39c-1.27,6.34 -5.71,9.83 -13.31,10.46 -7.6,0.63 -13.94,0.95 -19.01,0.95 -15.84,0.63 -32.16,2.22 -48.95,4.75 -16.79,2.54 -34.37,6.34 -52.75,11.41 -7.6,2.53 -15.84,1.58 -24.71,-2.85 -8.87,-4.44 -14.26,-13.31 -16.16,-26.62 0,-5.07 1.9,-9.18 5.7,-12.35 3.81,-3.17 8.24,-6.02 13.31,-8.56 8.24,-3.8 18.06,-7.12 29.46,-9.98 11.41,-2.85 22.97,-4.91 34.7,-6.17 11.72,-1.27 22.97,-1.75 33.74,-1.43 10.77,0.32 19.64,1.43 26.61,3.33 10.14,3.17 18.22,7.92 24.24,14.25 6.02,6.34 8.39,13.94 7.13,22.81zm-21.86 316.51c4.43,10.14 6.81,21.07 7.12,32.79 0.32,11.72 -3.01,19.8 -9.98,24.24 -8.87,5.7 -18.37,5.38 -28.51,-0.95 -10.14,-6.34 -17.74,-14.9 -22.81,-25.67 -6.97,-13.3 -12.36,-29.62 -16.16,-48.95 -3.8,-19.32 -6.65,-38.49 -8.55,-57.5 -1.9,-19.01 -3.01,-36.75 -3.33,-53.22 -0.32,-16.48 -0.47,-28.84 -0.47,-37.07 0.63,-8.87 3.16,-17.11 7.6,-24.71 4.43,-7.61 10.14,-12.04 17.11,-13.31 11.4,0.63 20.59,5.86 27.56,15.68 6.97,9.82 10.14,22.02 9.51,36.59 0,11.41 0.31,24.08 0.95,38.02 0.63,13.94 1.9,27.88 3.8,41.82 1.9,13.94 4.12,27.41 6.65,40.4 2.54,12.99 5.7,23.6 9.51,31.84zm310.79 -260.43c19.01,6.97 35.01,17.43 48,31.37 12.99,13.94 22.97,29.62 29.94,47.04 6.97,17.43 10.93,35.33 11.88,53.71 0.95,18.37 -1.11,35.48 -6.17,51.32 -6.97,17.74 -15.85,35.17 -26.62,52.28 -10.77,17.1 -23.13,32.31 -37.07,45.62 -13.94,13.3 -29.78,24.08 -47.52,32.31 -17.74,8.24 -37.38,12.36 -58.93,12.36 -25.98,0 -47.84,-6.02 -65.58,-18.06 -17.74,-12.04 -31.68,-27.56 -41.82,-46.57 -10.14,-19.01 -16.63,-40.55 -19.48,-64.63 -2.85,-24.08 -2.38,-48.16 1.42,-72.24 2.54,-17.74 6.81,-35.01 12.83,-51.8 6.02,-16.79 13.78,-31.68 23.29,-44.67 9.5,-12.99 20.43,-23.6 32.79,-31.84 12.36,-8.24 26.45,-12.36 42.3,-12.36 8.87,0 19.96,1.75 33.26,5.23 13.31,3.49 25.66,8.4 37.07,14.73 8.24,-7.6 18.38,-8.87 30.41,-3.8zm-36.11 69.39c-6.97,-4.44 -15.05,-10.3 -24.24,-17.59 -9.19,-7.28 -17.27,-10.93 -24.24,-10.93 -7.6,0 -15.05,3.49 -22.33,10.46 -7.29,6.97 -13.63,15.05 -19.01,24.23 -5.39,9.19 -9.98,18.54 -13.78,28.04 -3.8,9.51 -6.34,17.11 -7.61,22.81 -1.9,9.51 -3.16,20.91 -3.8,34.22 -0.63,13.31 0.32,26.45 2.85,39.44 2.54,12.99 7.45,24.72 14.74,35.17 7.28,10.46 18.21,17.9 32.79,22.34 8.87,2.53 19.32,2.37 31.36,-0.48 12.04,-2.85 23.92,-8.08 35.64,-15.68 11.73,-7.6 22.81,-17.74 33.27,-30.42 10.45,-12.67 18.53,-27.24 24.24,-43.72 6.33,-18.37 6.49,-37.54 0.47,-57.5 -6.02,-19.96 -18.22,-34.37 -36.59,-43.25 -4.44,3.17 -8.87,4.76 -13.31,4.76 -4.43,0 -7.92,-0.64 -10.45,-1.9z"/>
  </g>
 </g>
</svg>
