<?xml version="1.0" encoding="UTF-8"?>
<!DOCTYPE svg PUBLIC "-//W3C//DTD SVG 1.1//EN" "http://www.w3.org/Graphics/SVG/1.1/DTD/svg11.dtd">
<!-- Creator: CorelDRAW 2017 -->
<svg xmlns="http://www.w3.org/2000/svg" xml:space="preserve" width="40mm" height="50mm" version="1.1" style="shape-rendering:geometricPrecision; text-rendering:geometricPrecision; image-rendering:optimizeQuality; fill-rule:evenodd; clip-rule:evenodd"
viewBox="0 0 4000 5000"
 xmlns:xlink="http://www.w3.org/1999/xlink">
 <defs>
  <style type="text/css">
   <![CDATA[
    .str0 {stroke:black;stroke-width:25;stroke-miterlimit:22.9256}
    .fil0 {fill:none}
    .fil2 {fill:#020202}
    .fil6 {fill:#07080A}
    .fil1 {fill:#BD3415}
    .fil5 {fill:#ED8292}
    .fil3 {fill:#FE7F2E}
    .fil4 {fill:white}
   ]]>
  </style>
 </defs>
 <g id="Capa_x0020_1">
  <metadata id="CorelCorpID_0Corel-Layer"/>
  <rect class="fil0" width="4000" height="5000"/>
  <path class="fil1" d="M2743.55 829.34c39.61,21.49 157.85,93.42 201.45,96.01 -3.62,-110 -39.35,-218.09 -102.27,-265.82 -59,11.51 -103.29,89.99 -99.18,169.81z"/>
  <path class="fil1" d="M1057.23 922.5c46.22,4.47 152.55,-68.4 200.89,-89.87 4.45,-68.64 -46.96,-215.92 -123.65,-153.5 -34.4,27.99 -76.1,186.52 -77.24,243.37z"/>
  <path class="fil2" d="M1177.86 2810.25c258.49,28.21 250.45,119.91 841.64,118.41 571.01,-1.45 554.58,-90.06 825.58,-127.73 129.53,200.52 172.02,219.95 247.47,507.65 62.32,237.62 76.36,440.02 -219.43,430.64 -14,-118.03 -9.64,-452.08 -57.22,-559.21l-61.29 11.78c13.72,397.07 69.99,579.04 20.92,1029.27 -5.03,46.11 -21.2,124.51 -21.63,163.14 -0.75,68.54 39.56,63.4 12.7,129.94 -76.98,110.03 -594.67,29.52 -707.17,-11.7l9.25 -456.9c104.64,-13.72 193.11,-34.99 267.85,-79.15l-38.2 -61.96c-85.27,22.66 -172.19,65.44 -278.79,66.28 -133.07,1.04 -183.16,-44.88 -279.95,-57.4 -9.61,23.87 -15.51,34.1 -24.14,56.1 60.81,55.21 163.2,69.48 256.61,75.69 25.71,77.39 15.29,362.29 10.78,458.47 -155.23,38.19 -584.96,113.98 -715.14,20.36 -24.66,-90.95 19.1,-67.4 9.49,-168.54 -20.42,-215.06 -37.56,-240.09 -38.22,-505.48 -0.28,-117.04 3.14,-230.72 10.85,-345.01 4.95,-73.35 43.21,-300.53 12.84,-317.68 -81.39,-10.67 -42.46,-22.74 -61.73,31.01l-38.9 517.62c-112.35,18.67 -206.7,-34.62 -243.61,-112.29 -41.21,-86.72 1.1,-231.74 23.95,-318.98 73.25,-279.72 123.48,-304.94 235.49,-494.33zm-498.83 -1183.85c26.31,-221.49 165.16,-453.06 216.3,-612.5 54.97,-171.39 113.08,-506.24 247.83,-580.13 125.96,14.4 214.56,206.89 253.33,347.95 84.84,-7.28 194.42,-36.88 295.42,-47.02 102.18,-10.25 208.27,-16.08 314.31,-15.78 341.81,0.95 382.54,43.17 597.5,60.48 64.21,-132.4 115.45,-322.13 252.29,-346.77 140.79,70.33 192.74,396.89 250.85,575.81 62.55,192.57 160.7,314.28 219.56,611.73 231.22,935.17 -506.35,1233.31 -1333.48,1231.49 -535.5,-1.17 -1161.77,-118.02 -1317.65,-657.23 -44.3,-153.25 -48.2,-423.53 3.74,-568.03zm430.19 1140.48c-60.99,134.11 -131,160.35 -216.48,434.76 -100.06,321.23 -134.63,559.07 224.28,612.03 76.37,11.28 40.2,44.37 54.34,275.66 4.9,80.17 31.72,226.45 28.22,291 -5.86,108.36 -45.43,190.12 69.26,234.42 136.36,52.67 457.5,19.96 603.37,-7.26 153.17,-28.58 92.61,-44.69 248.91,-8.54 89.15,20.62 197.73,32.97 296.66,38.27 211.57,11.33 472.01,41.41 420.96,-224.36 -4.8,-25.02 28.97,-548.09 38.48,-594.95 298.89,-23.13 372.36,-167 304.43,-465.67 -94.2,-414.16 -228.99,-503.43 -264.95,-595.04 305.74,-101.91 521.86,-447.14 521.86,-806.03 0,-484.64 -184.68,-705.87 -298.71,-1119.47 -41.22,-149.5 -127.88,-409.16 -231.13,-461.32 -102.07,-51.58 -190.84,45.32 -226.99,92.07 -59.85,77.41 -82.54,166.59 -131.12,228.07 -565.89,-66.44 -542.99,-61.66 -1106.27,2.33 -34.17,-110.56 -119.57,-260.35 -205.95,-310.69 -154.69,-90.15 -236.45,80.84 -283.08,186.13 -53.14,119.95 -88.88,256.39 -123.83,393.35 -58.22,228.12 -384.94,717.73 -227.62,1262.75 39.45,136.68 118.65,254.1 187.53,330.91 52.35,58.38 215.14,183.68 317.83,211.58z"/>
  <path class="fil3" d="M1941.86 3075.66c529.55,-108.99 672.71,676.41 176.85,792.17 -541.14,126.33 -706.38,-683.18 -176.85,-792.17zm-764 -265.41c-112.01,189.39 -162.24,214.61 -235.49,494.33 -22.85,87.24 -65.16,232.26 -23.95,318.98 36.91,77.67 131.26,130.96 243.61,112.29l38.9 -517.62c19.27,-53.75 -19.66,-41.68 61.73,-31.01 30.37,17.15 -7.89,244.33 -12.84,317.68 -7.71,114.29 -11.13,227.97 -10.85,345.01 0.66,265.39 17.8,290.42 38.22,505.48 9.61,101.14 -34.15,77.59 -9.49,168.54 130.18,93.62 559.91,17.83 715.14,-20.36 4.51,-96.18 14.93,-381.08 -10.78,-458.47 -93.41,-6.21 -195.8,-20.48 -256.61,-75.69 8.63,-22 14.53,-32.23 24.14,-56.1 96.79,12.52 146.88,58.44 279.95,57.4 106.6,-0.84 193.52,-43.62 278.79,-66.28l38.2 61.96c-74.74,44.16 -163.21,65.43 -267.85,79.15l-9.25 456.9c112.5,41.22 630.19,121.73 707.17,11.7 26.86,-66.54 -13.45,-61.4 -12.7,-129.94 0.43,-38.63 16.6,-117.03 21.63,-163.14 49.07,-450.23 -7.2,-632.2 -20.92,-1029.27l61.29 -11.78c47.58,107.13 43.22,441.18 57.22,559.21 295.79,9.38 281.75,-193.02 219.43,-430.64 -75.45,-287.7 -117.94,-307.13 -247.47,-507.65 -271,37.67 -254.57,126.28 -825.58,127.73 -591.19,1.5 -583.15,-90.2 -841.64,-118.41z"/>
  <path class="fil3" d="M1682.36 1169.72c144.23,-61.24 221.08,162.09 90.19,216.89 -76.75,32.12 -145.04,-10.47 -163.15,-63.57 -29.9,-87.69 11.7,-127.3 72.96,-153.32zm538.83 -4.03c148.89,-48.11 195.92,172.91 82.41,220.51 -156.04,65.43 -251.67,-165.81 -82.41,-220.51zm522.36 -336.35c-4.11,-79.82 40.18,-158.3 99.18,-169.81 62.92,47.73 98.65,155.82 102.27,265.82 -43.6,-2.59 -161.84,-74.52 -201.45,-96.01zm-1686.32 93.16c1.14,-56.85 42.84,-215.38 77.24,-243.37 76.69,-62.42 128.1,84.86 123.65,153.5 -48.34,21.47 -154.67,94.34 -200.89,89.87zm-378.2 703.9c721.47,-243.63 1912.39,-210.2 2647.39,-6.23 -58.86,-297.45 -157.01,-419.16 -219.56,-611.73 -58.11,-178.92 -110.06,-505.48 -250.85,-575.81 -136.84,24.64 -188.08,214.37 -252.29,346.77 -214.96,-17.31 -255.69,-59.53 -597.5,-60.48 -106.04,-0.3 -212.13,5.53 -314.31,15.78 -101,10.14 -210.58,39.74 -295.42,47.02 -38.77,-141.06 -127.37,-333.55 -253.33,-347.95 -134.75,73.89 -192.86,408.74 -247.83,580.13 -51.14,159.44 -189.99,391.01 -216.3,612.5z"/>
  <path class="fil4" d="M2463.38 1973.99l-0.1 89.32 -142.72 6.52c-9.33,196.41 -91.95,334.19 -287.41,347.56 -239.07,16.37 -305.24,-111.98 -313.62,-328.12l-125.22 -3.26 4.01 -88.43 865.06 -23.59zm-607.45 -200.18c84.39,-27.56 244.65,-33.37 304.09,7.72 -24.99,190.86 -353.25,119.71 -304.09,-7.72zm-285.22 -129.7c140.93,-67.47 204.52,142.17 92.52,190.73 -135.4,58.71 -225.19,-127.22 -92.52,-190.73zm779.33 -3.34c135.07,-58.4 200.2,145.72 84.21,194.76 -134.67,56.93 -212.61,-139.25 -84.21,-194.76zm-1671.01 -14.37c-51.94,144.5 -48.04,414.78 -3.74,568.03 155.88,539.21 782.15,656.06 1317.65,657.23 827.13,1.82 1564.7,-296.32 1333.48,-1231.49 -735,-203.97 -1925.92,-237.4 -2647.39,6.23z"/>
  <path class="fil4" d="M1941.86 3075.66c-529.53,108.99 -364.29,918.5 176.85,792.17 495.86,-115.76 352.7,-901.16 -176.85,-792.17z"/>
  <path class="fil4" d="M1682.36 1169.72c-61.26,26.02 -102.86,65.63 -72.96,153.32 18.11,53.1 86.4,95.69 163.15,63.57 130.89,-54.8 54.04,-278.13 -90.19,-216.89z"/>
  <path class="fil4" d="M2221.19 1165.69c-169.26,54.7 -73.63,285.94 82.41,220.51 113.51,-47.6 66.48,-268.62 -82.41,-220.51z"/>
  <path class="fil5" d="M1954.33 2529.09l89.49 1.14c66.32,-17.96 100.3,-38.58 135.87,-77.76 36.28,-39.97 54.99,-71.65 72.49,-137.47 -81.53,4.9 -163.38,-35.96 -240.92,7.03 -62.75,34.78 -62.01,119.91 -42.42,201.37 -7.75,7.81 13.52,8.08 -14.51,5.69z"/>
  <path class="fil6" d="M1954.33 2529.09c28.03,2.39 6.76,2.12 14.51,-5.69 -19.59,-81.46 -20.33,-166.59 42.42,-201.37 77.54,-42.99 159.39,-2.13 240.92,-7.03 31.48,-155.82 -42.53,-141.48 -148.77,-141.48l-305.93 1.36c-120.08,22.2 -44.89,313.39 156.85,354.21z"/>
  <path class="fil6 str0" d="M1599.72 1661.28l-18.01 0 -140.52 152.81c-9.57,10.39 -12.21,17.71 -22.48,27.36 -9.71,9.12 -18.29,13.48 -21.7,28.33 -7.97,34.79 28.69,46.04 49.57,24.31l69.88 -79.26c12.45,-16.09 57.89,-58.34 68.67,-80.42 41.7,21.36 125.16,183.98 166.71,172.15 38.09,-21.1 14.76,-44.62 -2.18,-65.18l-98.05 -121.21c-15.53,-19.67 -34.22,-46.55 -51.89,-58.89z"/>
  <path class="fil6 str0" d="M2419.39 1742.63l128.94 165.24c24.08,21.44 62.15,-0.36 44.21,-35.67l-131 -163.21c-53.27,-65.06 -52.08,-46.47 -126.45,39.01l-47.7 51.41c-10.34,10.49 -64.92,71.39 -65.47,85.33 -1.22,31.39 31.27,38.43 53.84,15.04 9.41,-9.76 13.2,-17.79 22.51,-27.4l69.99 -78.98c17.61,-17.69 31.35,-39.08 51.13,-50.77z"/>
  <path class="fil2" d="M1855.61 1961.93c-45.97,119.16 260.95,185.68 284.31,7.23 -55.57,-38.42 -205.41,-32.99 -284.31,-7.23z"/>
 </g>
</svg>
