<?xml version="1.0" encoding="UTF-8"?>
<!DOCTYPE svg PUBLIC "-//W3C//DTD SVG 1.1//EN" "http://www.w3.org/Graphics/SVG/1.1/DTD/svg11.dtd">
<!-- Creator: CorelDRAW 2017 -->
<svg xmlns="http://www.w3.org/2000/svg" xml:space="preserve" width="40mm" height="50mm" version="1.1" style="shape-rendering:geometricPrecision; text-rendering:geometricPrecision; image-rendering:optimizeQuality; fill-rule:evenodd; clip-rule:evenodd"
viewBox="0 0 4000 5000"
 xmlns:xlink="http://www.w3.org/1999/xlink">
 <defs>
  <style type="text/css">
   <![CDATA[
    .fil0 {fill:none}
    .fil6 {fill:#F9AA75}
    .fil7 {fill:black}
    .fil2 {fill:#020202}
    .fil5 {fill:#030303}
    .fil9 {fill:#030303}
    .fil1 {fill:#BD3415}
    .fil3 {fill:#FE7F2E}
    .fil8 {fill:#FEAEC9}
    .fil4 {fill:white}
   ]]>
  </style>
 </defs>
 <g id="Capa_x0020_1">
  <metadata id="CorelCorpID_0Corel-Layer"/>
  <rect class="fil0" width="4000" height="5000"/>
  <path class="fil1" d="M2708.84 795.22l171.1 88.46c72.89,24.72 28.65,11.22 49.26,-1.25 27.71,-63.59 -92.37,-281.07 -172.35,-307.16 -53.68,56.94 -51.66,116.98 -48.01,219.95z"/>
  <path class="fil2" d="M3580.12 3358.29c117.66,88.32 122.59,281.15 19.91,413.72 -42.51,54.88 -250.52,217.02 -365.97,152.5 96.88,-145.73 217.81,-68.43 188.4,-518.44l-13.57 -139.53c77.08,10.93 142.98,49.96 171.23,91.75zm-526.4 -600.39c169.08,128.43 417.01,815.65 196.51,1014.25 -63.58,57.27 -173.34,60.89 -245.01,9.38 -140.24,-100.8 -0.11,-390.6 -181.85,-692.44 -40.73,-67.63 -36.36,-51.56 -66.43,-52.13 -107.89,-2.03 4.83,143.69 32.98,225.86 89.78,262.09 -4.08,391.62 93.32,535.24 71,104.68 111.82,69.99 197.78,126.45l-160.12 74.33c-34.02,169.09 5.73,389.83 -8.69,554.35 -133.13,108.74 -553.99,70.23 -674.7,-2.05 0.6,-123.07 44.87,-10 19.87,-249.21 -38.84,-371.63 6.83,-266.66 -252.95,-306.88 -78.82,-12.21 -154.54,-48.13 -214.85,-23.64 -56.12,142.53 254.4,108.05 334.91,148.19 0.02,0.02 93.03,291.72 -5.04,374.92 -30.5,25.88 -613.33,171.04 -598.87,-42.52 5.06,-74.74 116.61,-91.23 -20.41,-492.58 -31.9,-93.44 -56.03,-65.06 -131.64,-130.93 -241.96,-210.8 -204.01,-414 -206.54,-776.09 -181.82,-169.26 -611.06,-214.75 -789.1,-950.48 -50.93,-210.48 -124.16,-614.97 166.92,-618.61 256.61,-3.22 -37.23,198.75 88.43,676.57 112.48,427.72 490.97,680.21 960.24,786.05 581.91,131.24 1020.51,52.32 1465.24,-188.03zm424.79 -752.81c-20.07,338.14 -339.33,591.7 -565.15,713.86 -571.47,309.11 -1542.8,225.51 -1982.79,-216.18 -193.72,-194.46 -326.06,-616.95 -168.04,-968.1 53.55,-193.85 151.6,-303.91 261.34,-444.56 91.37,-117.09 -125.62,-668.59 72.93,-604.96 13.78,4.41 42.43,22.74 55.27,31.26 35.03,23.25 69.11,50.75 100.59,75.09 79.94,61.83 102.57,93.47 154.16,175.32 97.46,0.74 193.37,-60.69 288.07,-87.33 181.43,-51.04 466.96,-68.72 649.76,-27.35 87.24,19.75 191.42,88.01 254.86,59.14 41.69,-97.34 4.44,-205.47 95.48,-322.95 229.19,-13.62 455.64,429.72 532.11,672.63 43.41,137.88 148.44,224.18 204.21,407.25 40.35,132.44 86.31,414.27 47.2,536.88zm-966.15 -1416.81c-81.17,-6.57 -154.79,-39.58 -244.5,-50.3 -316.55,-37.81 -537.93,28.43 -803.3,116.78 -102,-83.43 -513.7,-556.68 -543.17,-66.62 -17.05,283.54 64.67,387.72 -16.06,489.74 -82.23,103.91 -158.76,195.39 -203.72,335.98 -261.59,-57.57 -426.17,-14 -465.27,250.74 -52.08,352.62 134.13,859.66 367.31,1112.52 143.12,155.21 280.01,195.68 449.28,326.62 22.32,406.16 3.35,609.26 273.34,819.31 69.77,54.29 77.23,54.91 102.55,158.27 99.28,405.13 -81.01,277.68 10.85,478.38 30.2,65.99 92.3,92.06 181.74,99.72 191.76,16.42 345.08,-48.29 492.6,-48.52 110.02,-0.17 59.94,102.34 450.72,103.52 619.79,1.89 407.28,-157.69 447.13,-640.1 186.76,-79.74 534.68,35.08 714.04,-315.66 68.74,-134.4 61.37,-293.03 -22.05,-414.75 -99.11,-144.63 -172.03,-131.82 -326.24,-196.64 -84.33,-311.7 -193.54,-363.39 -226.94,-470.2 165.04,-79.41 375.78,-344.56 426.23,-619.19 103.53,-563.65 -219.22,-925.21 -252.7,-1023.75 -80.7,-237.51 -295.52,-703.74 -569.01,-745.56 -190.81,-29.18 -193.45,161.39 -242.83,299.71z"/>
  <path class="fil3" d="M1726.81 3169.15c388.84,-155.11 703.03,468.4 253.68,642.15 -476.13,184.1 -637.38,-489.09 -253.68,-642.15zm1326.91 -411.25c-444.73,240.35 -883.33,319.27 -1465.24,188.03 -469.27,-105.84 -847.76,-358.33 -960.24,-786.05 -125.66,-477.82 168.18,-679.79 -88.43,-676.57 -291.08,3.64 -217.85,408.13 -166.92,618.61 178.04,735.73 607.28,781.22 789.1,950.48 2.53,362.09 -35.42,565.29 206.54,776.09 75.61,65.87 99.74,37.49 131.64,130.93 137.02,401.35 25.47,417.84 20.41,492.58 -14.46,213.56 568.37,68.4 598.87,42.52 98.07,-83.2 5.06,-374.9 5.04,-374.92 -80.51,-40.14 -391.03,-5.66 -334.91,-148.19 60.31,-24.49 136.03,11.43 214.85,23.64 259.78,40.22 214.11,-64.75 252.95,306.88 25,239.21 -19.27,126.14 -19.87,249.21 120.71,72.28 541.57,110.79 674.7,2.05 14.42,-164.52 -25.33,-385.26 8.69,-554.35l160.12 -74.33c-85.96,-56.46 -126.78,-21.77 -197.78,-126.45 -97.4,-143.62 -3.54,-273.15 -93.32,-535.24 -28.15,-82.17 -140.87,-227.89 -32.98,-225.86 30.07,0.57 25.7,-15.5 66.43,52.13 181.74,301.84 41.61,591.64 181.85,692.44 71.67,51.51 181.43,47.89 245.01,-9.38 220.5,-198.6 -27.43,-885.82 -196.51,-1014.25z"/>
  <path class="fil3" d="M2708.84 795.22c-3.65,-102.97 -5.67,-163.01 48.01,-219.95 79.98,26.09 200.06,243.57 172.35,307.16 -20.61,12.47 23.63,25.97 -49.26,1.25l-171.1 -88.46zm-1946.31 739.45c707.61,-164.82 1825.78,-159.38 2478.14,282.09 92.57,62.65 156.62,131.68 237.84,188.33 39.11,-122.61 -6.85,-404.44 -47.2,-536.88 -55.77,-183.07 -160.8,-269.37 -204.21,-407.25 -76.47,-242.91 -302.92,-686.25 -532.11,-672.63 -91.04,117.48 -53.79,225.61 -95.48,322.95 -63.44,28.87 -167.62,-39.39 -254.86,-59.14 -182.8,-41.37 -468.33,-23.69 -649.76,27.35 -94.7,26.64 -190.61,88.07 -288.07,87.33 -51.59,-81.85 -74.22,-113.49 -154.16,-175.32 -31.48,-24.34 -65.56,-51.84 -100.59,-75.09 -12.84,-8.52 -41.49,-26.85 -55.27,-31.26 -198.55,-63.63 18.44,487.87 -72.93,604.96 -109.74,140.65 -207.79,250.71 -261.34,444.56z"/>
  <path class="fil3" d="M3422.46 3406.07c29.41,450.01 -91.52,372.71 -188.4,518.44 115.45,64.52 323.46,-97.62 365.97,-152.5 102.68,-132.57 97.75,-325.4 -19.91,-413.72 -28.15,75.79 -76.63,128.81 -139.78,159.81l-17.88 -112.03z"/>
  <path class="fil4" d="M1337.57 1946.83l827.69 -19.03c47.11,17.8 26.13,-33.45 37.2,39.79 9.18,60.73 -4.92,46.3 -140.23,57.48 -28.22,203.91 -86.25,336.36 -301.1,346.33 -223.12,10.36 -303.08,-115.41 -305.24,-327.67l-126.65 -9.44 8.33 -87.46zm217.95 -222.75c66.67,-43.26 222.52,-48.67 295.95,0.07 -14.23,149.2 -280.24,189.43 -295.95,-0.07zm523.21 -123.48c139.09,-78.77 210.94,125.44 106.27,181.35 -62.59,33.42 -127.54,5.87 -149.68,-35.98 -41.79,-78.98 0.67,-121.16 43.41,-145.37zm-567.61 123.55c-34.84,42.06 -131.52,118.61 -188.18,140.54l-46.76 -53.16c28.84,-55.41 36.86,-32.44 82.91,-90.3l-80.47 -84.4c22.14,-24.05 30.96,-38.46 50.77,-62.13 39.51,23.49 151.64,106.98 181.73,149.45zm-748.59 -189.48c-158.02,351.15 -25.68,773.64 168.04,968.1 439.99,441.69 1411.32,525.29 1982.79,216.18 225.82,-122.16 545.08,-375.72 565.15,-713.86 -81.22,-56.65 -145.27,-125.68 -237.84,-188.33 -652.36,-441.47 -1770.53,-446.91 -2478.14,-282.09z"/>
  <path class="fil4" d="M1726.81 3169.15c-383.7,153.06 -222.45,826.25 253.68,642.15 449.35,-173.75 135.16,-797.26 -253.68,-642.15z"/>
  <path class="fil4" d="M3422.46 3406.07l17.88 112.03c63.15,-31 111.63,-84.02 139.78,-159.81 -28.25,-41.79 -94.15,-80.82 -171.23,-91.75l13.57 139.53z"/>
  <path class="fil5" d="M1271.7 2102.04c46.04,-121.33 78.31,-107.31 165.14,-194.6 28.59,-236.09 -241.05,-282.68 -356.66,-151.09 -130.14,148.13 -26.13,346 191.52,345.69z"/>
  <path class="fil1" d="M1285.06 757.68l-116.29 153.54c-55.13,53.71 -21.02,22.47 -45,20.09 -52.4,-45.45 -37.73,-293.44 23.21,-351.45 72.97,28.27 97.02,83.32 138.08,177.82z"/>
  <path class="fil6" d="M1069.99 2103.05c-19.69,-8.53 -30.99,-26.29 -65.61,-7.81 -19.75,10.55 -25.65,36.89 -11.12,57.79 24.52,35.27 99.09,21.47 76.73,-49.98z"/>
  <path class="fil4" d="M1341.57 1730.48c-172.34,40.97 -97.75,253.22 56.36,215.47 138.07,-33.81 95.3,-251.53 -56.36,-215.47z"/>
  <path class="fil4" d="M1261.22 2004.02c-51.36,-34.24 -111.82,-2.04 -85.65,44.4 22.23,39.48 103.79,34.99 85.65,-44.4z"/>
  <path class="fil7" d="M1261.22 2004.02c18.14,79.39 -63.42,83.88 -85.65,44.4 -26.17,-46.44 34.29,-78.64 85.65,-44.4zm80.35 -273.54c151.66,-36.06 194.43,181.66 56.36,215.47 -154.11,37.75 -228.7,-174.5 -56.36,-215.47zm-79.91 -71.77c-350.28,46.95 -267.66,528.69 75.59,480.34 124.83,-17.58 240.78,-131.7 215.49,-277.99 -21.58,-124.75 -142.21,-222.3 -291.08,-202.35z"/>
  <path class="fil8" d="M2153.98 2276.28l-527.67 169.74c57.77,308.71 662.44,115.82 527.67,-169.74z"/>
  <path class="fil6" d="M2481.37 2037.25c-3.59,85.92 75.43,68.25 84.43,28.56 5.77,-25.38 -10.52,-45.97 -30.49,-51.06 -28.78,-7.34 -37.28,8.22 -53.94,22.5z"/>
  <path class="fil4" d="M2431.71 1814.12c13.24,-64.99 -37.9,-119.13 -89.75,-130.16 -71.33,-15.16 -133.64,32.43 -144.12,87.56 -28.9,151.97 204.42,187.2 233.87,42.6z"/>
  <path class="fil4" d="M2206.55 1992.84c-27.25,-18.56 -93.41,-27.25 -89.87,31.6 3.21,53.28 62.09,45.11 95.62,9.08l-5.75 -40.68z"/>
  <path class="fil7" d="M2206.55 1992.84l5.75 40.68c-33.53,36.03 -92.41,44.2 -95.62,-9.08 -3.54,-58.85 62.62,-50.16 89.87,-31.6zm225.16 -178.72c-29.45,144.6 -262.77,109.37 -233.87,-42.6 10.48,-55.13 72.79,-102.72 144.12,-87.56 51.85,11.03 102.99,65.17 89.75,130.16zm-274.11 -197.33c-351.98,94.34 -193.45,583.23 143.06,489.08 118.01,-33.02 225.22,-155.21 183.99,-309.57 -31.72,-118.77 -170.39,-221.49 -327.05,-179.51z"/>
  <path class="fil9" d="M2153.98 2276.28l-527.67 169.74c57.77,308.71 662.44,115.82 527.67,-169.74z"/>
  <path class="fil8" d="M2068.03 2291.63l-349.15 112.32c38.22,204.27 438.32,76.64 349.15,-112.32z"/>
  <path class="fil2" d="M1617.83 2197.61c0.52,136.59 332.19,83.55 286.09,-103.34 -70.3,-16.67 -217.49,46.99 -286.09,103.34z"/>
 </g>
</svg>
