<?xml version="1.0" encoding="UTF-8"?>
<!DOCTYPE svg PUBLIC "-//W3C//DTD SVG 1.1//EN" "http://www.w3.org/Graphics/SVG/1.1/DTD/svg11.dtd">
<!-- Creator: CorelDRAW 2017 -->
<svg xmlns="http://www.w3.org/2000/svg" xml:space="preserve" width="40mm" height="50mm" version="1.1" style="shape-rendering:geometricPrecision; text-rendering:geometricPrecision; image-rendering:optimizeQuality; fill-rule:evenodd; clip-rule:evenodd"
viewBox="0 0 4000 5000"
 xmlns:xlink="http://www.w3.org/1999/xlink">
 <defs>
  <style type="text/css">
   <![CDATA[
    .fil0 {fill:none}
    .fil6 {fill:black}
    .fil2 {fill:#020202}
    .fil7 {fill:#252525}
    .fil1 {fill:#BD3415}
    .fil5 {fill:#F1867C}
    .fil3 {fill:#FE7F2E}
    .fil4 {fill:white}
   ]]>
  </style>
 </defs>
 <g id="Capa_x0020_1">
  <metadata id="CorelCorpID_0Corel-Layer"/>
  <rect class="fil0" width="4000" height="5000"/>
  <path class="fil1" d="M2708.84 795.22l171.1 88.46c72.89,24.72 28.65,11.22 49.26,-1.25 27.71,-63.59 -92.37,-281.07 -172.35,-307.16 -53.68,56.94 -51.66,116.98 -48.01,219.95z"/>
  <path class="fil2" d="M3580.12 3358.29c117.66,88.32 122.59,281.15 19.91,413.72 -42.51,54.88 -250.52,217.02 -365.97,152.5 96.88,-145.73 217.81,-68.43 188.4,-518.44l-13.57 -139.53c77.08,10.93 142.98,49.96 171.23,91.75zm-526.4 -600.39c169.08,128.43 417.01,815.65 196.51,1014.25 -63.58,57.27 -173.34,60.89 -245.01,9.38 -140.24,-100.8 -0.11,-390.6 -181.85,-692.44 -40.73,-67.63 -36.36,-51.56 -66.43,-52.13 -107.89,-2.03 4.83,143.69 32.98,225.86 89.78,262.09 -4.08,391.62 93.32,535.24 71,104.68 111.82,69.99 197.78,126.45l-160.12 74.33c-34.02,169.09 5.73,389.83 -8.69,554.35 -133.13,108.74 -553.99,70.23 -674.7,-2.05 0.6,-123.07 44.87,-10 19.87,-249.21 -38.84,-371.63 6.83,-266.66 -252.95,-306.88 -78.82,-12.21 -154.54,-48.13 -214.85,-23.64 -56.12,142.53 254.4,108.05 334.91,148.19 0.02,0.02 93.03,291.72 -5.04,374.92 -30.5,25.88 -613.33,171.04 -598.87,-42.52 5.06,-74.74 116.61,-91.23 -20.41,-492.58 -31.9,-93.44 -56.03,-65.06 -131.64,-130.93 -241.96,-210.8 -204.01,-414 -206.54,-776.09 -181.82,-169.26 -611.06,-214.75 -789.1,-950.48 -50.93,-210.48 -124.16,-614.97 166.92,-618.61 256.61,-3.22 -37.23,198.75 88.43,676.57 112.48,427.72 490.97,680.21 960.24,786.05 581.91,131.24 1020.51,52.32 1465.24,-188.03zm424.79 -752.81c-20.07,338.14 -339.33,591.7 -565.15,713.86 -571.47,309.11 -1542.8,225.51 -1982.79,-216.18 -193.72,-194.46 -326.06,-616.95 -168.04,-968.1 53.55,-193.85 151.6,-303.91 261.34,-444.56 91.37,-117.09 -125.62,-668.59 72.93,-604.96 13.78,4.41 42.43,22.74 55.27,31.26 35.03,23.25 69.11,50.75 100.59,75.09 79.94,61.83 102.57,93.47 154.16,175.32 97.46,0.74 193.37,-60.69 288.07,-87.33 181.43,-51.04 466.96,-68.72 649.76,-27.35 87.24,19.75 191.42,88.01 254.86,59.14 41.69,-97.34 4.44,-205.47 95.48,-322.95 229.19,-13.62 455.64,429.72 532.11,672.63 43.41,137.88 148.44,224.18 204.21,407.25 40.35,132.44 86.31,414.27 47.2,536.88zm-966.15 -1416.81c-81.17,-6.57 -154.79,-39.58 -244.5,-50.3 -316.55,-37.81 -537.93,28.43 -803.3,116.78 -102,-83.43 -513.7,-556.68 -543.17,-66.62 -17.05,283.54 64.67,387.72 -16.06,489.74 -82.23,103.91 -158.76,195.39 -203.72,335.98 -261.59,-57.57 -426.17,-14 -465.27,250.74 -52.08,352.62 134.13,859.66 367.31,1112.52 143.12,155.21 280.01,195.68 449.28,326.62 22.32,406.16 3.35,609.26 273.34,819.31 69.77,54.29 77.23,54.91 102.55,158.27 99.28,405.13 -81.01,277.68 10.85,478.38 30.2,65.99 92.3,92.06 181.74,99.72 191.76,16.42 345.08,-48.29 492.6,-48.52 110.02,-0.17 59.94,102.34 450.72,103.52 619.79,1.89 407.28,-157.69 447.13,-640.1 186.76,-79.74 534.68,35.08 714.04,-315.66 68.74,-134.4 61.37,-293.03 -22.05,-414.75 -99.11,-144.63 -172.03,-131.82 -326.24,-196.64 -84.33,-311.7 -193.54,-363.39 -226.94,-470.2 165.04,-79.41 375.78,-344.56 426.23,-619.19 103.53,-563.65 -219.22,-925.21 -252.7,-1023.75 -80.7,-237.51 -295.52,-703.74 -569.01,-745.56 -190.81,-29.18 -193.45,161.39 -242.83,299.71z"/>
  <path class="fil3" d="M1726.81 3169.15c388.84,-155.11 703.03,468.4 253.68,642.15 -476.13,184.1 -637.38,-489.09 -253.68,-642.15zm1326.91 -411.25c-444.73,240.35 -883.33,319.27 -1465.24,188.03 -469.27,-105.84 -847.76,-358.33 -960.24,-786.05 -125.66,-477.82 168.18,-679.79 -88.43,-676.57 -291.08,3.64 -217.85,408.13 -166.92,618.61 178.04,735.73 607.28,781.22 789.1,950.48 2.53,362.09 -35.42,565.29 206.54,776.09 75.61,65.87 99.74,37.49 131.64,130.93 137.02,401.35 25.47,417.84 20.41,492.58 -14.46,213.56 568.37,68.4 598.87,42.52 98.07,-83.2 5.06,-374.9 5.04,-374.92 -80.51,-40.14 -391.03,-5.66 -334.91,-148.19 60.31,-24.49 136.03,11.43 214.85,23.64 259.78,40.22 214.11,-64.75 252.95,306.88 25,239.21 -19.27,126.14 -19.87,249.21 120.71,72.28 541.57,110.79 674.7,2.05 14.42,-164.52 -25.33,-385.26 8.69,-554.35l160.12 -74.33c-85.96,-56.46 -126.78,-21.77 -197.78,-126.45 -97.4,-143.62 -3.54,-273.15 -93.32,-535.24 -28.15,-82.17 -140.87,-227.89 -32.98,-225.86 30.07,0.57 25.7,-15.5 66.43,52.13 181.74,301.84 41.61,591.64 181.85,692.44 71.67,51.51 181.43,47.89 245.01,-9.38 220.5,-198.6 -27.43,-885.82 -196.51,-1014.25z"/>
  <path class="fil3" d="M2708.84 795.22c-3.65,-102.97 -5.67,-163.01 48.01,-219.95 79.98,26.09 200.06,243.57 172.35,307.16 -20.61,12.47 23.63,25.97 -49.26,1.25l-171.1 -88.46zm-1946.31 739.45c707.61,-164.82 1825.78,-159.38 2478.14,282.09 92.57,62.65 156.62,131.68 237.84,188.33 39.11,-122.61 -6.85,-404.44 -47.2,-536.88 -55.77,-183.07 -160.8,-269.37 -204.21,-407.25 -76.47,-242.91 -302.92,-686.25 -532.11,-672.63 -91.04,117.48 -53.79,225.61 -95.48,322.95 -63.44,28.87 -167.62,-39.39 -254.86,-59.14 -182.8,-41.37 -468.33,-23.69 -649.76,27.35 -94.7,26.64 -190.61,88.07 -288.07,87.33 -51.59,-81.85 -74.22,-113.49 -154.16,-175.32 -31.48,-24.34 -65.56,-51.84 -100.59,-75.09 -12.84,-8.52 -41.49,-26.85 -55.27,-31.26 -198.55,-63.63 18.44,487.87 -72.93,604.96 -109.74,140.65 -207.79,250.71 -261.34,444.56z"/>
  <path class="fil3" d="M3422.46 3406.07c29.41,450.01 -91.52,372.71 -188.4,518.44 115.45,64.52 323.46,-97.62 365.97,-152.5 102.68,-132.57 97.75,-325.4 -19.91,-413.72 -28.15,75.79 -76.63,128.81 -139.78,159.81l-17.88 -112.03z"/>
  <path class="fil4" d="M1337.57 1946.83l827.69 -19.03c47.11,17.8 26.13,-33.45 37.2,39.79 9.18,60.73 -4.92,46.3 -140.23,57.48 -28.22,203.91 -86.25,336.36 -301.1,346.33 -223.12,10.36 -303.08,-115.41 -305.24,-327.67l-126.65 -9.44 8.33 -87.46zm217.95 -222.75c66.67,-43.26 222.52,-48.67 295.95,0.07 -14.23,149.2 -280.24,189.43 -295.95,-0.07zm523.21 -123.48c139.09,-78.77 210.94,125.44 106.27,181.35 -62.59,33.42 -127.54,5.87 -149.68,-35.98 -41.79,-78.98 0.67,-121.16 43.41,-145.37zm-567.61 123.55c-34.84,42.06 -131.52,118.61 -188.18,140.54l-46.76 -53.16c28.84,-55.41 36.86,-32.44 82.91,-90.3l-80.47 -84.4c22.14,-24.05 30.96,-38.46 50.77,-62.13 39.51,23.49 151.64,106.98 181.73,149.45zm-748.59 -189.48c-158.02,351.15 -25.68,773.64 168.04,968.1 439.99,441.69 1411.32,525.29 1982.79,216.18 225.82,-122.16 545.08,-375.72 565.15,-713.86 -81.22,-56.65 -145.27,-125.68 -237.84,-188.33 -652.36,-441.47 -1770.53,-446.91 -2478.14,-282.09z"/>
  <path class="fil4" d="M1726.81 3169.15c-383.7,153.06 -222.45,826.25 253.68,642.15 449.35,-173.75 135.16,-797.26 -253.68,-642.15z"/>
  <path class="fil4" d="M3422.46 3406.07l17.88 112.03c63.15,-31 111.63,-84.02 139.78,-159.81 -28.25,-41.79 -94.15,-80.82 -171.23,-91.75l13.57 139.53z"/>
  <path class="fil1" d="M1285.06 757.68l-116.29 153.54c-55.13,53.71 -21.02,22.47 -45,20.09 -52.4,-45.45 -37.73,-293.44 23.21,-351.45 72.97,28.27 97.02,83.32 138.08,177.82z"/>
  <path class="fil5" d="M944.69 2204.26l-5.41 16.89c41.52,81.43 264.61,149.95 362.06,141.5 24.85,-2.15 32.84,-4.24 43.88,-24.06 -14.77,-92.9 -324.35,-172.63 -400.53,-134.33z"/>
  <path class="fil5" d="M2519.3 2174.57l-4.71 -14.06c-79.49,-41.32 -369.71,37.95 -399.68,138.22 55.63,75.28 364.91,-41.56 404.39,-124.16z"/>
  <path class="fil4" d="M2030.11 1717.09c-151.08,57.96 -64.77,279.32 82.84,224.34 52.12,-19.4 94.27,-82.19 71.15,-151.04 -17.52,-52.17 -81.02,-101.31 -153.99,-73.3z"/>
  <path class="fil4" d="M1201.28 1747.32c-148.02,56.74 -67.94,280.65 82.02,223.84 51.08,-19.35 96.18,-78.64 71.77,-150.95 -17.81,-52.79 -81.11,-100.76 -153.79,-72.89z"/>
  <path class="fil4" d="M2020.51 1965.6c-8.5,-4.43 -18.49,-13.76 -33.15,-7.6 -11.46,4.82 -23.04,19.15 -14.18,38.53 9.05,19.75 59.51,28.26 47.33,-30.93z"/>
  <path class="fil4" d="M1191.45 1995.21c-8.49,-4.26 -18.72,-13.26 -33.14,-7.01 -11.09,4.79 -22.89,19.11 -14.15,38.26 8.37,18.35 59.73,30.23 47.29,-31.25z"/>
  <path class="fil4" d="M2136.11 1670.47c-7.21,5.03 -7.08,-5.39 -10.92,16.04 -2.61,14.54 -0.47,16.13 6.31,23.75 9.54,10.69 26.32,9.78 35.53,2.48 25.66,-20.35 -0.99,-63.19 -30.92,-42.27z"/>
  <path class="fil4" d="M1306.95 1700.5c-32.23,23.34 4.8,63 31.01,42.36 25.91,-20.4 -1.49,-63.76 -31.01,-42.36z"/>
  <path class="fil4" d="M2193.39 1760.82c23.88,7.42 45.61,-10.57 26.73,-28.66 -12.63,-12.14 -42.01,-5.05 -26.73,28.66z"/>
  <path class="fil4" d="M1364.32 1790.75l26.64 2.78 4.37 -33.66c-29.85,-5.07 -44.84,0.35 -31.01,30.88z"/>
  <path class="fil6" d="M2020.51 1965.6c12.18,59.19 -38.28,50.68 -47.33,30.93 -8.86,-19.38 2.72,-33.71 14.18,-38.53 14.66,-6.16 24.65,3.17 33.15,7.6zm9.6 -248.51c72.97,-28.01 136.47,21.13 153.99,73.3 23.12,68.85 -19.03,131.64 -71.15,151.04 -147.61,54.98 -233.92,-166.38 -82.84,-224.34zm163.28 43.73c-15.28,-33.71 14.1,-40.8 26.73,-28.66 18.88,18.09 -2.85,36.08 -26.73,28.66zm109.9 254.49c-82.3,100.38 -212.1,116.29 -315.02,28.62 59.32,0.66 82.21,7.72 140.07,-15.5 150.02,-60.19 147.16,-193.74 107.79,-327.68 100.54,40.75 150.35,213.06 67.16,314.56zm-171.79 -305.05c-6.78,-7.62 -8.92,-9.21 -6.31,-23.75 3.84,-21.43 3.71,-11.01 10.92,-16.04 29.93,-20.92 56.58,21.92 30.92,42.27 -9.21,7.3 -25.99,8.21 -35.53,-2.48zm-45.84 -82.66c-133.31,24.15 -243.34,149.78 -213.18,308.1 24.8,130.12 154.01,237.91 307.19,208.54 340.73,-65.32 245.39,-578.09 -94.01,-516.64z"/>
  <path class="fil6" d="M1191.45 1995.21c12.44,61.48 -38.92,49.6 -47.29,31.25 -8.74,-19.15 3.06,-33.47 14.15,-38.26 14.42,-6.25 24.65,2.75 33.14,7.01zm9.83 -247.89c72.68,-27.87 135.98,20.1 153.79,72.89 24.41,72.31 -20.69,131.6 -71.77,150.95 -149.96,56.81 -230.04,-167.1 -82.02,-223.84zm163.04 43.43c-13.83,-30.53 1.16,-35.95 31.01,-30.88l-4.37 33.66 -26.64 -2.78zm109.14 253.82c-80.23,97.66 -207.36,120.51 -314.34,29.39 59.21,0.65 82.31,7.72 140.05,-15.5 150.19,-60.41 146.96,-193.36 107.81,-327.68 98.3,39.83 152.51,209.11 66.48,313.79zm-166.51 -344.07c29.52,-21.4 56.92,21.96 31.01,42.36 -26.21,20.64 -63.24,-19.02 -31.01,-42.36zm-50.45 -42.87c-132.27,24.14 -244.87,150.68 -212.99,307.81 26.56,130.82 152.6,238.3 307.02,208.88 130.77,-24.91 239.87,-150.9 210.38,-308.08 -24.41,-130.21 -151.82,-236.46 -304.41,-208.61z"/>
  <path class="fil6" d="M1738.95 2423.76c36.19,36.14 167,25.58 188.8,-78.98 8.71,-41.82 -0.46,-45.27 -26.29,-64.56 -74.49,7.34 -30.25,55.58 -77.26,76.6 -60.83,27.18 -55.68,-40.97 -89.04,-49.64 -57.56,-7.91 -54.58,25.45 -60.32,65.22 -72.03,33.59 -60.74,8.7 -94.14,-29.01 -27.78,-31.38 -91.07,-4.69 -60.23,58.01 16.78,34.1 51.09,59.87 90.9,64.85 67.11,8.37 87.72,-21.78 127.58,-42.49z"/>
  <path class="fil7" d="M1988.27 2043.93c102.92,87.67 232.72,71.76 315.02,-28.62 83.19,-101.5 33.38,-273.81 -67.16,-314.56 39.37,133.94 42.23,267.49 -107.79,327.68 -57.86,23.22 -80.75,16.16 -140.07,15.5z"/>
  <path class="fil7" d="M1159.12 2073.96c106.98,91.12 234.11,68.27 314.34,-29.39 86.03,-104.68 31.82,-273.96 -66.48,-313.79 39.15,134.32 42.38,267.27 -107.81,327.68 -57.74,23.22 -80.84,16.15 -140.05,15.5z"/>
 </g>
</svg>
