<?xml version="1.0" encoding="UTF-8"?>
<!DOCTYPE svg PUBLIC "-//W3C//DTD SVG 1.1//EN" "http://www.w3.org/Graphics/SVG/1.1/DTD/svg11.dtd">
<!-- Creator: CorelDRAW 2017 -->
<svg xmlns="http://www.w3.org/2000/svg" xml:space="preserve" width="100mm" height="100mm" version="1.1" style="shape-rendering:geometricPrecision; text-rendering:geometricPrecision; image-rendering:optimizeQuality; fill-rule:evenodd; clip-rule:evenodd"
viewBox="0 0 10000 10000"
 xmlns:xlink="http://www.w3.org/1999/xlink">
 <defs>
  <style type="text/css">
   <![CDATA[
    .str1 {stroke:#020202;stroke-width:7.62;stroke-miterlimit:22.9256}
    .str0 {stroke:black;stroke-width:20;stroke-linecap:square;stroke-miterlimit:22.9256}
    .fil8 {fill:none}
    .fil11 {fill:#FEFEFE}
    .fil10 {fill:#373435}
    .fil9 {fill:#020202}
    .fil1 {fill:#09AD60}
    .fil6 {fill:#231D1F}
    .fil2 {fill:#7740D1}
    .fil7 {fill:#9F4E3F}
    .fil5 {fill:#C28678}
    .fil4 {fill:#F17A59}
    .fil0 {fill:#FD4951}
    .fil3 {fill:#FDC60E}
   ]]>
  </style>
 </defs>
 <g id="Capa_x0020_1">
  <metadata id="CorelCorpID_0Corel-Layer"/>
  <circle class="fil0" transform="matrix(1.28651 -0.0687968 0.0687968 1.28651 4904.55 5797.99)" r="3239.24"/>
  <path class="fil1" d="M4904.55 5787.99l864.17 4082.83c-211.27,44.71 -425.69,72.96 -641.32,84.49 -2020.05,108.03 -3826.68,-1248.26 -4286.76,-3218.18l4063.91 -949.14z"/>
  <path class="fil2" d="M4904.55 5797.99l4164.59 269.09c-124.41,1925.45 -1552.54,3514.6 -3453.82,3843.21l-710.77 -4112.3z"/>
  <path class="fil3" d="M4904.55 5797.99l-4063.91 949.14c-55.73,-238.6 -90.33,-481.62 -103.42,-726.29 -90.7,-1696.23 855.75,-3278.19 2393.28,-4000.29l1774.05 3777.44z"/>
  <g id="_1752592263472">
   <g>
    <g>
     <path class="fil4" d="M5794.63 2866.39c-405.13,40.23 -768.32,429.85 -551.14,695.4 177.54,217.1 736.8,87.45 920.95,-245.46 156.93,-283.69 -78,-478.92 -369.81,-449.94z"/>
     <path class="fil4" d="M3379.94 2977.59c-216.89,55.98 -4.8,509.58 212.99,454.26 103.45,-26.29 112.08,-176.76 45.01,-292.51 -39.32,-67.8 -135.57,-193.33 -258,-161.75z"/>
    </g>
    <g>
     <path class="fil5" d="M5943.52 1142.61c105.93,69.91 321.1,308.23 397.45,422.98 36.25,54.48 77.97,114.44 113.69,166.25 199.52,-28.12 369.12,-145.45 428.79,-289.15 74.33,-179.03 14.05,-438.23 -81.98,-568.59 -246.06,-333.99 -825.67,-78.06 -857.95,268.51z"/>
     <path class="fil5" d="M4371.67 2982.95l11.08 144.45c124.74,11.68 191.21,-69.03 218.37,-74.82 105.22,-22.41 81.9,163.04 -200.51,174.51 -111.74,4.54 -240.04,-34.47 -294.64,-94.44 -31.6,-34.7 -6.64,-111.91 54.44,-80.14 36.96,19.23 31.15,44.85 133.32,67.61l-10.55 -145.86c-68.68,-38.15 -182.39,-61.34 -146.27,-179.12 24.08,-78.48 131.93,-120.47 230.86,-114.19 195.69,12.47 304.24,216.65 38.37,289.84 -27.96,7.7 -11.44,-0.03 -34.47,12.16zm-15.12 -390.23c-141.54,19.52 -220.36,77.07 -284.05,155.28 -148.71,182.55 -102.25,492.56 118.08,600.17 183.18,89.46 435.13,103.8 596.26,-31.47 104.4,-87.64 171.08,-261.2 130.6,-412.67 -58.84,-220.17 -278.39,-350.29 -560.89,-311.31z"/>
     <path class="fil5" d="M3433.93 1332.88l109.79 -132.02c47.91,-61.93 190.81,-190.45 255.67,-240.69 35.85,-27.76 114.99,-73.14 143.01,-100.94 2.28,-60.8 -139.8,-141.8 -233.78,-154.09 -126.25,-16.51 -234.22,29.82 -299.92,95.23 -224.93,223.93 -76.06,508.26 25.23,532.51z"/>
    </g>
    <g>
     <path class="fil6" d="M4139.91 5665.45c41.42,16.51 84.82,46.47 129.12,68.69 130.68,65.53 294.62,117.39 441,142.19 -18.34,114.22 -174.9,395.5 -357.75,271.04 -114.88,-78.2 -195.3,-291.41 -212.37,-481.92zm-242.71 -286.19c-197.62,-43.73 -259.46,-230.46 -195.25,-451.21 25.81,-88.73 57.45,-175.8 89.66,-261.8 32.37,-86.46 72.21,-172.7 102.11,-251.41 -8.68,66.62 -34.53,145.74 -47.25,221.27 -46.82,278.32 -45.33,486.23 50.73,743.15zm2201.49 264.73c1.01,733.6 -521.81,896.32 -697.11,336.12 -20.53,-65.59 -25.91,-150.17 -45.67,-202.65 -43.02,-7.49 -142.08,4.11 -192.62,4.99 -68.95,1.2 -139.24,-0.67 -207.01,-5.55 -314.07,-22.58 -734.27,-131.7 -900.14,-377.49 -123.35,-182.81 -123.97,-475.13 -85.41,-716.93 39.1,-245.33 115.53,-435.08 209.31,-637.74 74.37,5.62 265.78,60.38 478.42,76.13 394.77,29.25 839.96,-21.14 1205.54,-171.96 56.43,-23.28 149.76,-75.87 200.75,-89.3 10.78,35 37.26,79.85 54.22,118.79 19.74,45.36 33.86,80.91 50.43,129.22 94.41,275.49 168.4,625.05 152.37,918.54 -5.59,102.79 -22.97,207.99 -57.27,298.21 -37.23,97.96 -79.29,153.08 -175.19,184.89 -102.45,33.97 -215.77,21.09 -299.94,-28.92 -85.38,-50.75 -118.87,-114.2 -118.2,-246.72 1.14,-220.87 58.1,-427.39 62.49,-650.57 1.12,-57.45 13.07,-125.17 -27.76,-149.09 -145.51,-85.25 -100.01,249.27 -121.61,389.89 -27.11,176.51 -84.41,476.46 1.28,629.35 91.52,163.29 264.7,222.49 513.12,190.79zm-379.16 -4769.17c31.31,-84.36 38.38,-153.08 76.09,-237.46 170.81,-382.39 601.07,-592.62 1012.25,-411.6 283.31,124.74 481.01,385.27 566.86,683.13 148.88,516.66 -103.09,1118.08 -580.38,1207.56 81.96,811.95 -322.57,1504.14 -1106.9,1758.21 -388.62,125.89 -852.91,161.97 -1270.58,85.34 -401.89,-73.71 -772.63,-239.45 -987.5,-449.8 -95.99,-93.97 -243.56,-287.91 -173.11,-508.69 54.37,-170.42 106.34,-58.8 51.4,-259.36 -137.02,-500.12 4.94,-1064.99 289.39,-1402.46 200.03,-237.36 447.15,-453.75 884.38,-553.55 329.23,-75.13 639.1,-69.02 968.07,1.86 145.52,31.34 200.37,67.59 270.03,86.82zm-1777.13 -15.59c-28.02,27.8 -107.16,73.18 -143.01,100.94 -64.86,50.24 -207.76,178.76 -255.67,240.69l-109.79 132.02 -153.33 266.95c-78.64,-26.98 -181.9,-156.61 -224.09,-241.33 -209.35,-420.46 82.61,-978.23 562.8,-1142.72 375.64,-128.65 782.69,56.96 856.43,429 -96.74,34.83 -188.1,51.43 -284.92,90.64 -93.04,37.68 -170.16,87.97 -248.42,123.81zm664.64 -239.52c-54.01,-138.07 -66.95,-226.78 -192.08,-354.31 -328.41,-334.75 -837.77,-257.99 -1179.7,19.36 -208.56,169.17 -353.74,443.96 -373.05,721.03 -20.18,289.53 130.88,606.54 366.89,718.41 -28.13,113.39 -65.1,204.67 -85.39,334.46 -31.04,198.48 -28.81,393.67 9.15,591.16 8.38,43.63 36,131.62 39.25,165.29 3.13,32.34 -47.03,106.5 -60.06,147.16 -142.84,445.36 338.74,802.73 681.34,951.25 43.23,18.74 106.97,39.7 144.91,62.12 -9.39,37.67 -78.13,154.8 -100.36,200.84 -32,66.21 -63.7,136.53 -93.29,206.33 -59.12,139.48 -117.63,289.61 -163.64,434.56 -55.45,174.64 -91.31,317.7 -0.9,490.46 34.31,65.57 84.6,117.01 145.08,154.53 86.01,53.33 193.67,42.97 233.67,63.82 34.65,22.12 22.33,58.9 26.19,109.63 16.99,223.12 96.91,500.33 279.49,622.02 136.71,91.11 269.87,54.68 370.2,-35.04 138.08,-123.49 149.71,-261.27 191.91,-323.97 136.69,3.09 260.49,12.81 401.73,12.54 41.06,180.83 95.42,292.71 189.74,399.6 205.46,232.86 753.72,255.28 790.5,-692.68 3.31,-85.54 122.39,-36.6 197.32,-388.41 93.28,-438.08 -61.47,-1070.75 -251.47,-1433.93 24.62,-27.74 217.4,-156.71 313.46,-275.69 44.72,-55.39 85.31,-99.9 129.47,-161.44 247.51,-344.97 328.91,-687.57 312.93,-1150.32 145.72,-28.92 321.21,-197.64 389.85,-286.36 90.45,-116.88 173.26,-282.02 207.33,-467.97 196.59,-1072.96 -971.01,-1888.53 -1684.04,-1128.6 -14.85,15.83 -22.82,29.61 -37.71,48.01 -23.93,29.59 -44.22,57.11 -67.14,95.37 -37.45,62.47 -86.78,153.32 -104.66,230.22 -74.1,-11.04 -156.43,-39.64 -236.73,-54.97 -451.29,-86.25 -584.6,-10.88 -790.19,-24.48z"/>
     <path class="fil6" d="M4371.67 2982.95c23.03,-12.19 6.51,-4.46 34.47,-12.16 265.87,-73.19 157.32,-277.37 -38.37,-289.84 -98.93,-6.28 -206.78,35.71 -230.86,114.19 -36.12,117.78 77.59,140.97 146.27,179.12l10.55 145.86c-102.17,-22.76 -96.36,-48.38 -133.32,-67.61 -61.08,-31.77 -86.04,45.44 -54.44,80.14 54.6,59.97 182.9,98.98 294.64,94.44 282.41,-11.47 305.73,-196.92 200.51,-174.51 -27.16,5.79 -93.63,86.5 -218.37,74.82l-11.08 -144.45z"/>
     <path class="fil6" d="M5056.6 2694.97c-143.17,44.13 -138.62,414.58 94.79,368.4 179.98,-35.61 82.33,-423 -94.79,-368.4z"/>
     <path class="fil6" d="M3711 2708.43c-61.79,28.01 -96.8,97.54 -96.93,189 -0.16,94.9 49.67,145.33 149.97,123.93 147.66,-31.51 114.49,-388.86 -53.04,-312.93z"/>
    </g>
    <g>
     <path class="fil7" d="M5794.63 2866.39c291.81,-28.98 526.74,166.25 369.81,449.94 -184.15,332.91 -743.41,462.56 -920.95,245.46 -217.18,-265.55 146.01,-655.17 551.14,-695.4zm-2414.69 111.2c122.43,-31.58 218.68,93.95 258,161.75 67.07,115.75 58.44,266.22 -45.01,292.51 -217.79,55.32 -429.88,-398.28 -212.99,-454.26zm976.61 -384.87c282.5,-38.98 502.05,91.14 560.89,311.31 40.48,151.47 -26.2,325.03 -130.6,412.67 -161.13,135.27 -413.08,120.93 -596.26,31.47 -220.33,-107.61 -266.79,-417.62 -118.08,-600.17 63.69,-78.21 142.51,-135.76 284.05,-155.28zm700.05 102.25c177.12,-54.6 274.77,332.79 94.79,368.4 -233.41,46.18 -237.96,-324.27 -94.79,-368.4zm-1345.6 13.46c167.53,-75.93 200.7,281.42 53.04,312.93 -100.3,21.4 -150.13,-29.03 -149.97,-123.93 0.13,-91.46 35.14,-160.99 96.93,-189zm2232.52 -1565.82c32.28,-346.57 611.89,-602.5 857.95,-268.51 96.03,130.36 156.31,389.56 81.98,568.59 -59.67,143.7 -229.27,261.03 -428.79,289.15 -35.72,-51.81 -77.44,-111.77 -113.69,-166.25 -76.35,-114.75 -291.52,-353.07 -397.45,-422.98zm-223.99 -267.79c-69.66,-19.23 -124.51,-55.48 -270.03,-86.82 -328.97,-70.88 -638.84,-76.99 -968.07,-1.86 -437.23,99.8 -684.35,316.19 -884.38,553.55 -284.45,337.47 -426.41,902.34 -289.39,1402.46 54.94,200.56 2.97,88.94 -51.4,259.36 -70.45,220.78 77.12,414.72 173.11,508.69 214.87,210.35 585.61,376.09 987.5,449.8 417.67,76.63 881.96,40.55 1270.58,-85.34 784.33,-254.07 1188.86,-946.26 1106.9,-1758.21 477.29,-89.48 729.26,-690.9 580.38,-1207.56 -85.85,-297.86 -283.55,-558.39 -566.86,-683.13 -411.18,-181.02 -841.44,29.21 -1012.25,411.6 -37.71,84.38 -44.78,153.1 -76.09,237.46z"/>
     <path class="fil7" d="M6098.69 5643.99c-248.42,31.7 -421.6,-27.5 -513.12,-190.79 -85.69,-152.89 -28.39,-452.84 -1.28,-629.35 21.6,-140.62 -23.9,-475.14 121.61,-389.89 40.83,23.92 28.88,91.64 27.76,149.09 -4.39,223.18 -61.35,429.7 -62.49,650.57 -0.67,132.52 32.82,195.97 118.2,246.72 84.17,50.01 197.49,62.89 299.94,28.92 95.9,-31.81 137.96,-86.93 175.19,-184.89 34.3,-90.22 51.68,-195.42 57.27,-298.21 16.03,-293.49 -57.96,-643.05 -152.37,-918.54 -16.57,-48.31 -30.69,-83.86 -50.43,-129.22 -16.96,-38.94 -43.44,-83.79 -54.22,-118.79 -50.99,13.43 -144.32,66.02 -200.75,89.3 -365.58,150.82 -810.77,201.21 -1205.54,171.96 -212.64,-15.75 -404.05,-70.51 -478.42,-76.13 -93.78,202.66 -170.21,392.41 -209.31,637.74 -38.56,241.8 -37.94,534.12 85.41,716.93 165.87,245.79 586.07,354.91 900.14,377.49 67.77,4.88 138.06,6.75 207.01,5.55 50.54,-0.88 149.6,-12.48 192.62,-4.99 19.76,52.48 25.14,137.06 45.67,202.65 175.3,560.2 698.12,397.48 697.11,-336.12z"/>
     <path class="fil7" d="M3433.93 1332.88c-101.29,-24.25 -250.16,-308.58 -25.23,-532.51 65.7,-65.41 173.67,-111.74 299.92,-95.23 93.98,12.29 236.06,93.29 233.78,154.09 78.26,-35.84 155.38,-86.13 248.42,-123.81 96.82,-39.21 188.18,-55.81 284.92,-90.64 -73.74,-372.04 -480.79,-557.65 -856.43,-429 -480.19,164.49 -772.15,722.26 -562.8,1142.72 42.19,84.72 145.45,214.35 224.09,241.33l153.33 -266.95z"/>
     <path class="fil7" d="M4710.03 5876.33c-146.38,-24.8 -310.32,-76.66 -441,-142.19 -44.3,-22.22 -87.7,-52.18 -129.12,-68.69 17.07,190.51 97.49,403.72 212.37,481.92 182.85,124.46 339.41,-156.82 357.75,-271.04z"/>
     <path class="fil7" d="M3897.2 5379.26c-96.06,-256.92 -97.55,-464.83 -50.73,-743.15 12.72,-75.53 38.57,-154.65 47.25,-221.27 -29.9,78.71 -69.74,164.95 -102.11,251.41 -32.21,86 -63.85,173.07 -89.66,261.8 -64.21,220.75 -2.37,407.48 195.25,451.21z"/>
    </g>
   </g>
   <line class="fil8 str0" x1="7083.43" y1="6676.64" x2="7083.43" y2= "6664.95" />
   <line class="fil8 str0" x1="7013.26" y1="6700.03" x2="7013.26" y2= "6688.34" />
   <line class="fil8 str0" x1="6475.23" y1="6723.43" x2="6486.92" y2= "6711.74" />
   <line class="fil8 str0" x1="6943.07" y1="6723.43" x2="6943.07" y2= "6711.74" />
   <line class="fil8 str0" x1="5095.04" y1="6770.22" x2="5083.35" y2= "6770.22" />
   <line class="fil8 str0" x1="4346.47" y1="6805.3" x2="4358.18" y2= "6793.61" />
   <line class="fil8 str0" x1="6814.42" y1="6852.09" x2="6814.42" y2= "6793.61" />
   <line class="fil8 str0" x1="2053.99" y1="6828.7" x2="2065.7" y2= "6805.3" />
   <line class="fil8 str0" x1="5165.23" y1="6840.39" x2="5153.52" y2= "6805.3" />
   <line class="fil8 str0" x1="4288.01" y1="6828.7" x2="4276.3" y2= "6828.7" />
   <line class="fil8 str0" x1="6358.25" y1="6863.79" x2="6358.25" y2= "6840.39" />
   <path class="fil8 str0" d="M1621.24 6922.28c-1.27,-19.28 -2.43,-27.74 0,-58.49"/>
   <path class="fil8 str0" d="M4393.28 6945.66c-8.26,-41.38 -1.13,-31.16 0,-81.87"/>
   <line class="fil8 str0" x1="3539.44" y1="6875.49" x2="3527.74" y2= "6875.49" />
   <line class="fil8 str0" x1="4217.82" y1="6875.49" x2="4206.12" y2= "6875.49" />
   <line class="fil8 str0" x1="3469.25" y1="6887.18" x2="3457.55" y2= "6887.18" />
   <line class="fil8 str0" x1="3013.09" y1="6910.57" x2="3013.09" y2= "6898.88" />
   <path class="fil8 str0" d="M5937.19 6957.35c0,-46.69 -2.36,-23.07 11.69,-58.47"/>
   <line class="fil8 str0" x1="3399.07" y1="6910.57" x2="3387.38" y2= "6910.57" />
   <line class="fil8 str0" x1="7808.6" y1="6922.28" x2="7820.3" y2= "6910.57" />
   <line class="fil8 str0" x1="7972.35" y1="6922.28" x2="7972.35" y2= "6910.57" />
   <line class="fil8 str0" x1="5574.6" y1="6969.05" x2="5586.29" y2= "6945.66" />
   <line class="fil8 str0" x1="7223.78" y1="6606.47" x2="7235.49" y2= "6594.78" />
   <line class="fil8 str0" x1="7153.61" y1="6641.57" x2="7165.3" y2= "6629.86" />
  </g>
  <path class="fil9 str1" d="M8591.62 8435.09c17.8,-16.06 15.43,-18.19 7.59,-39.52 -7.84,-21.34 -4.37,-26.18 -18.14,-43.2 -66.25,-8.07 -39.55,96.18 10.55,82.72z"/>
  <path class="fil9 str1" d="M965.39 8602c17.23,4.76 33.8,9.51 41.57,-10.12 29.11,-73.59 -81.6,-87.5 -41.57,10.12z"/>
  <path class="fil9 str1" d="M2294.23 8556.09c0,37.21 13.26,42 43.06,33.44 9.2,-25.12 13.33,-45.99 -5.61,-69.12 -28.61,-3.93 -37.45,6.45 -37.45,35.68z"/>
  <path class="fil9 str1" d="M4510.45 7365.9c0.62,20.12 -1.38,39.02 14.78,45.77 19.45,8.12 32.04,-3.32 35.03,-17.63 9.05,-43.25 -20.63,-50.26 -49.81,-28.14z"/>
  <path class="fil9 str1" d="M8724.53 6752.24c27.37,17.75 37.84,23.13 61.36,-1.4 0.31,-23.7 -2.09,-33.93 -27.15,-34.9 -28.12,-1.08 -32.2,10.68 -34.21,36.3z"/>
  <path class="fil9 str1" d="M3248.44 8632.63c22.57,-19.43 20.79,-31.42 7.09,-58.24l-32.73 -1.22c-16.53,32.99 -11.34,57.75 25.64,59.46z"/>
  <path class="fil9 str1" d="M1042.93 8563.44c86.13,25.12 63.9,-78.39 -4.42,-34.25l4.42 34.25z"/>
  <path class="fil9 str1" d="M5435.81 8032.53l34.92 1.19c23.31,-35.47 5.78,-75.13 -38.41,-48.01l3.49 46.82z"/>
  <path class="fil9 str1" d="M5586.82 7509.77c-2.19,31.28 -8.59,69.47 -0.2,100.46 9.3,34.35 53.95,39.74 48.75,-17.99 -10.77,-119.73 22.05,-114.82 27.27,-185.32 2.68,-36.11 -5.78,-69.11 4.48,-101.3 17.8,-55.8 -1.67,-42.86 -4.08,-89.4 -3.47,-66.97 0.09,-144.89 0.09,-213.09 -0.01,-68.6 -1.18,-139.8 41.58,-175.97 11.73,-9.92 51.86,-28.91 76.67,-29.81 20.66,-0.74 52.62,29.56 59.27,43.84 0.65,1.4 17.33,179.42 18,195.35 2.99,71.13 -6.82,140.17 2.16,209.79 14.56,112.92 11.89,91.39 8.1,210.91 -3.61,114.27 -5.78,312.23 4.72,422.05 10.14,106.13 13.82,66.88 15.5,200.26 0.46,36.64 1.3,74.76 -3.2,111.07 -4.02,32.48 -13.46,58.06 -15.53,90.58 -10.55,165.85 70.61,460.52 -189.58,435.18 -19.23,-26.24 -44.53,-48.73 -43.11,-88.8 41.49,-6.44 75.27,-4.23 59.1,-50.32 -35.76,-15.88 -42.76,5.43 -77.72,-0.55 -33.72,-51.42 -8.73,-67.23 -21.22,-113.74 -5.66,-21.03 -48.38,-49.67 -64.3,-63.02 0,-34.59 3.65,-63.55 -7.71,-94.87 -12.4,-34.21 -22.14,-38.33 -18.05,-85.77 4.02,-46.76 12.57,-4.72 24.09,-79.36 6.63,-43.03 6.14,-64.61 -38.42,-60.03 -17.63,29.37 -4.5,27.99 -15.72,56.73 -8.94,22.89 -18.26,21.17 -20.59,54.69 -4.29,61.53 -1.82,77.57 18.78,122.99 -38.87,11.72 -60.07,13.86 -73.72,49.25 -14.2,36.83 -18.69,78.12 28.42,72.5 31.69,-39.61 -8.23,-62.1 51.52,-69.04 2.06,59.51 -26.33,88.84 -27.49,155.22 -0.96,55.24 13.79,129.02 -13.29,172.11 -53.36,84.9 -174.01,105.81 -179.04,-60.32 23.49,-7.09 35.5,-13.51 50.4,-28.66l-2.96 -79.49c-19.74,-9.48 -29.5,-4.28 -47.02,4.21 -2.57,-43.6 0.87,-87.61 -1.13,-130.72 -1.47,-31.74 -10.28,-71.95 -13.36,-109.35 -6.41,-77.92 -6.88,-160.7 -6.87,-238.52l7.51 -482.15c1.29,-0.68 3.29,-0.84 4.26,-0.96l13.28 -1.09c7.64,-0.19 3.35,4.47 17.93,-0.16 27.83,-8.85 16.84,-93.86 12.04,-114.69 -18.8,-10.51 -26.73,-9.48 -47.14,-0.06l1.2 -153.31c5.57,5.15 3.47,3.56 8.27,10.9 13.38,20.47 4.44,18.58 20.42,24.9 54.84,21.71 18.65,-98.62 14.92,-109.66 -20.67,-2.58 -30.17,0.17 -43.57,7.46 -3.95,-46.76 -7.5,-200.83 6.66,-235.79 17.38,-42.86 76.12,-103.9 138.32,-97.46 27.42,25.76 55.73,86.55 66.36,135.83 6.72,31.14 5.15,59.17 10.59,89.63 4.48,25.04 13.52,55.78 19.2,81.78 7.64,34.95 1.95,58.81 10.8,90.37 7.97,28.41 14.32,52.76 19.79,81.03 5.38,27.8 6.61,62.23 12.06,89.32 5.64,28 25.95,28.78 52.51,42.36zm2.34 -53.85c-0.32,-0.63 -38.01,-166.33 -40.84,-181.23 -6.84,-35.94 -3.44,-60.69 -12.78,-99.89 -25.35,-106.37 -13.75,-175.57 -74.97,-273.34 -13.88,-22.17 -31.01,-51.68 -57.09,-54.31 -29.33,-2.97 -71.1,10.57 -93.7,22.42 -47.49,24.9 -87.85,70.13 -104.67,126.19 -14.21,47.37 -8.24,599.99 -9.48,680.13 -2.6,168.18 -12.26,501.05 7.06,666.35 17.8,152.32 -13.72,325.32 43.76,416.25 64.05,101.33 242.25,34.56 260.72,-98.31 8.83,-63.49 -19.44,-142.58 11.16,-208.65 48.92,41.99 21.83,9.58 31.53,81.83 5.23,38.99 31.02,68.37 35.38,86.79 15.34,64.71 -6.9,31.49 30.55,88.7 20.34,31.08 19.23,50.71 65.17,57.6 294.92,44.22 237.26,-318.19 238.84,-468.46 0.54,-51.05 23.17,-85.87 20.26,-218.35 -2.82,-128.16 -9.36,-118.7 -17.9,-219.57 -10.21,-120.56 -4.1,-358.58 -0.77,-486.92 2.22,-85.44 -14.26,-141.92 -14.4,-229.86 -0.07,-38.5 5.06,-80.49 1.77,-117.59 -3.45,-38.93 -12.23,-69.7 -13.04,-112.24 -1.3,-68.81 7.98,-109.21 -78.15,-161.42 -37.67,-22.84 -127.43,13.07 -166.39,61.31 -39.46,48.86 -37.75,125.88 -37.75,200.99 0,53.82 -6.42,192.16 4.08,235.91 1.79,7.43 -3.14,168.72 -11.97,189.13 -11.58,26.78 -0.8,11.75 -16.38,16.54z"/>
  <path class="fil9 str1" d="M4891.72 7171.32c11.28,29.03 27.58,189.86 31.16,229.71 9.16,101.78 67.35,693.73 65.43,739.13 -52.1,-29.47 -49.36,18.36 -49.36,51.52 0,33.68 16.13,50.46 41.69,31.6 21.09,-15.56 -7.56,-9.51 16.75,-13.7l28.36 339.19c6.38,64.18 4.6,100.82 -32.96,140.13 -24.51,25.67 -84.08,62.31 -136.34,44.46 -35.81,-20.14 -65.6,-301.54 -64.71,-351.07l3.09 -85.29c18.71,6.78 19.28,13.9 44.78,8.77 12.92,-34.68 18.69,-130.91 -42.6,-85.69 -6.62,4.89 0.63,3.23 -12.18,9.31 -31.2,-121.49 -157.72,-97.9 -172.71,-10.27 -18.51,108.23 -27.94,194.75 -30.69,308.94 -2.04,85.22 -2.54,255.98 -97.47,248.56 -44.72,-3.5 -86.26,-44.3 -106,-64.19 -49.49,-49.89 -48.74,-38.15 -40.27,-124.45l6.75 5.83c12.65,9.78 37.64,26.91 47.15,-6.65 12.21,-43.09 -27.04,-41.67 -30.64,-42.69l-15.15 -5.2 73.73 -538.61c51.26,16.08 52.11,6.86 52.11,-44.45 0,-30.71 -16.86,-31.06 -31.04,-36.04l39.6 -357.81 13.15 30.54c47.27,4.81 46.83,-16.48 37.51,-53.66 -15.02,-5.83 -21.72,-8.08 -36.77,0.88l-10.9 9.59c5.07,-78.39 24.54,-147.73 26.45,-227.03 0.71,-29.51 14.31,-66.59 20.61,-99.62l61.57 -319.06c13.93,-75.67 81.15,-124.11 127.68,-124.11 41.13,0 58.87,-6.86 98.36,46.36 13.09,17.64 16.13,60.41 29.42,88.38 26.55,55.94 30.44,131.48 37.37,198.12 -74.99,-23.78 -58.58,67.97 -25.05,67.14 18.55,-0.47 -1.11,0.85 15.16,-5.04l16.96 -3.53zm-147.34 1132.48c-6.07,156.28 -3.79,142.3 26.73,323.61 5.96,35.44 12.89,76.81 25.76,109.17 45.69,114.83 281.96,33.49 281.96,-141.25 0,-66.31 -51.59,-603.58 -58.54,-688.52 -13.7,-167.65 -46.79,-517.31 -68.04,-675.66 -7.76,-57.8 -32.54,-284.42 -50.91,-320.13 -47.73,-92.81 -3.21,-81.55 -54.62,-130.37 -56.4,-53.56 -29.79,-52.79 -138.79,-50.74 -44.99,0.85 -92.03,42.61 -116.55,66.67 -46.04,45.19 -40.35,56.62 -55.05,129.42 -21.1,104.43 -37.09,208.44 -61.15,314.95l-91.49 653.83c-29.08,221.56 -60.32,437.63 -91.06,655.61 -8.09,57.35 -27.06,105.11 5.18,146.54 106.24,136.54 262.17,207.04 313.94,10.03 23.81,-90.61 20.81,-451.1 59.78,-495.94 46.22,-53.18 74.83,44.61 72.85,92.78z"/>
  <path class="fil9 str1" d="M7311.85 6801.3l0 101.29c-32.25,9.43 -41.21,15.32 -40.24,55.59 0.32,13.65 -0.16,34.2 7.29,44.01 10.11,13.31 -3.08,-2.31 12.8,8.72 11.36,7.89 15.07,-6.96 15.07,31.46 0,60.06 1.39,215.82 -24.89,256.53 -30.89,47.85 -147.53,66.38 -174.75,107.33l-13.85 325.72c-3.6,13.93 -9,5.8 -36.9,14.88 -5.19,21.75 -2.05,41.64 6.07,63.92 15.29,26.87 45.91,-23.68 40.39,150.5 -62.3,-40.24 -51.26,33.44 -41.06,53.85 35.47,71.04 45.28,-88.94 39.06,191.27 -25.37,-8.94 -14.13,-40.63 -58.51,-14.92 -3.59,29.6 -1.43,16.71 6.04,38.35 3.81,11.03 6.25,24.93 9.46,35.77l40.75 0.38 -3.06 138.82c-18.58,-20.34 -11.38,-35.41 -50.01,-24.29 -7.07,19.86 -6.53,44.02 -14.59,69.93 -9.52,30.65 1.95,40.18 35.5,38.18 3.38,-5.87 2.95,-7.94 6.71,-13.35 0.87,-1.25 4.68,-6.39 5.69,-7.55 12.95,-14.84 -5.05,0.99 12.42,-11.61 -0.43,60.64 1.54,138.63 -27.78,177.52 -33.29,44.17 -66.91,78.96 -116.79,78.96 -53.49,0 -83.23,-49.86 -76.77,-94.8 8.16,-27.84 45.5,-21.15 35.36,-87.76 -40.14,-26.32 -32.23,2.68 -50.36,-1.94 -5.42,-37.47 -2.96,-75.57 -2.49,-113.39 44.33,53.7 55.59,8.3 55.59,-37.99 0,-48.17 -27.65,-39.53 -51.91,-24.87 -1.24,-35.09 -11.01,-78.62 -13.67,-116.63 -14.79,-210.58 -0.89,-485.89 -0.46,-705.05 0,-7.72 -10.59,-67.83 -13.23,-77.59 -5.32,-19.62 -28.61,-35.56 -44.7,-45.89 -71.09,-45.64 -157.02,43.34 -156.7,-201.72 0.09,-67.32 -19.11,-108.78 -19.11,-168.16 0,-108.98 -8.96,-247.56 74.8,-325.07 35.55,-32.9 337.81,-92.07 346.7,-96.32 55.56,-26.56 59.66,-20.15 129.89,-24.31 66.85,-3.95 137.39,-38.69 145.33,141.32 -22.77,-6.94 -13.48,-17.87 -37.82,-14.58 -32.4,4.37 -28.24,40.86 24.35,69.62 23.15,12.66 9.44,-6.17 20.38,13.87zm-754.54 196.22c0,81.07 16.18,113.73 19.85,179.21 4.2,74.66 -4.62,100.29 18.89,171.12 22.46,67.63 27.02,78.36 102.81,88.26 90.99,11.89 94.38,27.98 93.2,161.29 -1.47,165.71 -13.6,521.38 2.83,674.19 2.78,25.8 10.12,54.91 11.11,77.55 3.05,70.14 -14.77,138.9 6.75,228.82 7.61,31.8 3.77,60.08 11.15,89.41 8.62,34.32 53.77,94.81 100.33,94.81 38.56,0 82.3,1.9 112.62,-26.35 15.88,-14.79 42.92,-40.13 54.93,-57.15 47.39,-67.14 41.82,-58.82 48.3,-172.48 12.87,-225.78 14.36,-402.06 14.36,-622.87 0,-45.77 -19.63,-27.26 -10.63,-137.8 3.87,-47.58 1.58,-99.53 4.37,-148.13 11.39,-198.64 -29.59,-151.33 93.54,-209.48 91.49,-43.2 102.77,-75.63 109.21,-194.17l11.85 -409.27c0,-95.64 -31.82,-248.57 -123.47,-249.42 -41.2,-0.39 -134.62,7.01 -175.94,11.9 -42.07,4.97 -36.25,19.19 -71.49,26.31l-229.25 55.74c-63.45,16.14 -94.82,21.23 -129.93,60.38 -61.94,69.11 -75.39,188.78 -75.39,308.13z"/>
  <path class="fil9 str1" d="M6381.54 7123.55c-25.19,-14.96 -17.26,-23.37 -52.39,-10.46 -4.65,25.09 2.7,35.87 15.49,54.18 21.42,30.67 31.29,20.99 46.24,32.08 -0.4,44.28 -7.2,84 -8.28,124.25 -0.69,25.91 9.58,92.97 9.58,150.46 0,38.62 -10.61,65.13 -12.18,95.6 -1.4,27.23 9.61,68.45 11.72,100.4 3.33,50.29 3.25,52.4 -13.81,93.64 -19.87,48.04 12.97,47.93 12.97,80.38l0 95.31c0,33.74 -16.53,45.51 -7.65,80.55 15.85,62.56 16.8,373.19 8.87,463.77 -3.32,37.88 -12.02,62.79 -16.03,96.43 -4.77,40.08 7.78,68.03 -15.45,96.56 -114.9,141.13 -74.18,-53.76 -129.9,-39.85 -49.37,12.34 0.56,90.06 8.71,114.56 -88,42.87 -89.82,-47.95 -111,-150.97 -12.2,-59.38 5.61,-76.77 21.43,-117.95 15.18,-39.52 -23.01,-45.21 -21.81,-128.23l1.62 -56.05c10.78,-27.57 40.97,-10.25 49.29,-55.94 10.33,-56.66 -1.73,-68.92 -49.12,-52.14 0,-115.06 -26.11,-67.88 -2.63,-127.86 15.56,21.9 24.23,31.57 50.21,17.19 5.52,-31.84 10.84,-72.31 -3.67,-101.33l-34.72 -0.99c-6.01,17.72 -7.29,36.83 -7.29,57.89 -37.16,-37.36 -18.62,-329.94 -17.09,-402.22 77.13,49.71 53.33,-66.9 48.41,-82.13 -24.15,-7.11 -32.89,-1.12 -46.27,13.63 1.35,-32.61 -2.9,-46.93 -6.46,-74.06 -5.63,-42.89 8.99,-44.48 6.21,-76.94 -1.71,-20.01 -10.44,-46.33 -12.91,-71.71 -12.22,-125.32 -3.72,-343.48 17.55,-451.73 21.43,-109.02 59.99,-149.4 180.34,-149.4 24.44,0 38.18,23.88 48.87,39.97 19.23,28.94 11.3,49.93 11.3,93.74 0,38.91 15.05,77.16 17.36,118.46 2.55,45.53 -4.62,89.95 2.49,130.91zm-332.34 42.16c0,68.13 -2.99,149.86 9.17,215.28 15.5,83.4 -6.73,37.37 0.71,99.55 15.47,129.37 -8.05,328.75 4.04,472.98 2.36,28.09 14.91,84.62 10.51,105.96 -14.7,71.28 6.07,48.85 6.07,104.16l-2.56 207.44c0,42.76 22.14,75.12 21.61,94.87 -0.64,23.55 -24.15,53.74 -24.15,101.35 0,39.88 13.62,74.35 22.21,110.02 10.84,45.01 -2.42,77.76 30.98,102.83 44.94,33.74 90.61,48.68 139.34,10.62 52.99,-41.38 37.25,26.89 123.48,-72.62 29.28,-33.8 32.59,-42.79 33.47,-100.53 0.74,-49.35 24.09,-122.05 24.09,-240.94l-5.04 -246.47c-0.24,-26.12 -0.17,-69.86 -3.46,-94.6 -2.33,-17.5 -8.8,-22.92 -7.64,-39.22 1.01,-14.27 8.5,-20.73 8.5,-40.18l0 -112.13c0,-36.57 -15.97,-38.43 -14.4,-60.94 2.07,-29.9 16.96,-7.78 16.96,-101.64 0,-34.79 -12.92,-76.57 -12.64,-106.48 0.28,-29.79 12.64,-64.47 12.64,-117.78 0,-42.76 -7.42,-82.96 -9.43,-123.17l6.87 -162.75c0,-31.73 -11.41,-81.7 -11.41,-162.59 0,-55.94 -16.53,-83.31 -16.53,-145.76 0,-56.18 11.4,-71.52 -21.6,-111.59 -30.78,-37.39 -31.71,-60.53 -89.47,-60.53 -117.4,0 -189.61,39.94 -218.96,144.47 -28.45,101.34 -33.36,215.97 -33.36,330.39z"/>
  <path class="fil9 str1" d="M6784.13 9060.15c2.25,60.01 60.75,36.97 106.94,30.58 47.18,-6.52 114.04,-3.56 151.35,-12.85 6.15,-48.31 -46.94,-50.35 -90.14,-50.37 -59.78,-0.03 -125.23,8.57 -168.15,32.64z"/>
  <path class="fil9 str1" d="M5577.14 7855.76c10.55,37.78 27.59,42.96 60.3,27.87 -4.74,21.53 -21.77,121.69 28.36,82.77 15.78,-12.25 28.54,-92.11 17.45,-108.99 -21.23,-28.62 -29.21,-5.78 -50.74,4.3l-13.87 -63.93c-44.53,-14.27 -52.33,19.22 -41.5,57.98z"/>
  <path class="fil9 str1" d="M1700.92 9008.13c-27.5,4.77 -97.43,16.11 -63.57,48.69 18.23,17.54 81.23,-0.34 112.78,-3.32 17.74,-1.67 114.95,2.64 68.83,-36.74 -23.44,-20.01 -87.59,-13.91 -118.04,-8.63z"/>
  <path class="fil9 str1" d="M5304.55 7994.88c9.91,-22.9 24.88,-146.28 -13.72,-149.68 -43.38,-3.83 -31.8,115.64 -23.39,147.84l37.11 1.84z"/>
  <path class="fil9 str1" d="M1414.81 7641.15c-31.41,15.35 -5.37,53.57 8.79,71.28 18.4,23.02 12.31,77.74 49.91,61.61 24.62,-10.56 14.32,-63.13 0.07,-83.78 -31.12,-45.08 -36.91,-59.79 -58.77,-49.11z"/>
  <path class="fil9 str1" d="M2456.64 7475.54l36.53 1.11c8.22,-22.14 8.13,-52.94 13.33,-77.94 4.74,-22.81 17.68,-59.64 -19.52,-58.78 -39.57,0.92 -41.53,108.56 -30.34,135.61z"/>
  <path class="fil9 str1" d="M5309.48 7657.26c-73.32,-35.15 -45.76,115.78 -41.91,121.63 7.06,10.74 21.69,16.71 36.43,5.64 17.08,-12.82 9.01,-110.92 5.48,-127.27z"/>
  <path class="fil9 str1" d="M4113.69 8343.07c10.06,-23.17 8.35,-60.25 7.7,-90.14 -0.68,-30.95 -18.01,-65.47 -44.6,-36.93 -10.85,11.64 -7.22,68.35 -7.05,88.21 0.34,37.18 6.48,50.09 43.95,38.86z"/>
  <path class="fil9 str1" d="M894.43 7625.43l0 84.1c0,33.07 50.91,50.12 50.91,-11.21 0,-52.26 6.76,-71.39 -15.11,-98.4 -22.39,-1.34 -35.8,2.52 -35.8,25.51z"/>
  <path class="fil9 str1" d="M4070.11 7799.23c0,72.61 -10.98,119.12 44.46,101.88 9.79,-26.37 6.47,-64.17 6.47,-96.27 0,-50.61 -50.93,-50.87 -50.93,-5.61z"/>
  <path class="fil9 str1" d="M5320.67 8291.69c-37.88,-13.88 -44.33,0.36 -44.13,39.73 0.1,20.04 -5.85,74.22 7.8,87.12 7.81,7.38 23.54,8.13 32.28,0.28 20.9,-18.79 8.52,-114.67 4.05,-127.13z"/>
  <path class="fil9 str1" d="M3992.45 8169.25c0,72.17 -10.11,111.7 43.42,95.62 12.57,-29.46 6.11,-97.64 1.53,-131.46 -35.14,-8.33 -44.95,-1.73 -44.95,35.84z"/>
  <path class="fil9 str1" d="M8106.48 7498.23c19.3,7.51 22.82,7.37 41.92,-0.2 5.56,-29.06 3.56,-113.47 -30.34,-118.82 -48.94,-7.73 -17.75,90.72 -11.58,119.02z"/>
  <path class="fil9 str1" d="M1931.33 7552.31c19.69,-21.59 5.62,-44.51 1.61,-73.65 -3.06,-22.22 -8.12,-66.41 -41.68,-45.05 -22.89,14.55 -8.35,53.27 -3.73,79.18 5.05,28.28 11.85,52.53 43.8,39.52z"/>
  <path class="fil9 str1" d="M916.79 8264.56c-14.43,11.69 -17.91,102.27 -0.17,116.98 8.01,6.64 23.37,6.25 31.27,-0.66 15.04,-13.14 21.78,-159.17 -31.1,-116.32z"/>
  <path class="fil9 str1" d="M3546.57 7682c67.98,19.85 58,-94.91 47.72,-120 -36.14,-5.86 -39.81,4.09 -42.93,40.75 -2.87,33.64 -18.27,49.67 -4.79,79.25z"/>
  <path class="fil9 str1" d="M1903.39 8163.38c1.02,0.9 2.43,1.15 2.89,2.89 2.86,10.71 31.29,15.74 40.69,7.46 14.44,-27.62 13.47,-87.8 1.68,-117.18l-35.45 -2.42c-14.55,30.06 -4.23,69.67 -9.81,109.25z"/>
  <path class="fil9 str1" d="M3581.42 8304.27c22.6,-49.35 -9.59,-155.66 -48.09,-115.21 -15.23,15.99 4.11,42.55 5.45,70.39 1.93,39.88 1.45,56.09 42.64,44.82z"/>
  <path class="fil9 str1" d="M1983.45 8367.72c0.86,-0.82 13.06,2.07 8.74,-33.57 -4.89,-40.5 -11.74,-109.19 -50.47,-82.39 -16.19,11.21 -11.69,143.16 41.73,115.96z"/>
  <path class="fil9 str1" d="M5829.75 8221.1c-40.93,0.69 -35.01,14.01 -34.88,54.53 0.09,29.67 -6.39,65.84 20.53,71.15 32.67,6.45 29.76,-32.61 29.75,-53.97 -0.03,-41.62 6.13,-49.63 -15.4,-71.71z"/>
  <path class="fil9 str1" d="M1335.19 7104.04c0,30.67 -3.57,62.68 5.81,84.72 44.83,14.58 44.22,-8.91 44.05,-50.86 -0.19,-43.83 11.87,-79.07 -43.43,-66.5 -3.47,9.08 -6.43,19.55 -6.43,32.64z"/>
  <path class="fil9 str1" d="M3861.79 7821.66l0 50.45c0,41.37 50.91,56.03 50.91,-5.6l0 -50.46c0,-48.66 -50.91,-53.78 -50.91,5.61z"/>
  <path class="fil9 str1" d="M5273.63 8202.49c41.05,5.18 39.4,-13 39.17,-49.77 -0.16,-24.09 6.34,-61.98 -12.96,-71.21 -54.5,-26.04 -39.99,99.74 -26.21,120.98z"/>
  <path class="fil9 str1" d="M1594.33 7950.6l0 44.85c0,60.63 49.63,50.79 49.63,5.61 0,-34.92 4.27,-65.52 -9.87,-89.7 -36.96,-4.29 -39.76,4.77 -39.76,39.24z"/>
  <path class="fil9 str1" d="M5795.14 7165.71c0,31.45 -4.06,66.26 8.08,88.45l33.34 3.5c11.13,-33.16 15.62,-93.1 -2.37,-123.69 -31.03,-4 -39.05,0.19 -39.05,31.74z"/>
  <path class="fil9 str1" d="M956.78 8130.01l0 -56.07 -3.99 -30.47c-54.52,-13.99 -46.12,30.49 -46.02,75.73 0.17,70.05 50.01,56.2 50.01,10.81z"/>
  <path class="fil9 str1" d="M8140.06 7838.47c0,130.89 50.93,80.2 50.93,44.86 0,-64.97 9.03,-92.3 -38.13,-89.04 -8.47,12.32 -12.8,20.97 -12.8,44.18z"/>
  <path class="fil9 str1" d="M1594.33 7737.56l3.54 85.51c14.14,4.61 18.09,6.09 35.53,3.11 16.01,-23.77 10.56,-46.84 10.56,-88.62 0,-50.12 -49.63,-49.26 -49.63,0z"/>
  <path class="fil9 str1" d="M1594.33 8169.25l3.32 80.86c55.41,22.4 46.31,-21.67 46.31,-80.86 0,-29.15 -7.22,-40.34 -37.28,-38.14 -7.86,11.01 -12.35,16.9 -12.35,38.14z"/>
  <path class="fil9 str1" d="M5795.14 7401.18l4.17 86.27c53.68,14.19 45.62,-17.6 45.62,-80.66 0,-17.7 -3.46,-27.06 -9.06,-39.14 -29.55,-3.61 -40.73,3.24 -40.73,33.53z"/>
  <path class="fil9 str1" d="M3584.51 7475.36l36.62 1.47c9.57,-27.62 7.02,-46.37 7.02,-75.65 0,-72.81 -85.7,-32.85 -43.64,74.18z"/>
  <path class="fil9 str1" d="M1906.79 7655.87c-47.44,31.94 -29.82,139.44 12.48,103.57 13.53,-11.47 4.79,-20.5 19.56,-71.36 7.55,-26 -8.14,-48.31 -32.04,-32.21z"/>
  <path class="fil9 str1" d="M6370.55 8380.68c-52.99,-13.69 -46.03,19.57 -44.92,69.16 1.85,82.09 79.64,38.68 44.92,-69.16z"/>
  <path class="fil9 str1" d="M4048.37 8531.59c28.23,21.1 43.7,6.47 52.64,-27.67 4.57,-17.47 11.99,-54.99 -1.59,-68.74 -42.42,-42.93 -54.99,77.92 -51.05,96.41z"/>
  <path class="fil9 str1" d="M5800.59 7797.59c-6.63,19.87 -8.4,54.96 -5.6,80.71 3.02,27.8 24.82,40.37 43.47,19.58 4.73,-5.26 32.63,-123.94 -37.87,-100.29z"/>
  <path class="fil9 str1" d="M5431.84 7300.26l0 50.46c0,49.44 50.93,55.63 50.93,-5.6l0 -33.64 -4.07 -29.85c-16.73,-7.07 -46.86,-14.66 -46.86,18.63z"/>
  <path class="fil9 str1" d="M1102.84 7788.94c9.63,-18.32 47.25,-130.25 -10.04,-110.71 -19.63,6.69 -21.71,40.59 -25.32,59.92 -7.16,38.36 -4.96,51.48 35.36,50.79z"/>
  <path class="fil9 str1" d="M6636.05 7148.89c0,48.34 -4.94,78.7 42.55,67.63 11.97,-24.97 8.38,-39.03 8.38,-73.23 0,-54.9 -50.93,-50.07 -50.93,5.6z"/>
  <path class="fil9 str1" d="M2449.24 7614.22l0 39.25c0,39.53 50.91,49.69 50.91,0l0 -44.86c0,-53.32 -50.91,-47.53 -50.91,5.61z"/>
  <path class="fil9 str1" d="M7593.96 8101.97c0,-27.38 3.1,-51.58 -7.88,-72.33l-33.41 -0.79c-8.96,17.99 -14.58,72.82 -6.21,94.64 8.33,21.75 47.5,32.27 47.5,-21.52z"/>
  <path class="fil9 str1" d="M1270.43 7490.88c0,38.42 -4.71,53.22 11.09,76.51 46.44,5.35 39.82,-27.61 39.82,-70.9 0,-53.43 -50.91,-55.93 -50.91,-5.61z"/>
  <path class="fil9 str1" d="M5393.74 8191.68c0,31.5 28.4,25.75 46.49,19.12 4.5,-51.22 6.09,-49.13 -0.95,-99.64 -54.45,-23.4 -45.54,18.69 -45.54,80.52z"/>
  <path class="fil9 str1" d="M5802.54 7681.32c48.15,17.01 43.94,-24.09 42.79,-67.28 -1.47,-54.96 -50.19,-57.26 -50.19,-5.43 0,27.92 -2.9,50.5 7.4,72.71z"/>
  <path class="fil9 str1" d="M6181.39 7844.08l0 -39.24c0,-56.29 -49.65,-50.71 -49.65,0l0 39.24c0,37.5 21.4,42.59 46.36,29.01l3.29 -29.01z"/>
  <path class="fil9 str1" d="M5802.8 8550.02c47.41,16.63 43.49,-27.89 42.53,-66.99 -1.35,-55.58 -50.19,-57.8 -50.19,-5.43 0,28.3 -3.01,50.2 7.66,72.42z"/>
  <path class="fil9 str1" d="M1635.43 7592.52c1.29,-2.46 40.97,-127.62 -33.46,-105.66 -3.38,7.45 -36.01,114 33.46,105.66z"/>
  <path class="fil9 str1" d="M8128.64 7625.43l0 33.64c0,57.88 49.64,53.65 49.64,0l0 -33.64c0,-52.75 -49.64,-59.58 -49.64,0z"/>
  <path class="fil9 str1" d="M4037.07 8030.99c10.77,-32.19 -27.94,-120.23 -61.66,-89.37 -18.16,16.62 0.44,44.18 8.5,59.54 15.82,30.15 18.46,40.72 53.16,29.83z"/>
  <path class="fil9 str1" d="M5528.2 7564.65c10.37,-33.1 -1.05,-27.98 -7.04,-62.58 -4.11,-23.75 -17.21,-50.37 -41.92,-26.16 -19.49,19.1 -11.72,107.62 48.96,88.74z"/>
  <path class="fil9 str1" d="M5511.02 7681.5c1.71,11.79 7.21,12.43 10.6,33.99 9.66,61.42 50.32,40.95 50.64,-0.23 0.6,-77.93 -68.08,-80.94 -61.24,-33.76z"/>
  <path class="fil9 str1" d="M3780.89 8414.83c9.66,-109.91 -58.39,-104.37 -59.16,-66.14 -0.38,18.55 2.95,9.16 7.97,25.06 5.63,17.84 -1.4,75.1 51.19,41.08z"/>
  <path class="fil9 str1" d="M5655.88 7657.79c-28.68,132.51 73.64,121.38 42.61,2.87 -20.29,-13.27 -19.09,-14.75 -42.61,-2.87z"/>
  <path class="fil9 str1" d="M3642.4 8509.94c-21.26,12.2 -10.85,25.42 -2.6,59.3 4.72,19.43 14.28,53.16 42.58,33.09 20.45,-14.5 2.83,-116.97 -39.98,-92.39z"/>
  <path class="fil9 str1" d="M3938.67 7172.38c-30.59,-4.06 -33.78,10.26 -39.99,36.63 -4.97,21.12 -19.37,50.04 5.15,60.12 25.67,10.56 34.94,-14.66 40.24,-31.79 9.75,-31.52 11.69,-44.81 -5.4,-64.96z"/>
  <path class="fil9 str1" d="M7039.98 7541.34c0,23.55 -2.14,41.99 5.59,63.39l29.87 4.37c25.44,-30.85 18.24,-89.07 1.94,-97.84 -25.83,-13.88 -37.4,5.09 -37.4,30.08z"/>
  <path class="fil9 str1" d="M3692.01 8280.43l28.24 1.29c19.38,-32.43 -0.71,-95.03 -23.51,-99.39 -52.98,-10.13 -14.2,84.41 -4.73,98.1z"/>
  <path class="fil9 str1" d="M8134.34 8109.3l30.94 5.83c20.27,-35.06 20.29,-91.96 -3.9,-100.38 -45.67,-15.88 -35.53,72.29 -27.04,94.55z"/>
  <path class="fil9 str1" d="M5802.63 8018.23c-10.88,22.12 -10.45,67.93 -1.77,90.94 38.43,13.99 44.54,-8.51 44.51,-46.44 -0.03,-35.66 -2.99,-59.89 -42.74,-44.5z"/>
  <path class="fil9 str1" d="M4070.11 8040.3c0,23.82 -1.84,34.74 8.28,57.04 46.67,10.57 42.65,-22.52 42.65,-57.04 0,-57.04 -50.93,-53.31 -50.93,0z"/>
  <path class="fil9 str1" d="M1594.31 8387.9c0,17.29 -3.63,49.11 8.58,58.5 36.3,10.72 41.09,-2.57 41.09,-36.08l-2.45 -52.61c-31.19,-13.24 -47.22,-5.18 -47.22,30.19z"/>
  <path class="fil9 str1" d="M6326.1 8242.13c0,12.11 3.58,15.87 7.66,25.56l35.63 -2.6c9.24,-23.18 7.66,-31.68 7.66,-56.6 0,-39.11 -50.95,-87.38 -50.95,33.64z"/>
  <path class="fil9 str1" d="M8813.41 8281.38c0,-27.26 -10.1,-35.3 -38.17,-33.42 -6.68,9.7 -30.85,62.37 -19.77,75.8 25.8,31.27 57.94,-9.5 57.94,-42.38z"/>
  <path class="fil9 str1" d="M1351.87 7768.64c-23.81,9.58 -50.07,95.43 0.11,85.62 29.61,-5.79 49.62,-105.63 -0.11,-85.62z"/>
  <path class="fil9 str1" d="M3603.69 8365.32l-28.63 -0.93c-37.77,72.9 65.54,125.8 49.65,47.88 -3.86,-18.91 -13.22,-37.37 -21.02,-46.95z"/>
  <path class="fil9 str1" d="M3674.39 7150.48c56.37,17.79 62.35,-63.44 48.64,-76.75 -33.41,-32.43 -59.45,40.53 -48.64,76.75z"/>
  <path class="fil9 str1" d="M4002.48 8337.79c-51.67,0.4 -59.56,82.25 -27.79,87.44 23.37,3.82 27.6,-16.17 34.16,-35.57 9.72,-28.7 11,-31.91 -6.37,-51.87z"/>
  <path class="fil9 str1" d="M9008.91 7221.78l0 11.21c0,50.93 50.96,54.51 50.96,0l0 -11.21c0,-55.27 -50.96,-50.49 -50.96,0z"/>
  <path class="fil9 str1" d="M3633.01 7287.4c20.03,11.72 39.19,13.73 45.9,-11.3 8.86,-33.03 0.83,-53.67 -19.7,-66.71 -39.87,7.04 -31.93,40.35 -26.2,78.01z"/>
  <path class="fil9 str1" d="M7621.79 8443.96c0,19.6 -0.18,26.57 10.98,42.49l34.56 0.85c6.89,-26.74 9.95,-56.88 -4.06,-81.15 -33.41,-7.84 -41.48,7.57 -41.48,37.81z"/>
  <path class="fil9 str1" d="M7052.71 7350.72l0 16.82c0,47.91 48.39,45.25 48.39,0l0 -16.82c0,-54.17 -48.39,-50.58 -48.39,0z"/>
  <path class="fil9 str1" d="M1141.45 7810.53c-20.42,13.56 -14.19,25 -3.42,46.82 8.75,17.73 21.74,34.5 43.7,17.89 21.98,-16.63 -8.72,-85.67 -40.28,-64.71z"/>
  <path class="fil9 str1" d="M8708.3 8370.81c-37.26,28.72 -20.68,86.94 16.47,62.17 30.67,-20.45 27.26,-95.87 -16.47,-62.17z"/>
  <path class="fil9 str1" d="M8491.82 7604.26c-10.43,7.42 -12.06,2.27 -12.37,20.28 -0.1,5.9 5.62,20.35 7.91,24.94 7.33,14.73 20.87,34.8 43.84,18.85 22.57,-15.68 -7.37,-86.82 -39.38,-64.07z"/>
  <path class="fil9 str1" d="M1262.92 7979.54l30.17 5.97c15.7,-18.59 44.65,-66.63 9,-74.67 -33.46,-7.55 -46.9,42.4 -39.17,68.7z"/>
  <path class="fil9 str1" d="M3826.58 8430.68c-27.4,13.12 -22.51,89.37 21.26,69.1 32.06,-14.84 13.68,-85.84 -21.26,-69.1z"/>
  <path class="fil9 str1" d="M8786.26 7916.9l32.42 -0.38c48.96,-94.02 -86.13,-91.1 -32.42,0.38z"/>
  <path class="fil9 str1" d="M8096.98 8286.45c0.46,0.38 6.96,12.23 25.91,5.99 8.61,-2.83 12.97,-9.77 17.72,-17.69 10.79,-17.99 11.92,-33.63 3.84,-51.66 -56.03,-10.13 -56.88,50.59 -47.47,63.36z"/>
  <path class="fil9 str1" d="M3785.55 8713.07c0,55.81 53.96,45.73 51.19,-4.9 -2.09,-37.99 -51.19,-57.49 -51.19,4.9z"/>
  <path class="fil9 str1" d="M3712.99 8676.58c16.68,8.77 20.75,7.62 38.03,3.69 8.83,-25.27 11.03,-43.21 -2.45,-67.19 -46.96,-9.03 -48.78,24.9 -35.58,63.5z"/>
  <path class="fil9 str1" d="M4524.87 8309.41c0,22.15 -0.05,20.5 7.89,34.52 41.6,12.66 46.61,-19.2 38.61,-60.48 -28.21,-20.91 -46.5,-11.55 -46.5,25.96z"/>
  <path class="fil9 str1" d="M4387.35 8341.45c-6.18,21.31 -6.09,44.98 -1.22,65.82l35.9 3.86c17.36,-31.16 13.9,-47.62 -4.1,-73.69l-30.58 4.01z"/>
  <path class="fil9 str1" d="M6831.69 7311.48c0,54.51 49.65,51.11 49.65,0 0,-13.85 -3.69,-24.34 -7.22,-34.04 -29.52,-6.76 -42.43,-1.15 -42.43,34.04z"/>
  <path class="fil9 str1" d="M4550.27 7165.71l3.54 35.47c66.38,19.35 46.82,-48.98 35.4,-67.36 -26.33,-2.99 -42.8,1.51 -38.94,31.89z"/>
  <path class="fil9 str1" d="M4407.99 8169.25c0,47.68 49.67,51.48 49.67,0 0,-54.04 -49.67,-55.78 -49.67,0z"/>
  <path class="fil9 str1" d="M2177.37 8130.01c0,17.64 1.86,17.62 8.34,31.18l33.5 4.18c34.71,-79.17 -41.84,-102.24 -41.84,-35.36z"/>
  <path class="fil9 str1" d="M1192.84 7984.24c0,52.96 49.74,52.28 49.74,5.61 0,-60.28 -49.74,-53.78 -49.74,-5.61z"/>
  <path class="fil9 str1" d="M4770.03 8073.94l4.45 33.97 35.43 6.73c40.93,-88.92 -48.46,-92.31 -39.88,-40.7z"/>
  <path class="fil9 str1" d="M4010.22 8625.36l-4.37 31.55 0.74 5.7 3.69 29.57c55.4,17.37 54.49,-38.01 34.23,-66.5l-34.29 -0.32z"/>
  <path class="fil9 str1" d="M3902.45 7961.81l0 11.22 2.38 30.51c29.13,10.55 45.97,10.22 45.97,-30.51l0 -5.61c0,-45.14 -48.35,-39.17 -48.35,-5.61z"/>
  <path class="fil9 str1" d="M3752.79 7318.87c44.1,14.02 70.31,-31.81 46.89,-52.81 -20.79,-18.65 -61.72,13.26 -46.89,52.81z"/>
  <path class="fil9 str1" d="M8001.35 8604.67c47.4,2.94 62.64,-53.22 27.07,-59.21 -25.6,-4.31 -59.73,26.29 -27.07,59.21z"/>
  <path class="fil9 str1" d="M4517.54 8488.81c-24.07,25.94 11.02,76.71 38.39,44.43 19.09,-22.52 -6.84,-78.43 -38.39,-44.43z"/>
  <path class="fil9 str1" d="M2113.21 8097.65c-25.28,0 -9.88,67.41 43.45,49.95 13.1,-36.13 -19.06,-69.36 -43.45,-49.95z"/>
  <path class="fil9 str1" d="M5370.5 8584.61c27.43,17.21 66.02,-1.71 54.6,-44.02 -31.55,-16.75 -60.69,4.85 -54.6,44.02z"/>
  <path class="fil9 str1" d="M8706.07 7812.21c22.35,5.69 28.11,7.28 50.16,-3.53 8.84,-30.43 2.15,-45.63 -30.71,-42.49 -28.95,2.77 -30.71,20.2 -19.45,46.02z"/>
  <path class="fil9 str1" d="M2142.92 8613.76c15.25,5.32 30.36,7.26 50.16,2.06 10.32,-19.94 9.42,-19.16 4.06,-39.58 -40.18,-14.02 -64.54,-7.05 -54.22,37.52z"/>
  <path class="fil9 str1" d="M8706.71 8815.41c-34.87,-26.18 -59.37,0.82 -43.83,37.01 10.8,25.15 54.51,22.17 43.83,-37.01z"/>
  <path class="fil9 str1" d="M1571.43 8565.74c-2.98,25.52 1.72,41.05 28.96,41.69 29.75,0.7 31.94,-13.95 27.54,-41.45 -24.81,-14.53 -32.41,-11.57 -56.5,-0.24z"/>
  <path class="fil9 str1" d="M3114.33 8279.77c-5.79,63.87 49.97,44.61 56.59,27.8 14.53,-36.85 -39.4,-43.77 -56.59,-27.8z"/>
  <path class="fil9 str1" d="M3129.68 8653.57c18.75,7.1 22.12,7.7 46.18,2.35 39.68,-60.9 -69.57,-68.62 -46.18,-2.35z"/>
  <path class="fil9 str1" d="M4446.11 8628.97c0,34.37 27.53,27.65 41.07,27.11 36.77,-59.92 -41.07,-83.64 -41.07,-27.11z"/>
  <path class="fil9 str1" d="M8739.35 8805.85c-4.79,31.34 -2.55,31.32 14.02,47.82l28.15 -5.68c17.38,-41.47 -4.48,-77.12 -42.17,-42.14z"/>
  <path class="fil9 str1" d="M7078.1 7199.35l6.9 29.51c45.77,9.05 56.21,-20.28 33.26,-54.9 -23.89,-6.46 -40.16,1.46 -40.16,25.39z"/>
  <path class="fil9 str1" d="M3193.32 8280.56c-7.4,28.12 -7.15,28.56 4.88,50.5l32.56 0.1c22.01,-40.95 0.24,-72.49 -37.44,-50.6z"/>
  <path class="fil9 str1" d="M7805.02 8694.92c13.22,-21.69 14.44,-27.28 2.62,-56.71 -60.63,-11.28 -58.57,65.8 -2.62,56.71z"/>
  <path class="fil9 str1" d="M4710.57 7939.04c-37.37,17.8 -13.99,70.02 18.33,56 23.51,-10.2 17.69,-73.16 -18.33,-56z"/>
  <path class="fil9 str1" d="M4010.19 7706.7c-26.41,95.4 87.6,56.66 30.5,-2.66l-30.5 2.66z"/>
  <path class="fil9 str1" d="M8958.07 8561.69l2.64 22.05c57.33,37.64 70.49,-65.34 6.98,-48.17 -3.6,5.76 -11.43,14.14 -9.62,26.12z"/>
  <path class="fil9 str1" d="M2219.47 8607.74l1.67 32.88c90.97,29.68 59.67,-83.65 -1.67,-32.88z"/>
  <path class="fil9 str1" d="M4556.85 8135.74c51.22,13.52 53.96,-30.58 28.01,-56.04 -41.79,-2.72 -39.14,25 -28.01,56.04z"/>
  <path class="fil9 str1" d="M1084.22 6850.58c55.28,11.59 38.87,106.29 38.87,124.52 0,40.94 42.74,68.56 30.47,112.12 -16.57,27.09 -16,-1.09 -30.47,28.17l-7.61 61.54c0,70.34 65.2,95.59 58.93,34.71 -2.3,-22.33 -9.27,-16.69 -0.21,-28.76 6.9,27.11 1.16,36.29 19.98,58.05 18.87,21.82 25.92,18.21 23.21,57.18 -48.16,3.8 -49.53,5.92 -60.59,52.51 -7.17,30.17 -7.91,77.04 6.58,99.39l30.97 0.61c24.53,-48.73 -11.14,-88.23 24.51,-99.89 0.49,1.03 0.73,1.73 0.77,3.33 0.05,1.62 0.57,2.75 0.62,3.41l1.69 39.53c0.87,25.01 -6.48,23.53 0.97,50.17 82.36,28.73 37.77,-88.71 57.66,-121.55 31.85,12.27 4.03,11.97 20.76,38.5 10.52,16.66 31,14.78 40.87,-1.87 6.61,-11.13 3.42,-33.14 9.45,-53.02 6.83,-22.56 16.41,-26.61 -5.85,-41.46 -19.21,-15.97 -18.27,-3.08 -32.05,3.98 -20.03,10.27 -14.55,4.5 -40.92,2.46 13.82,-27.46 30.17,-33.7 34.67,-69.94l30.46 -285.12c6.17,-74.86 3.46,-116.27 49.37,-156.78 36.94,-32.59 99.71,-49.85 162.52,-49.85 27.82,0 46.69,27.85 62.08,43.64 23.46,24.05 20.64,56.47 14.98,95.07 -10.59,72.12 -5.16,122.22 1.64,196.75 -1.18,0.82 -3.21,0.27 -3.8,2.01 -0.6,1.73 -2.98,1.57 -3.8,1.99l-7.57 3.79c-7.59,3.93 -11.22,5.58 -17.35,9.77 -5.88,63.58 -11.99,108.2 25.12,114.73l11.23 1.59c0.69,0.11 2.48,0.21 3.62,0.67l6.06 85.84c-56.93,-21.36 -47.7,26.78 -47.7,82.35 0,20.41 5.01,39.15 27.3,37.12 23.99,-2.19 17.07,-22.42 30.44,-37.01 31.76,179.64 11.83,760.68 12.13,969.79l-4.88 336.73c0.04,48.35 -12.38,51.06 -36.57,77.74l-93.08 -7.06c-35.85,-59.98 -30.05,-56.8 -27.76,-130.84 35.01,-7.06 60.12,2.75 46.02,-45 -6.71,-8.32 -44.57,-5.92 -52.78,-15.56 -14.74,-17.31 -6.27,-174.78 -13.3,-198.74 -10.72,-36.55 -1.68,-66.66 -7.11,-104.55 -2.87,-19.99 -8.83,-28.17 -8.71,-47.22 0.29,-45.79 19.58,-99.27 -15.78,-169.49 -28.46,-56.5 3.66,-50.31 -3.2,-91.35 -3.58,-21.42 -9.23,-19.58 -11.02,-47.76 -1.46,-23.02 1.93,-38.16 -17.3,-43.68 -41.97,-12.05 -35.19,50.86 -28.23,80.04 20.15,84.58 -43.72,83.02 -64.38,154.93 -10.87,37.87 -14.09,60.4 -41.75,76.41 -27.44,15.9 -65.65,-4.03 -97.64,-12.02 -6.14,-42.32 -7.31,-64.89 -17.08,-104.92 -15.29,-62.65 -41.33,-31.18 -56.68,-66.47 0,-46.4 3.52,-80.37 -46.97,-58.1 -21.71,137.85 26.09,93.69 49.72,127.21 9.12,12.95 20.24,69 18.94,87.48 -2.68,38.41 -28.19,44.08 -15.82,87.97 18.22,64.63 19.5,369.36 19.16,433.81 -0.59,110.23 -198.09,131.27 -222.74,62.62 -10.89,-30.33 -10.77,-82.26 -10.52,-119.21 19.69,-7.58 38.37,-12.69 48.85,-29.81 6.09,-19.39 5.56,-64.11 -3.71,-82.16 -25.29,-7.96 -23.12,-2.95 -42.73,5.01 0,-46.77 0.53,-90.76 -8.44,-132 -10.81,-49.74 -2.41,-357.03 -1.39,-419.02 19.06,7.63 23.58,8.59 40.07,1.67 8.54,-21.31 7.89,-31.68 7.89,-55.17 0,-43.21 -18.88,-43.31 -52.82,-31.53 -3.39,-90.58 -13.43,-38.77 -10.86,-192.75 1.08,-64.59 3.8,-129.97 5.23,-196.92l8.81 27.58c3.86,16.23 -0.03,8.55 8.35,22.79 74.4,13.49 31.31,-73.44 18.39,-94.49l-36.66 1.56 -4.09 -121.03c58.39,26.16 49.68,-14.83 49.68,-76.76 0,-35.98 -12.2,-44.76 -44.26,-34.36 -8.39,22.45 -5.36,58.53 -5.37,87.98 -26.23,-60 -20.24,-204.39 -20.24,-283.48 0,-100.59 63.21,-182.47 147.43,-161.17 62.04,15.68 -17.71,69.67 7.58,105.31 36.63,51.59 57.83,-56.81 67.74,-74.26zm162.69 370.3c-18.63,-8.84 -15.57,-12.4 -21.28,-38.14 -3.16,-14.22 -7.02,-39.6 -10.78,-53.31 -22.52,-82.2 -1.97,-70.25 -12.82,-109.03 -13.11,-46.84 -29.5,7.14 -25.49,-95.88 1.71,-44.01 -16.53,-64.67 -32.45,-93.45 -20.86,-37.72 -44.89,-24.04 -81.77,-41.56 -68.47,-32.53 -125,-38.67 -182.83,20.29 -20.01,20.4 -44.48,36.73 -53.77,69.42 -17.93,63.08 -18.79,281.71 -5.91,343.65 36.86,177.26 -5.58,405.55 19.57,579.91 19.55,135.5 7.9,337.8 3.31,478.63 -1.61,49.72 8.22,66.54 12.17,111.85 8.81,101.18 -17.21,282.77 22.98,346.56 60.95,96.75 292.9,55.29 310.49,-78.95 5.86,-44.75 -6.3,-279.34 -8.39,-357.07 -1.62,-59.8 0.81,-67.17 -13.94,-121.35l75.99 16.54 4.37 48.39c45.83,26.18 46.27,-4.98 47.36,-49.64 122.97,-84.08 45.01,-119.47 113.35,-160.47 34.54,128.9 -2.59,119.1 10.34,174.46 19.38,83.03 1.45,79.55 11.69,123.08 8.56,36.41 8.67,14.14 0.47,50.9 -4.96,22.22 21.78,202.09 21.27,237.67 -0.81,57.01 -1.18,67.86 23.35,109.13 29.78,50.11 20.28,42.96 86.61,49.04 52.41,4.81 74.65,19.77 106.01,-18.83 62.22,-76.58 40.14,-73.03 43.18,-217.84 7.01,-332.98 15.22,-729.88 3.03,-1059.61 -3.22,-87.02 -16,-164 -22.5,-247.52 -5.45,-69.97 -26.2,-307.07 -16.16,-367.94 19.19,-116.31 -2,-123.39 -66.82,-188.01 -28.46,-28.37 -63.11,-21.59 -108.17,-15.77 -269.08,34.76 -193.34,252.42 -231.59,441.78 -6.38,31.59 -3.72,92.47 -20.87,113.07z"/>
  <path class="fil9 str1" d="M8899.24 6772.89l31.79 6.03c32.59,-55.77 -17.88,-106.7 50.88,-98.68 28.87,48.52 -16.81,60.51 -9.55,103.58 3.14,18.63 21.56,27.68 37.08,16.31 13.01,-9.54 12.82,-30.23 24.15,-48.64 26.08,4.63 32.94,33.11 26.33,58.89 -7.43,28.94 -28.47,21.14 -20.47,69.41 21.84,43.64 74.81,-9.74 74.81,72.88 0,49.67 -19.94,55.49 -6.51,100.1 25.21,83.67 -42.58,266.31 -79.77,272.71 -25.92,4.46 -66.08,-33.07 -81.96,-53.25 0.01,-0.03 81.75,-109.51 -2.1,-99.37 -47.59,63.4 23.29,63.61 -140.34,86.77 -16.23,-14.94 -51.12,-70.99 -74.55,-61.9 -46.35,17.97 17.48,75.23 29.36,85.1 -6.2,21.4 -21.97,36.74 -29.16,54.99 -8.27,21 -6.08,74.84 -6.08,102.6 0,27.36 12.1,45.4 19.17,67.28 -15.01,16.76 -39.94,20.51 -42.33,45.63 -1.79,18.79 15.45,57.38 23.78,67.16 43.52,1.75 35.19,-23.97 31.8,-56.73 18.2,-16.5 49.85,-31.56 38.66,6.26 -7.84,26.54 -24.7,37.02 -11.75,70.85l31.02 7.14c15.21,-22.08 15.35,-41.3 29.35,-62.18l37.38 0.28c1.15,18.09 -24.66,53.11 -7.46,76.99 6.16,8.54 18.2,15.22 31.34,7.08 17.19,-10.65 10.49,-18.93 17.28,-38.22 35.17,2.67 27.97,16.61 41.23,42.14 4.43,8.53 65.53,61.4 52.77,111.98 -4.98,19.72 -26.2,25.03 -14.14,73.44 22.54,13.23 36.29,7.35 57.29,15.37 12.71,17.22 35.29,109.79 25.54,129.99 -18.05,-15.84 -16.67,-31.23 -48.2,-28.98 -39.64,50.77 36.79,75.02 46.05,94.32 19.85,41.36 -5.93,135.76 -7.1,155.62 -2.51,42.73 12.9,48.6 12.9,122.81 0,75.55 -76.13,41.82 -76.68,89.86 -0.56,49.29 59.44,10.95 63.9,9.04 -2.52,31.26 -30.47,123.37 -41.71,153.53 -16.63,44.58 -42.84,96.29 -83.95,105.74 -9.87,-21.36 -2.84,-21.95 -17.56,-42.67 -28.69,-4.72 -38.72,3.53 -38.34,32.06 0.41,31.46 11.69,33.23 23.16,50.49 -20.15,144.36 -258.51,273.9 -374.38,137.86 -50.46,-59.25 -103.19,-122.19 -108.02,-205.23 -2.19,-37.59 -12.09,-117.16 -7.15,-150.77 2.79,-19.03 12.4,-41.79 17.56,-63.47 10.76,-45.26 -14.74,-142.3 16.81,-179.73 17.55,12.26 26.78,49.21 54.61,33.13 20.35,-22.49 11.67,-29.56 -3.69,-54.2 -19.26,-30.88 -13.88,-18.94 -48.49,-33.37 -1.93,-29.11 2.23,-27.79 15.89,-42.44 51.96,44.51 108.26,106.76 188.01,90.61 64.1,-12.99 84.89,-58.12 107.63,-109.57 9.9,-22.41 10.64,-37.37 24.68,-53.32 3.52,70 49.04,60.41 52.19,19.12 5.1,-67 -12.09,-57.16 -51.24,-80.15 -1.37,-70.39 9.18,-65.75 -34.37,-100.95 -26.58,-21.48 -42.81,-42.2 -72.39,-62.46 -76.24,-52.23 -106.52,-19.18 -166.97,-107.71 -53.69,-78.64 -77.09,-167.12 -84.43,-259.4 -2.21,-27.71 8.58,-36.34 0.71,-65.3 -14.65,-53.9 -19.34,9.86 -18.75,-118.68 37.2,-28.4 52.01,0.44 52.01,-79.65 0,-39.43 -21.44,-40.27 -51.31,-53.2 -2.29,-38.06 5.75,-65.39 16.61,-100.94 24.72,-6.75 29.33,-1.45 43.12,-17.98 24.88,-29.83 24.97,-82.14 -34.14,-47.71 -1.96,-39.58 15.88,-112.5 45.19,-127.24 5.11,13.25 5.29,30.83 18.89,41.54 22.31,17.56 53.27,-11.03 28.17,-62.71 -8.1,-16.69 -18.67,-19.75 -30.99,-29.81 7.5,-33.62 19.96,-65.61 50.04,-66.61 8.43,18.19 2.75,35.31 12.22,49.72 10.6,16.13 29.73,14.4 38.91,1.02 26.67,-38.89 -16.6,-83.79 -24.43,-96.26 68.54,-113.97 262.8,-145.9 318.74,-95.31 -14.72,36.03 -26.99,69.77 -8.55,117.36zm-412.44 1332l-27.2 2.04c-5.16,14.95 -5.47,31.14 -14.79,45.25 -9.73,14.76 -22.25,16.12 -29.42,37.91 -6.73,20.45 -0.82,41.01 -3.21,63.21 -7.92,73.55 -19.28,6.25 -14.33,176.22 0.98,33.92 -22.04,73.2 -23,103.12 -1.31,41.05 7.44,205.37 26.2,235.05 79.55,125.85 137.78,242.31 307.43,221.48 71.83,-8.82 139.15,-52.85 175.98,-88.79 17.8,-17.36 41.24,-47.15 56.02,-72.83 23.64,-41.11 9.95,-59 50.98,-83.65 52.15,-31.34 77.48,-90.93 100.83,-163.19 33.46,-103.56 25.81,-76.91 34.26,-163.11 1.89,-19.37 8.74,-34.25 10.49,-52.76 1.55,-16.48 1.83,-44.17 0.58,-60.66 -1.73,-22.93 -9.2,-31.21 -11.38,-52.29 -3.83,-37.16 11.88,-72.8 12.47,-116.15 0.55,-40.04 -14.38,-79.86 -5.88,-113.36 10.33,-40.68 -7.17,-120.67 -22.88,-159.19 -9.18,-22.51 -8.31,-31.41 -15.27,-51.49 -8.18,-23.6 -16.9,-14.12 -27.03,-40.76 -5.38,-14.16 -9.97,-36.63 -14.49,-52.78 -17.94,-64.2 -31.33,-27.08 -50.48,-78.45 -20.05,-53.8 -37.77,-37.32 -69.55,-65.23 -14.04,-12.33 -10.84,-20.61 -29.91,-31.56 -14.96,-8.59 -39.02,-5.59 -56.54,-12.37 -14.89,-5.77 -10.28,-14.65 -38.12,-28.38 -53.43,-26.35 -43.17,-136.94 -14.09,-177.54 13.05,-18.22 -0.58,-7.75 19.69,-15.18 144.26,-52.88 86.96,82.77 248.6,63.72 28.36,-36.79 46.87,-63.91 67.14,-116.73 58.15,-151.54 24.24,-184.8 24.3,-230.99 0.03,-20.15 11.41,-45.4 9.92,-84.23 -1.34,-34.81 -11.42,-45.72 -14.53,-78.46 -3.85,-40.6 -5.87,-40.76 -37.31,-55.99 -8.01,-133.96 -52.65,-68.77 -76.85,-130.4 -12.85,-32.71 -22.42,-40.16 -59.15,-47.53 -36.37,-7.3 -42.47,-21.73 -74.07,-32.81 -121.62,-42.61 -256.05,17.37 -316.29,83.01 -9.8,10.67 -14.75,13.5 -25.42,25.07l-74.3 82.66c-13.84,18.97 -19,53.46 -28.86,77.33 -20.95,50.75 -46.12,53.74 -57.25,155.84 -14.92,136.86 -26.28,132 -26.28,291.54 0,32.59 -1.52,68.8 -0.1,100.92 2.03,45.83 25.73,41.54 19.53,82.86 -13.09,87.26 43.91,245.59 95.98,321.06 80.94,117.3 132.1,59.28 245.64,174.76 46.66,47.46 -6.78,209.48 -61.08,233.39 -32.32,14.24 -58.98,5.88 -84.43,-9.43 -19.74,-11.87 -41.9,-33.6 -58.05,-48.36 -52.99,-48.41 -14.51,-27.76 -44.5,-61.79z"/>
  <path class="fil9 str1" d="M1903.39 8163.38l-4.34 -6.89c-10.14,-20.82 2.14,8.56 -3.48,-7.64 -10.08,-29.07 -1.03,-87.99 -8.94,-130.83 -19.33,-104.67 -21.11,-655.54 -2.38,-703.38 7.66,-19.57 20.8,-32.81 13.99,-53.82 -17.84,-55 -27.62,-63.84 -27.04,-134.41 1.02,-125.54 17.73,-93.52 42.46,-110.95 2.89,-26.27 5.93,-16.02 -6.87,-32.37 -16.12,-20.58 -10.78,13.37 -16.4,-24.81 22.91,-56.53 151.25,-46.78 177.8,31.31 26.26,77.22 -18.42,95.79 -26.95,106.68 -39.19,50.04 27.64,65.45 32.01,86.26 0,44.7 4.32,95.05 -6.76,135.44 -9.4,34.27 10.77,61.08 9.45,111.2 -0.99,37.24 -14.03,86.37 -13.54,117.61 0.53,33.2 13.12,77.77 14.23,117.83 1.2,43.57 -14.91,86.46 -12.11,123.59 2.73,36.26 32.99,50.27 21.22,110.06 -8.5,43.17 -47.26,31.93 -37.8,97.36 2.94,20.3 14.75,35.4 36.28,24.52 18.88,-9.54 13.44,-30.26 17.12,-51.49 36.52,7.87 11.49,29.18 71.01,29.34 47.54,0.13 44.25,-7.16 77.05,19.89 -5.13,34.37 -15.81,57.91 31.13,56.06 14.9,-17.91 28.97,-49.13 18.97,-83.41 -14.37,-13.61 -21.58,-10.85 -37.05,-28.72 5.69,-34.15 27.3,-68.7 36.15,-104.38 9.4,-37.91 -1.62,-31.21 -3.13,-58.61 -1,-18.14 8.11,-37.32 10.38,-57.54 2.75,-24.43 -1.49,-49.59 0.51,-71.06 2.09,-22.53 12.04,-31.61 11.42,-55.72 -0.54,-21.2 -10.12,-33.86 -12.65,-56.11 -10.05,-88.67 19.93,-131.75 4.35,-187.34 -23.03,-82.18 11,-167.88 7.51,-192.44 -1.66,-11.67 -39.02,-151.1 8.27,-174.98 16.92,22.15 2.46,25.13 14.85,56.4 83.38,24.45 24.26,-96.04 24.24,-96.15 48.79,-56.64 120.41,-11.45 128.98,4.28 11.51,21.12 19.07,140.12 18.88,170.9 -14.88,-4.85 -27.17,-7.51 -43.33,-2.78 -17.96,59.41 -8.86,167.27 33.79,129.66 16.18,-14.27 7.27,-23.4 12.1,-42.06 14.6,34.12 4.3,412.41 -0.83,502.62l-5.33 49.72c-3.91,15.2 -1.99,8.04 -5.06,13.54 -61.43,-72.2 -54.46,41.6 -57.16,52.87 -4.69,19.67 -9.94,12.58 -7.43,38.06 35.42,24.86 48.25,5.39 62.08,-34.68 5.16,40.94 16.75,160.74 -20.62,177.11 -73.19,32.04 2.74,55.9 3.97,57.61 14.52,20.28 -4.92,136.94 -11.86,158.43 -19.81,-0.97 0.12,-41.08 -55.5,-26.86 -5.84,17.13 -4.7,40.49 2.53,58.5 9.87,24.61 12.84,19.11 41.09,25.41 9.32,84.08 -45.61,257.34 -78.46,323.52 -37.5,75.56 -128.05,187.26 -246.2,118.98 -129.11,-74.62 -236.02,-362 -232.6,-575.33zm310.15 -216.56c-55.24,0 -47.34,7.2 -80.37,-24.25 12.82,-166.25 -30.97,-72.04 -10.2,-200.81 13.36,-82.89 -17.52,-139.98 -4.85,-212.77 9.85,-56.53 14.47,-102.07 -0.87,-153.94 -8.31,-28.07 -2.63,-18.9 3.57,-44.94 7.24,-30.45 3.14,-83.44 3.1,-116.65 -0.07,-50.6 22.72,-58.5 8.39,-100.16 -27.8,-80.81 11.06,-119.07 -56.12,-178.69 -87.22,-77.38 -235.27,-38.69 -236.88,43.47 -1.49,76.44 -27.57,112.24 -15.63,224.65 2.96,27.87 23.52,85.95 21.23,98.56 -6.11,33.61 -17.93,-0.73 -18.11,97.43 -0.08,39.95 -2.61,78.45 -2.56,117.77 0.28,242.29 -12.15,450.76 29.98,694.04 26.38,152.33 5.59,202.93 93.29,382.95 48.93,100.47 121.36,224.95 247.67,233.34 231.61,15.38 303.96,-328.4 317.05,-509.14 2.37,-32.85 7.02,-24.87 11.86,-51.74 3.65,-20.26 2.15,-34.26 7.09,-55.09 8.31,-35.01 12.96,-65.71 6.59,-100.78 -11.39,-62.83 -5.01,-26.08 9.49,-84.48 16.8,-67.7 1.68,-151.32 12.54,-227.41 17.71,-124.16 13.3,-550.45 -0.27,-697.44 -7.61,-82.54 0.45,-144.02 -64.33,-175.59 -65.95,-32.14 -136.01,-25.24 -171.49,30.45 -30.41,47.73 -69.34,-7.79 -68.97,174.15 0.1,48.18 18.36,62.6 7.43,99.68 -11.17,37.89 -7.16,73.54 -7.36,113.28 -0.19,40.23 14.87,81.6 9.74,102.15 -28.24,113.01 8.8,170.33 -3.82,215.78 -10.17,36.6 0.87,77.31 -8.35,114.41 -13.32,53.58 2.92,69.02 -5.87,101.35 -8.06,29.66 -24.39,61.51 -32.97,90.42z"/>
  <path class="fil9 str1" d="M3846.29 8242.13c16.64,-14.16 21.95,-8.77 32.69,-32.86 10.3,-23.11 9.04,-21.66 27.07,-35.69 38.39,23.91 19.33,58.94 5.33,90.99l-52.04 0.29 -13.05 -22.73zm-327.14 -476.54c-5.3,-37.21 30.64,-242.55 37.79,-292.99 6.05,-42.74 10.62,-106.57 22.91,-144.89 35.08,-109.37 81.91,-281.04 127.16,-366.64 22.52,-42.59 61.36,-126.58 102.35,-149.94 42.36,-24.14 77.84,-36.62 128.49,-19.06 28.94,10.04 93.29,93.66 92.36,154.8 -1.34,89.17 -25.74,200.15 -46.34,284.64 -45.84,188.02 -94.02,89.05 -176.51,155.09 -62.58,50.11 -71.38,139.95 -95.42,157.19 -2.39,1.71 -50.95,22.81 -56.33,24.16l5.63 73.72 32.06 17.4c11.54,143.78 -35.12,88.59 -21.26,143.4 8.36,33.02 32.94,26.13 20.65,158.9 -49.39,15.29 -54.53,20.34 -42.95,76.3 12.91,62.35 18.21,57.74 60.45,35.13 17.25,67.1 23.41,106.89 66.94,152.4 29.42,30.77 32.67,105.24 128.45,90 40.92,-6.51 62.21,-33.35 71.2,-75.13 29.95,-139.23 -97.26,-87.02 -106.91,-178.95 -9.36,-89.16 -25.92,-175.03 -27.5,-267.49 -1.79,-105.27 10.39,-166.09 119.72,-174.06 82.77,-6.03 173.98,13.86 182.9,106.82 15.99,166.77 11.71,402.98 -2.06,568.83 -7.59,91.5 -3.36,180.02 -25.95,264.14 -18.71,69.67 -45.14,160.95 -73.27,218.36 -39.12,79.83 -50.31,130.87 -160.93,130.66 -74.29,-0.14 -132.44,-83.42 -164.06,-125.95 -35.48,-47.7 -90.04,-119.49 -112.06,-179.25 -8.1,-21.96 -4.02,-41.25 -11.41,-61.13 -7.37,-19.82 -16.7,-19.65 -24.31,-49.33l-50.37 -241.34c-11.48,-50.04 -3.88,-87.09 -11.57,-134.1 -16.19,-98.89 -2.18,-175.77 -0.27,-280.48 7.98,20.1 -2.71,44.62 19.47,54.56 24.33,10.9 33.71,-8.75 35.36,-30.28 5.28,-68.47 3.88,-71.1 -44.41,-95.49zm-58.78 414.87c0,45.96 59.36,333.33 79.14,366.13 16.43,27.25 8.96,47.13 24.42,82.69 28.9,66.53 84.52,146.58 128.75,201.73 59.65,74.36 143.18,167.87 289.66,110.04 93.61,-36.95 193.49,-361.61 201.53,-452.78 3.01,-34.04 -1.01,-71.45 1.11,-106.03 12.57,-204.83 20.81,-309.39 17.41,-532.73 -2.47,-161.82 -2.88,-245.14 -161.66,-274.95 -150.46,-28.25 -247.54,30.06 -247.54,179.82 0,151.29 14.41,191.6 28.76,331.03 6.36,61.73 29.15,24.25 35.07,68.43 -65.36,18.74 -35.55,19.6 -54.98,24.51 -19.74,-26.79 -28.25,-63.03 -38.02,-96.54l-19.21 -119.77c-0.93,-37.48 7.42,-103.72 -6.37,-135.45 -35.03,-80.61 9.89,-16.91 7.88,-122.67 -1.48,-77.82 4.17,-107.64 36.12,-185.11 19.57,-47.43 32.72,-88.74 79.7,-106 77.97,-28.65 77.61,18.73 123.81,-55.1 56.27,-89.95 109.51,-377.66 90.04,-451.99 -12.61,-48.18 -38.75,-83.79 -64.63,-114.43 -35.46,-41.98 -48.25,-55.99 -127.75,-55.99 -42.25,0 -59.07,9.2 -89.65,26.86 -37.8,21.84 -37.9,20.59 -61.61,56.29 -108.81,163.78 -147.89,316.11 -202.36,504.17 -12.35,42.64 -50.35,338.56 -60.75,409.92 -10.4,71.41 -12.41,145.12 -15.53,218.37 -1.58,36.95 -6.19,81.7 -4.94,117.7 1.37,39.5 11.6,61.07 11.6,111.85z"/>
  <path class="fil9 str1" d="M3150.46 7967.42c-33.14,72.05 -114,39.92 -146.6,50.63 -38.31,12.59 -62.97,92.89 -45.47,144.31 5.22,15.35 32.3,35.34 50.34,46.11 46.39,27.7 132.89,-47.24 226.43,-19.03 47.94,14.45 47.55,83.18 50.77,136.71 3.79,63.06 5.11,122.4 6.59,185.08 3.36,142.75 -16.25,207.03 -126.96,252.08 -62.83,25.57 -281.46,51.49 -334.78,4.04 -49.1,-43.71 -28.87,-263.3 -36.21,-345.16 -14.1,-157.15 4.37,-216.34 -21.08,-360.83 -7.49,-42.53 -6.19,-135.22 -6.69,-183.64 -1.54,-148.05 -14.23,-236.65 -20.14,-364.98 -2.42,-52.64 3.34,-127.79 5.09,-184.41 3.78,-122.49 -5.6,-235.81 44.84,-335.22 60.55,-119.33 181.78,-99.68 256.61,-125.15 43.62,-14.85 130.27,-22.4 157.2,11.91 62.53,79.66 62.63,408.23 13.41,500.72 -15.96,29.98 -60.98,87.63 -102.64,85.89 -42.99,-1.8 -91.24,-55.38 -147.45,1 -27.26,27.34 -44.76,103.34 -20.24,145.67 57.52,99.3 174.56,-38.51 197.39,173.45 6.14,57.03 -0.41,121.15 -0.41,180.82zm-144.76 168.19l6.63 -68.53c90.3,-14.76 90.9,19.65 155.88,-41.04 46.3,-43.25 33.53,-62.82 34.52,-165.14 0.63,-64.37 -2.76,-123.49 -26.49,-173.05 -47.65,-99.5 -74.02,-72.81 -123.21,-77.62 -107.55,-10.54 -46.72,-106.1 -37.15,-112.07 37.74,-23.54 80.73,41.77 153.27,7.63 88.47,-41.64 132.52,-144.21 135.28,-267.16 2.66,-118.37 10.63,-264.43 -36.9,-359.82 -62.78,-125.98 -221.47,-51.7 -304.07,-43.54 -121.69,12.02 -187.93,76.55 -227.81,169.8 -37.99,88.82 -32.39,257.72 -34.69,368.08 -3.94,188.91 8.18,219.89 12.26,387.03l8.27 291.47c1.84,29.37 11.81,54.45 14.7,85.1 6.11,64.68 -0.48,130.1 0.05,195.1 0.52,63.12 12.65,123.78 12.86,190.58 0.4,128.33 -18.74,280.01 96.97,308.28 101.41,24.79 262.11,13.29 350.45,-25.17 100.22,-43.64 147.49,-120.19 147.22,-255.07 -0.16,-79.13 -2.21,-312.02 -35.82,-366.66 -43.6,-70.87 -160.24,-51.33 -235.29,-28.75 -36.67,11.04 -51.51,14.63 -66.93,-19.45z"/>
  <path class="fil9 str1" d="M7557.63 8282.35c-20.11,-47.01 -24.26,-305.86 -18.7,-374.01 39.09,-7.87 47.45,-5.27 53.55,-48.61 7.86,-55.83 -23.88,-39.38 -49.3,-26.82l-0.81 -101.42c19.1,1.99 37.44,17.91 48.76,-6.63 8.9,-19.3 0.67,-46.92 -7.38,-57.76 -43.42,-58.47 -20.93,-34.22 -15.55,-98.03 8.83,-104.78 6.99,-41.08 46.5,-88.88 7.5,-9.07 22.25,-32.02 15.28,-49.32 -10.82,-26.84 -30.48,-9.54 -46.81,-3.59 -1.73,-43.68 24.48,-112.04 30.87,-135.34l4.57 8.92c0.45,1.09 1.4,3.1 1.92,4.44 11,28.35 7.4,36.55 43.25,27.31 37.98,-67.78 -27.78,-100.16 -29.21,-105.23 0.12,-35.47 12.35,-70.23 30.18,-91.14 0.82,1.27 1.72,1.86 2.02,4.04 0.29,2.17 1.54,3.1 1.94,4.05 8.05,18.88 5.35,21.83 15.73,30.37 14.6,12.03 26.66,2.26 36.21,-3.21 5.67,-20.92 1.66,-54.1 -16.78,-72.76l-19.14 -17.11c8.97,-39.93 35.27,-85.86 56.61,-113.95 25.14,-33.08 52.44,-59.97 108.87,-64.94 67.22,-5.91 76.11,25.58 109.09,58.35 37.81,37.58 51.28,37.85 71.26,103.72 -0.9,1.1 -2.54,1.14 -3,3.03 -0.05,0.17 -41.43,38.3 -27,71.76 3.54,8.22 27.36,35.54 48.75,-9.45 0.58,-1.23 1.18,-2.8 1.76,-3.99l4.13 -7.77c0.46,-0.89 1.34,-2.67 2.25,-3.85 12.11,9.48 27.12,22.76 30.31,45.53 5.66,40.44 -4.68,40.65 -22.55,58.49 -45.48,45.44 4.39,60.75 53.95,56.14 16.92,34.36 62.62,229.8 64.02,272.02 8.36,251.84 31.71,235.96 8.93,492.38 -4.91,55.19 -3.42,112.25 -11.11,164.99 -13.97,95.77 -41.85,188.75 -66.02,281.11 -23.55,89.99 -53.27,172.84 -101.16,240.3 -38.37,54.05 -47.96,71.42 -101.95,73.4 -84.75,3.09 -94.58,7.82 -138.75,-37.09 -65.93,-67.04 -98.99,-111.21 -137.79,-210.58 -14.12,-36.14 -76.98,-237.6 -77.7,-268.87zm263.96 -1427.07c-138.04,30.1 -168.46,169.56 -222.4,295.07 -36.14,84.11 10.06,36.66 -38.46,135.57 -40.56,82.67 -26.15,222.69 -48.84,299.16 -13.77,46.41 2.5,41.61 0.07,73.54 -1.07,14.19 -16.04,45.07 -19.48,68.49 -8.79,59.67 3.84,112.44 -4.06,169.22 -17.49,125.74 0.69,354.52 38.52,477.27 62.01,201.16 76.67,307.6 240.66,455.4 29.39,26.49 100.76,25.44 147.88,21.71 71.7,-5.68 74.56,-16.23 110.77,-56.71 111.62,-124.75 206.96,-489.87 212.84,-658.47 1.83,-52.46 4.53,-109.36 9.67,-162.24 6.33,-65.08 6.69,-96.7 1.53,-164.68 -4.23,-55.86 -5.88,-106.72 -10.17,-163.12 -3.87,-50.96 -2.13,-115.9 -11.39,-164.52 -3.49,-18.34 -69.69,-270.86 -71.98,-274.51 -10.88,-17.34 -9.96,-0.31 -15.58,-24.52 -2.95,-12.72 0.39,-28.08 -2.16,-42.1 -3.34,-18.31 -25.01,-42 -35.11,-53.94 -49.41,-58.41 -16.11,-69.44 -60.65,-113.43 -96.76,-95.56 -111.84,-141.15 -221.66,-117.19z"/>
  <path class="fil10" d="M7375.19 9385.83c-23.58,18.98 -242.48,97.89 -178.44,3.48 15.98,-23.56 57.59,-48.62 89.04,-57.08 45.27,-12.17 82.24,22.07 89.4,53.6zm-255.51 -188.9c49.36,34.75 91.88,-17.53 197.03,-58.2 54.81,-21.2 95.96,-36.09 97.39,16.62 0.89,32.77 -3.88,102.76 -10.7,129.56l-24.42 -5.2c-62.52,-26.11 -158.01,-1.65 -211.45,35.23 -63.12,43.55 -107.85,145.98 -4.99,180.55 71.33,23.98 179.56,-20.64 242.11,-44.37 18.76,-7.12 36.69,-18.82 54.48,-15.94 21.36,3.45 35.92,15.23 61.29,2.79 48.92,-24 1.5,-69.55 -31.51,-79.65 5.74,-70.15 17.79,-122.46 18.71,-196.76 1.01,-82.21 -16.04,-111.02 -106.56,-108.62 -53.5,1.42 -126.15,26.29 -167.43,47.57 -64.52,33.27 -116.74,51.48 -113.95,96.42z"/>
  <path class="fil10" d="M8783.28 9436.29c-21.05,44.08 -116.99,49.13 -170.65,53.23 -57.58,4.39 -172.4,-14.37 -193.67,36.47 38.69,82.16 394.43,31.09 455.34,-47.32 104.67,-134.76 -262.39,-176 -285.48,-261.03 16.21,-42.64 129.07,-74.8 186.71,-54.81 9.7,7.13 5.3,91.55 90.38,33.74 28.88,-240.31 -638.72,-27.15 -260.03,134.77 49.33,21.09 161.74,65.53 177.4,104.95z"/>
  <path class="fil9 str1" d="M7891.55 7522.26c48.03,74.05 51.63,35.33 68.83,154.64 8.85,61.38 29.02,137.36 20.86,198.06 -8.68,64.58 -18.21,131.84 -26.98,196.75 -6.33,46.83 -2.54,53.29 -30.81,81.42 -128.09,127.46 -185.92,-177.74 -168.58,-314.6 7.47,-59.01 7.95,-146.66 23.51,-200.22 18.56,-63.92 33.32,-121.1 113.17,-116.05zm-190.96 372.28c0,132.8 55.6,402.71 211.96,325.99 76.03,-37.3 81.81,-72.81 95.45,-173.19 9.77,-71.95 32.53,-173.57 22.18,-243.17 -36.93,-248.34 -5.56,-194.14 -98.16,-305.72 -20.85,-25.12 -32.31,-44.43 -99.2,-19.36 -47.11,17.65 -48.94,19.97 -70.46,64.25 -50.24,103.38 -38.96,119.43 -48.12,222.37 -3.94,44.22 -13.65,81.98 -13.65,128.83z"/>
  <path class="fil10" d="M8047.11 9244.7c17.86,-55.19 169.46,-83.06 212.87,-38.27 -6.89,8.74 1.65,1.54 -9.3,8.43l-38.37 11.27c-49.61,10.6 -115.79,18.57 -165.2,18.57zm-3.66 59.93c93.1,-1.59 203.15,-15.55 277.82,-46.99 91.65,-38.59 -0.75,-132.32 -117.96,-132.32 -309.2,0 -295.27,215.74 -218.68,277.12 83.75,67.12 234.92,63.55 322.44,8.86 11.58,-7.23 49.65,-31.76 55.38,-46.48 25.24,-64.86 -135.38,14.87 -176.3,20.41 -66.36,9 -162.61,-8.21 -142.7,-80.6z"/>
  <path class="fil10" d="M6071.36 9290.52c-55.76,107.61 -308.3,156.53 -245.84,-27.44 14.28,-42.07 72.84,-120.91 133.77,-90.24 12.97,6.52 20.5,15.91 36.01,20.04 30.9,8.24 25.61,-8.4 53.65,7.71 23.8,13.69 40.57,54.88 22.41,89.93zm-185.46 -181.53c-108.83,22.84 -173.96,145.45 -156.51,236.88 42.86,224.44 486.77,66.93 433.71,-124.74 -12.96,-46.8 -53.19,-84.61 -99.42,-96.58 -26.61,-6.89 -25.96,-1.73 -48.24,-1.91 -17.65,-0.14 -26.49,-4.76 -41.59,-8.77 -31.93,-8.48 -56.11,-11.57 -87.95,-4.88z"/>
  <path class="fil10" d="M5537.15 9391.44c-18.45,35.07 -88.61,43.43 -140.02,47.9 -52.63,4.57 -143.29,-11.82 -169.35,30.58 17.37,61.97 146.83,41.1 208.64,32.24 188.72,-27.04 278.48,-119.39 85.18,-217.38 -71.53,-36.26 -149.49,-49.58 -150.53,-106.74 24.61,-25.4 99.04,-58.73 153.32,-41.92 24.64,21.45 -0.57,25.6 24.42,43.72 70.55,38.45 100.77,-87.84 -35.9,-109.51 -79.46,-12.59 -157.38,24.62 -197.19,64.85 -131.93,133.32 182.12,171.67 221.43,256.26z"/>
  <path class="fil10" d="M4976.18 9227.33c103.75,-113.73 102.94,105.14 136.02,147.56 86.93,12.53 63.86,-61.21 51.18,-118.23 -11.77,-52.93 -39.94,-107.82 -76.12,-126.08 -63.19,-31.87 -105.51,0.58 -144.46,29.85 -52.25,39.29 -59.44,74.98 -94.27,103.34l-7.84 -37.43c-1.29,-13.65 -2.36,-26.8 -4.24,-40.46 -3.28,-23.93 -4.21,-57.53 -16.1,-74.85 -8.01,-11.65 -97.58,-65.56 -78.81,41.35 8.57,48.81 12.19,99.44 15.29,154.74 3,53.45 -11.96,127.39 61.54,109.94 24.12,-5.72 111.97,-139.47 157.81,-189.73z"/>
  <path class="fil10" d="M4112.55 9374.62c-57.96,74.85 -283.01,20.13 -288.27,72.88 -6.99,70.24 306.64,42.28 361.99,-39.54 57.94,-85.65 -94.65,-143.95 -165.48,-175.86 -31.45,-14.17 -59.45,-26.13 -64.56,-62.1 33.01,-40.35 119.07,-58.31 143.65,-44.85 18.47,10.1 6.01,2.61 13.39,26.05 5.41,17.21 -0.63,15.96 18.53,20.8 59.6,15.05 70.16,-73.37 -10.45,-102.46 -129.7,-46.8 -329.44,86.85 -201.12,178.84 47.45,34.03 181.54,76.1 192.32,126.24z"/>
  <path class="fil10" d="M1990.03 9305.82c-3.15,-44.18 -10.94,-99.26 11.89,-129.84 18.06,-24.19 70.08,-61.16 106.15,-28.41 57.89,52.56 -75.69,156.79 -118.04,158.25zm-81.93 -233.95c0,114.27 5.5,154.03 15.33,269.07 -21.03,13.77 -44.73,17.23 -41.85,50.5 79.23,46.49 252,-95.01 281.12,-138.77 38.3,-57.56 31.55,-126.2 -22.77,-159.42 -26.89,-16.45 -60.08,-18.73 -91.59,-10.7 -40.65,10.34 -47.14,27.88 -70.28,38.26 -4.43,-95.35 29.91,-177.82 -18.33,-195.66 -39.29,-14.52 -41.12,15.81 -44.4,46.69 -3.46,32.46 -7.23,66.11 -7.23,100.03z"/>
  <path class="fil10" d="M3365.02 9357.8c-28.93,77.05 -228.78,25.64 -277.19,71.85 10.24,86.96 302.49,36.85 346.96,-32.92 76.92,-120.68 -197.27,-146.64 -220.35,-229.55 17.03,-31.09 59.42,-48.39 102.75,-51.5 47.26,-3.39 37.69,3.52 48.42,31.9 7.04,18.61 28.82,27.82 49.77,11.53 50.97,-39.61 -39.2,-139.43 -169.89,-91.51 -63.57,23.31 -156.03,97.11 -74.69,167.14 45.03,38.77 167.07,73.9 194.22,123.06z"/>
  <path class="fil10" d="M6290.1 9116.39c-12.04,33.33 1.18,149.73 6.78,194.61 6.83,54.76 7.94,148.05 66.5,150.18 55.94,2.04 61.55,-86.44 81.67,-133.89 44.76,-105.58 142.33,-149.29 241.13,-185.25 104.08,-37.88 43.52,-65.66 -45.93,-46.12 -58.93,12.87 -106.69,35.36 -151.47,62.31 -70.24,42.27 -70.57,65.3 -103.11,108.32 -13.55,-29.33 -8.56,-104.42 -12.8,-142.97 -22.87,-12.11 -54.22,-17.51 -82.77,-7.19z"/>
  <path class="fil10" d="M2823.52 9142.95c34.19,-13.2 44.82,16.37 74.67,22.22 35.42,6.94 57.58,1.52 65.96,42.11 13.07,63.32 -50.99,103.6 -89.98,122.35 -167.96,80.77 -158.74,-144.95 -50.65,-186.68zm212.08 113.93c27.5,-87.47 -47.44,-153.48 -100.18,-157.48l-72.95 -10.75c-104.78,-22.95 -173.68,60.62 -191.46,145.11 -25,118.75 46.21,186.96 167.5,172.53 84.47,-10.04 178.21,-89.36 197.09,-149.41z"/>
  <path class="fil10" d="M4370.75 9208.41c11.67,-30.21 44.75,-44.1 75.27,-50.86 34.81,-7.71 86.39,-12.41 101.34,23.34 -47.57,14.51 -118.74,28.25 -176.61,27.52zm-4.28 54.78c69.47,-2.9 111.57,-6.45 173.59,-23.77 46.76,-13.06 114.62,-26.38 76.42,-86.98 -51.53,-81.74 -219.13,-58.19 -286.95,-4.94 -85.83,67.38 -58.53,201.37 43.1,237.42 113.47,40.24 275.06,-24.95 259.6,-91.06 -48.4,-7.51 -94.75,37.68 -150.41,43.81 -61.99,6.83 -121.28,-8.7 -115.35,-74.48z"/>
  <path class="fil10" d="M7701.84 9279.31l0 33.64c0,68.38 -10.83,234.37 80.72,198.51 31.6,-17.85 14.61,-116.76 14.61,-176.09l0 -173.8c0,-46.93 9.12,-102.34 8.46,-145.86 -0.89,-58.6 -61.72,-61.7 -81.97,-19.47 -22.61,47.15 -21.82,217.71 -21.82,283.07z"/>
  <path class="fil9 str1" d="M4650.71 7502.09c0,-82.25 -1.77,-176.77 54.25,-210.25 121.84,89.01 43.01,448.69 -26.83,335.63 -31.64,-51.21 -27.42,-65.16 -27.42,-125.38zm-49.59 -39.24c0,107.72 -9.66,127.76 49.74,214.46 19.83,28.94 44.31,22.6 92.49,21.27 50.71,-68.44 56.89,-76.21 69.65,-175.41 12.7,-98.72 4.33,-217.23 -80.79,-274.99 -37.07,-25.15 -50.91,-4.28 -73.7,19.05 -53.14,54.43 -57.39,101.17 -57.39,195.62z"/>
  <path class="fil10" d="M1219.83 9317.08c0.17,-73.34 69.69,-261.99 57.35,-308.52 -73.55,-12.76 -72.18,42 -96.56,149.15 -12.05,52.93 -40.74,162.17 -30.51,213.36 39.56,23.75 59.59,10.8 110.61,1.51 42.62,-7.76 81.33,-13.36 120.98,-20.23 38.9,-6.73 213.32,-22.12 190.22,-73.04 -33.32,-13.22 -293.61,32.74 -352.09,37.77z"/>
  <path class="fil10" d="M2352.08 9216.94l-8.02 -24.26c-7.63,-58.78 11.6,-106.07 -37.2,-110.5 -59.79,-5.42 -40.95,68.72 -29.56,172.24 2.77,25.14 6.45,51.49 10.88,77.66 6.56,38.75 7.84,37.08 28.55,64.48 91.45,11.43 34.75,-86.65 127.87,-193.04 21.01,-24 51.49,-49.86 89.55,-67.51 57.61,-26.72 94.08,-30.1 98.97,-64.14 -52.41,-34.61 -207.46,23.04 -281.04,145.07z"/>
  <path class="fil10" d="M6948.66 9312.95c0,-45.08 27.63,-120.19 -36.11,-123.66 -53.03,-2.9 -55.44,68.26 -55.44,118.05 0,59.53 1.64,158.36 73.05,160.27 68.39,1.82 18.5,-81.87 18.5,-154.66z"/>
  <path class="fil10" d="M1687.08 9251.28l0 5.6c0,56.24 12.23,152.81 80.79,122.51 13.15,-30.38 -9.59,-83.95 -9.59,-133.72 0,-55.03 22.4,-99.66 -42.64,-101.66 -15.08,15.75 -19.3,16.75 -23.39,41.49 -2.97,17.91 -5.17,48.8 -5.17,65.78z"/>
  <path class="fil9 str1" d="M1908.38 7847.54c-24.71,11.7 -15.55,54.35 -15.71,80.86 -0.16,26.63 -1.07,69.45 35.19,53.23 22.79,-10.2 14.67,-55.33 14.87,-81.72 0.18,-24.69 0.07,-68.67 -34.35,-52.37z"/>
  <path class="fil9 str1" d="M3519.51 8095.91c34.95,12.31 43.87,-0.27 44.22,-38.36 0.22,-23.53 4.82,-73.94 -8.54,-87.94 -54.8,-57.39 -44,104.38 -35.68,126.3z"/>
  <path class="fil9 str1" d="M5405.17 7098.44c0,63.51 -9.33,107.41 43.85,89.98 8.94,-21.96 9.59,-105.93 -0.53,-128.96 -36.25,-12.85 -43.32,0.17 -43.32,38.98z"/>
  <path class="fil9 str1" d="M1076.08 8359.87l0 50.45c0,56.07 49.61,58.27 49.61,0l0 -44.85 -4.44 -35.94c-29.07,-8.05 -45.17,-5.39 -45.17,30.34z"/>
  <path class="fil9 str1" d="M2360.36 8399.11l0 56.06c0,38.36 13.93,38.55 44.08,29.13l5.06 -28.99 -0.84 -56.2c0,-48.62 -48.3,-52.27 -48.3,0z"/>
  <path class="fil9 str1" d="M6861.14 7696.27l-4.85 41.21 0.84 22.51c0,59.42 50.84,60.11 50.84,0l0 -28.04c0,-36.43 -17.4,-56.04 -46.83,-35.68z"/>
  <path class="fil9 str1" d="M8672.66 7342.55c-20.16,10.84 -23.56,139.04 26.46,106.64 15.84,-10.26 25.42,-134.55 -26.46,-106.64z"/>
  <path class="fil9 str1" d="M2051.24 8507.77c14.32,-17.19 8.12,-14.71 -0.23,-36.95 -7.28,-19.36 -4.31,-32.91 -10.88,-51 -86.95,-22.62 -35.84,128 11.11,87.95z"/>
  <path class="fil9 str1" d="M7557.63 8282.35c28.75,31.47 -4.84,78.33 56.89,60.96 27.05,-83.21 -53.22,-138.29 -56.89,-60.96z"/>
  <path class="fil9 str1" d="M8051.16 8466.39c0,32.9 5.92,40.32 40.37,32.51 4.72,-3.22 26.28,-76.44 15.8,-88.5 -29.04,-33.43 -56.17,22.08 -56.17,55.99z"/>
  <path class="fil9 str1" d="M6857.13 8163.64c0,41.35 5.51,70.92 48.42,43.23 4.63,-41.74 3.18,-41.72 -1.4,-84.48 -39.28,-12 -47.02,0.75 -47.02,41.25z"/>
  <path class="fil9 str1" d="M6857.13 7950.6l2.91 52.67c25.02,9.93 28.57,6.27 44.94,-4.45 17.74,-126.35 -47.85,-104.17 -47.85,-48.22z"/>
  <path class="fil9 str1" d="M6857.13 7524.52c0,76.68 50.84,89.38 50.84,-5.61 0,-50.49 -50.84,-53.34 -50.84,5.61z"/>
  <path class="fil9 str1" d="M3681.43 7412.39c0,19.66 4.31,27.98 11.09,38.37 24.53,3.28 31.4,0.54 37.39,-17.66l6.02 -22.76c5.17,-14.09 10.04,-4.21 7.19,-25.52 -6.14,-45.82 -61.69,-5.52 -61.69,27.57z"/>
  <path class="fil9 str1" d="M2765.86 7369.5c34.91,12.17 45.49,2.22 45.49,-35.6l0 -5.6c0,-69.07 -71.45,-55.74 -45.49,41.2z"/>
  <path class="fil9 str1" d="M6155.97 7176.93l-6.21 -38.96c-42.26,-17.91 -49.2,13.94 -43.97,55.67 4.32,34.51 50.18,44.8 50.18,-16.71z"/>
  <path class="fil9 str1" d="M4913.59 7967.42l6.02 52.22c46.06,12.38 42.31,-9.56 42.31,-52.22 0,-48.38 -48.33,-39.42 -48.33,0z"/>
  <path class="fil9 str1" d="M6759.94 7319.02c56.23,16.64 50.55,-38.91 34.82,-52.4 -31.52,-27.02 -46.54,15.46 -34.82,52.4z"/>
  <path class="fil9 str1" d="M8882.12 7167.14c35.9,0 38.71,-12.55 30.58,-43.11 -7.31,-2.19 -14.61,-5.21 -24.97,-5.21 -46.07,0 -42.53,48.32 -5.61,48.32z"/>
  <path class="fil11" d="M5885.9 9108.99c31.84,-6.69 56.02,-3.6 87.95,4.88 15.1,4.01 23.94,8.63 41.59,8.77 22.28,0.18 21.63,-4.98 48.24,1.91 46.23,11.97 86.46,49.78 99.42,96.58 53.06,191.67 -390.85,349.18 -433.71,124.74 -17.45,-91.43 47.68,-214.04 156.51,-236.88zm1270.24 -2739.38l70.44 0c51.56,3.63 99.16,17.61 146.62,55.9 147.64,119.1 100.81,441.27 100.81,611.26 12.27,-8.99 12.26,-15.58 18.59,-31.89l25.67 -69.65c34.98,-87.66 92.02,-159.72 170.46,-211.24l9.02 -5.81c45.88,-25.75 98.58,-34.89 163.41,-34.82 134.29,0.15 172.01,68.49 239.77,136.16 86.84,86.72 63.04,105.64 96.62,150.12 18.53,24.53 42.16,43.87 45.03,78.34 18.77,-13.75 21.14,-48.83 22.37,-73.1 8.48,-167.48 38.66,-136.4 64.06,-210.55l39.43 -90.41c0.3,-0.58 0.95,-2.03 1.25,-2.61l137.82 -149.07c9.27,-7.9 15.02,-12 24.91,-19.95 34.68,-27.89 83.68,-51.53 125.92,-64.8l66.9 -17.17c79.38,-13.65 162.29,-11.12 237.37,25.83 28.15,13.85 33.07,15.19 64.76,24.98 55.48,17.16 72.8,41.34 105.54,85.15 12.89,17.23 34.39,29.67 48.22,47.12 47.08,59.45 13.74,44.18 64.68,125.97 20.89,33.55 14.9,33.08 22.11,73.68 6.35,35.73 15.38,118.89 11.8,148.69 -9.29,77.4 6.35,164.11 -18.07,245.52l-38.12 107.81c-5.28,10.76 -10.56,21.13 -14.99,29.87 -11.79,23.28 -22.13,37.77 -38.8,56.53 -20.01,22.52 -22.52,28.27 -50.07,45.28 -22.27,13.75 -36.29,19.73 -63.64,26.1l63.7 87.71c0.72,0.93 1.69,2.28 2.39,3.22l23.57 32.77c0.8,1.22 9.72,16.51 10.03,17.16 6.84,14.18 0.94,-0.95 5.07,15.4l55.83 148.58c20.86,54.73 51.48,161.18 38.8,220.05 -5.79,26.9 -7.87,11.46 -3.72,36.11 7.43,44.24 9.77,102.78 -0.63,144.24 -9.26,36.92 14.4,103.68 0.3,190.18 -2.05,12.6 -0.76,8.9 -2.64,17.83l-30.3 162.03c-17.84,67.82 -77.94,193.6 -78.25,197.36 102.68,0 178.18,12.01 269.01,61.94 139.48,76.67 230.48,216.27 251.26,376.81 0.59,4.55 1.07,9.1 1.46,13.64l0 63.29c-2.38,32.83 -7.77,65.38 -12.74,97.86 -2.29,14.91 -2.62,15.15 -8.09,32.35 -11.47,36.08 -27.14,61.63 -44.49,96.14 -11.96,23.78 -23.53,35.94 -38.85,56.49l-49.69 56.86c-0.85,0.78 -2.1,1.88 -2.95,2.66 -47.65,43.95 -109.51,82.31 -171.09,103.74 -39.43,13.72 -81.45,21.15 -125.97,24.94l-309.09 0 -108.43 0 -108.43 0 -108.43 0 -108.43 0 -108.43 0 -108.43 0 -108.44 0 -108.43 0 -108.43 0 -108.43 0 -108.43 0 -108.43 0 -108.43 0 -108.43 0 -108.43 0 -108.43 0 -108.43 0 -108.43 0 -108.43 0 -108.44 0 -108.43 0 -108.43 0 -108.43 0 -108.43 0 -108.43 0 -108.43 0 -108.43 0 -108.43 0 -108.43 0 -108.43 0 -108.43 0 -108.43 0 -108.44 0 -108.43 0 -108.43 0 -108.43 0 -108.43 0 -108.43 0 -108.43 0 -108.43 0 -108.43 0 -108.43 0 -108.43 0 -108.43 0 -108.44 0 -108.43 0 -108.43 0 -108.43 0 -108.43 0 -108.43 0 -108.43 0 -108.43 0 -108.43 0 -108.43 0 -108.43 0 -108.43 0 -108.43 0 -108.44 0 -108.43 0 -108.43 0 -108.43 0 -108.43 0 -108.43 0 -108.43 0 -18.14 0 -1145.74 0 -52.31 -4.24c-45.25,-7.75 -84.18,-26.2 -125.39,-42.36 -49.28,-19.33 -74.46,-40.98 -109.97,-72.57 -10.89,-9.69 -18.03,-13.89 -27.62,-22.85 -36.78,-34.36 -66.43,-83.45 -90.57,-126.5l-4.91 -11.01c-5.18,-13.18 -7.51,-17.52 -13.04,-28.61 -20.21,-40.52 -29.98,-85.48 -33.6,-130.9l0 -95.13 0.65 -9.12c1.51,-19.76 1.61,-14.62 2.9,-33.11 0.1,-1.41 0.29,-5.47 0.5,-6.9 0.14,-0.88 0.42,-2.51 0.6,-3.4 41.79,-206.34 199.39,-347.88 399.27,-394.41 -36.14,-68.26 -28.39,-233.46 -28.02,-342.03 0.13,-37.3 -1.69,-58.84 -5.31,-78.72 -15.21,-83.56 -0.33,-156.74 -0.33,-252.01 0,-56.06 4.04,-129.52 -1.05,-183.37l-16.01 -158.4c-1.15,-103.62 -8.56,-158.27 2.76,-239.64 2.27,-16.35 3.54,-53.55 3.21,-80.53 -1.36,-111.69 -22.7,-207.5 -22.57,-313.57 0.14,-119.47 -18.77,-258.05 49.81,-359.48l65.44 -69.16c90.12,-70.9 169.08,-88.41 278.16,-48.61 39.37,14.36 97.85,30.78 128.32,51.17 6.18,-26.53 37.91,-60.17 58.44,-76.15l76.2 -52.8c84.72,-40.62 220.79,-67.08 299.02,-29.72 50.44,24.09 78.11,58.3 109.07,92.83 31.7,35.35 57.54,80.18 57.54,144.33 19.24,-1.6 41.95,-15.64 59.33,-24.87 22.71,-12.06 18.44,-4.84 53.72,-13.71 86.41,-21.7 153.11,14.63 213.41,48.12l15.8 8.86c0.88,0.71 15.33,14.98 18.91,18.56 5.77,5.78 15.29,15.3 19.36,20.04l17.78 21.48c42.85,-22.66 20.46,-35.43 94.88,-78.97 83.46,-48.82 183.35,-30.92 261.5,8.75 40.19,20.4 63.63,46.85 86.81,81.44 49.76,-33.3 48.15,-97.81 223.67,-152.11 24.85,-7.69 47.15,-13.79 79.21,-16.14 37.55,-2.75 109.35,-41.68 240.68,-27.37 103.01,11.23 162.95,84.3 204.61,171.15 39.68,82.72 37.23,238.59 37.23,338.42l20.17 -58.33c41.45,-166.95 92.59,-269.22 186.26,-408.14 13.97,-20.72 15.16,-23.68 34.66,-38.23 34.17,-25.5 50.12,-38.83 94.63,-56.82 79.36,-32.06 160.05,-29.33 247.08,1.52 73.99,26.23 65.37,43.17 118.41,111.53 56.62,72.98 85.6,171.45 72.18,267.9 -14.76,106.03 -44.69,307.75 -100.4,399.01 -9.68,15.86 -18.59,27.59 -27.84,45.06 69.23,1.54 193.83,81.21 207.57,140.16 17.77,-13.01 9.04,1.17 11.69,-27.98l8.31 -80.7c7.63,-45.83 11.96,-81.39 20.83,-125.22l66.95 -388.06c1.86,-6.64 4.21,-12.3 6.21,-24.8 15.4,-96.31 16.49,-158.57 88.49,-232.92l8.57 -8.25c52.36,-48.37 122.31,-100.88 195.89,-108.62 141.78,-14.92 261.42,58.54 303.57,191.19l46.7 171.98c2.09,25.32 3.77,38.97 6.75,66.14 1.28,11.6 3.39,51.91 10.22,62.67 8.01,-16.69 3.75,-19.2 4.47,-35.37 1.64,-36.91 4.91,-71.82 17.99,-104.77 31.05,-78.2 53.18,-109.08 118.54,-161.86 86.87,-70.15 240.54,-100.55 324.63,-11.96 8.77,-37.62 53.85,-79.4 84.05,-101.01 93.62,-66.96 219.78,-76.18 311.15,-8.01 23.45,17.49 43.84,50.13 64.82,64.17 9.23,-34.54 62.2,-87.58 91.44,-104.84 59.15,-34.88 63.18,-40.84 139.92,-56.39 100.8,-20.43 166.87,-11.5 236.43,58.16 0.82,0.81 1.93,2.05 2.75,2.86 12.24,12.13 23.61,19.31 28.75,38.54 14.1,-10.32 17.64,-23.76 29.26,-38.03 85.76,-105.32 95.13,-87.36 186.04,-116.83l239.76 -63.14c49.04,-11.74 75.12,-31.25 128.24,-33.9 34.59,-1.73 66.85,-4.49 97.41,-5.99zm-4120.54 2887.27c-18.88,60.05 -112.62,139.37 -197.09,149.41 -121.29,14.43 -192.5,-53.78 -167.5,-172.53 17.78,-84.49 86.68,-168.06 191.46,-145.11l72.95 10.75c52.74,4 127.68,70.01 100.18,157.48zm3913.06 56.07c0,72.79 49.89,156.48 -18.5,154.66 -71.41,-1.91 -73.05,-100.74 -73.05,-160.27 0,-49.79 2.41,-120.95 55.44,-118.05 63.74,3.47 36.11,78.58 36.11,123.66zm1094.79 -8.32c-19.91,72.39 76.34,89.6 142.7,80.6 40.92,-5.54 201.54,-85.27 176.3,-20.41 -5.73,14.72 -43.8,39.25 -55.38,46.48 -87.52,54.69 -238.69,58.26 -322.44,-8.86 -76.59,-61.38 -90.52,-277.12 218.68,-277.12 117.21,0 209.61,93.73 117.96,132.32 -74.67,31.44 -184.72,45.4 -277.82,46.99zm-3676.98 -41.44c-5.93,65.78 53.36,81.31 115.35,74.48 55.66,-6.13 102.01,-51.32 150.41,-43.81 15.46,66.11 -146.13,131.3 -259.6,91.06 -101.63,-36.05 -128.93,-170.04 -43.1,-237.42 67.82,-53.25 235.42,-76.8 286.95,4.94 38.2,60.6 -29.66,73.92 -76.42,86.98 -62.02,17.32 -104.12,20.87 -173.59,23.77zm-2679.39 -11.91c0,-16.98 2.2,-47.87 5.17,-65.78 4.09,-24.74 8.31,-25.74 23.39,-41.49 65.04,2 42.64,46.63 42.64,101.66 0,49.77 22.74,103.34 9.59,133.72 -68.56,30.3 -80.79,-66.27 -80.79,-122.51l0 -5.6zm7096.2 185.01c-15.66,-39.42 -128.07,-83.86 -177.4,-104.95 -378.69,-161.92 288.91,-375.08 260.03,-134.77 -85.08,57.81 -80.68,-26.61 -90.38,-33.74 -57.64,-19.99 -170.5,12.17 -186.71,54.81 23.09,85.03 390.15,126.27 285.48,261.03 -60.91,78.41 -416.65,129.48 -455.34,47.32 21.27,-50.84 136.09,-32.08 193.67,-36.47 53.66,-4.1 149.6,-9.15 170.65,-53.23zm-3934.75 -172.52c34.83,-28.36 42.02,-64.05 94.27,-103.34 38.95,-29.27 81.27,-61.72 144.46,-29.85 36.18,18.26 64.35,73.15 76.12,126.08 12.68,57.02 35.75,130.76 -51.18,118.23 -33.08,-42.42 -32.27,-261.29 -136.02,-147.56 -45.84,50.26 -133.69,184.01 -157.81,189.73 -73.5,17.45 -58.54,-56.49 -61.54,-109.94 -3.1,-55.3 -6.72,-105.93 -15.29,-154.74 -18.77,-106.91 70.8,-53 78.81,-41.35 11.89,17.32 12.82,50.92 16.1,74.85 1.88,13.66 2.95,26.81 4.24,40.46l7.84 37.43zm688.62 127.67c-39.31,-84.59 -353.36,-122.94 -221.43,-256.26 39.81,-40.23 117.73,-77.44 197.19,-64.85 136.67,21.67 106.45,147.96 35.9,109.51 -24.99,-18.12 0.22,-22.27 -24.42,-43.72 -54.28,-16.81 -128.71,16.52 -153.32,41.92 1.04,57.16 79,70.48 150.53,106.74 193.3,97.99 103.54,190.34 -85.18,217.38 -61.81,8.86 -191.27,29.73 -208.64,-32.24 26.06,-42.4 116.72,-26.01 169.35,-30.58 51.41,-4.47 121.57,-12.83 140.02,-47.9zm1582.53 -194.51c-2.79,-44.94 49.43,-63.15 113.95,-96.42 41.28,-21.28 113.93,-46.15 167.43,-47.57 90.52,-2.4 107.57,26.41 106.56,108.62 -0.92,74.3 -12.97,126.61 -18.71,196.76 33.01,10.1 80.43,55.65 31.51,79.65 -25.37,12.44 -39.93,0.66 -61.29,-2.79 -17.79,-2.88 -35.72,8.82 -54.48,15.94 -62.55,23.73 -170.78,68.35 -242.11,44.37 -102.86,-34.57 -58.13,-137 4.99,-180.55 53.44,-36.88 148.93,-61.34 211.45,-35.23l24.42 5.2c6.82,-26.8 11.59,-96.79 10.7,-129.56 -1.43,-52.71 -42.58,-37.82 -97.39,-16.62 -105.15,40.67 -147.67,92.95 -197.03,58.2zm-3007.13 177.69c-10.78,-50.14 -144.87,-92.21 -192.32,-126.24 -128.32,-91.99 71.42,-225.64 201.12,-178.84 80.61,29.09 70.05,117.51 10.45,102.46 -19.16,-4.84 -13.12,-3.59 -18.53,-20.8 -7.38,-23.44 5.08,-15.95 -13.39,-26.05 -24.58,-13.46 -110.64,4.5 -143.65,44.85 5.11,35.97 33.11,47.93 64.56,62.1 70.83,31.91 223.42,90.21 165.48,175.86 -55.35,81.82 -368.98,109.78 -361.99,39.54 5.26,-52.75 230.31,1.97 288.27,-72.88zm-747.53 -16.82c-27.15,-49.16 -149.19,-84.29 -194.22,-123.06 -81.34,-70.03 11.12,-143.83 74.69,-167.14 130.69,-47.92 220.86,51.9 169.89,91.51 -20.95,16.29 -42.73,7.08 -49.77,-11.53 -10.73,-28.38 -1.16,-35.29 -48.42,-31.9 -43.33,3.11 -85.72,20.41 -102.75,51.5 23.08,82.91 297.27,108.87 220.35,229.55 -44.47,69.77 -336.72,119.88 -346.96,32.92 48.41,-46.21 248.26,5.2 277.19,-71.85zm2925.08 -241.41c28.55,-10.32 59.9,-4.92 82.77,7.19 4.24,38.55 -0.75,113.64 12.8,142.97 32.54,-43.02 32.87,-66.05 103.11,-108.32 44.78,-26.95 92.54,-49.44 151.47,-62.31 89.45,-19.54 150.01,8.24 45.93,46.12 -98.8,35.96 -196.37,79.67 -241.13,185.25 -20.12,47.45 -25.73,135.93 -81.67,133.89 -58.56,-2.13 -59.67,-95.42 -66.5,-150.18 -5.6,-44.88 -18.82,-161.28 -6.78,-194.61zm-3938.02 100.55c73.58,-122.03 228.63,-179.68 281.04,-145.07 -4.89,34.04 -41.36,37.42 -98.97,64.14 -38.06,17.65 -68.54,43.51 -89.55,67.51 -93.12,106.39 -36.42,204.47 -127.87,193.04 -20.71,-27.4 -21.99,-25.73 -28.55,-64.48 -4.43,-26.17 -8.11,-52.52 -10.88,-77.66 -11.39,-103.52 -30.23,-177.66 29.56,-172.24 48.8,4.43 29.57,51.72 37.2,110.5l8.02 24.26zm4432.05 -156.79c42.92,-24.07 108.37,-32.67 168.15,-32.64 43.2,0.02 96.29,2.06 90.14,50.37 -37.31,9.29 -104.17,6.33 -151.35,12.85 -46.19,6.39 -104.69,29.43 -106.94,-30.58zm-5564.3 256.93c58.48,-5.03 318.77,-50.99 352.09,-37.77 23.1,50.92 -151.32,66.31 -190.22,73.04 -39.65,6.87 -78.36,12.47 -120.98,20.23 -51.02,9.29 -71.05,22.24 -110.61,-1.51 -10.23,-51.19 18.46,-160.43 30.51,-213.36 24.38,-107.15 23.01,-161.91 96.56,-149.15 12.34,46.53 -57.18,235.18 -57.35,308.52zm6482.01 -37.77c0,-65.36 -0.79,-235.92 21.82,-283.07 20.25,-42.23 81.08,-39.13 81.97,19.47 0.66,43.52 -8.46,98.93 -8.46,145.86l0 173.8c0,59.33 16.99,158.24 -14.61,176.09 -91.55,35.86 -80.72,-130.13 -80.72,-198.51l0 -33.64zm-6000.92 -271.18c30.45,-5.28 94.6,-11.38 118.04,8.63 46.12,39.38 -51.09,35.07 -68.83,36.74 -31.55,2.98 -94.55,20.86 -112.78,3.32 -33.86,-32.58 36.07,-43.92 63.57,-48.69zm207.18 63.74c0,-33.92 3.77,-67.57 7.23,-100.03 3.28,-30.88 5.11,-61.21 44.4,-46.69 48.24,17.84 13.9,100.31 18.33,195.66 23.14,-10.38 29.63,-27.92 70.28,-38.26 31.51,-8.03 64.7,-5.75 91.59,10.7 54.32,33.22 61.07,101.86 22.77,159.42 -29.12,43.76 -201.89,185.26 -281.12,138.77 -2.88,-33.27 20.82,-36.73 41.85,-50.5 -9.83,-115.04 -15.33,-154.8 -15.33,-269.07zm6278.38 -341.98l0 0zm-5694.15 0l0 0zm-1161.27 0l0 0zm6855.42 0c14.37,-29.93 32.87,-95.12 56.1,-112.13l5.61 117.73c-35.38,-7.49 -32.05,8.62 -61.71,-5.6zm-6855.42 0c-27.9,13.37 -39.05,-1.44 -56.1,5.6l28.14 -95.21c0.37,-1.53 0.7,-3.09 1.09,-4.52l4.43 -12.4c5.11,61.39 20.43,82.39 22.44,106.53zm2109.36 -61.67c12.37,9.05 14.71,15.69 21.65,28.81l17.62 38.46 -51.77 -1.93c-14.88,-1.88 -2.74,2.47 -15.55,-3.67l24.85 -43.47c0.12,-0.38 3.2,-18.12 3.2,-18.2zm-1610.07 -44.86c21.01,15.39 31.1,53.84 40.72,67.47 12.21,17.32 15.17,12.48 32.21,44.66l-95.37 0c12.18,-52.24 11.24,-8.67 17.92,-88.1l4.52 -24.03zm-527.34 -11.21l1.67 1.67c-0.11,-0.11 -2.23,-1.11 -1.67,-1.67zm1189.32 117.74c34.54,-65.24 29.69,-44.49 64.05,-126.62 11.01,-26.33 18.04,-38.07 27.23,-68.09l19.26 -70.46c0.33,-0.89 0.9,-2.74 1.66,-3.94 7.18,17.36 -2.46,183.68 16.83,274.71 -22.02,0 -111,3.04 -129.03,-5.6zm112.2 -269.11l0 0zm2139.85 -156.98c1.98,-48.17 -26.63,-145.96 -72.85,-92.78 -38.97,44.84 -35.97,405.33 -59.78,495.94 -51.77,197.01 -207.7,126.51 -313.94,-10.03 -32.24,-41.43 -13.27,-89.19 -5.18,-146.54 30.74,-217.98 61.98,-434.05 91.06,-655.61l91.49 -653.83c24.06,-106.51 40.05,-210.52 61.15,-314.95 14.7,-72.8 9.01,-84.23 55.05,-129.42 24.52,-24.06 71.56,-65.82 116.55,-66.67 109,-2.05 82.39,-2.82 138.79,50.74 51.41,48.82 6.89,37.56 54.62,130.37 18.37,35.71 43.15,262.33 50.91,320.13 21.25,158.35 54.34,508.01 68.04,675.66 6.95,84.94 58.54,622.21 58.54,688.52 0,174.74 -236.27,256.08 -281.96,141.25 -12.87,-32.36 -19.8,-73.73 -25.76,-109.17 -30.52,-181.31 -32.8,-167.33 -26.73,-323.61zm3632.84 -442.9l67.32 72.88c-37.02,0.83 -57.32,19.44 -78.54,33.64 0,-22.68 1.71,-42.05 2.64,-50.88 1.33,-12.72 7.25,-39.71 8.58,-55.64zm-555.63 -1005.62c109.82,-23.96 124.9,21.63 221.66,117.19 44.54,43.99 11.24,55.02 60.65,113.43 10.1,11.94 31.77,35.63 35.11,53.94 2.55,14.02 -0.79,29.38 2.16,42.1 5.62,24.21 4.7,7.18 15.58,24.52 2.29,3.65 68.49,256.17 71.98,274.51 9.26,48.62 7.52,113.56 11.39,164.52 4.29,56.4 5.94,107.26 10.17,163.12 5.16,67.98 4.8,99.6 -1.53,164.68 -5.14,52.88 -7.84,109.78 -9.67,162.24 -5.88,168.6 -101.22,533.72 -212.84,658.47 -36.21,40.48 -39.07,51.03 -110.77,56.71 -47.12,3.73 -118.49,4.78 -147.88,-21.71 -163.99,-147.8 -178.65,-254.24 -240.66,-455.4 -37.83,-122.75 -56.01,-351.53 -38.52,-477.27 7.9,-56.78 -4.73,-109.55 4.06,-169.22 3.44,-23.42 18.41,-54.3 19.48,-68.49 2.43,-31.93 -13.84,-27.13 -0.07,-73.54 22.69,-76.47 8.28,-216.49 48.84,-299.16 48.52,-98.91 2.32,-51.46 38.46,-135.57 53.94,-125.51 84.36,-264.97 222.4,-295.07zm-1267.62 646.81c20.63,4.81 36.88,13.87 57.03,15.97 8.96,0.93 24.85,-0.18 31.74,2.04 24.76,7.98 6.6,2.51 6.6,21.24 0,119.49 -5.46,579.33 2.55,659.91 0.39,3.92 0.26,10.62 0.26,14.13l11.35 104.15c-1.51,40.04 -6.68,120.29 -0.9,169.74l14.92 117.15c3.61,74.42 36.6,98.62 39.14,129.07l-213.18 0c4.4,-16.45 10.98,-21.58 19.38,-36.75 15.35,-27.75 15.55,-106.41 22.23,-145.92 23.56,-139.48 20.1,-73.92 20.1,-220.99 0,-80.3 1.03,-161.24 0.13,-241.46l-5.74 -279.93c0,-34.43 -8.22,-54.56 -2.72,-86.55 10.36,-60.24 9.41,-78.06 -1.29,-150.75 -1.83,-12.39 -4.03,-32.04 -4.23,-35.71 -0.82,-14.45 2.63,-12.13 2.63,-35.34zm-3231.36 224.26l-5.61 0c0,-55.03 -25.88,-128.69 -56.1,-173.8 68.34,-45.73 60.34,-59.79 100.98,-106.52 0,22.13 -5.37,46.53 -8.79,69.7l-19.94 136.61c-3.4,22.22 -10.54,48.36 -10.54,74.01zm4207.5 1003.54l-359.04 5.6c46.28,-69.07 64.46,-72.49 81.02,-176.66 9.47,-59.51 8.42,-105.53 8.61,-160 0.13,-41.4 4.45,-39.29 5.67,-72.22l2.93 -136.63c5.15,-38.64 7.35,-363.18 -0.93,-401.27 -8.04,-37 -12.33,-48.59 -6.01,-94.47 5.55,-40.3 -0.52,-92.39 4.64,-135.53 1.86,-15.62 30.33,-94.8 38.32,-101.86l62.9 -38.05c9.98,-7.32 10.83,-10.39 21.64,-17.62l-23.48 161.6c-2.05,22.98 0.68,51.64 -7.18,82.91 -12.24,48.66 -5.63,38.54 -10.84,81.35 -3.5,28.78 6.01,129.99 1.61,189.36 -6.4,86.35 -3.24,270.55 16.12,355.1 6.38,27.89 12.43,52.19 20.46,80.46l23.74 82.8c15.3,56.38 33.32,106.86 51.59,155.88 19.01,50.98 63.64,122.06 68.23,139.25zm-4524.41 -594.28c15.42,34.08 30.26,30.49 66.93,19.45 75.05,-22.58 191.69,-42.12 235.29,28.75 33.61,54.64 35.66,287.53 35.82,366.66 0.27,134.88 -47,211.43 -147.22,255.07 -88.34,38.46 -249.04,49.96 -350.45,25.17 -115.71,-28.27 -96.57,-179.95 -96.97,-308.28 -0.21,-66.8 -12.34,-127.46 -12.86,-190.58 -0.53,-65 6.06,-130.42 -0.05,-195.1 -2.89,-30.65 -12.86,-55.73 -14.7,-85.1l-8.27 -291.47c-4.08,-167.14 -16.2,-198.12 -12.26,-387.03 2.3,-110.36 -3.3,-279.26 34.69,-368.08 39.88,-93.25 106.12,-157.78 227.81,-169.8 82.6,-8.16 241.29,-82.44 304.07,43.54 47.53,95.39 39.56,241.45 36.9,359.82 -2.76,122.95 -46.81,225.52 -135.28,267.16 -72.54,34.14 -115.53,-31.17 -153.27,-7.63 -9.57,5.97 -70.4,101.53 37.15,112.07 49.19,4.81 75.56,-21.88 123.21,77.62 23.73,49.56 27.12,108.68 26.49,173.05 -0.99,102.32 11.78,121.89 -34.52,165.14 -64.98,60.69 -65.58,26.28 -155.88,41.04l-6.63 68.53zm2583.46 -679.69c15.58,-4.79 4.8,10.24 16.38,-16.54 8.83,-20.41 13.76,-181.7 11.97,-189.13 -10.5,-43.75 -4.08,-182.09 -4.08,-235.91 0,-75.11 -1.71,-152.13 37.75,-200.99 38.96,-48.24 128.72,-84.15 166.39,-61.31 86.13,52.21 76.85,92.61 78.15,161.42 0.81,42.54 9.59,73.31 13.04,112.24 3.29,37.1 -1.84,79.09 -1.77,117.59 0.14,87.94 16.62,144.42 14.4,229.86 -3.33,128.34 -9.44,366.36 0.77,486.92 8.54,100.87 15.08,91.41 17.9,219.57 2.91,132.48 -19.72,167.3 -20.26,218.35 -1.58,150.27 56.08,512.68 -238.84,468.46 -45.94,-6.89 -44.83,-26.52 -65.17,-57.6 -37.45,-57.21 -15.21,-23.99 -30.55,-88.7 -4.36,-18.42 -30.15,-47.8 -35.38,-86.79 -9.7,-72.25 17.39,-39.84 -31.53,-81.83 -30.6,66.07 -2.33,145.16 -11.16,208.65 -18.47,132.87 -196.67,199.64 -260.72,98.31 -57.48,-90.93 -25.96,-263.93 -43.76,-416.25 -19.32,-165.3 -9.66,-498.17 -7.06,-666.35 1.24,-80.14 -4.73,-632.76 9.48,-680.13 16.82,-56.06 57.18,-101.29 104.67,-126.19 22.6,-11.85 64.37,-25.39 93.7,-22.42 26.08,2.63 43.21,32.14 57.09,54.31 61.22,97.77 49.62,166.97 74.97,273.34 9.34,39.2 5.94,63.95 12.78,99.89 2.83,14.9 40.52,180.6 40.84,181.23zm460.04 -290.21c0,-114.42 4.91,-229.05 33.36,-330.39 29.35,-104.53 101.56,-144.47 218.96,-144.47 57.76,0 58.69,23.14 89.47,60.53 33,40.07 21.6,55.41 21.6,111.59 0,62.45 16.53,89.82 16.53,145.76 0,80.89 11.41,130.86 11.41,162.59l-6.87 162.75c2.01,40.21 9.43,80.41 9.43,123.17 0,53.31 -12.36,87.99 -12.64,117.78 -0.28,29.91 12.64,71.69 12.64,106.48 0,93.86 -14.89,71.74 -16.96,101.64 -1.57,22.51 14.4,24.37 14.4,60.94l0 112.13c0,19.45 -7.49,25.91 -8.5,40.18 -1.16,16.3 5.31,21.72 7.64,39.22 3.29,24.74 3.22,68.48 3.46,94.6l5.04 246.47c0,118.89 -23.35,191.59 -24.09,240.94 -0.88,57.74 -4.19,66.73 -33.47,100.53 -86.23,99.51 -70.49,31.24 -123.48,72.62 -48.73,38.06 -94.4,23.12 -139.34,-10.62 -33.4,-25.07 -20.14,-57.82 -30.98,-102.83 -8.59,-35.67 -22.21,-70.14 -22.21,-110.02 0,-47.61 23.51,-77.8 24.15,-101.35 0.53,-19.75 -21.61,-52.11 -21.61,-94.87l2.56 -207.44c0,-55.31 -20.77,-32.88 -6.07,-104.16 4.4,-21.34 -8.15,-77.87 -10.51,-105.96 -12.09,-144.23 11.43,-343.61 -4.04,-472.98 -7.44,-62.18 14.79,-16.15 -0.71,-99.55 -12.16,-65.42 -9.17,-147.15 -9.17,-215.28zm-3835.66 781.11c8.58,-28.91 24.91,-60.76 32.97,-90.42 8.79,-32.33 -7.45,-47.77 5.87,-101.35 9.22,-37.1 -1.82,-77.81 8.35,-114.41 12.62,-45.45 -24.42,-102.77 3.82,-215.78 5.13,-20.55 -9.93,-61.92 -9.74,-102.15 0.2,-39.74 -3.81,-75.39 7.36,-113.28 10.93,-37.08 -7.33,-51.5 -7.43,-99.68 -0.37,-181.94 38.56,-126.42 68.97,-174.15 35.48,-55.69 105.54,-62.59 171.49,-30.45 64.78,31.57 56.72,93.05 64.33,175.59 13.57,146.99 17.98,573.28 0.27,697.44 -10.86,76.09 4.26,159.71 -12.54,227.41 -14.5,58.4 -20.88,21.65 -9.49,84.48 6.37,35.07 1.72,65.77 -6.59,100.78 -4.94,20.83 -3.44,34.83 -7.09,55.09 -4.84,26.87 -9.49,18.89 -11.86,51.74 -13.09,180.74 -85.44,524.52 -317.05,509.14 -126.31,-8.39 -198.74,-132.87 -247.67,-233.34 -87.7,-180.02 -66.91,-230.62 -93.29,-382.95 -42.13,-243.28 -29.7,-451.75 -29.98,-694.04 -0.05,-39.32 2.48,-77.82 2.56,-117.77 0.18,-98.16 12,-63.82 18.11,-97.43 2.29,-12.61 -18.27,-70.69 -21.23,-98.56 -11.94,-112.41 14.14,-148.21 15.63,-224.65 1.61,-82.16 149.66,-120.85 236.88,-43.47 67.18,59.62 28.32,97.88 56.12,178.69 14.33,41.66 -8.46,49.56 -8.39,100.16 0.04,33.21 4.14,86.2 -3.1,116.65 -6.2,26.04 -11.88,16.87 -3.57,44.94 15.34,51.87 10.72,97.41 0.87,153.94 -12.67,72.79 18.21,129.88 4.85,212.77 -20.77,128.77 23.02,34.56 10.2,200.81 33.03,31.45 25.13,24.25 80.37,24.25zm2836.95 -865.2c-2.01,-10.61 7.06,-19.94 3.55,-3.55 -0.08,0.38 0.16,23.12 -3.55,3.55zm0 -22.43l2.36 2.36c-0.03,-0.03 -0.64,-0.64 -0.69,-0.69 -0.11,-0.11 -2.23,-1.11 -1.67,-1.67zm1506.82 -61.67c0,-119.35 13.45,-239.02 75.39,-308.13 35.11,-39.15 66.48,-44.24 129.93,-60.38l229.25 -55.74c35.24,-7.12 29.42,-21.34 71.49,-26.31 41.32,-4.89 134.74,-12.29 175.94,-11.9 91.65,0.85 123.47,153.78 123.47,249.42l-11.85 409.27c-6.44,118.54 -17.72,150.97 -109.21,194.17 -123.13,58.15 -82.15,10.84 -93.54,209.48 -2.79,48.6 -0.5,100.55 -4.37,148.13 -9,110.54 10.63,92.03 10.63,137.8 0,220.81 -1.49,397.09 -14.36,622.87 -6.48,113.66 -0.91,105.34 -48.3,172.48 -12.01,17.02 -39.05,42.36 -54.93,57.15 -30.32,28.25 -74.06,26.35 -112.62,26.35 -46.56,0 -91.71,-60.49 -100.33,-94.81 -7.38,-29.33 -3.54,-57.61 -11.15,-89.41 -21.52,-89.92 -3.7,-158.68 -6.75,-228.82 -0.99,-22.64 -8.33,-51.75 -11.11,-77.55 -16.43,-152.81 -4.3,-508.48 -2.83,-674.19 1.18,-133.31 -2.21,-149.4 -93.2,-161.29 -75.79,-9.9 -80.35,-20.63 -102.81,-88.26 -23.51,-70.83 -14.69,-96.46 -18.89,-171.12 -3.67,-65.48 -19.85,-98.14 -19.85,-179.21zm-1506.82 50.46l0 0zm3436.31 1056.91c29.99,34.03 -8.49,13.38 44.5,61.79 16.15,14.76 38.31,36.49 58.05,48.36 25.45,15.31 52.11,23.67 84.43,9.43 54.3,-23.91 107.74,-185.93 61.08,-233.39 -113.54,-115.48 -164.7,-57.46 -245.64,-174.76 -52.07,-75.47 -109.07,-233.8 -95.98,-321.06 6.2,-41.32 -17.5,-37.03 -19.53,-82.86 -1.42,-32.12 0.1,-68.33 0.1,-100.92 0,-159.54 11.36,-154.68 26.28,-291.54 11.13,-102.1 36.3,-105.09 57.25,-155.84 9.86,-23.87 15.02,-58.36 28.86,-77.33l74.3 -82.66c10.67,-11.57 15.62,-14.4 25.42,-25.07 60.24,-65.64 194.67,-125.62 316.29,-83.01 31.6,11.08 37.7,25.51 74.07,32.81 36.73,7.37 46.3,14.82 59.15,47.53 24.2,61.63 68.84,-3.56 76.85,130.4 31.44,15.23 33.46,15.39 37.31,55.99 3.11,32.74 13.19,43.65 14.53,78.46 1.49,38.83 -9.89,64.08 -9.92,84.23 -0.06,46.19 33.85,79.45 -24.3,230.99 -20.27,52.82 -38.78,79.94 -67.14,116.73 -161.64,19.05 -104.34,-116.6 -248.6,-63.72 -20.27,7.43 -6.64,-3.04 -19.69,15.18 -29.08,40.6 -39.34,151.19 14.09,177.54 27.84,13.73 23.23,22.61 38.12,28.38 17.52,6.78 41.58,3.78 56.54,12.37 19.07,10.95 15.87,19.23 29.91,31.56 31.78,27.91 49.5,11.43 69.55,65.23 19.15,51.37 32.54,14.25 50.48,78.45 4.52,16.15 9.11,38.62 14.49,52.78 10.13,26.64 18.85,17.16 27.03,40.76 6.96,20.08 6.09,28.98 15.27,51.49 15.71,38.52 33.21,118.51 22.88,159.19 -8.5,33.5 6.43,73.32 5.88,113.36 -0.59,43.35 -16.3,78.99 -12.47,116.15 2.18,21.08 9.65,29.36 11.38,52.29 1.25,16.49 0.97,44.18 -0.58,60.66 -1.75,18.51 -8.6,33.39 -10.49,52.76 -8.45,86.2 -0.8,59.55 -34.26,163.11 -23.35,72.26 -48.68,131.85 -100.83,163.19 -41.03,24.65 -27.34,42.54 -50.98,83.65 -14.78,25.68 -38.22,55.47 -56.02,72.83 -36.83,35.94 -104.15,79.97 -175.98,88.79 -169.65,20.83 -227.88,-95.63 -307.43,-221.48 -18.76,-29.68 -27.51,-194 -26.2,-235.05 0.96,-29.92 23.98,-69.2 23,-103.12 -4.95,-169.97 6.41,-102.67 14.33,-176.22 2.39,-22.2 -3.52,-42.76 3.21,-63.21 7.17,-21.79 19.69,-23.15 29.42,-37.91 9.32,-14.11 9.63,-30.3 14.79,-45.25l27.2 -2.04zm-5026.43 75.57c0,-50.78 -10.23,-72.35 -11.6,-111.85 -1.25,-36 3.36,-80.75 4.94,-117.7 3.12,-73.25 5.13,-146.96 15.53,-218.37 10.4,-71.36 48.4,-367.28 60.75,-409.92 54.47,-188.06 93.55,-340.39 202.36,-504.17 23.71,-35.7 23.81,-34.45 61.61,-56.29 30.58,-17.66 47.4,-26.86 89.65,-26.86 79.5,0 92.29,14.01 127.75,55.99 25.88,30.64 52.02,66.25 64.63,114.43 19.47,74.33 -33.77,362.04 -90.04,451.99 -46.2,73.83 -45.84,26.45 -123.81,55.1 -46.98,17.26 -60.13,58.57 -79.7,106 -31.95,77.47 -37.6,107.29 -36.12,185.11 2.01,105.76 -42.91,42.06 -7.88,122.67 13.79,31.73 5.44,97.97 6.37,135.45l19.21 119.77c9.77,33.51 18.28,69.75 38.02,96.54 19.43,-4.91 -10.38,-5.77 54.98,-24.51 -5.92,-44.18 -28.71,-6.7 -35.07,-68.43 -14.35,-139.43 -28.76,-179.74 -28.76,-331.03 0,-149.76 97.08,-208.07 247.54,-179.82 158.78,29.81 159.19,113.13 161.66,274.95 3.4,223.34 -4.84,327.9 -17.41,532.73 -2.12,34.58 1.9,71.99 -1.11,106.03 -8.04,91.17 -107.92,415.83 -201.53,452.78 -146.48,57.83 -230.01,-35.68 -289.66,-110.04 -44.23,-55.15 -99.85,-135.2 -128.75,-201.73 -15.46,-35.56 -7.99,-55.44 -24.42,-82.69 -19.78,-32.8 -79.14,-320.17 -79.14,-366.13zm-2213.46 -959.58c17.15,-20.6 14.49,-81.48 20.87,-113.07 38.25,-189.36 -37.49,-407.02 231.59,-441.78 45.06,-5.82 79.71,-12.6 108.17,15.77 64.82,64.62 86.01,71.7 66.82,188.01 -10.04,60.87 10.71,297.97 16.16,367.94 6.5,83.52 19.28,160.5 22.5,247.52 12.19,329.73 3.98,726.63 -3.03,1059.61 -3.04,144.81 19.04,141.26 -43.18,217.84 -31.36,38.6 -53.6,23.64 -106.01,18.83 -66.33,-6.08 -56.83,1.07 -86.61,-49.04 -24.53,-41.27 -24.16,-52.12 -23.35,-109.13 0.51,-35.58 -26.23,-215.45 -21.27,-237.67 8.2,-36.76 8.09,-14.49 -0.47,-50.9 -10.24,-43.53 7.69,-40.05 -11.69,-123.08 -12.93,-55.36 24.2,-45.56 -10.34,-174.46 -68.34,41 9.62,76.39 -113.35,160.47 -1.09,44.66 -1.53,75.82 -47.36,49.64l-4.37 -48.39 -75.99 -16.54c14.75,54.18 12.32,61.55 13.94,121.35 2.09,77.73 14.25,312.32 8.39,357.07 -17.59,134.24 -249.54,175.7 -310.49,78.95 -40.19,-63.79 -14.17,-245.38 -22.98,-346.56 -3.95,-45.31 -13.78,-62.13 -12.17,-111.85 4.59,-140.83 16.24,-343.13 -3.31,-478.63 -25.15,-174.36 17.29,-402.65 -19.57,-579.91 -12.88,-61.94 -12.02,-280.57 5.91,-343.65 9.29,-32.69 33.76,-49.02 53.77,-69.42 57.83,-58.96 114.36,-52.82 182.83,-20.29 36.88,17.52 60.91,3.84 81.77,41.56 15.92,28.78 34.16,49.44 32.45,93.45 -4.01,103.02 12.38,49.04 25.49,95.88 10.85,38.78 -9.7,26.83 12.82,109.03 3.76,13.71 7.62,39.09 10.78,53.31 5.71,25.74 2.65,29.3 21.28,38.14z"/>
  <path class="fil9 str1" d="M3846.29 8242.13l13.05 22.73 52.04 -0.29c14,-32.05 33.06,-67.08 -5.33,-90.99 -18.03,14.03 -16.77,12.58 -27.07,35.69 -10.74,24.09 -16.05,18.7 -32.69,32.86z"/>
  <polygon class="fil9 str1" points="1331.06,6537.8 1331.06,6532.19 1324.52,6536.87 "/>
 </g>
</svg>
