<?xml version="1.0" encoding="UTF-8"?>
<!DOCTYPE svg PUBLIC "-//W3C//DTD SVG 1.1//EN" "http://www.w3.org/Graphics/SVG/1.1/DTD/svg11.dtd">
<!-- Creator: CorelDRAW 2017 -->
<svg xmlns="http://www.w3.org/2000/svg" xml:space="preserve" width="35mm" height="50mm" version="1.1" style="shape-rendering:geometricPrecision; text-rendering:geometricPrecision; image-rendering:optimizeQuality; fill-rule:evenodd; clip-rule:evenodd"
viewBox="0 0 3500 5000"
 xmlns:xlink="http://www.w3.org/1999/xlink">
 <defs>
  <style type="text/css">
   <![CDATA[
    .fil0 {fill:none}
    .fil3 {fill:#030303}
    .fil6 {fill:#231D1F}
    .fil1 {fill:#6A4339}
    .fil4 {fill:#89654F}
    .fil2 {fill:#D5B9AE}
    .fil5 {fill:#F17A59}
   ]]>
  </style>
 </defs>
 <g id="Capa_x0020_1">
  <metadata id="CorelCorpID_0Corel-Layer"/>
  <rect class="fil0" width="3500" height="5000"/>
  <path class="fil1" d="M2239.5 656.08l249.65 110.55c-15.72,-89.79 -37.66,-199.99 -98.77,-247.21 -96.63,-74.69 -145.74,37.1 -150.88,136.66z"/>
  <path class="fil1" d="M709.61 831.59c61.97,-22.76 27.09,-11.03 76.88,-56.71 25.43,-23.33 55.35,-41.24 84.04,-57.16 -86.49,-182.5 -303.15,-172.27 -160.92,113.87z"/>
  <path class="fil2" d="M1183.95 3037.45c-399.04,101.12 -263.44,975.36 274.19,785.12 470.14,-166.35 116.34,-884.07 -274.19,-785.12z"/>
  <path class="fil3" d="M2898.58 3885.12c10.19,-51.53 40.29,-83.18 55.4,-160.25 13.48,-68.76 15.5,-123.21 18.49,-192.79 247.4,22.97 251.05,431.74 -73.89,353.04zm-1925.3 -1196.16c63.98,8.26 118.31,37.35 192.65,52.1 213.16,42.29 442.36,58.89 666.33,41.89 453.17,-34.39 472.18,-103.66 768.05,-202.11 12.75,13.21 12.22,12.35 25.68,30.07 0.96,1.26 20.46,29.95 20.83,30.53 73.8,117.76 155.74,344.41 190.36,475.72 48.02,182.14 82.83,503.89 5.4,674.24 -85.25,187.58 -413.53,167.4 -437.56,-48.22 -12.49,-112.13 77.37,-425.49 -98.95,-623.36l-60.73 42.09c85.06,208.56 105.47,225.86 74.44,486.09 -29.14,244.41 107.82,292.01 227.4,360.78l-55.93 26.86c-0.7,126.24 0.13,244.1 -10.14,370.46 -12.32,151.7 -7.2,197.73 -139.78,235.36 -143.61,40.76 -525.61,79.55 -663.79,25.76 -1.84,-86.54 40.61,-84.64 55.07,-132.56 16.43,-54.43 -63.58,-407.82 -73.12,-480.27l-291.86 -48.48 -15.69 64.15c50.32,53.44 159.8,29.61 213.86,72.32 35.34,31.72 82.24,317.93 78.88,350.18 -4.65,44.72 -0.09,23.78 -17.44,51.44 -68.53,109.22 -550.34,56.22 -639.4,18.68 5.24,-80.23 38.78,-94.91 88,-134.6 -3,-88.92 -49.73,-419.61 -72.92,-501.77 -20.09,-71.19 -70.85,-99.03 -111.86,-165.64 -243.55,-395.53 -59.26,-736.41 82.22,-1071.71zm-255.51 912.71c-87.65,25 -188.94,61.7 -274.18,5.26 -54.2,-35.88 -110.04,-144.31 -77.09,-239.29 32.11,-92.53 272.81,-279.28 360.65,-319.58 -29.24,265.26 -38.73,276.53 -9.38,553.61zm1407.46 -3027.76c17.24,-277.09 242.18,-466.03 450.75,54.75 103.79,259.12 13.63,183.37 171.2,349.09 250.59,263.57 296.51,883.57 127.45,1202.05 -350.35,660.01 -1748.33,662.31 -2255.61,193.49 -295.43,-273.02 -337.92,-781.05 -163.4,-1179.56 73.43,-167.66 168.62,-249.97 194.95,-313.36 -39.73,-66.59 -98.45,-132.78 -114.22,-232.61 -16.55,-104.75 23.51,-200.8 90.53,-227.74 153.52,-61.71 365.79,140.16 427.2,191.82 186.44,-57.77 297.9,-98.58 520.66,-107.02 307.66,-11.65 407.04,59.46 550.49,69.09zm-73.1 -107.92c-302.01,-42.49 -528.31,-87.24 -853.19,6.34 -161.53,46.53 -106.13,54.34 -222.8,-34.87 -124.8,-95.42 -327.04,-182.08 -456.18,-42.35 -143.54,155.32 -59.06,326.5 19.56,485.26 -70.49,143.72 -138.41,154.98 -222.11,435.59 -54.79,183.64 -70.85,408.01 -32.57,611.47 75.26,399.92 301.41,571.55 604.42,724.42 -137.45,401.61 -349.36,341.87 -536.11,570.72 -91.56,112.19 -121.29,270.66 -11.23,404.08 110.37,133.78 230.94,110.1 402.92,58.2l174.44 275.66c24.57,84.15 53.26,321.84 62.65,418.75 -105.63,134.41 -145.46,261.06 86.15,297.28 156.04,24.4 347.99,4.68 506.84,-0.72 83.93,96.95 71.29,108.05 341.79,101.9 133.05,-3.02 281.81,-13.83 406.09,-41.24 147.62,-32.55 204.72,-55.21 231.82,-208.19 71.5,-403.63 -51.39,-387.57 77.44,-459.73l196.19 -108.79c98.96,-6.33 200.68,87.88 326.86,-34.6 70.74,-68.67 105.54,-192.63 61.5,-308.47 -54.16,-142.47 -99.68,-125.52 -238.73,-181.33 -113.72,-746.05 -195.19,-621.8 -294.71,-916.03 476.02,-307.71 445.79,-1071.87 240.54,-1441.2 -59.25,-106.62 -176.86,-217.26 -202.7,-286.98 -61.02,-164.67 -156.37,-578.06 -413.59,-570.14 -147.67,4.55 -233,116.09 -255.29,244.97z"/>
  <path class="fil4" d="M709.61 831.59c-142.23,-286.14 74.43,-296.37 160.92,-113.87 -28.69,15.92 -58.61,33.83 -84.04,57.16 -49.79,45.68 -14.91,33.95 -76.88,56.71zm1529.89 -175.51c5.14,-99.56 54.25,-211.35 150.88,-136.66 61.11,47.22 83.05,157.42 98.77,247.21l-249.65 -110.55zm-114.27 -82.17c-143.45,-9.63 -242.83,-80.74 -550.49,-69.09 -222.76,8.44 -334.22,49.25 -520.66,107.02 -61.41,-51.66 -273.68,-253.53 -427.2,-191.82 -67.02,26.94 -107.08,122.99 -90.53,227.74 15.77,99.83 74.49,166.02 114.22,232.61 -26.33,63.39 -121.52,145.7 -194.95,313.36 -174.52,398.51 -132.03,906.54 163.4,1179.56 507.28,468.82 1905.26,466.52 2255.61,-193.49 169.06,-318.48 123.14,-938.48 -127.45,-1202.05 -157.57,-165.72 -67.41,-89.97 -171.2,-349.09 -208.57,-520.78 -433.51,-331.84 -450.75,-54.75z"/>
  <path class="fil4" d="M1183.95 3037.45c390.53,-98.95 744.33,618.77 274.19,785.12 -537.63,190.24 -673.23,-684 -274.19,-785.12zm-210.67 -348.49c-141.48,335.3 -325.77,676.18 -82.22,1071.71 41.01,66.61 91.77,94.45 111.86,165.64 23.19,82.16 69.92,412.85 72.92,501.77 -49.22,39.69 -82.76,54.37 -88,134.6 89.06,37.54 570.87,90.54 639.4,-18.68 17.35,-27.66 12.79,-6.72 17.44,-51.44 3.36,-32.25 -43.54,-318.46 -78.88,-350.18 -54.06,-42.71 -163.54,-18.88 -213.86,-72.32l15.69 -64.15 291.86 48.48c9.54,72.45 89.55,425.84 73.12,480.27 -14.46,47.92 -56.91,46.02 -55.07,132.56 138.18,53.79 520.18,15 663.79,-25.76 132.58,-37.63 127.46,-83.66 139.78,-235.36 10.27,-126.36 9.44,-244.22 10.14,-370.46l55.93 -26.86c-119.58,-68.77 -256.54,-116.37 -227.4,-360.78 31.03,-260.23 10.62,-277.53 -74.44,-486.09l60.73 -42.09c176.32,197.87 86.46,511.23 98.95,623.36 24.03,215.62 352.31,235.8 437.56,48.22 77.43,-170.35 42.62,-492.1 -5.4,-674.24 -34.62,-131.31 -116.56,-357.96 -190.36,-475.72 -0.37,-0.58 -19.87,-29.27 -20.83,-30.53 -13.46,-17.72 -12.93,-16.86 -25.68,-30.07 -295.87,98.45 -314.88,167.72 -768.05,202.11 -223.97,17 -453.17,0.4 -666.33,-41.89 -74.34,-14.75 -128.67,-43.84 -192.65,-52.1z"/>
  <path class="fil4" d="M717.77 3601.67c-29.35,-277.08 -19.86,-288.35 9.38,-553.61 -87.84,40.3 -328.54,227.05 -360.65,319.58 -32.95,94.98 22.89,203.41 77.09,239.29 85.24,56.44 186.53,19.74 274.18,-5.26z"/>
  <path class="fil4" d="M2898.58 3885.12c324.94,78.7 321.29,-330.07 73.89,-353.04 -2.99,69.58 -5.01,124.03 -18.49,192.79 -15.11,77.07 -45.21,108.72 -55.4,160.25z"/>
  <path class="fil5" d="M1981.68 1764.94c-245.3,24.36 -465.2,260.26 -333.7,421.05 107.5,131.45 446.11,52.95 557.61,-148.62 95.02,-171.77 -47.23,-289.98 -223.91,-272.43z"/>
  <path class="fil5" d="M519.64 1832.27c-131.32,33.9 -2.91,308.54 128.96,275.05 62.64,-15.92 67.86,-107.03 27.25,-177.12 -23.8,-41.05 -82.08,-117.05 -156.21,-97.93z"/>
  <path class="fil2" d="M979.08 1630.93c806.27,-209.28 -471.74,122.43 0,0zm-48.37 -10.68c-52.58,52.86 -72.12,44.37 -100,117.84 -92.8,178.19 29.57,345.37 175.73,385.96 153.16,42.53 361.65,2.01 455.99,-92.55 272.82,-273.47 -178.9,-565.9 -531.72,-411.25z"/>
  <path class="fil3" d="M1562.3 1655.41c35.1,144.35 288.57,107.77 259.15,-62.86 -28.46,-165.05 -304.9,-125.26 -259.15,62.86z"/>
  <path class="fil3" d="M830.71 1738.09c27.88,-73.47 47.42,-64.98 100,-117.84 17.31,-142.95 -145.96,-171.17 -215.97,-91.49 -78.8,89.7 -15.82,209.51 115.97,209.33z"/>
  <path class="fil6" d="M1169.38 1888.83c17.41,-9.21 4.92,-3.37 26.05,-9.18 200.88,-55.3 118.86,-209.57 -28.99,-218.99 -74.75,-4.75 -156.24,26.98 -174.43,86.27 -27.29,88.99 58.62,106.51 110.52,135.33l7.97 110.21c-77.2,-17.19 -72.81,-36.55 -100.73,-51.08 -46.15,-24.01 -65.01,34.33 -41.13,60.55 41.25,45.31 138.19,74.78 222.61,71.35 213.37,-8.66 230.99,-148.78 151.49,-131.85 -20.51,4.37 -70.73,65.36 -164.98,56.53l-8.38 -109.14z"/>
 </g>
</svg>
