<?xml version="1.0" encoding="UTF-8"?>
<!DOCTYPE svg PUBLIC "-//W3C//DTD SVG 1.1//EN" "http://www.w3.org/Graphics/SVG/1.1/DTD/svg11.dtd">
<!-- Creator: CorelDRAW 2017 -->
<svg xmlns="http://www.w3.org/2000/svg" xml:space="preserve" width="75mm" height="75mm" version="1.1" style="shape-rendering:geometricPrecision; text-rendering:geometricPrecision; image-rendering:optimizeQuality; fill-rule:evenodd; clip-rule:evenodd"
viewBox="0 0 7500 7500"
 xmlns:xlink="http://www.w3.org/1999/xlink">
 <defs>
  <style type="text/css">
   <![CDATA[
    .str0 {stroke:#815AA4;stroke-width:22.85;stroke-linecap:round;stroke-linejoin:round;stroke-miterlimit:22.9256}
    .fil0 {fill:none}
    .fil1 {fill:#F06277}
    .fil4 {fill:#815AA4}
    .fil2 {fill:#A53692;fill-rule:nonzero}
    .fil3 {fill:#6E4D8B;fill-rule:nonzero}
   ]]>
  </style>
 </defs>
 <g id="Capa_x0020_1">
  <metadata id="CorelCorpID_0Corel-Layer"/>
  <rect class="fil0" width="7500" height="7500"/>
  <path class="fil1" d="M4718.59 3319.73c103.67,-127.63 183.73,-257.24 216.16,-375.58 96.82,-353.17 -40.35,-669.88 -302.78,-782.37 -415.84,-178.28 -606.1,231.24 -777.77,241.5 -198.72,11.88 -369.18,-420.44 -798.12,-241.96 -275.05,114.45 -399.12,422.16 -317.26,763.71 22.6,94.3 72.92,193.09 141.04,291.76 -43.51,77.65 -80.62,161.22 -110.38,249.58l-134.21 -182.05c-51.5,-62.81 -5.28,-19.01 -60.77,-63.52 -11.7,-151.7 -295.42,-722.91 171.21,-1142.51 481.32,-432.81 933.3,-29.74 1081.85,48.6 154.14,-53.28 239.19,-176.98 436.8,-219.25 757.11,-161.96 1377.87,799.54 547.09,1677.39 -23.35,-93.18 -54.66,-182 -92.86,-265.3zm-2476.18 1455.33c97.78,160.46 406.46,134.04 685.82,60.1 46.17,70.65 97.94,135.43 154.54,193.22 -44.19,12.1 -91.49,24.09 -142.46,35.89 -427.85,99.04 -529.91,7.56 -752.61,4.24 -270.91,-358.9 -249.5,-33.57 -251.44,-957.34 -2.64,-1245.41 81.72,-1123.29 -224.5,-1184.28 -280.13,-55.82 -301.38,-330.8 -219.05,-476.18 110.55,-195.2 466.09,-270.93 495.18,-485.17 38.75,-285.51 -98.32,-770.42 184.09,-832.06 62.83,-13.7 429.37,-10.37 497.11,1.12 181.05,30.73 159.71,164.49 229.14,258.59 530.28,-263.24 738.35,-794.13 1355.82,-355.72 132.15,93.83 256.38,207.43 404.41,264.23 135.34,207.98 1460.4,948.6 1550.8,1190.66 43.35,116.13 14,279.11 -66.1,358.4 -99.24,98.29 -284.24,51.48 -354.95,123.44 -110.64,105.29 -28.25,1337.84 -37.74,1588.57 -25.18,665.89 -698.92,633.21 -1256.96,433.55 53.65,-58.96 102.59,-124.4 145.99,-195.33 80.26,23.82 156.79,42.32 220.34,54.04 588.02,108.38 657.12,-53.5 655.73,-433.73 -1.39,-375.66 1.13,-751.32 -0.2,-1126.88 -2.49,-716.81 176.58,-481.43 473.15,-623.01 7.84,-154.55 -143.91,-224.49 -335.4,-356.37 -2046.58,-1409.51 -1559.48,-1439.29 -2503.84,-797.11 -485.93,330.43 -486.14,208.82 -525.06,-148 -520.98,-115.81 -393.71,112.56 -396.36,461.01 -1.15,149.18 -8,298.26 -90.25,393.95 -107.92,125.55 -516.25,272.67 -422.14,453.2 146.72,78.87 360.9,-3.48 429.7,238.2 55.85,196.22 -19.43,1636.11 43.78,1792.47l41.08 56.37c1.26,-3.78 7.94,7.04 12.38,9.93z"/>
  <g id="_3131240522448">
   <path class="fil2" d="M948.67 6045.75c23.96,17.29 50.07,30.96 78.33,41.14l-36.06 69.84c-14.69,-4.4 -29.16,-10.51 -43.28,-18.31 -3.06,-1.58 -24.76,-15.93 -65.1,-43.28 -31.76,13.9 -67.03,20.91 -105.68,20.91 -74.6,0 -133.14,-22.04 -175.41,-66.01 -42.27,-44.08 -63.41,-105.9 -63.41,-185.58 0,-79.46 21.25,-141.28 63.63,-185.36 42.39,-44.19 99.91,-66.23 172.48,-66.23 71.99,0 129.07,22.04 171.23,66.23 42.15,44.08 63.29,105.79 63.29,185.24 0,41.93 -5.88,78.89 -17.63,110.77 -8.82,24.3 -22.95,47.92 -42.39,70.64zm-78.66 -55.16c12.55,-14.92 21.93,-32.78 28.26,-53.8 6.21,-21.02 9.38,-45.1 9.38,-72.33 0,-56.18 -12.32,-98.11 -37.08,-125.91 -24.75,-27.69 -57.07,-41.59 -96.97,-41.59 -40.01,0 -72.45,13.9 -97.2,41.81 -24.86,27.92 -37.3,69.85 -37.3,125.91 0,56.85 12.44,99.46 37.3,127.61 24.87,28.25 56.29,42.38 94.26,42.38 14.24,0 27.58,-2.37 40.13,-7.01 -19.78,-13 -40.01,-23.06 -60.47,-30.29l27.46 -56.96c32.1,11.19 62.84,27.8 92.23,50.18zm215.87 -368.91l98.33 0 0 263.12c0,41.82 1.25,68.83 3.62,81.15 4.18,19.89 14.02,35.94 29.61,47.92 15.71,12.1 37.08,18.09 64.2,18.09 27.47,0 48.26,-5.65 62.28,-17.07 14.01,-11.42 22.38,-25.32 25.2,-41.93 2.83,-16.62 4.3,-44.08 4.3,-82.51l0 -268.77 98.33 0 0 255.32c0,58.32 -2.6,99.58 -7.92,123.65 -5.31,24.07 -15.03,44.42 -29.27,61.03 -14.13,16.62 -33.11,29.73 -56.85,39.56 -23.85,9.83 -54.82,14.81 -93.13,14.81 -46.23,0 -81.26,-5.32 -105.11,-16.05 -23.85,-10.74 -42.73,-24.64 -56.63,-41.82 -13.9,-17.18 -22.94,-35.04 -27.35,-53.91 -6.44,-27.81 -9.61,-68.95 -9.61,-123.31l0 -259.28zm489.73 485.55l0 -485.55 359.42 0 0 82.06 -261.09 0 0 107.82 242.78 0 0 82.06 -242.78 0 0 131.56 270.58 0 0 82.05 -368.91 0zm133.6 -529.63l46.11 -99.01 103.76 0 -91.55 99.01 -58.32 0zm318.72 44.08l178.81 0c40.35,0 71.09,3.05 92.22,9.27 28.37,8.36 52.79,23.28 73.02,44.76 20.34,21.36 35.71,47.58 46.34,78.66 10.51,30.97 15.82,69.28 15.82,114.72 0,40.01 -4.97,74.37 -14.92,103.3 -12.09,35.38 -29.39,63.97 -51.88,85.79 -16.95,16.61 -39.89,29.5 -68.71,38.76 -21.59,6.9 -50.41,10.29 -86.58,10.29l-184.12 0 0 -485.55zm98.33 82.06l0 321.44 72.9 0c27.24,0 46.91,-1.59 59,-4.64 15.94,-3.95 29.05,-10.74 39.45,-20.23 10.51,-9.49 18.99,-25.09 25.54,-46.79 6.67,-21.7 9.95,-51.43 9.95,-88.95 0,-37.52 -3.28,-66.23 -9.95,-86.35 -6.55,-20.12 -15.82,-35.72 -27.69,-47.02 -11.87,-11.19 -26.9,-18.87 -45.21,-22.83 -13.56,-3.05 -40.35,-4.63 -80.13,-4.63l-43.86 0zm828.8 403.49l-105.9 0 -41.93 -110.54 -194.74 0 -40.35 110.54 -103.98 0 188.52 -485.55 103.87 0 194.51 485.55zm-179.7 -192.59l-67.48 -179.71 -65.55 179.71 133.03 0zm290.91 192.59l0 -403.49 -143.76 0 0 -82.06 385.18 0 0 82.06 -143.08 0 0 403.49 -98.34 0zm305.05 0l0 -485.55 359.42 0 0 82.06 -261.09 0 0 107.82 242.78 0 0 82.06 -242.78 0 0 131.56 270.58 0 0 82.05 -368.91 0zm2081.78 -179.03l94.94 29.16c-14.58,53.46 -38.88,93.13 -72.79,119.13 -33.9,25.88 -76.85,38.88 -128.95,38.88 -64.54,0 -117.55,-22.04 -159.14,-66.12 -41.48,-44.08 -62.28,-104.32 -62.28,-180.84 0,-80.81 20.91,-143.65 62.62,-188.41 41.7,-44.76 96.63,-67.13 164.67,-67.13 59.45,0 107.71,17.63 144.79,52.78 22.15,20.79 38.65,50.63 49.73,89.63l-96.98 23.05c-5.76,-25.09 -17.74,-44.98 -35.94,-59.56 -18.31,-14.58 -40.46,-21.81 -66.46,-21.81 -36.05,0 -65.32,12.88 -87.7,38.76 -22.5,25.77 -33.68,67.59 -33.68,125.46 0,61.26 11.07,105 33.11,130.99 22.15,26.11 50.86,39.11 86.24,39.11 26.11,0 48.6,-8.25 67.36,-24.87 18.76,-16.61 32.32,-42.61 40.46,-78.21zm616.54 179.03l-105.9 0 -41.93 -110.54 -194.74 0 -40.35 110.54 -103.98 0 188.52 -485.55 103.87 0 194.51 485.55zm-179.7 -192.59l-67.48 -179.71 -65.55 179.71 133.03 0zm206.26 35.26l95.62 -9.49c5.77,31.98 17.3,55.38 34.81,70.41 17.52,15.03 41.14,22.49 70.87,22.49 31.42,0 55.15,-6.67 71.09,-20 15.94,-13.34 23.96,-28.94 23.96,-46.79 0,-11.53 -3.39,-21.25 -10.06,-29.39 -6.67,-8.02 -18.42,-15.03 -35.15,-20.91 -11.41,-4.07 -37.41,-11.08 -78.1,-21.25 -52.33,-13.11 -89.06,-29.16 -110.19,-48.26 -29.73,-26.79 -44.54,-59.45 -44.54,-97.99 0,-24.75 7.01,-48.03 20.91,-69.62 14.02,-21.59 34.14,-37.98 60.47,-49.28 26.34,-11.3 57.98,-16.95 95.28,-16.95 60.69,0 106.47,13.45 137.1,40.46 30.74,27.01 46.79,62.95 48.37,108.05l-98.33 3.39c-4.18,-25.09 -13.11,-43.06 -26.79,-54.03 -13.67,-10.96 -34.24,-16.5 -61.59,-16.5 -28.26,0 -50.41,5.88 -66.35,17.63 -10.28,7.58 -15.48,17.64 -15.48,30.29 0,11.53 4.86,21.37 14.58,29.5 12.32,10.51 42.27,21.37 89.85,32.67 47.58,11.19 82.73,22.94 105.45,34.92 22.83,12.1 40.69,28.48 53.58,49.39 12.88,20.91 19.32,46.68 19.32,77.31 0,27.8 -7.68,53.91 -23.17,78.21 -15.48,24.3 -37.3,42.39 -65.55,54.14 -28.26,11.87 -63.52,17.75 -105.68,17.75 -61.37,0 -108.5,-14.13 -141.39,-42.5 -32.89,-28.26 -52.44,-69.51 -58.89,-123.65zm915.49 157.33l-105.9 0 -41.93 -110.54 -194.74 0 -40.35 110.54 -103.98 0 188.52 -485.55 103.87 0 194.51 485.55zm-179.7 -192.59l-67.48 -179.71 -65.55 179.71 133.03 0zm-2815.87 192.59l0 -485.55 350.6 0 0 56.97 -286.17 0 0 149.19 267.86 0 0 56.96 -267.86 0 0 165.47 297.7 0 0 56.96 -362.13 0zm450.29 0l0 -485.55 66 0 254.76 381.12 0 -381.12 61.71 0 0 485.55 -66.01 0 -254.75 -381.11 0 381.11 -61.71 0z"/>
   <path class="fil3" d="M274.23 6604.63l0 -138.81 -126.3 -188.85 52.17 0 64.75 99.16c12.05,18.38 23.26,36.76 33.48,55.14 9.99,-17.16 22.12,-36.38 36.23,-57.74l63.46 -96.56 50.56 0 -130.88 188.85 0 138.81 -43.47 0zm329.95 0l0 -327.66 43.47 0 0 289.22 161.08 0 0 38.44 -204.55 0zm257.25 0l0 -327.66 236.59 0 0 38.44 -193.11 0 0 100.68 180.76 0 0 38.44 -180.76 0 0 111.66 200.89 0 0 38.44 -244.37 0zm305.23 0l0 -327.66 236.59 0 0 38.44 -193.11 0 0 100.68 180.76 0 0 38.44 -180.76 0 0 111.66 200.89 0 0 38.44 -244.37 0zm646.08 -327.66l43.47 0 0 189.23c0,32.95 -3.73,59.11 -11.13,78.48 -7.48,19.3 -20.9,35.09 -40.27,47.21 -19.45,12.13 -44.85,18.23 -76.42,18.23 -30.59,0 -55.68,-5.26 -75.13,-15.86 -19.53,-10.6 -33.41,-25.86 -41.72,-45.92 -8.31,-20.06 -12.51,-47.44 -12.51,-82.14l0 -189.23 43.48 0 0 189.15c0,28.45 2.67,49.5 7.93,62.93 5.26,13.5 14.26,23.95 27.15,31.19 12.81,7.32 28.53,10.98 47.06,10.98 31.73,0 54.38,-7.24 67.88,-21.66 13.5,-14.49 20.21,-42.25 20.21,-83.44l0 -189.15zm115.4 327.66l0 -327.66 44.54 0 171.91 257.19 0 -257.19 41.65 0 0 327.66 -44.54 0 -171.92 -257.18 0 257.18 -41.64 0zm2242.18 -114.94l43.48 10.98c-9.08,35.62 -25.4,62.7 -48.97,81.38 -23.57,18.69 -52.4,28.07 -86.49,28.07 -35.24,0 -63.91,-7.17 -86.03,-21.58 -22.12,-14.34 -38.9,-35.16 -50.42,-62.39 -11.51,-27.31 -17.31,-56.52 -17.31,-87.79 0,-34.09 6.48,-63.84 19.53,-89.23 13.04,-25.4 31.57,-44.7 55.6,-57.89 24.02,-13.2 50.49,-19.76 79.32,-19.76 32.79,0 60.33,8.32 82.6,25.02 22.35,16.7 37.9,40.12 46.68,70.32l-42.56 10.07c-7.55,-23.8 -18.61,-41.19 -33.03,-52.02 -14.41,-10.9 -32.57,-16.32 -54.45,-16.32 -25.1,0 -46.15,6.03 -63,18.08 -16.86,12.05 -28.76,28.29 -35.55,48.58 -6.86,20.36 -10.29,41.34 -10.29,62.92 0,27.84 4.04,52.17 12.12,72.92 8.09,20.82 20.67,36.3 37.76,46.6 17.08,10.29 35.54,15.4 55.45,15.4 24.25,0 44.69,-7.01 61.47,-20.97 16.78,-14.03 28.14,-34.78 34.09,-62.39zm83.83 -44.54c0,-54.3 14.64,-96.86 43.85,-127.6 29.21,-30.74 66.89,-46.07 113.11,-46.07 30.28,0 57.51,7.25 81.84,21.66 24.25,14.42 42.78,34.55 55.52,60.41 12.74,25.78 19.15,55.07 19.15,87.79 0,33.17 -6.72,62.92 -20.14,89.08 -13.42,26.24 -32.41,46.07 -56.97,59.49 -24.64,13.5 -51.18,20.21 -79.63,20.21 -30.89,0 -58.42,-7.47 -82.75,-22.35 -24.26,-14.87 -42.71,-35.16 -55.22,-60.94 -12.51,-25.7 -18.76,-52.93 -18.76,-81.68zm44.84 0.76c0,39.43 10.6,70.48 31.81,93.13 21.2,22.65 47.82,34.01 79.85,34.01 32.65,0 59.42,-11.44 80.54,-34.32 21.05,-22.88 31.58,-55.37 31.58,-97.47 0,-26.62 -4.5,-49.88 -13.5,-69.71 -9,-19.83 -22.2,-35.24 -39.51,-46.14 -17.39,-10.91 -36.84,-16.4 -58.42,-16.4 -30.66,0 -57.05,10.52 -79.17,31.57 -22.12,21.05 -33.18,56.14 -33.18,105.33zm323.92 158.72l0 -327.66 44.54 0 171.91 257.19 0 -257.19 41.65 0 0 327.66 -44.54 0 -171.92 -257.18 0 257.18 -41.64 0zm533.12 0l0 -289.22 -107.99 0 0 -38.44 259.47 0 0 38.44 -108 0 0 289.22 -43.48 0zm410.87 -327.66l43.47 0 0 189.23c0,32.95 -3.73,59.11 -11.13,78.48 -7.48,19.3 -20.9,35.09 -40.27,47.21 -19.45,12.13 -44.85,18.23 -76.42,18.23 -30.59,0 -55.68,-5.26 -75.13,-15.86 -19.53,-10.6 -33.41,-25.86 -41.72,-45.92 -8.31,-20.06 -12.51,-47.44 -12.51,-82.14l0 -189.23 43.48 0 0 189.15c0,28.45 2.67,49.5 7.93,62.93 5.26,13.5 14.26,23.95 27.15,31.19 12.81,7.32 28.53,10.98 47.06,10.98 31.73,0 54.38,-7.24 67.88,-21.66 13.5,-14.49 20.21,-42.25 20.21,-83.44l0 -189.15zm-121.73 -20.13l29.29 -62.7 53.09 0 -48.97 62.7 -33.41 0zm364.73 347.79l0 -327.66 123.71 0c21.73,0 38.36,1.07 49.88,3.13 16.09,2.67 29.59,7.78 40.5,15.26 10.9,7.55 19.67,18.07 26.31,31.57 6.64,13.5 9.91,28.37 9.91,44.62 0,27.76 -8.84,51.33 -26.61,70.55 -17.7,19.29 -49.81,28.9 -96.18,28.9l-84.05 0 0 133.63 -43.47 0zm43.47 -172.07l84.66 0c28.07,0 47.9,-5.18 59.72,-15.63 11.75,-10.45 17.62,-25.09 17.62,-44.08 0,-13.66 -3.43,-25.4 -10.37,-35.16 -6.95,-9.77 -16.1,-16.25 -27.39,-19.38 -7.32,-1.9 -20.82,-2.9 -40.42,-2.9l-83.82 0 0 117.15zm262.67 172.07l0 -327.66 236.59 0 0 38.44 -193.11 0 0 100.68 180.76 0 0 38.44 -180.76 0 0 111.66 200.89 0 0 38.44 -244.37 0zm552.27 -35.16c20.21,13.88 38.82,23.95 55.91,30.35l-12.89 30.21c-23.57,-8.47 -47.06,-21.82 -70.48,-40.12 -24.25,13.5 -51.02,20.21 -80.31,20.21 -29.59,0 -56.44,-7.17 -80.54,-21.43 -24.1,-14.26 -42.64,-34.4 -55.68,-60.25 -13.04,-25.94 -19.52,-55.07 -19.52,-87.56 0,-32.26 6.56,-61.63 19.68,-88.17 13.04,-26.47 31.72,-46.6 55.9,-60.48 24.18,-13.81 51.25,-20.75 81.15,-20.75 30.21,0 57.43,7.17 81.69,21.51 24.25,14.42 42.79,34.47 55.52,60.33 12.74,25.78 19.07,54.91 19.07,87.33 0,27 -4.12,51.18 -12.36,72.68 -8.16,21.51 -20.59,40.2 -37.14,56.14zm-95.18 -55.37c24.94,7.01 45.53,17.46 61.7,31.27 25.4,-23.19 38.13,-58.04 38.13,-104.57 0,-26.46 -4.5,-49.57 -13.5,-69.33 -9,-19.83 -22.12,-35.16 -39.43,-46.06 -17.31,-10.91 -36.76,-16.4 -58.27,-16.4 -32.26,0 -59.03,11.06 -80.23,33.1 -21.28,22.12 -31.89,55.07 -31.89,98.92 0,42.48 10.53,75.13 31.5,97.93 21.05,22.73 47.9,34.09 80.62,34.09 15.41,0 29.98,-2.89 43.7,-8.69 -13.57,-8.77 -27.83,-15.03 -42.78,-18.76l10.45 -31.5zm417.8 -237.13l43.47 0 0 189.23c0,32.95 -3.73,59.11 -11.13,78.48 -7.48,19.3 -20.9,35.09 -40.27,47.21 -19.45,12.13 -44.85,18.23 -76.42,18.23 -30.59,0 -55.68,-5.26 -75.13,-15.86 -19.53,-10.6 -33.41,-25.86 -41.72,-45.92 -8.31,-20.06 -12.51,-47.44 -12.51,-82.14l0 -189.23 43.48 0 0 189.15c0,28.45 2.67,49.5 7.93,62.93 5.26,13.5 14.26,23.95 27.15,31.19 12.81,7.32 28.53,10.98 47.06,10.98 31.73,0 54.38,-7.24 67.88,-21.66 13.5,-14.49 20.21,-42.25 20.21,-83.44l0 -189.15zm116.77 327.66l0 -327.66 236.59 0 0 38.44 -193.11 0 0 100.68 180.76 0 0 38.44 -180.76 0 0 111.66 200.89 0 0 38.44 -244.37 0zm-4721.48 0l0 -324.91 66.35 0 0 269.54 164.29 0 0 55.37 -230.64 0zm275.41 0l0 -327.66 66.35 0 0 327.66 -66.35 0zm129.43 -327.66l131.03 0c26.01,0 45.3,1.07 58.04,3.21 12.81,2.21 24.18,6.71 34.24,13.5 10.07,6.86 18.46,15.94 25.17,27.3 6.72,11.37 10.07,24.18 10.07,38.29 0,15.25 -4.12,29.36 -12.35,42.1 -8.24,12.81 -19.45,22.35 -33.56,28.75 19.9,5.88 35.16,15.79 45.91,29.83 10.68,14.03 16.02,30.5 16.02,49.5 0,14.94 -3.43,29.44 -10.37,43.55 -6.95,14.11 -16.4,25.39 -28.45,33.86 -11.98,8.39 -26.77,13.58 -44.39,15.56 -10.99,1.14 -37.6,1.9 -79.78,2.21l-111.58 0 0 -327.66zm66.35 54.46l0 75.51 43.32 0c25.71,0 41.72,-0.38 47.98,-1.15 11.28,-1.29 20.21,-5.18 26.69,-11.67 6.48,-6.48 9.69,-14.94 9.69,-25.47 0,-10.14 -2.82,-18.3 -8.39,-24.63 -5.57,-6.33 -13.88,-10.15 -24.87,-11.45 -6.56,-0.76 -25.39,-1.14 -56.44,-1.14l-37.98 0zm0 129.96l0 87.87 61.32 0c23.8,0 38.98,-0.69 45.38,-1.99 9.84,-1.83 17.85,-6.17 24.03,-13.11 6.18,-7.02 9.3,-16.25 9.3,-27.92 0,-9.91 -2.36,-18.23 -7.17,-25.09 -4.73,-6.87 -11.67,-11.9 -20.67,-15.03 -9,-3.12 -28.6,-4.73 -58.72,-4.73l-53.47 0zm264.13 143.24l0 -327.66 139.34 0c35.01,0 60.48,2.98 76.35,8.85 15.94,5.87 28.6,16.32 38.13,31.35 9.54,15.1 14.34,32.26 14.34,51.63 0,24.64 -7.17,44.93 -21.58,60.94 -14.42,16.02 -35.93,26.09 -64.6,30.28 14.26,8.32 26,17.47 35.23,27.46 9.31,9.99 21.82,27.76 37.53,53.24l39.96 63.91 -79.09 0 -47.44 -71.54c-17.01,-25.4 -28.68,-41.42 -35.01,-48.05 -6.25,-6.56 -12.89,-11.14 -19.9,-13.58 -7.1,-2.44 -18.23,-3.66 -33.49,-3.66l-13.42 0 0 136.83 -66.35 0zm66.35 -189l48.97 0c31.72,0 51.48,-1.37 59.41,-4.04 7.86,-2.67 14.11,-7.32 18.53,-13.88 4.5,-6.56 6.72,-14.8 6.72,-24.64 0,-11.05 -2.98,-19.9 -8.85,-26.77 -5.87,-6.78 -14.19,-11.06 -24.87,-12.81 -5.41,-0.76 -21.5,-1.14 -48.27,-1.14l-51.64 0 0 83.28zm250.4 27.16c0,-33.41 5.03,-61.48 15.02,-84.21 7.4,-16.7 17.62,-31.73 30.51,-45 12.89,-13.27 27,-23.11 42.33,-29.59 20.44,-8.62 44.01,-12.96 70.7,-12.96 48.36,0 86.95,15.02 116.01,44.99 28.98,30.05 43.47,71.77 43.47,125.24 0,53.01 -14.41,94.5 -43.17,124.4 -28.75,29.97 -67.27,44.92 -115.39,44.92 -48.74,0 -87.56,-14.87 -116.31,-44.7 -28.76,-29.74 -43.17,-70.77 -43.17,-123.09zm68.18 -2.22c0,37.15 8.62,65.29 25.78,84.51 17.16,19.14 38.98,28.75 65.37,28.75 26.46,0 48.12,-9.53 65.13,-28.52 16.93,-19.07 25.4,-47.59 25.4,-85.65 0,-37.6 -8.24,-65.67 -24.79,-84.13 -16.47,-18.53 -38.36,-27.76 -65.74,-27.76 -27.31,0 -49.35,9.38 -66.05,28.07 -16.71,18.76 -25.1,46.98 -25.1,84.73z"/>
  </g>
  <g>
   <path class="fil0 str0" d="M3761.95 3022.34c7.14,0.6 3.45,-4.26 1.87,-10.12 0.2,0.17 5.19,3.68 5.28,3.73 0.37,0.23 1.6,1.35 1.89,0.83 0.28,-0.52 1.29,0.43 1.92,0.67 3.92,3.15 -1.09,0.94 5.08,2.92 2.17,0.7 4.82,0.42 7.3,0.49l-0.61 -9.29 -10.16 -0.36 -0.7 -7.01 13.96 -2.17c-0.31,7.87 0.58,11.09 -0.42,17.68 -0.79,5.18 -2.24,5.72 -2.12,15.15 -16.83,-1.36 -6.45,0.91 -15.67,-6.58 -0.61,-0.5 -2.41,-1.78 -3,-2.24l-3.1 -2.38c-0.33,-0.27 -1.04,-0.85 -1.52,-1.32z"/>
   <path id="1" class="fil4" d="M3761.95 3022.34c7.14,0.6 3.45,-4.26 1.87,-10.12 0.2,0.17 5.19,3.68 5.28,3.73 0.37,0.23 1.6,1.35 1.89,0.83 0.28,-0.52 1.29,0.43 1.92,0.67 3.92,3.15 -1.09,0.94 5.08,2.92 2.17,0.7 4.82,0.42 7.3,0.49l-0.61 -9.29 -10.16 -0.36 -0.7 -7.01 13.96 -2.17c-0.31,7.87 0.58,11.09 -0.42,17.68 -0.79,5.18 -2.24,5.72 -2.12,15.15 -16.83,-1.36 -6.45,0.91 -15.67,-6.58 -0.61,-0.5 -2.41,-1.78 -3,-2.24l-3.1 -2.38c-0.33,-0.27 -1.04,-0.85 -1.52,-1.32z"/>
  </g>
  <g>
   <path class="fil0 str0" d="M2792.06 3796.49c-6.1,1.41 -7.65,1.88 -11.98,3.84 -4.06,-2.73 -0.8,0.7 -5.14,-3.51 -6.77,-6.55 -1.66,-1.43 -5.55,-7.08 5.41,-1.56 4.03,-3.45 4.93,-9.54l13.09 11.64c0.44,0.43 1.08,1.05 1.49,1.45 0.43,0.42 1.18,1.21 1.54,1.56 0.38,0.38 1.09,1.09 1.62,1.64z"/>
   <path id="1" class="fil4" d="M2792.06 3796.49c-6.1,1.41 -7.65,1.88 -11.98,3.84 -4.06,-2.73 -0.8,0.7 -5.14,-3.51 -6.77,-6.55 -1.66,-1.43 -5.55,-7.08 5.41,-1.56 4.03,-3.45 4.93,-9.54l13.09 11.64c0.44,0.43 1.08,1.05 1.49,1.45 0.43,0.42 1.18,1.21 1.54,1.56 0.38,0.38 1.09,1.09 1.62,1.64z"/>
  </g>
  <g>
   <path class="fil0 str0" d="M3793.88 4139.1c-6.55,3.51 -7.37,-3.81 -3.7,8.3 0.87,2.87 4.74,4.68 7.9,7.26 -4.36,-1.35 -6.77,-1.41 -9.84,-2.23 -8.83,-2.34 -2.35,0.58 -6.87,-3.05l1.84 -4.5 -10.02 -2.43 -3.36 -7.06 24.05 3.71z"/>
   <path id="1" class="fil4" d="M3793.88 4139.1c-6.55,3.51 -7.37,-3.81 -3.7,8.3 0.87,2.87 4.74,4.68 7.9,7.26 -4.36,-1.35 -6.77,-1.41 -9.84,-2.23 -8.83,-2.34 -2.35,0.58 -6.87,-3.05l1.84 -4.5 -10.02 -2.43 -3.36 -7.06 24.05 3.71z"/>
  </g>
  <g>
   <path class="fil0 str0" d="M2836.61 3841.74l-11.94 3.96c-6.33,1.36 -5.04,2.57 -3.7,-3.79l3.81 -12c0.57,0.48 1.43,0.45 1.7,1.44l10.13 10.39z"/>
   <path id="1" class="fil4" d="M2836.61 3841.74l-11.94 3.96c-6.33,1.36 -5.04,2.57 -3.7,-3.79l3.81 -12c0.57,0.48 1.43,0.45 1.7,1.44l10.13 10.39z"/>
  </g>
  <g>
   <path class="fil0 str0" d="M4192.48 4371.32c-9.54,-5.6 -30.49,-2.39 -40.72,2.84 -10.59,5.4 -15.84,14.81 -16.34,29.69 -2.43,72.57 77.18,95.98 79.65,34.42 0.54,-13.53 -0.97,-27.45 -4.24,-40.16 -2.44,-9.51 -2.96,-10.53 -7.66,-15.96 -2.76,-3.17 -7.92,-9.21 -10.69,-10.83zm-124.45 -770.32c4.95,-2.1 14.08,-9.33 16.66,-15 4.23,-9.31 -0.02,-13.01 -4.69,-20.52 -4.3,-6.94 -7.05,-12.2 -11.13,-20.53 -4.16,-8.5 -5.54,-13.68 -12.29,-19 0.78,18.65 2.21,62.76 11.45,75.05zm-324.69 -615c5.65,11.5 12.33,17.88 20.48,26.22 1.58,5.86 5.27,10.72 -1.87,10.12 -7.89,-5.58 -11.75,-10.68 -19.99,-14.81 -1.76,-5.56 -1.57,-5.21 -6.38,-10.89 -4.97,-5.87 -3.85,-5.8 -11.41,-9.26 -4.67,13.58 -15.92,36.64 -32.03,39.04 -7.94,-11.86 -19.8,-48.81 -30.53,-56.77 -12.93,7.54 -26.11,42.47 -52.56,41.9 -9.62,-9.51 -10.47,-22.15 -18.69,-32.66 -24.54,18.38 -39.81,52.61 -52.21,89.29 -38.63,114.24 -5.88,235.28 73.21,313.99 40.63,40.43 113.07,83.71 195.29,87.46 71.91,3.27 117.25,-3.41 179.76,-31.9 15.67,-7.15 31.7,-17.83 44.72,-23.72 -3.05,-10.92 -20.52,-34.88 -27.76,-49.1 -41.83,-82.11 -38.59,-170.49 -62.45,-241.32 -6.9,-20.46 -5.05,-39.22 -13.43,-62.96 -10.8,-30.58 -39.43,-78.96 -77.93,-71.35 -3.11,22.1 22.45,38.86 25.88,60.47 -19.41,-0.33 -46.2,-18.94 -59.97,-27.68 -7.64,-8.77 -17.64,-15.67 -25.77,-25.55l-1.92 5.51 -13.96 2.17 1.21 -28.76 5.34 -7.96c13.71,9.82 31.53,51.16 74.18,63.84 -5.96,-15.03 -20.13,-27.78 -19.4,-47.97 18.2,-14.66 40.53,-4.02 57.33,6.67 54.33,34.59 55.57,119.4 67.07,162.66 22.78,85.76 29.75,164.91 72.06,234.15 41.16,67.34 96.02,116 176.42,130 48.01,8.37 91.06,1.17 126.75,-21.01 32.59,-20.26 55.94,-56.76 61.65,-93.89 -41,6.52 -58.21,16.2 -98.28,-4.5 -94.06,-48.58 -50.73,-142.17 -51.23,-266.21 -0.56,-139.15 -29.42,-227.97 -144.49,-303.71 -74.97,-49.34 -168.35,-79.68 -259.09,-37.31 -20.75,9.7 -50.98,-1.69 -98.97,2.24 -31.79,2.59 -60.9,12.83 -86.05,26.59 -22.58,12.36 -46.38,31.72 -61.23,49.55 -26.52,31.86 -72.26,120.79 -65.63,153.43 8.83,-15.97 16.65,-31.07 27.68,-43.5 8.87,-10.01 23.13,-27.94 42.78,-25.93l8.61 39.88c25.75,-7.35 27.26,-34.88 48.44,-41.81 22,6.66 23.32,37.3 36.95,51.03 9.74,-9.47 17.77,-25.99 23.31,-39.46 16.96,6.51 15.36,20.56 24.11,23.78zm601.62 1082.62c1.56,8.15 17.95,73.45 25.04,81.47 -0.41,13.57 15.69,65.31 20.03,82.44 18.39,72.54 37.8,160.27 50.22,234.79 0.63,3.8 1.1,7.7 2.08,11.39 1.74,6.5 0.51,3.28 3.08,8.15l0 22.24c-17.54,18.51 -20.44,23.12 -50.59,34.36 -64.91,24.2 -140.13,37.99 -210.84,37.9 -4.88,32.71 4.21,115.26 6.53,152.61 3.06,49.27 6.82,98.38 10.08,147.95 4.88,74.31 24.7,229.83 10.78,294.18l-2.76 -3.9c-6.45,-10.06 -3.52,-10.03 -11.7,-11.44 -5.76,-0.98 -21.63,-0.63 -28.6,-0.92 -18.97,-0.8 -38.02,-1.6 -56.98,-2.56l-330.94 -14.99c-70.51,-3.55 -148.6,-3.57 -217.61,-11.43 -34.68,-3.96 -69.49,-7.41 -104.34,-11.31 -24.6,-2.76 -84.03,-2.76 -83.44,-28.06 8.99,-0.88 77.78,11.6 96.28,13.55 159.62,16.84 358.46,23.92 520.28,30.54 34.8,1.42 70.53,2.87 105.41,4.8 31.67,1.75 75.18,6.08 105.85,2.96 0.83,-26.15 -28.63,-387.61 -31.46,-430.47l-8.1 -223.99c-4.03,-13.06 -35.86,-26.25 -43.71,-72.64 -10.74,-63.44 34.84,-59.54 45.49,-65.32 2.49,-15.65 3.56,-43.76 -1.64,-55.91l-459.45 -27.64c-75.84,-5.72 -150.71,-11.56 -226.15,-20.65l-159.62 -21.94c-16.6,-2.37 -38.83,-2.25 -40.97,-18.48 20.62,-4.82 182.34,21.77 218.25,25.8 193.72,21.73 381.65,27.37 573.39,41.11 23.96,1.71 100.49,-0.42 114.54,7.4 -0.21,21.48 -8.29,52.22 1.24,74.94 29.63,-10.91 164.02,-413.64 182.28,-465.87 11.84,-33.85 14.3,-30.33 -6.22,-55.84 -39.29,-48.83 -69.47,-84.36 -113.48,-129.32 -27.42,-28.01 -50.82,-54.26 -79.23,-81.83 -13.27,-12.88 -72.04,-71.64 -83.06,-76.52 8.7,24.48 49.97,83.23 66.65,108.78 59.72,91.48 112.32,189.11 150.31,293.3 3.74,10.27 8.58,21.73 12.23,32.58 2.74,8.14 5.37,16.93 3.06,25.64 -3.17,11.99 -1.41,4.12 -3.71,7.61 -0.46,-0.52 -1.01,-1.25 -1.27,-1.63l-6.31 -12.87c-26.12,-72.87 -51.09,-136.92 -87.01,-205.99 -18.41,-35.41 -37.45,-69.33 -57.19,-101.23l-61.18 -94.08c-3.27,1.47 -29.9,21.45 -32.56,24.08 -2.91,6.54 10.79,277.31 11.72,311.66 1.39,51.78 9.36,285.37 3.81,318.57 -17.65,-0.06 -13.22,-19.11 -13.95,-36.2 -0.64,-15.03 -1.16,-29.82 -1.73,-44.86 -1.19,-31.21 -1.81,-63.45 -2.71,-95.12 -2.5,-88.85 -7.99,-525.62 -28.72,-553.98 -17.67,7.51 -37.67,24.73 -53.42,35.92 -24.12,17.14 -144.87,101.43 -158.45,99.34 -4.74,-6.59 -3.92,-4.76 -5.28,-15.32 42.25,-19.72 177.15,-113.7 219.63,-140.63 0.09,-15.71 -12.35,-43.28 -20.95,-53.43 -26.04,5.15 -64.03,38.01 -160.99,40.55 -114.7,3.01 -212.42,-40.35 -278.78,-123.6 -76.03,-95.38 -91.98,-188.88 -59.12,-308.03 13.08,-47.41 -6.98,-87.45 37.19,-160.9 47.52,-79.02 140.44,-139.06 274.32,-109.67 6.96,-4.95 5.65,-7.35 15.46,-12.29 20.65,-10.4 48.9,-11.52 61.94,-18.1l42.91 0c14.66,7.6 40.69,9.82 57.23,14.99 53.57,16.73 95.15,39.04 135.42,73.21 142.7,121.04 120.6,246.2 110.74,432.07 -2.97,55.94 0.95,76.25 36.67,101.69 44.63,31.78 105.96,10.06 116.46,16.14 7.08,35.47 -16.87,74.16 -38.48,95.98 -20.51,20.69 -50.71,39.57 -90.26,43.4 -94.94,9.19 -120.33,-22.27 -168.28,-33.03 -22.7,-5.08 -30.46,-7 -46.38,-19.47 3.08,-9.99 15.2,-6.38 4.78,-25.18 -11.95,7.2 2.1,5.85 -12.16,13.91 0,-0.03 8.14,-48.14 -21.76,-34 -3.18,12.21 20.49,56.36 28.19,67.32 7.72,10.99 38.05,37.55 49.71,47.98l145.25 145.11c15.25,16.96 30.47,34.13 46.53,51.16 20.66,21.92 78.97,95.53 90.63,101.21 -1.14,38.57 -108.18,340.14 -130.76,392.44 -8.26,19.16 -50.72,111.97 -52.45,123.15 20.9,20.94 -0.06,-5.62 12.94,30.59 5.07,14.12 7.27,27.6 7.39,43.3 0.31,39.79 -13.23,50.07 -49.37,53.97l0.66 77c60,-5.54 129.61,-17.96 183.57,-35.06 79.14,-25.1 68.69,-26.83 45.9,-135.01 -14.36,-68.2 -42.41,-191.28 -62.9,-259.32 -2.6,-8.62 -26.96,-81.3 -5.13,-71.2z"/>
   <path id="1" class="fil4" d="M4192.48 4371.32c-9.54,-5.6 -30.49,-2.39 -40.72,2.84 -10.59,5.4 -15.84,14.81 -16.34,29.69 -2.43,72.57 77.18,95.98 79.65,34.42 0.54,-13.53 -0.97,-27.45 -4.24,-40.16 -2.44,-9.51 -2.96,-10.53 -7.66,-15.96 -2.76,-3.17 -7.92,-9.21 -10.69,-10.83zm-124.45 -770.32c4.95,-2.1 14.08,-9.33 16.66,-15 4.23,-9.31 -0.02,-13.01 -4.69,-20.52 -4.3,-6.94 -7.05,-12.2 -11.13,-20.53 -4.16,-8.5 -5.54,-13.68 -12.29,-19 0.78,18.65 2.21,62.76 11.45,75.05zm-324.69 -615c5.65,11.5 12.33,17.88 20.48,26.22 1.58,5.86 5.27,10.72 -1.87,10.12 -7.89,-5.58 -11.75,-10.68 -19.99,-14.81 -1.76,-5.56 -1.57,-5.21 -6.38,-10.89 -4.97,-5.87 -3.85,-5.8 -11.41,-9.26 -4.67,13.58 -15.92,36.64 -32.03,39.04 -7.94,-11.86 -19.8,-48.81 -30.53,-56.77 -12.93,7.54 -26.11,42.47 -52.56,41.9 -9.62,-9.51 -10.47,-22.15 -18.69,-32.66 -24.54,18.38 -39.81,52.61 -52.21,89.29 -38.63,114.24 -5.88,235.28 73.21,313.99 40.63,40.43 113.07,83.71 195.29,87.46 71.91,3.27 117.25,-3.41 179.76,-31.9 15.67,-7.15 31.7,-17.83 44.72,-23.72 -3.05,-10.92 -20.52,-34.88 -27.76,-49.1 -41.83,-82.11 -38.59,-170.49 -62.45,-241.32 -6.9,-20.46 -5.05,-39.22 -13.43,-62.96 -10.8,-30.58 -39.43,-78.96 -77.93,-71.35 -3.11,22.1 22.45,38.86 25.88,60.47 -19.41,-0.33 -46.2,-18.94 -59.97,-27.68 -7.64,-8.77 -17.64,-15.67 -25.77,-25.55l-1.92 5.51 -13.96 2.17 1.21 -28.76 5.34 -7.96c13.71,9.82 31.53,51.16 74.18,63.84 -5.96,-15.03 -20.13,-27.78 -19.4,-47.97 18.2,-14.66 40.53,-4.02 57.33,6.67 54.33,34.59 55.57,119.4 67.07,162.66 22.78,85.76 29.75,164.91 72.06,234.15 41.16,67.34 96.02,116 176.42,130 48.01,8.37 91.06,1.17 126.75,-21.01 32.59,-20.26 55.94,-56.76 61.65,-93.89 -41,6.52 -58.21,16.2 -98.28,-4.5 -94.06,-48.58 -50.73,-142.17 -51.23,-266.21 -0.56,-139.15 -29.42,-227.97 -144.49,-303.71 -74.97,-49.34 -168.35,-79.68 -259.09,-37.31 -20.75,9.7 -50.98,-1.69 -98.97,2.24 -31.79,2.59 -60.9,12.83 -86.05,26.59 -22.58,12.36 -46.38,31.72 -61.23,49.55 -26.52,31.86 -72.26,120.79 -65.63,153.43 8.83,-15.97 16.65,-31.07 27.68,-43.5 8.87,-10.01 23.13,-27.94 42.78,-25.93l8.61 39.88c25.75,-7.35 27.26,-34.88 48.44,-41.81 22,6.66 23.32,37.3 36.95,51.03 9.74,-9.47 17.77,-25.99 23.31,-39.46 16.96,6.51 15.36,20.56 24.11,23.78zm601.62 1082.62c1.56,8.15 17.95,73.45 25.04,81.47 -0.41,13.57 15.69,65.31 20.03,82.44 18.39,72.54 37.8,160.27 50.22,234.79 0.63,3.8 1.1,7.7 2.08,11.39 1.74,6.5 0.51,3.28 3.08,8.15l0 22.24c-17.54,18.51 -20.44,23.12 -50.59,34.36 -64.91,24.2 -140.13,37.99 -210.84,37.9 -4.88,32.71 4.21,115.26 6.53,152.61 3.06,49.27 6.82,98.38 10.08,147.95 4.88,74.31 24.7,229.83 10.78,294.18l-2.76 -3.9c-6.45,-10.06 -3.52,-10.03 -11.7,-11.44 -5.76,-0.98 -21.63,-0.63 -28.6,-0.92 -18.97,-0.8 -38.02,-1.6 -56.98,-2.56l-330.94 -14.99c-70.51,-3.55 -148.6,-3.57 -217.61,-11.43 -34.68,-3.96 -69.49,-7.41 -104.34,-11.31 -24.6,-2.76 -84.03,-2.76 -83.44,-28.06 8.99,-0.88 77.78,11.6 96.28,13.55 159.62,16.84 358.46,23.92 520.28,30.54 34.8,1.42 70.53,2.87 105.41,4.8 31.67,1.75 75.18,6.08 105.85,2.96 0.83,-26.15 -28.63,-387.61 -31.46,-430.47l-8.1 -223.99c-4.03,-13.06 -35.86,-26.25 -43.71,-72.64 -10.74,-63.44 34.84,-59.54 45.49,-65.32 2.49,-15.65 3.56,-43.76 -1.64,-55.91l-459.45 -27.64c-75.84,-5.72 -150.71,-11.56 -226.15,-20.65l-159.62 -21.94c-16.6,-2.37 -38.83,-2.25 -40.97,-18.48 20.62,-4.82 182.34,21.77 218.25,25.8 193.72,21.73 381.65,27.37 573.39,41.11 23.96,1.71 100.49,-0.42 114.54,7.4 -0.21,21.48 -8.29,52.22 1.24,74.94 29.63,-10.91 164.02,-413.64 182.28,-465.87 11.84,-33.85 14.3,-30.33 -6.22,-55.84 -39.29,-48.83 -69.47,-84.36 -113.48,-129.32 -27.42,-28.01 -50.82,-54.26 -79.23,-81.83 -13.27,-12.88 -72.04,-71.64 -83.06,-76.52 8.7,24.48 49.97,83.23 66.65,108.78 59.72,91.48 112.32,189.11 150.31,293.3 3.74,10.27 8.58,21.73 12.23,32.58 2.74,8.14 5.37,16.93 3.06,25.64 -3.17,11.99 -1.41,4.12 -3.71,7.61 -0.46,-0.52 -1.01,-1.25 -1.27,-1.63l-6.31 -12.87c-26.12,-72.87 -51.09,-136.92 -87.01,-205.99 -18.41,-35.41 -37.45,-69.33 -57.19,-101.23l-61.18 -94.08c-3.27,1.47 -29.9,21.45 -32.56,24.08 -2.91,6.54 10.79,277.31 11.72,311.66 1.39,51.78 9.36,285.37 3.81,318.57 -17.65,-0.06 -13.22,-19.11 -13.95,-36.2 -0.64,-15.03 -1.16,-29.82 -1.73,-44.86 -1.19,-31.21 -1.81,-63.45 -2.71,-95.12 -2.5,-88.85 -7.99,-525.62 -28.72,-553.98 -17.67,7.51 -37.67,24.73 -53.42,35.92 -24.12,17.14 -144.87,101.43 -158.45,99.34 -4.74,-6.59 -3.92,-4.76 -5.28,-15.32 42.25,-19.72 177.15,-113.7 219.63,-140.63 0.09,-15.71 -12.35,-43.28 -20.95,-53.43 -26.04,5.15 -64.03,38.01 -160.99,40.55 -114.7,3.01 -212.42,-40.35 -278.78,-123.6 -76.03,-95.38 -91.98,-188.88 -59.12,-308.03 13.08,-47.41 -6.98,-87.45 37.19,-160.9 47.52,-79.02 140.44,-139.06 274.32,-109.67 6.96,-4.95 5.65,-7.35 15.46,-12.29 20.65,-10.4 48.9,-11.52 61.94,-18.1l42.91 0c14.66,7.6 40.69,9.82 57.23,14.99 53.57,16.73 95.15,39.04 135.42,73.21 142.7,121.04 120.6,246.2 110.74,432.07 -2.97,55.94 0.95,76.25 36.67,101.69 44.63,31.78 105.96,10.06 116.46,16.14 7.08,35.47 -16.87,74.16 -38.48,95.98 -20.51,20.69 -50.71,39.57 -90.26,43.4 -94.94,9.19 -120.33,-22.27 -168.28,-33.03 -22.7,-5.08 -30.46,-7 -46.38,-19.47 3.08,-9.99 15.2,-6.38 4.78,-25.18 -11.95,7.2 2.1,5.85 -12.16,13.91 0,-0.03 8.14,-48.14 -21.76,-34 -3.18,12.21 20.49,56.36 28.19,67.32 7.72,10.99 38.05,37.55 49.71,47.98l145.25 145.11c15.25,16.96 30.47,34.13 46.53,51.16 20.66,21.92 78.97,95.53 90.63,101.21 -1.14,38.57 -108.18,340.14 -130.76,392.44 -8.26,19.16 -50.72,111.97 -52.45,123.15 20.9,20.94 -0.06,-5.62 12.94,30.59 5.07,14.12 7.27,27.6 7.39,43.3 0.31,39.79 -13.23,50.07 -49.37,53.97l0.66 77c60,-5.54 129.61,-17.96 183.57,-35.06 79.14,-25.1 68.69,-26.83 45.9,-135.01 -14.36,-68.2 -42.41,-191.28 -62.9,-259.32 -2.6,-8.62 -26.96,-81.3 -5.13,-71.2z"/>
  </g>
  <g>
   <path class="fil0 str0" d="M3214.53 3996.32c6.73,-24.62 -38.34,-39.95 -61.21,-37.56 -0.33,16.41 32.3,47.21 61.21,37.56zm426.31 -421.09c5.58,13.14 39.91,41.23 33.97,57.15 -7.84,-2.05 -34.29,-35.91 -41.8,-44.78 -9.62,-11.35 -8.43,-14.22 -29.41,-13.3 -12.62,0.56 -26.34,2.58 -36.44,6.02 10.36,13.8 38.81,21.23 39.35,41.98 -11.92,-2.61 -33.25,-22.73 -48.25,-31.4 -16.04,-9.28 -38.87,7.43 -52.04,15.23 8.33,17.07 38.18,17.38 38.16,38.83 -10.02,-0.05 -42.18,-21.88 -51.66,-27.73 -29.27,10.92 -66.79,68.49 -78.59,106.14 -51.31,163.72 101.22,305.56 262.52,260.05 45.64,-12.88 94.16,-43.95 115.35,-69.52 64.39,-77.71 49.25,-195.21 -12.36,-272.33 -19.1,-23.91 -52.01,-47.26 -86.54,-50.39 -46.31,-4.19 -18.84,-0.25 -26.88,-12.77l-25.38 -3.18zm40.34 472.98c-0.51,2.99 -0.81,4.93 -2.07,6.69l-4.17 4.05c-0.4,0.62 -0.96,1.13 -1.3,1.84 -2.2,4.71 1.41,42.04 1.18,59.69 -19.78,0.03 -11.88,-69.07 -21.12,-85.9 -13.38,2.55 -34.32,18.65 -50.83,25.45 -45.32,18.67 -129.88,40.42 -177.98,51.61 -27.59,6.42 -38.05,-6.56 -54.91,-17.9 -15.73,-10.58 -29.94,-20.77 -45.17,-31.4 -29.84,-20.84 -61.76,-45.05 -90.72,-63.92 -8.74,10.25 -9.57,16.48 -28.98,15.36 -59.75,-3.43 -113.67,-116.89 6.87,-49.8 17.75,9.88 36.03,28.47 53.87,41.18 36.8,26.19 74.14,52.61 111.66,78.39 31.79,21.84 30.8,14.12 70.85,4.04 25.1,-6.31 50.67,-12.57 75.02,-19.75 41.59,-12.25 66.21,-20.41 103.25,-39.54 18.67,-9.65 26.27,-1.8 26.72,-20.69 -73.84,-2.63 -97.63,2.78 -156.45,-30.33 -35.93,-20.23 -70.93,-59.27 -90.04,-100.03 -22.58,-48.19 -28.08,-103.43 -9.47,-157.45 25.19,-73.07 54.38,-80.85 75.93,-113.29 -8.19,-11.86 -32.74,-18.05 -38.2,-28.3 13.99,3.54 39.21,17.91 48.15,19.33 9.48,1.52 35.6,-15.99 43.51,-22.71 -8.12,-12.59 -45.41,-30.68 -61.65,-41.17 11.46,0.36 49.91,18.3 60.59,23.97 14.71,7.81 14.35,11.4 33.08,6.88 12.04,-2.92 25.17,-6.07 39.17,-6.56 -3.94,-7.53 -18.58,-16.32 -26.58,-22.23 -11.3,-8.36 -22.41,-13.63 -29.65,-22.71 32.64,5.86 64.95,38.99 79.84,43.49 15.69,4.74 32.59,4.14 50.92,10.05 15.86,5.12 28.81,9.78 44.88,15.93 65.09,24.94 93.59,64.13 117.86,127.6 25.96,67.89 16.86,149.6 -19.34,198.69 -17.27,23.41 -39.35,42.07 -63.54,57.89 -29.45,19.27 -52.43,24.64 -85.46,38.46 1.91,27.97 10.39,29.94 14.28,43.09z"/>
   <path id="1" class="fil4" d="M3214.53 3996.32c6.73,-24.62 -38.34,-39.95 -61.21,-37.56 -0.33,16.41 32.3,47.21 61.21,37.56zm426.31 -421.09c5.58,13.14 39.91,41.23 33.97,57.15 -7.84,-2.05 -34.29,-35.91 -41.8,-44.78 -9.62,-11.35 -8.43,-14.22 -29.41,-13.3 -12.62,0.56 -26.34,2.58 -36.44,6.02 10.36,13.8 38.81,21.23 39.35,41.98 -11.92,-2.61 -33.25,-22.73 -48.25,-31.4 -16.04,-9.28 -38.87,7.43 -52.04,15.23 8.33,17.07 38.18,17.38 38.16,38.83 -10.02,-0.05 -42.18,-21.88 -51.66,-27.73 -29.27,10.92 -66.79,68.49 -78.59,106.14 -51.31,163.72 101.22,305.56 262.52,260.05 45.64,-12.88 94.16,-43.95 115.35,-69.52 64.39,-77.71 49.25,-195.21 -12.36,-272.33 -19.1,-23.91 -52.01,-47.26 -86.54,-50.39 -46.31,-4.19 -18.84,-0.25 -26.88,-12.77l-25.38 -3.18zm40.34 472.98c-0.51,2.99 -0.81,4.93 -2.07,6.69l-4.17 4.05c-0.4,0.62 -0.96,1.13 -1.3,1.84 -2.2,4.71 1.41,42.04 1.18,59.69 -19.78,0.03 -11.88,-69.07 -21.12,-85.9 -13.38,2.55 -34.32,18.65 -50.83,25.45 -45.32,18.67 -129.88,40.42 -177.98,51.61 -27.59,6.42 -38.05,-6.56 -54.91,-17.9 -15.73,-10.58 -29.94,-20.77 -45.17,-31.4 -29.84,-20.84 -61.76,-45.05 -90.72,-63.92 -8.74,10.25 -9.57,16.48 -28.98,15.36 -59.75,-3.43 -113.67,-116.89 6.87,-49.8 17.75,9.88 36.03,28.47 53.87,41.18 36.8,26.19 74.14,52.61 111.66,78.39 31.79,21.84 30.8,14.12 70.85,4.04 25.1,-6.31 50.67,-12.57 75.02,-19.75 41.59,-12.25 66.21,-20.41 103.25,-39.54 18.67,-9.65 26.27,-1.8 26.72,-20.69 -73.84,-2.63 -97.63,2.78 -156.45,-30.33 -35.93,-20.23 -70.93,-59.27 -90.04,-100.03 -22.58,-48.19 -28.08,-103.43 -9.47,-157.45 25.19,-73.07 54.38,-80.85 75.93,-113.29 -8.19,-11.86 -32.74,-18.05 -38.2,-28.3 13.99,3.54 39.21,17.91 48.15,19.33 9.48,1.52 35.6,-15.99 43.51,-22.71 -8.12,-12.59 -45.41,-30.68 -61.65,-41.17 11.46,0.36 49.91,18.3 60.59,23.97 14.71,7.81 14.35,11.4 33.08,6.88 12.04,-2.92 25.17,-6.07 39.17,-6.56 -3.94,-7.53 -18.58,-16.32 -26.58,-22.23 -11.3,-8.36 -22.41,-13.63 -29.65,-22.71 32.64,5.86 64.95,38.99 79.84,43.49 15.69,4.74 32.59,4.14 50.92,10.05 15.86,5.12 28.81,9.78 44.88,15.93 65.09,24.94 93.59,64.13 117.86,127.6 25.96,67.89 16.86,149.6 -19.34,198.69 -17.27,23.41 -39.35,42.07 -63.54,57.89 -29.45,19.27 -52.43,24.64 -85.46,38.46 1.91,27.97 10.39,29.94 14.28,43.09z"/>
  </g>
  <g>
   <path class="fil0 str0" d="M2637.25 3698.95c-11.78,-7.3 -28.35,-0.47 -32.24,9.39 -4.53,11.45 -1.71,29.17 1.76,40.09 14.69,46.28 65.47,59.89 76.5,35.69 9.59,-21.05 -21.34,-69.85 -46.02,-85.17zm137.07 81.25c-0.9,6.09 0.48,7.98 -4.93,9.54 -18.78,-9.2 -108.12,-115.24 -129.62,-125.96 2.2,28.33 5.43,25.29 19.22,40.21 17.18,18.57 40.26,51.08 38.06,79.58 -1.67,21.7 -15.07,19.64 -26.78,28.91 2.43,28.26 12.48,65.64 18.02,94.6 35.15,183.6 78.81,376.43 108.32,559.34 8.58,53.16 5.05,45.82 31.89,79.27 100.26,124.96 203.54,243.43 302.03,365.9 15.22,18.92 95.38,108.66 99.04,123.49 -17.95,-1.81 -23.76,-16.73 -33.79,-27.75 -59.92,-65.87 -131.09,-158.05 -191.15,-228.51 -51.82,-60.79 -114.06,-134.48 -163,-198.71 -77.87,-102.22 -44.76,-39.11 -69.2,-170.98 -11.98,-64.68 -113.46,-592.45 -119.39,-598.86 -2.65,-2.87 -15.51,-8.57 -20.09,-11.58 -25.18,-16.56 -25.16,-26.5 -40.15,-47.71l0 -50.35c35.69,-28.01 10.76,-8.29 35.08,-20.18l-2.04 -38.61c20.34,4.83 62.44,52.65 77.98,67.45 14.81,14.1 62.15,57.99 70.5,70.91z"/>
   <path id="1" class="fil4" d="M2637.25 3698.95c-11.78,-7.3 -28.35,-0.47 -32.24,9.39 -4.53,11.45 -1.71,29.17 1.76,40.09 14.69,46.28 65.47,59.89 76.5,35.69 9.59,-21.05 -21.34,-69.85 -46.02,-85.17zm137.07 81.25c-0.9,6.09 0.48,7.98 -4.93,9.54 -18.78,-9.2 -108.12,-115.24 -129.62,-125.96 2.2,28.33 5.43,25.29 19.22,40.21 17.18,18.57 40.26,51.08 38.06,79.58 -1.67,21.7 -15.07,19.64 -26.78,28.91 2.43,28.26 12.48,65.64 18.02,94.6 35.15,183.6 78.81,376.43 108.32,559.34 8.58,53.16 5.05,45.82 31.89,79.27 100.26,124.96 203.54,243.43 302.03,365.9 15.22,18.92 95.38,108.66 99.04,123.49 -17.95,-1.81 -23.76,-16.73 -33.79,-27.75 -59.92,-65.87 -131.09,-158.05 -191.15,-228.51 -51.82,-60.79 -114.06,-134.48 -163,-198.71 -77.87,-102.22 -44.76,-39.11 -69.2,-170.98 -11.98,-64.68 -113.46,-592.45 -119.39,-598.86 -2.65,-2.87 -15.51,-8.57 -20.09,-11.58 -25.18,-16.56 -25.16,-26.5 -40.15,-47.71l0 -50.35c35.69,-28.01 10.76,-8.29 35.08,-20.18l-2.04 -38.61c20.34,4.83 62.44,52.65 77.98,67.45 14.81,14.1 62.15,57.99 70.5,70.91z"/>
  </g>
  <g>
   <path class="fil0 str0" d="M2824.67 3845.7l11.94 -3.96 281.9 265.92c9.26,8.25 15.3,13.23 24.59,22.92 8.78,9.16 17.26,15.01 26.37,23.85 17.27,16.76 11.45,8.79 12.92,32.92 1.21,19.96 32.8,39.1 59.95,37.47 -13.29,-13.18 -34.77,-14.64 -42.75,-31.9 12.73,2.95 27.55,11 39.67,15.86 16.28,6.53 28.14,8.75 32.78,20.9 -12.45,17.83 -43.98,11.92 -61.84,2.8 -8.96,-4.59 -16.37,-9.32 -23.6,-15.99 -9.71,-8.96 -9.52,-16.79 -15.85,-21.87 -3.57,6.74 -0.61,15.83 0.75,23.96 32.52,195.54 66.4,572.9 76.46,776.9 1.4,28.48 -0.94,20.56 -4.05,23.75 -10.26,-20.45 -17.33,-175.78 -20.41,-213.92 -11.17,-138.18 -23.04,-290.34 -40.72,-426.56l-18.92 -154.61c-6.97,-68.91 16.46,-47.12 -19.21,-76.63 -8.13,-6.73 -13.84,-13.65 -21.87,-20.33 -14.26,-11.88 -29.61,-26.37 -43.04,-38.82l-255.07 -242.66z"/>
   <path id="1" class="fil4" d="M2824.67 3845.7l11.94 -3.96 281.9 265.92c9.26,8.25 15.3,13.23 24.59,22.92 8.78,9.16 17.26,15.01 26.37,23.85 17.27,16.76 11.45,8.79 12.92,32.92 1.21,19.96 32.8,39.1 59.95,37.47 -13.29,-13.18 -34.77,-14.64 -42.75,-31.9 12.73,2.95 27.55,11 39.67,15.86 16.28,6.53 28.14,8.75 32.78,20.9 -12.45,17.83 -43.98,11.92 -61.84,2.8 -8.96,-4.59 -16.37,-9.32 -23.6,-15.99 -9.71,-8.96 -9.52,-16.79 -15.85,-21.87 -3.57,6.74 -0.61,15.83 0.75,23.96 32.52,195.54 66.4,572.9 76.46,776.9 1.4,28.48 -0.94,20.56 -4.05,23.75 -10.26,-20.45 -17.33,-175.78 -20.41,-213.92 -11.17,-138.18 -23.04,-290.34 -40.72,-426.56l-18.92 -154.61c-6.97,-68.91 16.46,-47.12 -19.21,-76.63 -8.13,-6.73 -13.84,-13.65 -21.87,-20.33 -14.26,-11.88 -29.61,-26.37 -43.04,-38.82l-255.07 -242.66z"/>
  </g>
  <g>
   <path class="fil0 str0" d="M3769.83 4135.39l3.36 7.06 10.02 2.43 -1.84 4.5c-23.77,1.22 -68.17,-7.41 -97.25,-8.55 -34.75,-1.36 -69.51,-1.8 -104.32,-1.6 -135.07,0.75 -170.08,20.06 -279.95,37.73 -22.44,3.6 -22.4,5.54 -40.5,12.13 -45.58,16.56 -51.8,-37.69 -71.56,-79.4 -54.29,-114.61 -138.84,-235.08 -227.62,-305.69 -116.95,-93.02 -113.72,-88.35 -240.67,-128.79 -15.68,-4.99 -27.54,-14.6 -42.1,-8.36l-4.83 -9.09c91.31,11.82 135.37,25.96 202.3,67.9 129.58,81.18 250.94,224.65 316.95,364.05l30.37 72.68c5.27,9.88 9.13,10.7 13.51,20.73 18.38,-1.7 77.32,-23.81 117.56,-32.32 41.31,-8.74 86.07,-16.72 129.06,-21.27 89.95,-9.5 198.83,-5.21 287.51,5.86z"/>
   <path id="1" class="fil4" d="M3769.83 4135.39l3.36 7.06 10.02 2.43 -1.84 4.5c-23.77,1.22 -68.17,-7.41 -97.25,-8.55 -34.75,-1.36 -69.51,-1.8 -104.32,-1.6 -135.07,0.75 -170.08,20.06 -279.95,37.73 -22.44,3.6 -22.4,5.54 -40.5,12.13 -45.58,16.56 -51.8,-37.69 -71.56,-79.4 -54.29,-114.61 -138.84,-235.08 -227.62,-305.69 -116.95,-93.02 -113.72,-88.35 -240.67,-128.79 -15.68,-4.99 -27.54,-14.6 -42.1,-8.36l-4.83 -9.09c91.31,11.82 135.37,25.96 202.3,67.9 129.58,81.18 250.94,224.65 316.95,364.05l30.37 72.68c5.27,9.88 9.13,10.7 13.51,20.73 18.38,-1.7 77.32,-23.81 117.56,-32.32 41.31,-8.74 86.07,-16.72 129.06,-21.27 89.95,-9.5 198.83,-5.21 287.51,5.86z"/>
  </g>
  <g>
   <path class="fil0 str0" d="M3363.4 5079.95c-8.75,-4.28 -8.04,-9.03 -9.95,-21.66 -1.38,-9.05 -2.41,-17.3 -3.29,-26.01 -5.9,-58.16 -7.63,-95.19 -16,-158.36 -9.04,-68.28 -16.47,-140.49 -23.23,-209.12 -4.85,-49.17 -48.21,-404.58 -39.89,-419.48 9.4,5.68 10.42,37.7 11.91,48.62 2.4,17.58 4.54,35.1 6.48,52.2l33.86 314.54c6.9,69.49 14.75,139.41 23.33,208.6l18.73 185.4c0.99,8.38 2.94,19.39 -1.95,25.27z"/>
   <path id="1" class="fil4" d="M3363.4 5079.95c-8.75,-4.28 -8.04,-9.03 -9.95,-21.66 -1.38,-9.05 -2.41,-17.3 -3.29,-26.01 -5.9,-58.16 -7.63,-95.19 -16,-158.36 -9.04,-68.28 -16.47,-140.49 -23.23,-209.12 -4.85,-49.17 -48.21,-404.58 -39.89,-419.48 9.4,5.68 10.42,37.7 11.91,48.62 2.4,17.58 4.54,35.1 6.48,52.2l33.86 314.54c6.9,69.49 14.75,139.41 23.33,208.6l18.73 185.4c0.99,8.38 2.94,19.39 -1.95,25.27z"/>
  </g>
  <g>
   <path class="fil0 str0" d="M4076.94 4265.26c-20.85,0.61 -68.58,-18.73 -90.94,-24.95 -29.03,-8.08 -60.35,-14.48 -90.22,-19.96 -144.89,-26.56 -265.39,-37.07 -413.62,-35.83 -29.74,0.25 -201.99,12.72 -210.54,8.19 68.19,-32.54 341.67,-22.19 429.27,-12.94 107.3,11.33 237.67,28.87 337.57,66.25l36.83 17.59c0.32,-0.53 1.15,1.05 1.65,1.65z"/>
   <path id="1" class="fil4" d="M4076.94 4265.26c-20.85,0.61 -68.58,-18.73 -90.94,-24.95 -29.03,-8.08 -60.35,-14.48 -90.22,-19.96 -144.89,-26.56 -265.39,-37.07 -413.62,-35.83 -29.74,0.25 -201.99,12.72 -210.54,8.19 68.19,-32.54 341.67,-22.19 429.27,-12.94 107.3,11.33 237.67,28.87 337.57,66.25l36.83 17.59c0.32,-0.53 1.15,1.05 1.65,1.65z"/>
  </g>
  <g>
   <path class="fil0 str0" d="M3487.67 5415.28c32.06,58.75 163.89,35.66 121.45,-21.36 -16.99,-22.82 -45.86,-24.57 -54.96,-29.58 -11.11,-6.13 -2,-9.09 -18.57,-8.84 -32.01,0.47 -67.75,23.44 -47.92,59.78zm94.77 46.55c-9.76,0.8 -9.17,3.05 -18.59,3.15 -9.84,0.11 -9.3,-2.08 -18.89,-2.99 -51.68,5.19 -111.05,-77.35 -56.59,-111.8 21.37,-13.52 37.2,-4.67 58.89,-4.5 10.15,-32.41 19.41,-65.57 26.28,-100.39l13.11 -82.41c2.26,-12.26 3.01,-13.44 15.85,-13.28 4.28,61.55 -37.16,183.61 -36.02,205.59 21.05,11.3 48.28,17.02 60.92,49.28 13.14,33.54 -17.5,59.63 -44.96,57.35z"/>
   <path id="1" class="fil4" d="M3487.67 5415.28c32.06,58.75 163.89,35.66 121.45,-21.36 -16.99,-22.82 -45.86,-24.57 -54.96,-29.58 -11.11,-6.13 -2,-9.09 -18.57,-8.84 -32.01,0.47 -67.75,23.44 -47.92,59.78zm94.77 46.55c-9.76,0.8 -9.17,3.05 -18.59,3.15 -9.84,0.11 -9.3,-2.08 -18.89,-2.99 -51.68,5.19 -111.05,-77.35 -56.59,-111.8 21.37,-13.52 37.2,-4.67 58.89,-4.5 10.15,-32.41 19.41,-65.57 26.28,-100.39l13.11 -82.41c2.26,-12.26 3.01,-13.44 15.85,-13.28 4.28,61.55 -37.16,183.61 -36.02,205.59 21.05,11.3 48.28,17.02 60.92,49.28 13.14,33.54 -17.5,59.63 -44.96,57.35z"/>
  </g>
  <g>
   <path class="fil0 str0" d="M3202.42 4183.19c-13.47,-8.83 -38.08,-59.47 -49.42,-75.64 -44.51,-63.49 -52.08,-81.98 -106.28,-144.55 -20.78,-23.99 -38.89,-44.68 -61.04,-65.71 -74.23,-70.46 -120.43,-107.47 -211.58,-163.23 -22.77,-13.93 -61.09,-34.47 -76.13,-50.77 74.91,24.93 170.45,97.81 230.37,147.25 97.68,80.61 195.08,198.75 256.92,310.71 6.33,11.47 21.1,32.38 17.16,41.94z"/>
   <path id="1" class="fil4" d="M3202.42 4183.19c-13.47,-8.83 -38.08,-59.47 -49.42,-75.64 -44.51,-63.49 -52.08,-81.98 -106.28,-144.55 -20.78,-23.99 -38.89,-44.68 -61.04,-65.71 -74.23,-70.46 -120.43,-107.47 -211.58,-163.23 -22.77,-13.93 -61.09,-34.47 -76.13,-50.77 74.91,24.93 170.45,97.81 230.37,147.25 97.68,80.61 195.08,198.75 256.92,310.71 6.33,11.47 21.1,32.38 17.16,41.94z"/>
  </g>
  <g>
   <path class="fil0 str0" d="M2844.36 4763.07c-3.29,-7.03 -7.29,-10.8 -12.81,-19.71 -4.22,-6.82 -7.65,-10.45 -12.91,-16.17 -19.06,-20.72 -43.27,-46.79 -69.6,-51.72 -83.88,-15.71 -7.06,96.88 58.11,111 23.38,5.06 29.91,-6.56 37.21,-23.4zm84.63 -47.53c-4.06,6.29 4.09,-0.15 -7.36,6.91l-51.54 22.35c-25.69,13.16 1.21,41.31 -28.5,55.96 -21.59,10.65 -53.95,-5.41 -68.96,-14.29 -73.57,-43.5 -114.15,-146.06 -24.69,-125.69 40.79,9.29 74.18,53.24 95.66,75.23 44.65,-13.01 69.68,-41.01 85.39,-20.47z"/>
   <path id="1" class="fil4" d="M2844.36 4763.07c-3.29,-7.03 -7.29,-10.8 -12.81,-19.71 -4.22,-6.82 -7.65,-10.45 -12.91,-16.17 -19.06,-20.72 -43.27,-46.79 -69.6,-51.72 -83.88,-15.71 -7.06,96.88 58.11,111 23.38,5.06 29.91,-6.56 37.21,-23.4zm84.63 -47.53c-4.06,6.29 4.09,-0.15 -7.36,6.91l-51.54 22.35c-25.69,13.16 1.21,41.31 -28.5,55.96 -21.59,10.65 -53.95,-5.41 -68.96,-14.29 -73.57,-43.5 -114.15,-146.06 -24.69,-125.69 40.79,9.29 74.18,53.24 95.66,75.23 44.65,-13.01 69.68,-41.01 85.39,-20.47z"/>
  </g>
  <g>
   <path class="fil0 str0" d="M3382.72 3845.16c-131.98,-1.71 -216.68,-10.8 -341.24,-21.65 -20.35,-1.78 -29.73,-1.06 -38.12,-17.64 78.44,-0.35 232.56,22.22 338.83,24.44 22.68,0.47 33.04,-5.71 40.53,14.85z"/>
   <path id="1" class="fil4" d="M3382.72 3845.16c-131.98,-1.71 -216.68,-10.8 -341.24,-21.65 -20.35,-1.78 -29.73,-1.06 -38.12,-17.64 78.44,-0.35 232.56,22.22 338.83,24.44 22.68,0.47 33.04,-5.71 40.53,14.85z"/>
  </g>
  <g>
   <path class="fil0 str0" d="M3763.38 3197.23c-16.62,-56.22 49.97,-65.52 63.45,-7.1 15.83,68.59 -47.79,60.08 -63.45,7.1z"/>
   <path id="1" class="fil4" d="M3763.38 3197.23c-16.62,-56.22 49.97,-65.52 63.45,-7.1 15.83,68.59 -47.79,60.08 -63.45,7.1z"/>
  </g>
  <g>
   <path class="fil0 str0" d="M3856.52 3372.11c15.94,48.21 -116.73,30.99 -147.96,21.09 -34.42,-10.9 -123.68,-48.72 -112.65,-79.23 12.34,0.27 6.47,0.25 13.07,9.79 15.32,22.16 75.12,46.16 99.38,53.78 96.85,30.46 135.21,-5.55 148.16,-5.43z"/>
   <path id="1" class="fil4" d="M3856.52 3372.11c15.94,48.21 -116.73,30.99 -147.96,21.09 -34.42,-10.9 -123.68,-48.72 -112.65,-79.23 12.34,0.27 6.47,0.25 13.07,9.79 15.32,22.16 75.12,46.16 99.38,53.78 96.85,30.46 135.21,-5.55 148.16,-5.43z"/>
  </g>
  <g>
   <path class="fil0 str0" d="M4380.71 4462.42c-24.59,-38.57 -119.57,-84.22 -131.44,-95.5 -0.39,-0.37 -1.23,-0.69 -1.51,-1.73 -0.28,-1.07 -1.04,-1.18 -1.49,-1.82 48.2,6.91 154.45,88.69 157.84,117.91 -16.75,-7.07 -3.34,-3.55 -19.32,-4.28 -7.7,-0.35 -128.43,-46.62 -131.57,-51.19 42.37,-3.65 102.14,30.88 127.49,36.61z"/>
   <path id="1" class="fil4" d="M4380.71 4462.42c-24.59,-38.57 -119.57,-84.22 -131.44,-95.5 -0.39,-0.37 -1.23,-0.69 -1.51,-1.73 -0.28,-1.07 -1.04,-1.18 -1.49,-1.82 48.2,6.91 154.45,88.69 157.84,117.91 -16.75,-7.07 -3.34,-3.55 -19.32,-4.28 -7.7,-0.35 -128.43,-46.62 -131.57,-51.19 42.37,-3.65 102.14,30.88 127.49,36.61z"/>
  </g>
  <g>
   <path class="fil0 str0" d="M3606.34 3134.56c43.05,-4.14 55.16,69.46 35.1,79.45 -36.4,18.13 -56.63,-52.14 -35.1,-79.45z"/>
   <path id="1" class="fil4" d="M3606.34 3134.56c43.05,-4.14 55.16,69.46 35.1,79.45 -36.4,18.13 -56.63,-52.14 -35.1,-79.45z"/>
  </g>
  <g>
   <path class="fil0 str0" d="M3577.24 3799.24c37.69,-13.66 54.91,52.3 40.91,65.01 -18.86,17.13 -55.64,-27.08 -40.91,-65.01z"/>
   <path id="1" class="fil4" d="M3577.24 3799.24c37.69,-13.66 54.91,52.3 40.91,65.01 -18.86,17.13 -55.64,-27.08 -40.91,-65.01z"/>
  </g>
  <g>
   <path class="fil0 str0" d="M3615.66 3934.93c2.76,12.12 -0.93,14.4 -13.02,16.65 -75.23,14.01 -153.99,-44.85 -144.23,-70.4 15.55,5.9 15.74,26.42 64.15,46.62 53.67,22.39 75.61,1.7 93.1,7.13z"/>
   <path id="1" class="fil4" d="M3615.66 3934.93c2.76,12.12 -0.93,14.4 -13.02,16.65 -75.23,14.01 -153.99,-44.85 -144.23,-70.4 15.55,5.9 15.74,26.42 64.15,46.62 53.67,22.39 75.61,1.7 93.1,7.13z"/>
  </g>
  <g>
   <path class="fil0 str0" d="M3462.55 3782.31c18.52,-5.52 26.31,2.33 34.51,15.37 6.07,9.67 15.8,32.02 4.85,42.65 -15.44,15 -50.64,-19.05 -39.36,-58.02z"/>
   <path id="1" class="fil4" d="M3462.55 3782.31c18.52,-5.52 26.31,2.33 34.51,15.37 6.07,9.67 15.8,32.02 4.85,42.65 -15.44,15 -50.64,-19.05 -39.36,-58.02z"/>
  </g>
  <g>
   <path class="fil0 str0" d="M3367.55 5105.41c-23.44,17.38 -62.6,-4.32 -79.99,-15.6 -13.72,-8.89 -57.03,-37.78 -45.55,-55.17 8.72,1.84 9.19,6.47 14.46,12.35 61.04,68.18 95.47,40.65 110.16,45.73l0.92 12.69z"/>
   <path id="1" class="fil4" d="M3367.55 5105.41c-23.44,17.38 -62.6,-4.32 -79.99,-15.6 -13.72,-8.89 -57.03,-37.78 -45.55,-55.17 8.72,1.84 9.19,6.47 14.46,12.35 61.04,68.18 95.47,40.65 110.16,45.73l0.92 12.69z"/>
  </g>
  <g>
   <path class="fil0 str0" d="M3897.81 4174.91c-2.36,-4.73 -2.3,-4.48 -5.26,-9.5 -3.45,-5.89 -1.64,2.1 -1.72,-3.29 19.64,-0.8 66.64,19.19 85.65,27.15 42.13,17.63 59.54,21.35 62.52,51.45 -10.49,-6.36 -14.52,-15.57 -29.3,-23.94 -30.71,-17.4 -77.63,-30.91 -111.89,-41.87z"/>
   <path id="1" class="fil4" d="M3897.81 4174.91c-2.36,-4.73 -2.3,-4.48 -5.26,-9.5 -3.45,-5.89 -1.64,2.1 -1.72,-3.29 19.64,-0.8 66.64,19.19 85.65,27.15 42.13,17.63 59.54,21.35 62.52,51.45 -10.49,-6.36 -14.52,-15.57 -29.3,-23.94 -30.71,-17.4 -77.63,-30.91 -111.89,-41.87z"/>
  </g>
  <g>
   <path class="fil0 str0" d="M3877.74 3136.75c-14.29,-3.2 -24.13,-27.73 -39.44,-39.68 -24.91,-19.46 -43.85,-11.79 -60.35,-21.3 3.29,-5.14 -4.58,-0.03 4.97,-5.4 2.75,-1.54 4.67,-1.89 8.21,-2.24 17.31,-1.72 35.82,7.79 48.57,16.91 12.27,8.78 34.45,30.59 38.04,51.71z"/>
   <path id="1" class="fil4" d="M3877.74 3136.75c-14.29,-3.2 -24.13,-27.73 -39.44,-39.68 -24.91,-19.46 -43.85,-11.79 -60.35,-21.3 3.29,-5.14 -4.58,-0.03 4.97,-5.4 2.75,-1.54 4.67,-1.89 8.21,-2.24 17.31,-1.72 35.82,7.79 48.57,16.91 12.27,8.78 34.45,30.59 38.04,51.71z"/>
  </g>
  <g>
   <path class="fil0 str0" d="M3637.59 3062.32c-14.35,1.24 -23.47,-3.72 -38.12,1.41 -14.47,5.07 -11.49,13.89 -27.28,11.87 -2.19,-16.7 10.24,-24.17 26.07,-26.93 14.17,-2.48 34.8,-2.32 39.33,13.65z"/>
   <path id="1" class="fil4" d="M3637.59 3062.32c-14.35,1.24 -23.47,-3.72 -38.12,1.41 -14.47,5.07 -11.49,13.89 -27.28,11.87 -2.19,-16.7 10.24,-24.17 26.07,-26.93 14.17,-2.48 34.8,-2.32 39.33,13.65z"/>
  </g>
  <g>
   <path class="fil0 str0" d="M3634.38 3769.69c-11.04,-1.58 -14.39,-11.43 -25.95,-17.55 -9.51,-5.04 -25.12,-6.77 -32.91,-13.6 17.25,-14.2 59.82,10.18 58.86,31.15z"/>
   <path id="1" class="fil4" d="M3634.38 3769.69c-11.04,-1.58 -14.39,-11.43 -25.95,-17.55 -9.51,-5.04 -25.12,-6.77 -32.91,-13.6 17.25,-14.2 59.82,10.18 58.86,31.15z"/>
  </g>
  <g>
   <path class="fil0 str0" d="M2824.78 3829.91l-3.81 12c-8.85,-7.22 -11.14,-12.34 -20.13,-21.2 -9.25,-9.11 -14.88,-9.71 -20.76,-20.38 4.33,-1.96 5.88,-2.43 11.98,-3.84 10.82,13.1 20.7,22.29 32.72,33.42z"/>
   <path id="1" class="fil4" d="M2824.78 3829.91l-3.81 12c-8.85,-7.22 -11.14,-12.34 -20.13,-21.2 -9.25,-9.11 -14.88,-9.71 -20.76,-20.38 4.33,-1.96 5.88,-2.43 11.98,-3.84 10.82,13.1 20.7,22.29 32.72,33.42z"/>
  </g>
  <g>
   <path class="fil0 str0" d="M3498.09 3727.86c-26.1,1.23 -28.02,-4.66 -51.15,6.94 4.12,-21.67 22.19,-23.48 41.08,-17.91 9.52,2.81 8.48,3.7 10.07,10.97z"/>
   <path id="1" class="fil4" d="M3498.09 3727.86c-26.1,1.23 -28.02,-4.66 -51.15,6.94 4.12,-21.67 22.19,-23.48 41.08,-17.91 9.52,2.81 8.48,3.7 10.07,10.97z"/>
  </g>
  <g>
   <path class="fil0 str0" d="M4017.02 3476.18c-11.26,-0.68 -16.28,-6.88 -20.42,-16.03 11.43,2.14 20.58,4.97 20.42,16.03z"/>
   <path id="1" class="fil4" d="M4017.02 3476.18c-11.26,-0.68 -16.28,-6.88 -20.42,-16.03 11.43,2.14 20.58,4.97 20.42,16.03z"/>
  </g>
  <g>
   <path class="fil0 str0" d="M3772.91 3017.45l1.61 -6.24 10.16 0.36 0.61 9.29c-2.48,-0.07 -5.13,0.21 -7.3,-0.49 -6.17,-1.98 -1.16,0.23 -5.08,-2.92z"/>
   <path id="1" class="fil4" d="M3772.91 3017.45l1.61 -6.24 10.16 0.36 0.61 9.29c-2.48,-0.07 -5.13,0.21 -7.3,-0.49 -6.17,-1.98 -1.16,0.23 -5.08,-2.92z"/>
  </g>
  <g>
   <path class="fil0 str0" d="M3674.82 4120.48c0.23,-17.65 -3.38,-54.98 -1.18,-59.69 0.34,-0.71 0.9,-1.22 1.3,-1.84l4.17 -4.05c1.26,-1.76 1.56,-3.7 2.07,-6.69 5.49,3.92 4.04,3 8.36,8.34 5.28,6.52 1.78,3.1 7.77,8.08l28.7 34.79c8.05,11.1 9.86,11.07 11.2,26.3 -15.07,-3.52 -28.02,-25.49 -44.6,-45.98 -8.15,-10.07 -2.47,-12.23 -16.24,-17.78 1.11,20.79 7.96,51.99 -1.55,58.52z"/>
   <path id="1" class="fil4" d="M3674.82 4120.48c0.23,-17.65 -3.38,-54.98 -1.18,-59.69 0.34,-0.71 0.9,-1.22 1.3,-1.84l4.17 -4.05c1.26,-1.76 1.56,-3.7 2.07,-6.69 5.49,3.92 4.04,3 8.36,8.34 5.28,6.52 1.78,3.1 7.77,8.08l28.7 34.79c8.05,11.1 9.86,11.07 11.2,26.3 -15.07,-3.52 -28.02,-25.49 -44.6,-45.98 -8.15,-10.07 -2.47,-12.23 -16.24,-17.78 1.11,20.79 7.96,51.99 -1.55,58.52z"/>
  </g>
  <g>
   <path class="fil0 str0" d="M3890.83 4162.12c0.08,5.39 -1.73,-2.6 1.72,3.29 2.96,5.02 2.9,4.77 5.26,9.5 -15.07,-5.06 -85.72,-21.05 -99.73,-20.25 -3.16,-2.58 -7.03,-4.39 -7.9,-7.26 -3.67,-12.11 -2.85,-4.79 3.7,-8.3l88.02 18.36c10.86,3 4.82,0.99 8.93,4.66z"/>
   <path id="1" class="fil4" d="M3890.83 4162.12c0.08,5.39 -1.73,-2.6 1.72,3.29 2.96,5.02 2.9,4.77 5.26,9.5 -15.07,-5.06 -85.72,-21.05 -99.73,-20.25 -3.16,-2.58 -7.03,-4.39 -7.9,-7.26 -3.67,-12.11 -2.85,-4.79 3.7,-8.3l88.02 18.36c10.86,3 4.82,0.99 8.93,4.66z"/>
  </g>
 </g>
</svg>
