<?xml version="1.0" encoding="UTF-8"?>
<!DOCTYPE svg PUBLIC "-//W3C//DTD SVG 1.1//EN" "http://www.w3.org/Graphics/SVG/1.1/DTD/svg11.dtd">
<!-- Creator: CorelDRAW 2017 -->
<svg xmlns="http://www.w3.org/2000/svg" xml:space="preserve" width="75mm" height="75mm" version="1.1" style="shape-rendering:geometricPrecision; text-rendering:geometricPrecision; image-rendering:optimizeQuality; fill-rule:evenodd; clip-rule:evenodd"
viewBox="0 0 7500 7500"
 xmlns:xlink="http://www.w3.org/1999/xlink">
 <defs>
  <style type="text/css">
   <![CDATA[
    .fil14 {fill:#134B66}
    .fil15 {fill:#314F54}
    .fil3 {fill:#457565}
    .fil6 {fill:#6F2F31}
    .fil5 {fill:#774577}
    .fil17 {fill:#86E6F8}
    .fil18 {fill:#9BE6F3}
    .fil1 {fill:#ACD2F7}
    .fil16 {fill:#B9ECF3}
    .fil0 {fill:#BBFDE4}
    .fil12 {fill:#D5E3FD}
    .fil13 {fill:#E99796}
    .fil4 {fill:#F56D6B}
    .fil8 {fill:#FADAE4}
    .fil10 {fill:#FC8C8B}
    .fil9 {fill:#FCACAB}
    .fil7 {fill:#FCC2F3}
    .fil11 {fill:#FDBCBB}
    .fil2 {fill:#FDFDFD}
   ]]>
  </style>
 </defs>
 <g id="Capa_x0020_1">
  <metadata id="CorelCorpID_0Corel-Layer"/>
  <path class="fil0" d="M1378.36 4008.66c0,50.26 0.69,80.66 8.43,130.25 13.91,89.28 10.46,38.51 -11.76,95.61 -14.85,38.14 -15.98,58.19 -7.75,102.38 14.19,76.28 88.59,111.07 104.11,136.02 32.74,52.63 -3.85,14.33 52.06,68.08 56.71,54.53 118.31,59.19 206.69,59.19 81.72,0 112.65,39.17 267.85,-1.37 29.25,-7.64 65.33,-28.84 93.59,-41.38l98.45 -66.66c5.38,-4.48 14.34,-9.89 20.14,-13.38 36.71,-22.1 32.34,-13.65 74.97,-56.33 11.92,-11.94 22.89,-19.73 34.69,-32.67l37.58 -44.73c13.54,-18.23 23.46,-32.21 32.14,-55.11 3.31,-8.75 6.69,-14.33 10.75,-22.5 24.57,-49.42 23.63,-154.13 23.63,-212.47 0,-75.9 2.44,-156.65 -28.66,-211.51 -13.35,-23.54 -32.6,-50.64 -51.34,-68.66l-124.44 -85.22c-9.26,-6.42 -6.54,-6.4 -16.72,-13.15 -57.86,-38.33 -89.75,-64.41 -159.52,-80.17 -36.5,-8.25 -78.77,-7.34 -111.82,0.79 -64.95,15.97 -135.36,25.34 -186.62,53.36 -33.2,18.15 -64.4,7.76 -101.69,18.74 -39.14,11.53 -126.92,36.28 -153.04,59.78 -37.52,33.77 -12.33,2.34 -42.78,47.44 -35.87,53.11 -12.92,22.08 -35.79,84.29 -18.11,49.26 -33.15,73.29 -33.15,149.38z"/>
  <path class="fil1" d="M4085.31 4026.37l-0.26 -25.29c-15.93,-22.59 -5.98,-54.97 -10.24,-79.75 -11.83,-68.79 -2.81,-46.54 -6.76,-83.3 -6.66,-61.84 10.97,-99.77 44.06,-133.89 25.85,-26.66 72.92,-58.66 114.19,-64.21 47.38,-6.38 92.78,6.36 125.9,37.13 0.46,0.43 1.28,1.24 1.7,1.62 3.97,3.66 -1.58,0.97 6.32,4.77l-4.46 10.69c43.11,-11.2 88.9,-33.92 139.8,-13.2 28.72,11.69 23.16,29.75 22.27,61.1 -0.43,15.26 5.24,64.39 2.59,71.94 -55.43,16.79 -144,-21.7 -148.62,78.77 -0.58,12.65 -0.19,25.31 0.06,37.96 0.31,15.75 -1.16,22.25 6.33,32.49 29.14,11.9 95.13,-43.79 105.06,18.82 3.78,23.81 -1.18,43.72 4.14,70.88 2.87,14.6 13.87,51.54 13.7,60.77 -13.65,6.38 -34.63,8.08 -49.3,4.8 12.84,9.08 21,6.68 27.07,7.56 -12.87,33.19 -27.77,2.42 -54.1,4.19 1.56,33.41 14.82,35.09 30.42,95.79 9.03,35.16 29.58,38.2 28.76,95.4 -0.71,49.54 0.95,113.83 -35.95,150.52 -9.48,9.43 -20.2,21.55 -33.36,29.19l7.7 1.5c15.05,-1.25 23.12,-9.11 35.75,-14.08 28.88,-11.39 32.33,21.15 140.55,-16.5 183.27,-63.75 143.77,-98.33 185.82,-140.38 40.39,-40.4 72.96,-79.96 70.4,-150.91 -1.52,-42.18 -12.66,-53.97 -26.35,-85.57 10.19,-19.13 34.01,-26.4 53.1,-70.81 13.64,-31.72 12.89,-74.13 1.22,-105.97 -29.38,-80.13 -76.21,-73.08 -86.44,-99.45 -8.87,-22.86 0.97,-7.28 -17.66,-43.81 -36.2,-71.02 -83.18,-82.87 -144.04,-102.81 -32.37,-10.61 -51,-25.2 -90.7,-32.27 -41.26,-7.35 -80.67,-5.66 -123.06,-5.06 -40.93,0.59 -81.35,1.99 -122.29,-1.43 -109.76,-9.16 -110.2,-14.62 -230.59,-1.02 -37.39,4.23 -74.62,13.16 -110.15,16.38 -68.21,6.19 -124.59,20.47 -152.5,95.27 -24.29,65.09 1.95,121.68 51.55,163.75 6.33,5.37 4.28,2.97 8.57,8.94 -17.85,21.05 -48.53,43.45 -54.65,52.06 -47.82,67.22 -33.03,163.21 35.98,206.07l16.62 12.73c-5.28,30.75 -15.3,35.44 -11.8,75.22 3.11,35.37 18.65,65.97 42.61,87.74 12.68,11.52 15.49,7.1 17.46,25.49 3.47,32.56 4.04,45.65 18,72.81 42.28,82.23 152.54,87.24 265.65,68.53l-10.83 -106.86c-1.06,-4.87 -13.35,-31.12 -20.33,-58.02 -3.65,-14.11 -0.84,-24.71 -3.77,-37.41 -2.73,-11.86 -17.09,-27.33 -21.93,-56.39 -3.28,-19.73 -0.16,-14.27 -9.23,-29.56 -36.06,-60.86 -9.98,-53.51 -31.02,-88.97 -12.88,-21.69 -0.86,-6.55 -19.45,-18.87 -17.37,-11.5 -16.99,-85.05 -16.49,-104.21 6.69,-5.65 5.89,-5.77 15.51,-10.37 3.62,6.68 0.66,2.91 3.11,9.47l4.36 10.02z"/>
  <path class="fil2" d="M3219.85 4437.01c60.02,4.27 83.18,12.76 134.51,-15.67 97.18,-53.81 81.09,-146.26 96.04,-225.83 22.55,-119.96 6.55,-123.17 -5.32,-219.57 -6.18,-50.13 9.22,-126.21 -60.04,-182.58 -28.63,-23.3 -65.58,-45.96 -118.2,-38.43 -54.05,7.74 -103.86,2.42 -157.41,6.23 -62.6,7.16 -110.69,4.59 -167.37,-7.32 -48.66,-10.22 -99.66,10.59 -131.7,38.22 -81.36,70.16 -57.2,160.87 -50.45,241.44 3.55,42.35 2.04,27.21 12.8,34.25l-11.04 4.68 5.14 211.43c0.9,34.43 9.53,65.36 31.23,85.77l21.11 19.65c17.1,11.26 26,15.18 38.14,29.39 7.1,8.31 6.98,2.98 21.66,10.21 39.6,19.53 93.19,10.27 145.78,6.2 32.36,-2.51 62.12,-6.5 95.9,-8.46 15.98,-0.92 35.84,-1.98 51.67,-0.98l42.06 8.6c0.89,0.37 2.04,1.03 2.75,1.35 0.72,0.33 1.85,0.91 2.74,1.42z"/>
  <path class="fil3" d="M1622.64 4332.85c-4.12,28.89 -30.18,126.42 -22.66,142.33 14.51,-0.88 43.44,-34.9 53.15,-45.51 57.78,-63.18 32.59,-7.41 206.15,37.83 129.82,33.84 243.13,0.59 314.43,-67.9 83.02,-79.76 190.22,-302.89 124.78,-449.52 -12.3,-27.56 -24.09,-41.98 -36.42,-65.09 -34.62,-64.91 -68.63,-133.94 -142.38,-164.6 -96.83,-40.25 -252.65,-43.14 -350.3,-9.15 -50.42,17.55 -92.57,47.52 -132.08,73.59 -230.59,152.12 -146.76,516.5 -14.67,548.02z"/>
  <path class="fil4" d="M5470.78 4452.15c-1.9,-10.41 -6.4,-7.05 -14.87,-12.9 -5.69,-3.93 -12.67,-11.27 -18.36,-16.2 -15.14,-13.15 -14.73,-18.7 -26.94,-37.94 -8.26,-13.01 -19.8,-19.8 -29.06,-36.04 -11.29,-19.82 -10.74,-33.21 -16.78,-51.92 17.86,-0.06 30.03,-1.73 47.52,-0.67l86.22 0.98c15.3,-0.79 23.13,-3.6 40.71,-3.53 29.79,0.13 59.57,0.1 89.36,0.08 34.04,-0.02 54.58,3.72 87.37,3.3 36.42,-6.35 59.37,-13.07 77.05,-34.28l38.48 -69.2c5.71,-25.94 6.05,-167.24 3.82,-201.58 -1.96,-30.2 -12.37,-60.24 -25.64,-81.09 -56.22,-88.26 -143.85,-80.21 -239.14,-80.39 -65.43,-2.69 -148.38,-6.02 -213,-3.05 -42.94,1.97 -70.6,6.86 -94.05,29.24l-7.95 5.99c-14.73,11.58 -21.68,28.08 -27.58,47.19 -16.72,54.22 -2.23,44.23 -12.39,108.19 -0.06,0.34 -1.03,9.65 -1.3,11.79 -7.63,60.24 -24.37,78.08 -8.57,138.38l14.6 37.19c1.32,2.2 7.18,8.19 10.92,12.68 13.27,15.94 0.66,-0.3 8.9,17.72 4.56,9.98 8.29,11.03 14.5,16.78 -17.78,-5.19 -5.17,1.64 -18.55,-9.35l-23.34 -28.31c-41.57,-62.25 -29.74,-107.99 -16.69,-172.94 9.28,-46.14 0.76,-149.9 40.1,-178.79 20.28,-14.89 22.42,-14.5 45.96,-22.64 -8.5,-25.33 -1.75,-61.68 9.5,-85.49 3.98,-8.44 1.05,-2.56 3.63,-6.75 18.5,-30.04 43,-51.1 74.81,-73.13 19.25,-13.32 46.46,-14.62 61.12,-24.07 -55.26,-3.97 -109.87,2.61 -166.2,7.44 -30.36,2.6 -47.67,8.85 -77.56,12.47 -31.76,3.84 -49.9,1.99 -77.73,14.92 -36.62,17.02 -72.07,54.94 -74.37,107.24 -2.75,62.53 27.55,91.72 60.94,119.99 -9.28,30.13 -72.69,40.24 -74.87,123.33 -1.76,67.4 30.26,96.27 74.26,123.53 -6.46,36.75 -27.11,80.06 12,133.08 8.92,12.1 20.73,19.25 28.7,29.77 8.22,14.76 -1.56,52.45 31.06,95.77 19.31,25.64 47.63,39.88 79.32,47.47 35,8.38 81.05,6.68 117.39,2.39 30.43,-3.6 77.39,-17.72 106.7,-16.65z"/>
  <path class="fil2" d="M1639.81 4322.1l-20.85 116.28c50.86,-30.74 31.05,-81.48 117.99,-36.08 150.78,78.74 323.29,96.83 435.44,-26.52 78.81,-86.67 174.63,-287.97 105.96,-428.56 -9.89,-20.24 -23.4,-40.79 -35.29,-61.99 -35.12,-62.65 -66.44,-127.78 -142.13,-153.26 -42.39,-14.28 -116.44,-30.99 -161.77,-27.75 -161.26,11.54 -187.51,23.78 -296.2,97.7 -84.35,57.37 -129.77,151.7 -134.31,259.04 -2.29,54.13 12.04,116.92 32.45,162.64 31.45,70.46 49.82,77.78 98.71,98.5z"/>
  <path class="fil5" d="M2878.12 3799.65c-92.65,24.11 -117.67,105.71 -99.97,216.42 8.49,53.13 7.91,95.67 9.03,151.06 0.81,40.16 -1.64,126.35 6.25,158.75 11.01,45.18 45.15,59.82 77.2,84.31 50.65,38.68 204.27,-5.23 297.75,1.19 50.3,3.45 82.44,28.61 139.92,8.82 108.85,-37.47 89.49,-140.06 104.82,-218.19 10.72,-54.67 14.57,-89.67 4.21,-146.06 -4.34,-23.61 -8.68,-47.13 -10.84,-70.43 -5.6,-60.38 7.24,-125.03 -73.4,-171.33 -50.03,-28.72 -86.18,-8.96 -143.81,-8.5 -47.79,0.39 -199.52,8.45 -239.72,-2.55 -30.46,-8.33 -38.73,-12.01 -71.44,-3.49z"/>
  <path class="fil2" d="M2891.55 3809.88c-93.4,18.3 -120.94,100.76 -100.31,205.93 16.68,85.06 2.51,229.4 13.27,299.75 3.38,22.08 12.11,35.68 26.32,48.64 7.2,6.58 12.83,9.05 21.96,15.77 9.96,7.34 13.23,11.63 22.83,18.46 49.29,35.06 200.25,-5.05 289.54,-0.28 37.6,2.01 167.55,57.91 215.2,-63.66 10.21,-26.05 13.88,-101.23 20.46,-137.4 20.85,-114.67 2.54,-112.12 -7.3,-210.9 -5.17,-51.85 6.6,-122.86 -70.01,-162.16 -42.65,-21.87 -88.46,-5.53 -137.68,-5.47 -33.12,0.04 -206.6,5.64 -230.45,-0.3 -24.28,-6.03 -35.4,-13.95 -63.83,-8.38z"/>
  <path class="fil2" d="M5328.38 3847.94c-110.48,12.39 -91.99,105.54 -98.63,166.52 -6.89,63.25 -43.53,138.37 18.41,207.26 51.04,56.76 105.37,62.32 205.44,59.15l192.22 -3.98c42.4,0.97 101.47,19.28 145.84,-39.19 18.66,-24.6 28.75,-62.49 25.44,-103.3 -7.54,-92.96 18.57,-159.82 -31.3,-223.87 -50.03,-64.28 -100.39,-62.82 -198.39,-63.58 -77.22,-0.6 -185.96,-7.21 -259.03,0.99z"/>
  <path class="fil6" d="M6316.59 3952.02c-14.48,82.83 -8.34,78.61 15.28,152.32 12.07,37.66 35.85,115.82 82.65,99.1 42.29,-33.07 -22.18,-128.19 -13.7,-238.55 7.35,-95.68 53.32,-110.57 139.77,-139.8 81,-27.38 151.75,-13.1 208.85,46.99 21.56,22.7 34.2,55.63 43.92,93.1 13.04,50.23 2.1,73.87 -5.81,120.77 -16.23,96.19 -47.77,132.37 -154.92,104.95 -74.21,-18.99 22.58,-148.49 5.65,-214.61 -7.12,-27.79 -27.89,-73.14 -57.77,-79.64 -123.61,-26.86 -57.31,232.21 -113.48,301.52 -12.42,42.25 -46.46,182.26 -30.93,230.57 4.01,12.46 22.19,35.23 33.97,41.45l8.04 3.49c0.71,0.3 1.96,0.7 2.91,1.12l27.21 -5.66c20.37,-52.9 57.54,-142.74 61.03,-203.24 25.81,9.35 -1.21,14.21 82.2,25.16 69.93,9.18 114.45,-1.82 170.05,-41.15 24.95,-17.64 31.92,-35.72 48.89,-60.67 35.19,-51.72 54.2,-86.81 48.58,-165.62 -2.39,-33.66 3.02,-66.24 -7,-98.07 -10.18,-32.35 -28.97,-45.96 -39.69,-69.5 -23.04,-30.67 -21.5,-62.32 -77.12,-88.07 -6.26,-2.9 -12.21,-5.01 -19.64,-7.67 -3.01,-1.07 -7.24,-2.38 -10.04,-3.71 -9.71,-4.58 -2.44,0.47 -9.15,-5.56 -41.97,-0.47 -76.89,-50.02 -218.63,-7.57 -151.9,45.5 -167.19,67.58 -221.12,208.55z"/>
  <path class="fil7" d="M3079.72 3661.28c0.9,5.95 -0.9,8.19 -0.74,19.77 17.69,5.76 16.35,15.2 21.91,31.94 5.43,16.31 10.56,28.53 8.54,48.17 53.55,-3.81 103.36,1.51 157.41,-6.23 52.62,-7.53 89.57,15.13 118.2,38.43 69.26,56.37 53.86,132.45 60.04,182.58 11.87,96.4 27.87,99.61 5.32,219.57 -14.95,79.57 1.14,172.02 -96.04,225.83 -51.33,28.43 -74.49,19.94 -134.51,15.67l-20.3 3.45 -6.93 20.38c-9.34,27.19 -3.19,19.23 -6.53,31.88 -4.41,16.63 0.56,2.19 -5.09,9.15 -7.81,9.62 -6.58,-5.9 -8.68,21.86 62.67,26.07 119.69,9.52 182.2,-12.91 169.51,-60.81 135.14,-104.77 188.15,-155.04 18.94,-17.96 35.09,-34.46 48.94,-64.22 19.32,-41.54 29.27,-91.9 9.73,-141.53 -2.86,-7.26 -4.68,-13.77 -7.36,-20.42 -4.41,-10.9 -6.78,-10.47 -11.45,-20.72 7.83,-16.82 45.82,-42.47 57.67,-77.65l8.87 -59.55c-0.28,-7.92 -7,-52.16 -9.38,-59.73 -9.16,-29.17 -37.07,-62.17 -59.43,-77.23 -9.85,-6.63 -35.22,-17.3 -40.27,-27.87 -9.63,-20.15 -6.53,-24.91 -23.19,-45.85 -29.31,-36.83 -136.03,-76.17 -186.21,-87.56 -43.69,-9.92 -85.97,-3.13 -129.52,-9.75 -42.27,-6.41 -75.7,-11.94 -121.35,-2.42z"/>
  <path class="fil8" d="M3172.32 4523.73c2.1,-27.76 0.87,-12.24 8.68,-21.86 5.65,-6.96 0.68,7.48 5.09,-9.15 3.34,-12.65 -2.81,-4.69 6.53,-31.88l6.93 -20.38 20.3 -3.45c-0.89,-0.51 -2.02,-1.09 -2.74,-1.42 -0.71,-0.32 -1.86,-0.98 -2.75,-1.35l-42.06 -8.6c-15.83,-1 -35.69,0.06 -51.67,0.98 -33.78,1.96 -63.54,5.95 -95.9,8.46 -52.59,4.07 -106.18,13.33 -145.78,-6.2 -14.68,-7.23 -14.56,-1.9 -21.66,-10.21 -12.14,-14.21 -21.04,-18.13 -38.14,-29.39l-21.11 -19.65c-21.7,-20.41 -30.33,-51.34 -31.23,-85.77l-5.14 -211.43 11.04 -4.68c-10.76,-7.04 -9.25,8.1 -12.8,-34.25 -6.75,-80.57 -30.91,-171.28 50.45,-241.44 32.04,-27.63 83.04,-48.44 131.7,-38.22 56.68,11.91 104.77,14.48 167.37,7.32 2.02,-19.64 -3.11,-31.86 -8.54,-48.17 -5.56,-16.74 -4.22,-26.18 -21.91,-31.94 -0.16,-11.58 1.64,-13.82 0.74,-19.77 -13.76,0.33 -11.78,-1.97 -20.11,-9.1 -6.79,-5.8 -10.87,-9.27 -17.71,-13.79 -44.06,-29.16 -108.57,-32 -155.36,-10.75 -36.98,16.79 -48.9,27.65 -75.26,51.77 -30.62,28.02 -103.82,58.83 -127.34,129.79 -12.78,38.51 -36.48,86.5 -37.16,88.82 -16.47,55.72 -0.12,87.19 1.55,114.72 1.3,21.45 -1.36,43.23 0.73,64.58 4.43,45.15 -21.99,84.05 19.78,157.24 14.6,25.58 -3.84,36.85 23.64,103.75 23.04,56.12 51.32,117.88 110.34,145.89 15.27,7.25 34.2,5.04 53.93,7.3 24.86,2.84 2.19,6.61 43.7,22.26 26.92,10.15 23.77,0.86 45.28,20.17 54.93,49.31 132.03,60.14 192.02,17.47 35.3,-25.11 19.87,-26.81 34.57,-27.67z"/>
  <path class="fil9" d="M5570.52 3830.77c95.29,0.18 182.92,-7.87 239.14,80.39 13.27,20.85 23.68,50.89 25.64,81.09 2.23,34.34 1.89,175.64 -3.82,201.58l-38.48 69.2c-17.68,21.21 -40.63,27.93 -77.05,34.28 -15.35,0.59 -57.06,-5.44 -57.69,4.55 -3.36,53.1 4.06,61.8 -30.3,112.17 11.68,10.33 16.8,3.76 14.78,17.58 32.43,-9.78 23.56,20.81 154.46,-27.11 43.8,-16.04 87.95,-39.65 112.55,-76.29 21.54,-32.09 -6.21,-8.95 39.03,-53.74 34.83,-34.48 54.88,-82.58 50.14,-134.58 -3.15,-34.59 -16.09,-45.58 -23.41,-71.81 34.31,-31.18 67.3,-69.09 55.46,-132.29 -9.21,-49.21 -42.59,-94.08 -84.34,-106.8 -1.71,-8.83 -2.75,-15.07 -5.25,-22.09 -0.51,-1.42 -4,-9.11 -4.24,-9.52 -4.86,-8.25 -2.83,-4.82 -6.59,-8.75 -16.86,-5.3 -23.66,-17.48 -34.2,-25.91 -9.22,-7.37 -101.38,-46.45 -122.42,-50.62 -36.38,-7.2 -65.62,-9.25 -107.78,-10.13 -17.35,-0.36 -35.45,-4.67 -52.14,-6.48 -26.21,-2.84 -33.14,1.74 -55.77,1.97 -3.7,16.05 12.21,35.22 16.88,60.05 6.16,32.71 -4.78,47.02 -4.6,73.26z"/>
  <path class="fil2" d="M6498.36 4461.89c15.13,-20.31 43.35,-118.72 52.56,-153.49 4.88,-18.45 4.63,-48.35 10.4,-61.29 28.16,1.12 5.94,27.45 108.71,33.87 52.67,3.29 80.56,-2.07 119.79,-24.92 40.78,-23.77 43.71,-33.7 70.55,-73.55 15.42,-22.89 42.43,-65.68 46.98,-100.93 2.05,-15.93 -0.88,-128.46 -4,-140.79 -9.76,-38.51 -34.56,-60.51 -50.63,-93.06 -18.9,-38.25 -33.49,-55.12 -72.43,-71.52 -146.51,-61.69 -174.6,-33.61 -291.74,-2.71 -25.4,6.69 -29,7.5 -51.91,20.05 -53.36,29.23 -96.82,102.49 -109.95,180.56 -9.02,53.62 -2.99,70.17 14.16,117.93 12.58,35.04 22.43,79.61 50,97.58 60.05,39.14 -12.85,-133.74 -1.2,-233.49 12.08,-103.53 63.28,-110.57 146.55,-142.36 95.3,-36.38 172.51,1.68 222.57,48.98 22.03,20.82 36.68,59.88 46.63,97.25 15.05,56.52 4.37,79.99 -4.94,130.89 -23.15,126.48 -67.01,130.32 -164.56,114.94 -44.25,-6.98 -50.27,-48.71 -38.63,-93.9 9.58,-37.2 31.3,-69.99 30.99,-112.65 -0.25,-35.1 -27.53,-85.69 -52.05,-90.62 -77.43,-15.56 -65.82,154.99 -72.01,214.63 -7.21,69.34 -45.94,91.69 -54.42,239.43 -2.7,47 -9.86,62.74 19.77,90.8 8.92,8.45 13.75,9.77 28.81,8.37z"/>
  <path class="fil5" d="M3180.51 4273.21c67.85,-16.32 126.73,-130.68 101.17,-226.04 -21.34,-79.64 -100.15,-131.34 -203.06,-126.89 -65.26,7.59 -95.45,35.78 -119.39,78.88 -20.17,36.32 -42.97,106.64 -36.76,157.47 7.1,58 45.97,81.64 95.38,99.47 34.45,12.43 129.58,39.58 162.66,17.11z"/>
  <path class="fil9" d="M6414.52 4203.44c-15.05,6.26 -11.3,-1.26 -22.23,11.83 42.64,16 42.88,-2.59 44.57,-37.16 31.69,26.49 18.19,24.03 30.17,20.06 56.17,-69.31 -10.13,-328.38 113.48,-301.52 29.88,6.5 50.65,51.85 57.77,79.64 16.93,66.12 -79.86,195.62 -5.65,214.61 107.15,27.42 138.69,-8.76 154.92,-104.95 7.91,-46.9 18.85,-70.54 5.81,-120.77 -9.72,-37.47 -22.36,-70.4 -43.92,-93.1 -57.1,-60.09 -127.85,-74.37 -208.85,-46.99 -86.45,29.23 -132.42,44.12 -139.77,139.8 -8.48,110.36 55.99,205.48 13.7,238.55z"/>
  <path class="fil8" d="M3209.72 4359.16l-4.78 -7.72c-0.37,-0.77 -0.86,-1.61 -1.18,-2.41 -7.55,-18.85 5.69,-15.7 -9.88,-45.64l-2.11 -4.42c-4.82,-13.28 2.1,-10.14 -11.26,-25.76 -33.08,22.47 -128.21,-4.68 -162.66,-17.11 -49.41,-17.83 -88.28,-41.47 -95.38,-99.47 -6.21,-50.83 16.59,-121.15 36.76,-157.47 23.94,-43.1 54.13,-71.29 119.39,-78.88 7.24,-9.73 5.29,-2.43 8.25,-9.92 5.43,-13.69 -13.77,-6.25 -2.73,-26.21 11.12,-20.11 11.44,-18.43 12.03,-48.56l-105.86 0.28c-27.6,-0.07 -3.96,5.42 -28.92,-3.68 -45.29,-16.52 -88.54,-7.96 -115.32,22.94 -44.35,51.19 -12.18,157.41 -9.64,202.25 3.74,66.1 -3.1,160.37 3.58,229.19 2.66,27.48 9.16,33.38 27.78,47.49 11.76,8.91 36.16,30.19 46.91,33.01 26.14,6.85 116.35,-4.34 147.66,-6.69 53.36,-4.02 93.86,-11.16 147.36,-1.22z"/>
  <path class="fil10" d="M6481.02 4474.8c-0.95,-0.42 -2.2,-0.82 -2.91,-1.12l-8.04 -3.49c-11.78,-6.22 -29.96,-28.99 -33.97,-41.45 -15.53,-48.31 18.51,-188.32 30.93,-230.57 -11.98,3.97 1.52,6.43 -30.17,-20.06 -1.69,34.57 -1.93,53.16 -44.57,37.16 10.93,-13.09 7.18,-5.57 22.23,-11.83 -46.8,16.72 -70.58,-61.44 -82.65,-99.1 -23.62,-73.71 -29.76,-69.49 -15.28,-152.32 -10.93,0.22 -6.99,1.62 -13.98,-10.48 -27.09,-46.95 3.11,-106.39 15.53,-137.68 -12.56,-18.23 -26.41,-18.84 -36.7,-56.93 -3.58,-13.28 0.44,-17.1 -11.07,-18.07 -13.94,13.31 -18.16,26.94 -29.7,40.03 -11.26,12.78 -24.03,17.88 -38.98,36.41 -27.91,34.61 -26.17,63.35 -38.35,108.8 -11.85,44.23 -6.45,90.41 10.35,128.59 8.19,18.62 17.45,31.73 27.56,44.65 21.84,27.89 12.73,18.35 21.29,53.35 7.93,32.43 18.61,90.07 36.11,112.16 18.21,22.98 5.82,-1.93 30.88,41.12 9.24,15.87 24.87,32.32 29.36,45.63 17.93,53.19 20.03,56.44 67.53,80.56 17.29,8.78 35.24,58.99 94.6,54.64z"/>
  <path class="fil3" d="M1988.61 4149.14c-61.8,-10.6 -129.01,-93.9 -158.68,-134.9 21.37,-27.36 30.8,-32.33 30.29,-84.21 -1.93,-196.53 -277.06,-122.69 -140.31,137.28 58.32,110.86 70.26,109.8 171.17,169.91 60.37,35.97 224.51,74.1 265.05,21.05 13.82,-18.08 25.97,-64.26 19.37,-91.3 -7.79,-31.92 -34.96,-42.59 -57.16,-59.64 -84.08,-64.6 -80.96,0.16 -129.73,41.81z"/>
  <path class="fil7" d="M3096.17 3835.59c-0.59,30.13 -0.91,28.45 -12.03,48.56 -11.04,19.96 8.16,12.52 2.73,26.21 -2.96,7.49 -1.01,0.19 -8.25,9.92 102.91,-4.45 181.72,47.25 203.06,126.89 25.56,95.36 -33.32,209.72 -101.17,226.04 13.36,15.62 6.44,12.48 11.26,25.76l2.11 4.42c15.57,29.94 2.33,26.79 9.88,45.64 0.32,0.8 0.81,1.64 1.18,2.41l4.78 7.72c37.45,5.27 67.77,18.67 107.95,-1.61 26,-13.12 47.16,-39.22 49.34,-80.44 4.12,-78 32.31,-155.08 15.4,-231 -6.95,-31.21 -12.91,-78.66 -13.96,-112.02 -1.65,-51.81 -9.34,-67.56 -40.12,-91.01 -35.97,-27.4 -62.42,-11.32 -105.13,-9.25 -34.56,1.67 -94.94,3.52 -127.03,1.76z"/>
  <path class="fil10" d="M6756.34 3751.04c6.71,6.03 -0.56,0.98 9.15,5.56 2.8,1.33 7.03,2.64 10.04,3.71 7.43,2.66 13.38,4.77 19.64,7.67 55.62,25.75 54.08,57.4 77.12,88.07 11.31,3.78 43.71,43.76 52.51,60.24 13.43,25.13 27.19,46.93 38.45,74.91 23.98,59.58 19.25,130.97 -5.73,186.01 -13.09,28.86 -29.46,39.07 -61.26,52.02 -86.65,35.28 -12.23,152.5 101.71,42.82 2.21,-2.12 4.92,-5.22 6.83,-7.01l6.65 -5.6c0.42,-1.4 1.63,-1.33 2.52,-1.89 45.65,-42.64 69.87,-179.55 48.13,-255.14 -11.48,-39.93 -28.85,-81.65 -48.45,-116.99 -20.85,-37.61 -36.46,-74.68 -69.03,-92.73l-113.15 -98.52c-70.19,-66.66 -112.19,30.22 -70.45,56.12l-4.68 0.75z"/>
  <path class="fil11" d="M6270.37 3728.86c11.51,0.97 7.49,4.79 11.07,18.07 10.29,38.09 24.14,38.7 36.7,56.93 -12.42,31.29 -42.62,90.73 -15.53,137.68 6.99,12.1 3.05,10.7 13.98,10.48 53.93,-140.97 69.22,-163.05 221.12,-208.55 141.74,-42.45 176.66,7.1 218.63,7.57l4.68 -0.75c-41.74,-25.9 0.26,-122.78 70.45,-56.12l113.15 98.52c-8.23,-20.59 -35.01,-37.54 -59.11,-70.37 -35.79,-48.76 -90.53,-55.45 -112.98,-75.75 -56.62,-51.2 -65.28,-11.07 -92.06,-34.71 -16.73,-14.78 -15.5,-17.44 -43.22,-22.35 -42.9,-7.59 -70.15,1.57 -101.47,21.69 -36.25,23.28 -53.18,6.13 -85.69,41.29 -35.81,38.72 -46.25,16.87 -89.23,37.35 -10.28,4.89 -9.63,7.94 -20.61,9.72 -9.61,1.55 -16.33,-0.47 -28.39,3.41l-35.54 19.5c-6.31,5.5 -0.61,-1.27 -5.95,6.39z"/>
  <path class="fil10" d="M5570.52 3830.77c-0.18,-26.24 10.76,-40.55 4.6,-73.26 -4.67,-24.83 -20.58,-44 -16.88,-60.05 22.63,-0.23 29.56,-4.81 55.77,-1.97 16.69,1.81 34.79,6.12 52.14,6.48 42.16,0.88 71.4,2.93 107.78,10.13 21.04,4.17 113.2,43.25 122.42,50.62 10.54,8.43 17.34,20.61 34.2,25.91 -11.07,-31.74 -45.44,-62.1 -78.73,-78.12l-115.76 -43.01c-46.49,-12.25 -96.78,-10.68 -148.65,-8.81 -57.55,2.07 -101.98,-3.75 -156.27,-7.29 -14.66,9.45 -41.87,10.75 -61.12,24.07 -31.81,22.03 -56.31,43.09 -74.81,73.13 -2.58,4.19 0.35,-1.69 -3.63,6.75 -11.25,23.81 -18,60.16 -9.5,85.49 -23.54,8.14 -25.68,7.75 -45.96,22.64 -39.34,28.89 -30.82,132.65 -40.1,178.79 -13.05,64.95 -24.88,110.69 16.69,172.94l23.34 28.31c13.38,10.99 0.77,4.16 18.55,9.35 -6.21,-5.75 -9.94,-6.8 -14.5,-16.78 -8.24,-18.02 4.37,-1.78 -8.9,-17.72 -3.74,-4.49 -9.6,-10.48 -10.92,-12.68l-14.6 -37.19c-15.8,-60.3 0.94,-78.14 8.57,-138.38 0.27,-2.14 1.24,-11.45 1.3,-11.79 10.16,-63.96 -4.33,-53.97 12.39,-108.19 5.9,-19.11 12.85,-35.61 27.58,-47.19l7.95 -5.99c23.45,-22.38 51.11,-27.27 94.05,-29.24 64.62,-2.97 147.57,0.36 213,3.05z"/>
  <path class="fil0" d="M1748.77 3839.3c-58.42,29.16 -60.94,113.8 -32.35,182.93 12.69,30.71 26.78,54.97 41.96,81.63 38.08,66.9 68.6,75.5 132.91,114.45 48.16,29.17 138.59,55.8 198.63,50.38 46.42,-4.18 57.29,-17.55 66.69,-58.39 10.76,-46.72 -8.01,-59.69 -35.82,-79.08 -55.46,-38.68 -56.96,-53.93 -105.34,12.88 -9.72,13.41 -15.29,26.36 -39.95,20.65 -46.88,-10.86 -109.59,-73.37 -137.91,-110 -6.38,-8.24 -23.51,-28.62 -25.07,-35.86 -4.31,-19.99 15.64,-24.24 23.3,-39.61 12.55,-25.18 8.42,-81.6 -4.22,-105.53 -8.79,-16.63 -50.04,-50.81 -82.83,-34.45z"/>
  <path class="fil8" d="M3236.4 3993.72c-3.75,9.69 8.99,16.68 14.12,26.97 32.89,65.91 -5.2,202.75 -85.28,207 -4.71,-8.5 -5.54,-23.74 -10.81,-32.88 -8.83,-15.34 -9.93,-1.04 -13.91,-30.45l-34.26 -100.13c-4.19,-19.28 -3.48,-102.6 -4.91,-109.02 -3.13,-14.03 -0.1,-0.96 -4.72,-7.23l30.87 -3.82c2.79,-7.68 7.51,-2.46 -7.25,-10.77 -103.24,-8.68 -146.51,43.01 -171.35,123.66 -12.3,39.93 -23.47,87.1 -6.56,127 12.9,30.43 47.69,51.33 85.47,62.22 97.66,28.13 157.25,40.54 210.66,-33.36 20.1,-27.81 33.29,-69.96 35.87,-110.81 2.39,-38 -12.68,-96.42 -37.94,-108.38z"/>
  <path class="fil12" d="M4085.05 4001.08c17.8,-29.52 109.61,-12.66 148.17,-12.1 2.05,-72.86 -58.19,-103.8 -9.39,-190.11 34.42,-60.88 120.92,-92.63 131.93,-104.73l4.46 -10.69c-7.9,-3.8 -2.35,-1.11 -6.32,-4.77 -0.42,-0.38 -1.24,-1.19 -1.7,-1.62 -33.12,-30.77 -78.52,-43.51 -125.9,-37.13 -41.27,5.55 -88.34,37.55 -114.19,64.21 -33.09,34.12 -50.72,72.05 -44.06,133.89 3.95,36.76 -5.07,14.51 6.76,83.3 4.26,24.78 -5.69,57.16 10.24,79.75z"/>
  <path class="fil11" d="M6508.23 4469.14c15.93,-0.4 9.65,4.84 22.29,-0.45l2.13 -18.25c0.27,-0.85 0.62,-1.77 0.91,-2.64l1.79 -5.45c2.37,-7.01 1.24,-4.3 3.57,-10.03l24.02 -78.56c4.57,-14.06 6.5,-24.14 11.17,-38.84 12.66,1.98 13.68,6.57 26.48,10.45 14.28,4.33 24.73,3.67 39.47,3.26 18.05,50.75 86.6,84.55 135.87,61.45 5.07,4.78 1.8,-1.53 1.97,8.02l26.11 -21.18c20.97,-14.92 55.25,3.95 116.91,-23.88 30.87,-13.93 81.91,-64.91 93.05,-95.49 -0.89,0.56 -2.1,0.49 -2.52,1.89l-6.65 5.6c-1.91,1.79 -4.62,4.89 -6.83,7.01 -113.94,109.68 -188.36,-7.54 -101.71,-42.82 31.8,-12.95 48.17,-23.16 61.26,-52.02 24.98,-55.04 29.71,-126.43 5.73,-186.01 -11.26,-27.98 -25.02,-49.78 -38.45,-74.91 -8.8,-16.48 -41.2,-56.46 -52.51,-60.24 10.72,23.54 29.51,37.15 39.69,69.5 10.02,31.83 4.61,64.41 7,98.07 5.62,78.81 -13.39,113.9 -48.58,165.62 -16.97,24.95 -23.94,43.03 -48.89,60.67 -55.6,39.33 -100.12,50.33 -170.05,41.15 -83.41,-10.95 -56.39,-15.81 -82.2,-25.16 -3.49,60.5 -40.66,150.34 -61.03,203.24z"/>
  <path class="fil10" d="M5470.78 4452.15c38.49,0.96 44.51,15.89 93.77,4.46 26.05,-6.05 65.2,-0.78 78.19,-25 2.02,-13.82 -3.1,-7.25 -14.78,-17.58 34.36,-50.37 26.94,-59.07 30.3,-112.17 0.63,-9.99 42.34,-3.96 57.69,-4.55 -32.79,0.42 -53.33,-3.32 -87.37,-3.3 -29.79,0.02 -59.57,0.05 -89.36,-0.08 -17.58,-0.07 -25.41,2.74 -40.71,3.53l-86.22 -0.98c-17.49,-1.06 -29.66,0.61 -47.52,0.67 6.04,18.71 5.49,32.1 16.78,51.92 9.26,16.24 20.8,23.03 29.06,36.04 12.21,19.24 11.8,24.79 26.94,37.94 5.69,4.93 12.67,12.27 18.36,16.2 8.47,5.85 12.97,2.49 14.87,12.9z"/>
  <path class="fil13" d="M5443.33 4177.33c47.66,-1.99 134.67,-41.71 178.83,-67.5 14.35,-8.39 41.29,-19.93 40.34,-45.59 -1.74,-46.74 -168.83,-106.24 -225.08,-101.89 -27.74,49.95 -13.14,163.79 5.91,214.98z"/>
  <path class="fil12" d="M4383.79 4123.29c-33.62,12.68 -31.13,44.13 -31.05,81.6 0.21,89.33 19.44,244.04 15.4,313.12 16.08,-1.17 15.41,-1.57 27,-6.34l27.19 -9.05 -7.7 -1.5c13.16,-7.64 23.88,-19.76 33.36,-29.19 36.9,-36.69 35.24,-100.98 35.95,-150.52 0.82,-57.2 -19.73,-60.24 -28.76,-95.4 -15.6,-60.7 -28.86,-62.38 -30.42,-95.79 26.33,-1.77 41.23,29 54.1,-4.19 -6.07,-0.88 -14.23,1.52 -27.07,-7.56l-48.8 -0.59c-37.63,61.48 3.2,250.91 4.81,341.02 0.29,16.06 2.93,15.09 -7.46,21.23 -6.69,-5.75 -17.09,-152.99 -19.01,-173.94 -5.46,-59.79 -12.9,-126.37 2.46,-182.9z"/>
  <path class="fil7" d="M3236.4 3993.72c-15.42,-30.86 -67.87,-51.27 -116.15,-60.33 14.76,8.31 10.04,3.09 7.25,10.77l-30.87 3.82c4.62,6.27 1.59,-6.8 4.72,7.23 1.43,6.42 0.72,89.74 4.91,109.02l34.26 100.13c3.98,29.41 5.08,15.11 13.91,30.45 5.27,9.14 6.1,24.38 10.81,32.88 80.08,-4.25 118.17,-141.09 85.28,-207 -5.13,-10.29 -17.87,-17.28 -14.12,-26.97z"/>
  <path class="fil14" d="M4355.76 3694.14c-11.01,12.1 -97.51,43.85 -131.93,104.73 -48.8,86.31 11.44,117.25 9.39,190.11 -38.56,-0.56 -130.37,-17.42 -148.17,12.1l0.26 25.29c7.1,135.77 13.81,82.29 114.58,79.78 -13.59,56.39 -0.8,104.46 2.75,161.25l4.02 150.12c0.27,16.06 -3.62,9.98 4.98,21.7 20.58,-3.01 9.1,-6.34 5.33,-73.55 -1.78,-31.76 0.34,-63.88 -1.34,-95.75 -2.37,-44.71 -12.8,-92.83 -7.38,-136.81 2.12,-17.24 8.41,-28.58 7.49,-45.23 -23.25,1.81 -88.25,24.9 -106.25,13.62 -11.14,-8.97 -12.56,-86.56 -11.5,-95.47 32.86,-21.89 105.2,1.35 146,-5.44 20.59,-72.29 -88.48,-141.65 29.07,-238.39 41.84,-34.44 163.81,-110.76 231.65,-59.45l1.26 100.54c-70.59,3.37 -136.68,0.96 -146.17,73.45 -22.08,168.71 71.55,72.89 100.85,90.05 17.77,22.43 7.74,37.03 10.6,70.23 2.35,27.25 12.46,44.09 15.44,68.43 -29.19,4.48 -32.07,1.25 -58.96,-0.74 -34.95,-2.59 -30.53,7.65 -43.94,18.58 -15.36,56.53 -7.92,123.11 -2.46,182.9 1.92,20.95 12.32,168.19 19.01,173.94 10.39,-6.14 7.75,-5.17 7.46,-21.23 -1.61,-90.11 -42.44,-279.54 -4.81,-341.02l48.8 0.59c14.67,3.28 35.65,1.58 49.3,-4.8 0.17,-9.23 -10.83,-46.17 -13.7,-60.77 -5.32,-27.16 -0.36,-47.07 -4.14,-70.88 -9.93,-62.61 -75.92,-6.92 -105.06,-18.82 -7.49,-10.24 -6.02,-16.74 -6.33,-32.49 -0.25,-12.65 -0.64,-25.31 -0.06,-37.96 4.62,-100.47 93.19,-61.98 148.62,-78.77 2.65,-7.55 -3.02,-56.68 -2.59,-71.94 0.89,-31.35 6.45,-49.41 -22.27,-61.1 -50.9,-20.72 -96.69,2 -139.8,13.2z"/>
  <path class="fil10" d="M6530.52 4468.69c20.79,0.36 51.65,-2.26 69.05,-12.06 24.22,-13.65 35.54,-1.1 70.75,-3.83 34.57,-2.69 36.41,-15.4 59,-23.82 20.18,-7.51 42.45,-12.97 48.58,-30.88 -0.17,-9.55 3.1,-3.24 -1.97,-8.02 -49.27,23.1 -117.82,-10.7 -135.87,-61.45 -14.74,0.41 -25.19,1.07 -39.47,-3.26 -12.8,-3.88 -13.82,-8.47 -26.48,-10.45 -4.67,14.7 -6.6,24.78 -11.17,38.84l-24.02 78.56c-2.33,5.73 -1.2,3.02 -3.57,10.03l-1.79 5.45c-0.29,0.87 -0.64,1.79 -0.91,2.64l-2.13 18.25z"/>
  <g id="_3131406109376">
   <path class="fil15" d="M488.59 3944.61l-149.94 -87.43c-17.15,-9.32 -33.45,-25.83 -55.93,-25.58 -23.93,42.12 7.37,93.97 23.29,134.08 25.05,63.14 42.42,65.57 65.09,89.92 6.87,7.37 1.66,4.9 8.87,9.84 -30.17,-2.83 -85.32,-74.03 -121.66,-57.15 -21.4,20.05 25.85,114.72 112.55,151.61 20.65,8.79 59.09,19.44 65.46,25.53 -17.6,12.18 -25.1,9.82 -48.33,4.41 -8.24,-1.92 -14.72,-4.86 -22.54,-6.48 -39.63,-8.2 -18.5,30.25 -8.64,44.75 24.6,36.19 82.01,46.32 123.66,52.38 -26.15,42.47 -149.27,19.88 -210.54,31.06 -2.62,20.83 6.6,19.03 21.39,28.89 10.28,6.85 17.56,12.78 30.7,19.58 21.87,11.32 41.76,21.85 66.4,31.12 53.68,20.19 116.81,23.16 172.68,13.84 69.22,-20.22 114.09,-38.21 175.21,-70.37 26.3,-13.84 53.22,-32 73.41,-49.19 10.06,-8.57 20.04,-19.48 29.37,-31.91 4.44,-5.91 7.95,-11.22 11.7,-17.07l14.89 -19.37c2.08,-12.77 23,-46.32 31.29,-64.51 77.81,-170.71 52.93,-225.99 57.11,-237.39l51.11 -46.94c4.09,-3.94 5.8,-4.98 9.4,-8.52l9.41 -10.96 -64.37 7.6c3.17,-6.46 36.51,-55.58 40.15,-58.46 -22.31,4.79 -80.24,33.44 -96.66,25.71 -11.25,-5.29 -20.57,-19.18 -39.18,-26.32 -17.37,-6.66 -35.86,-7.06 -53.37,-12.13 -62.08,-5.56 -138.69,17.51 -175.04,48.73 -46.37,39.8 -54.73,81.64 -59.29,159.87 -29.6,-13.97 -58.77,-36.07 -87.65,-49.14z"/>
   <path class="fil2" d="M293.18 3855.25c-0.47,28.48 3.25,46.94 14.43,68.87 33.94,66.62 11.95,54.61 68.62,111.57 8.54,8.59 13.39,14.61 21.24,22.1 46.7,44.51 -17.48,37.42 -59.91,5.92 -19.9,-14.78 -34.32,-31.19 -63.27,-36.91 10.11,63.6 71.69,102.61 122.97,124.84 22.62,9.8 45.08,7.89 58.71,23.34 5.22,48.4 -54.47,35.19 -89.89,28 9.94,22.86 31.5,38.8 57.93,47.91 29.77,10.25 61.56,8.43 86.97,17.3 1.25,29.22 -45.46,48.43 -75.18,55.37 -21.22,4.95 -98.16,5.64 -123.67,5.53 11.86,11.75 30.68,19.82 45.47,27.63 15.66,8.27 30.98,15.47 50.68,21.77 115.69,37.03 242.45,-11.81 337.84,-70.19 62.33,-38.15 96.81,-82.72 130.79,-157.5 39.34,-86.59 104.37,-246.98 6.8,-323.24 -70.67,-55.25 -309.69,-23.93 -287.33,165.78 6.06,51.37 -11.14,29.33 -119.31,-32.82l-183.89 -105.27z"/>
   <path class="fil16" d="M666.61 3647.57l5.64 4.38c20.7,13.6 33.86,10.29 60.49,56.43 12.48,21.61 15.91,19.06 27.95,33.11 12.11,14.14 9.33,27.6 17.45,36.77 5.06,0 13.61,-0.51 18.27,0.54l7.16 2.52c1.12,0.4 2.71,2.81 3.51,1.82 0.82,-1.01 2.41,1.22 3.49,2.01 17.51,5.07 36,5.47 53.37,12.13 18.61,7.14 27.93,21.03 39.18,26.32 16.42,7.73 74.35,-20.92 96.66,-25.71 -3.64,2.88 -36.98,52 -40.15,58.46l64.37 -7.6 -9.41 10.96c-3.6,3.54 -5.31,4.58 -9.4,8.52l-51.11 46.94c-4.18,11.4 20.7,66.68 -57.11,237.39 -8.29,18.19 -29.21,51.74 -31.29,64.51 14.93,45.78 11.39,21.73 9.91,62.03 -1.63,44.56 19,73.04 -22.71,135.76 -4.88,7.34 -14.02,16.1 -19.12,20.77 -15.77,14.45 -24.12,26.15 -45.45,38.19 -54.17,30.58 -100.26,42.31 -159.93,12.54 -13.69,-6.83 -16.14,-4.01 -26.11,-13.53 -11.48,-10.98 -7.91,-14.92 -30.36,-10.74 -19.53,-2.06 -44.9,2.06 -67.19,-0.43 -22.12,-2.46 -33.37,-8.12 -58.16,-8.24 -53.19,-0.27 -78.83,-3.86 -124.82,-16.22 -38.7,-10.4 -28.76,-11.1 -51.05,-21.32 -20.17,-9.25 -29.09,-8.66 -49.12,-20.15 -82.81,-47.52 -17.94,-68.3 -93.75,-96.88l20.86 17.82c27.46,15.99 -5.16,10.64 39.53,69.03 11.73,15.33 29.77,39.23 47.71,50.19 21.31,13.02 39.26,18.11 67.72,26.61 19.71,5.89 42.12,18.97 68.96,27.76 60.69,19.88 107.39,16.73 174.77,15.51 112.23,-2.04 98.02,5.49 183.96,10.36 124.23,7.05 193.27,-20.9 256.37,-25.42 45.03,-3.22 50.78,-3 78.56,-20.77 11.3,-7.23 27.69,-5.53 51.87,-42.2 11.97,-18.16 22.82,-44.95 23.43,-72.89 1.8,-81.41 -57.63,-111.66 -66.84,-126.18 21.45,-32.28 78.11,-44.59 81.15,-129.86 2.2,-61.7 -34.34,-114.63 -79.51,-132.16 5.69,-43.89 21.41,-53.34 5.71,-107.48 -8.83,-30.44 -28.81,-54.95 -54.07,-70.74 -1.4,-51.47 0.29,-53.74 -31.8,-102.43 -8.96,-13.58 -24.27,-23.58 -35.65,-32.12 -6.29,-4.72 -14.87,-7.54 -21.81,-10.09 -7.19,-2.65 -4.2,-1.64 -13.39,-4.6 -111.6,-35.87 -186.15,16.19 -258.74,8.38z"/>
   <path class="fil17" d="M127.82 4298.85c75.81,28.58 10.94,49.36 93.75,96.88 20.03,11.49 28.95,10.9 49.12,20.15 22.29,10.22 12.35,10.92 51.05,21.32 45.99,12.36 71.63,15.95 124.82,16.22 24.79,0.12 36.04,5.78 58.16,8.24 22.29,2.49 47.66,-1.63 67.19,0.43 4.95,-15.82 2.82,-29.64 -5.37,-43.26 -9.38,-15.61 -12.28,-0.92 -5.44,-13.85 -55.87,9.32 -119,6.35 -172.68,-13.84 -24.64,-9.27 -44.53,-19.8 -66.4,-31.12 -13.14,-6.8 -20.42,-12.73 -30.7,-19.58 -14.79,-9.86 -24.01,-8.06 -21.39,-28.89 61.27,-11.18 184.39,11.41 210.54,-31.06 -41.65,-6.06 -99.06,-16.19 -123.66,-52.38 -9.86,-14.5 -30.99,-52.95 8.64,-44.75 7.82,1.62 14.3,4.56 22.54,6.48 23.23,5.41 30.73,7.77 48.33,-4.41 -6.37,-6.09 -44.81,-16.74 -65.46,-25.53 -86.7,-36.89 -133.95,-131.56 -112.55,-151.61 36.34,-16.88 91.49,54.32 121.66,57.15 -7.21,-4.94 -2,-2.47 -8.87,-9.84 -22.67,-24.35 -40.04,-26.78 -65.09,-89.92 -15.92,-40.11 -47.22,-91.96 -23.29,-134.08 22.48,-0.25 38.78,16.26 55.93,25.58l149.94 87.43c21.91,-37.6 -11.69,-34.89 -17.28,-90.51 -3.67,-36.52 0.31,-82.34 3.09,-119.1 13.17,-12.69 10.03,0.17 12.82,-22.78 2.31,-19.03 21.89,-29.58 -8.91,-35.37 -4.57,-0.86 -13.04,-1.23 -18.26,-2.45 -15.97,-3.74 -21.62,-4.1 -40.19,-6.97 -24.97,-6.06 -112.69,30.26 -136.33,41.96 -51.16,25.32 -73.5,39.86 -96.3,87.27 -10.46,21.76 -28.06,33.74 -41.71,48.47 -31.87,34.4 -50.18,85.7 -43.8,137.16 4.54,36.62 14.29,44.07 25.11,69.81 -9.36,17.63 -30.49,31.17 -41.78,49.3 -42.74,68.64 -9.04,170.72 42.77,197.45z"/>
   <path class="fil18" d="M419.86 3667.43c18.57,2.87 24.22,3.23 40.19,6.97 5.22,1.22 13.69,1.59 18.26,2.45 30.8,5.79 11.22,16.34 8.91,35.37 -2.79,22.95 0.35,10.09 -12.82,22.78 -2.78,36.76 -6.76,82.58 -3.09,119.1 5.59,55.62 39.19,52.91 17.28,90.51 28.88,13.07 58.05,35.17 87.65,49.14 4.56,-78.23 12.92,-120.07 59.29,-159.87 36.35,-31.22 112.96,-54.29 175.04,-48.73 -1.08,-0.79 -2.67,-3.02 -3.49,-2.01 -0.8,0.99 -2.39,-1.42 -3.51,-1.82l-7.16 -2.52c-4.66,-1.05 -13.21,-0.54 -18.27,-0.54 -8.12,-9.17 -5.34,-22.63 -17.45,-36.77 -12.04,-14.05 -15.47,-11.5 -27.95,-33.11 -26.63,-46.14 -39.79,-42.83 -60.49,-56.43l-5.64 -4.38c-50.66,-41.87 -167.5,18.24 -177.06,19.61 -10.82,1.54 -22.33,-1.89 -33.72,-3.25 -12.43,-1.49 -25.92,-3.15 -35.97,3.5z"/>
   <path class="fil18" d="M561.1 4404.98c-6.84,12.93 -3.94,-1.76 5.44,13.85 8.19,13.62 10.32,27.44 5.37,43.26 22.45,-4.18 18.88,-0.24 30.36,10.74 9.97,9.52 12.42,6.7 26.11,13.53 59.67,29.77 105.76,18.04 159.93,-12.54 21.33,-12.04 29.68,-23.74 45.45,-38.19 5.1,-4.67 14.24,-13.43 19.12,-20.77 41.71,-62.72 21.08,-91.2 22.71,-135.76 1.48,-40.3 5.02,-16.25 -9.91,-62.03l-14.89 19.37c-3.75,5.85 -7.26,11.16 -11.7,17.07 -9.33,12.43 -19.31,23.34 -29.37,31.91 -20.19,17.19 -47.11,35.35 -73.41,49.19 -61.12,32.16 -105.99,50.15 -175.21,70.37z"/>
  </g>
 </g>
</svg>
