<?xml version="1.0" encoding="UTF-8"?>
<!DOCTYPE svg PUBLIC "-//W3C//DTD SVG 1.1//EN" "http://www.w3.org/Graphics/SVG/1.1/DTD/svg11.dtd">
<!-- Creator: CorelDRAW Standard 2021 (64-Bit Versión de evaluación) -->
<svg xmlns="http://www.w3.org/2000/svg" xml:space="preserve" width="90mm" height="50mm" version="1.1" style="shape-rendering:geometricPrecision; text-rendering:geometricPrecision; image-rendering:optimizeQuality; fill-rule:evenodd; clip-rule:evenodd"
viewBox="0 0 9000 5000"
 xmlns:xlink="http://www.w3.org/1999/xlink"
 xmlns:xodm="http://www.corel.com/coreldraw/odm/2003">
 <defs>
  <style type="text/css">
   <![CDATA[
    .fil2 {fill:#030303}
    .fil6 {fill:#231D1F}
    .fil0 {fill:#6A4339}
    .fil3 {fill:#89654F}
    .fil1 {fill:#D5B9AE}
    .fil5 {fill:#F17A59}
    .fil4 {fill:#020202;fill-rule:nonzero}
   ]]>
  </style>
 </defs>
 <g id="Capa_x0020_1">
  <metadata id="CorelCorpID_0Corel-Layer"/>
  <g id="_1177579776176">
   <path class="fil0" d="M7785.32 818.53l227.65 100.81c-14.33,-81.88 -34.34,-182.36 -90.06,-225.43 -88.12,-68.11 -132.9,33.83 -137.59,124.62z"/>
   <path class="fil0" d="M6390.21 978.58c56.51,-20.75 24.7,-10.06 70.11,-51.72 23.19,-21.27 50.47,-37.6 76.64,-52.12 -78.88,-166.42 -276.45,-157.09 -146.75,103.84z"/>
   <path class="fil1" d="M6822.77 2990.11c-363.89,92.21 -240.24,889.43 250.03,715.95 428.72,-151.69 106.09,-806.19 -250.03,-715.95z"/>
   <path class="fil2" d="M8386.34 3763.1c9.29,-46.99 36.74,-75.85 50.52,-146.13 12.29,-62.7 14.13,-112.36 16.86,-175.81 225.6,20.95 228.93,393.71 -67.38,321.94zm-1755.68 -1090.78c58.34,7.53 107.88,34.06 175.67,47.51 194.39,38.56 403.39,53.7 607.63,38.2 413.25,-31.36 430.58,-94.53 700.38,-184.3 11.63,12.04 11.14,11.26 23.42,27.42 0.87,1.14 18.66,27.3 18.99,27.84 67.31,107.38 142.02,314.06 173.59,433.8 43.8,166.1 75.54,459.5 4.93,614.85 -77.74,171.05 -377.1,152.65 -399.01,-43.98 -11.39,-102.25 70.55,-388 -90.23,-568.44l-55.38 38.38c77.56,190.19 96.17,205.96 67.88,443.27 -26.57,222.87 98.32,266.28 207.36,328.99l-51 24.5c-0.63,115.11 0.12,222.59 -9.24,337.82 -11.24,138.34 -6.57,180.31 -127.47,214.63 -130.96,37.16 -479.31,72.54 -605.31,23.48 -1.68,-78.91 37.03,-77.18 50.22,-120.87 14.98,-49.64 -57.98,-371.9 -66.68,-437.96l-266.15 -44.21 -14.31 58.49c45.89,48.74 145.73,27.01 195.02,65.95 32.23,28.93 75,289.93 71.94,319.34 -4.25,40.78 -0.09,21.68 -15.91,46.9 -62.49,99.6 -501.85,51.27 -583.07,17.03 4.78,-73.16 35.37,-86.55 80.25,-122.73 -2.74,-81.09 -45.35,-382.65 -66.5,-457.57 -18.32,-64.91 -64.6,-90.31 -102,-151.04 -222.1,-360.69 -54.04,-671.54 74.98,-977.3zm-233.01 832.3c-79.92,22.8 -172.29,56.26 -250.02,4.79 -49.42,-32.72 -100.35,-131.59 -70.3,-218.2 29.28,-84.38 248.78,-254.68 328.87,-291.43 -26.66,241.9 -35.31,252.17 -8.55,504.84zm1283.47 -2761.02c15.72,-252.67 220.84,-424.97 411.04,49.93 94.64,236.29 12.42,167.21 156.11,318.33 228.52,240.35 270.39,805.73 116.23,1096.15 -319.49,601.87 -1594.3,603.97 -2056.9,176.45 -269.4,-248.97 -308.14,-712.24 -149,-1075.64 66.96,-152.89 153.76,-227.96 177.77,-285.76 -36.23,-60.72 -89.77,-121.08 -104.16,-212.11 -15.09,-95.53 21.44,-183.11 82.56,-207.68 140,-56.28 333.56,127.82 389.57,174.92 170.01,-52.68 271.65,-89.89 474.79,-97.59 280.55,-10.62 371.18,54.22 501.99,63zm-66.66 -98.41c-275.41,-38.75 -481.76,-79.55 -778.03,5.78 -147.29,42.43 -96.78,49.55 -203.17,-31.8 -113.81,-87.01 -298.23,-166.04 -415.99,-38.61 -130.9,141.63 -53.86,297.73 17.84,442.5 -64.28,131.06 -126.22,141.33 -202.55,397.21 -49.95,167.47 -64.61,372.07 -29.69,557.6 68.63,364.7 274.85,521.21 551.17,660.61 -125.35,366.23 -318.58,311.75 -488.88,520.44 -83.49,102.31 -110.61,246.81 -10.24,368.48 100.64,121.99 210.59,100.4 367.41,53.07l159.08 251.37c22.41,76.74 48.57,293.5 57.13,381.87 -96.32,122.56 -132.64,238.05 78.57,271.08 142.28,22.26 317.32,4.27 462.18,-0.65 76.54,88.41 65.01,98.53 311.68,92.92 121.32,-2.75 256.98,-12.61 370.31,-37.6 134.62,-29.68 186.68,-50.35 211.4,-189.85 65.2,-368.08 -46.86,-353.43 70.62,-419.24l178.9 -99.2c90.25,-5.77 183,80.14 298.07,-31.55 64.5,-62.62 96.24,-175.66 56.08,-281.29 -49.39,-129.92 -90.9,-114.46 -217.7,-165.36 -103.7,-680.32 -177.99,-567.02 -268.75,-835.32 434.09,-280.61 406.52,-977.45 219.36,-1314.24 -54.03,-97.22 -161.28,-198.12 -184.85,-261.7 -55.64,-150.16 -142.59,-527.13 -377.15,-519.91 -134.66,4.15 -212.48,105.86 -232.8,223.39z"/>
   <path class="fil3" d="M6390.21 978.58c-129.7,-260.93 67.87,-270.26 146.75,-103.84 -26.17,14.52 -53.45,30.85 -76.64,52.12 -45.41,41.66 -13.6,30.97 -70.11,51.72zm1395.11 -160.05c4.69,-90.79 49.47,-192.73 137.59,-124.62 55.72,43.07 75.73,143.55 90.06,225.43l-227.65 -100.81zm-104.2 -74.93c-130.81,-8.78 -221.44,-73.62 -501.99,-63 -203.14,7.7 -304.78,44.91 -474.79,97.59 -56.01,-47.1 -249.57,-231.2 -389.57,-174.92 -61.12,24.57 -97.65,112.15 -82.56,207.68 14.39,91.03 67.93,151.39 104.16,212.11 -24.01,57.8 -110.81,132.87 -177.77,285.76 -159.14,363.4 -120.4,826.67 149,1075.64 462.6,427.52 1737.41,425.42 2056.9,-176.45 154.16,-290.42 112.29,-855.8 -116.23,-1096.15 -143.69,-151.12 -61.47,-82.04 -156.11,-318.33 -190.2,-474.9 -395.32,-302.6 -411.04,-49.93z"/>
   <path class="fil3" d="M6822.77 2990.11c356.12,-90.24 678.75,564.26 250.03,715.95 -490.27,173.48 -613.92,-623.74 -250.03,-715.95zm-192.11 -317.79c-129.02,305.76 -297.08,616.61 -74.98,977.3 37.4,60.73 83.68,86.13 102,151.04 21.15,74.92 63.76,376.48 66.5,457.57 -44.88,36.18 -75.47,49.57 -80.25,122.73 81.22,34.24 520.58,82.57 583.07,-17.03 15.82,-25.22 11.66,-6.12 15.91,-46.9 3.06,-29.41 -39.71,-290.41 -71.94,-319.34 -49.29,-38.94 -149.13,-17.21 -195.02,-65.95l14.31 -58.49 266.15 44.21c8.7,66.06 81.66,388.32 66.68,437.96 -13.19,43.69 -51.9,41.96 -50.22,120.87 126,49.06 474.35,13.68 605.31,-23.48 120.9,-34.32 116.23,-76.29 127.47,-214.63 9.36,-115.23 8.61,-222.71 9.24,-337.82l51 -24.5c-109.04,-62.71 -233.93,-106.12 -207.36,-328.99 28.29,-237.31 9.68,-253.08 -67.88,-443.27l55.38 -38.38c160.78,180.44 78.84,466.19 90.23,568.44 21.91,196.63 321.27,215.03 399.01,43.98 70.61,-155.35 38.87,-448.75 -4.93,-614.85 -31.57,-119.74 -106.28,-326.42 -173.59,-433.8 -0.33,-0.54 -18.12,-26.7 -18.99,-27.84 -12.28,-16.16 -11.79,-15.38 -23.42,-27.42 -269.8,89.77 -287.13,152.94 -700.38,184.3 -204.24,15.5 -413.24,0.36 -607.63,-38.2 -67.79,-13.45 -117.33,-39.98 -175.67,-47.51z"/>
   <path class="fil3" d="M6397.65 3504.62c-26.76,-252.67 -18.11,-262.94 8.55,-504.84 -80.09,36.75 -299.59,207.05 -328.87,291.43 -30.05,86.61 20.88,185.48 70.3,218.2 77.73,51.47 170.1,18.01 250.02,-4.79z"/>
   <path class="fil3" d="M8386.34 3763.1c296.31,71.77 292.98,-300.99 67.38,-321.94 -2.73,63.45 -4.57,113.11 -16.86,175.81 -13.78,70.28 -41.23,99.14 -50.52,146.13z"/>
   <path class="fil2" d="M5772.78 2202.87c-9.27,47.08 -22.95,46.19 -56.41,64.4 -57,31.03 -189.46,123.46 -208.87,80.96 -19.87,-43.51 115.2,-98.18 184.94,-137.76 39.44,-22.39 34.37,-33.62 80.34,-7.6z"/>
   <path class="fil2" d="M5653.87 1942.01c-3.74,56.9 -73.27,38.56 -135.27,40.1 -53.57,1.33 -119.4,12.47 -154.76,-21.76 23.68,-58.92 73.25,-36.56 215.82,-39.98 39.17,-0.94 50.74,-3.08 74.21,21.64z"/>
   <path class="fil2" d="M5435.08 1561.29c26.84,-21.92 93.37,14.33 154.48,35.34 37.51,12.89 143.88,33 103.99,79.19 -16.78,19.43 -322.93,-61.88 -258.47,-114.53z"/>
   <path class="fil4" d="M750.66 3178.18c-7.68,0 -17.28,-1.15 -28.81,-3.46 -11.52,-2.3 -22.28,-6.14 -32.26,-11.52 -9.99,-5.38 -18.82,-12.29 -26.51,-20.74 -7.68,-8.45 -11.52,-17.29 -11.52,-26.5 0,-12.3 7.3,-27.28 21.9,-44.95 14.59,-17.66 38.79,-31.11 72.59,-40.33 46.09,-10.75 94.49,-17.28 145.19,-19.59 50.71,-2.3 101.41,-2.3 152.11,0 50.7,2.31 100.64,5.38 149.8,9.22 49.17,3.84 95.26,6.53 138.28,8.07 24.59,0 40.72,4.61 48.4,13.83 7.68,9.22 11.52,19.97 11.52,32.26 0,27.66 -12.29,49.17 -36.87,64.53 -24.58,15.37 -49.17,22.28 -73.75,20.74 -26.12,-1.53 -53.39,-2.3 -81.81,-2.3 -28.43,0 -58,0 -88.73,0 0,43.02 1.92,91.03 5.76,144.04 3.84,53.01 8.06,106.4 12.67,160.17 4.61,53.78 9.61,105.25 14.98,154.41 5.38,49.17 10.37,90.65 14.98,124.46 3.08,12.29 0.39,23.43 -8.06,33.41 -8.45,9.99 -21.13,14.98 -38.03,14.98 -32.26,0 -56.08,-19.97 -71.44,-59.92 -29.2,-75.28 -49.94,-161.32 -62.23,-258.12 -82.97,50.7 -164.4,82.2 -244.29,94.49 -79.9,12.29 -151.72,9.61 -215.49,-8.06 -63.76,-17.67 -115.23,-48.4 -154.41,-92.19 -39.18,-43.79 -58.77,-97.18 -58.77,-160.17 0,-59.92 10.76,-124.45 32.27,-193.59 21.51,-69.14 52.24,-135.98 92.18,-200.51 39.95,-64.53 87.2,-123.3 141.74,-176.3 54.54,-53.01 115.62,-93.34 183.22,-121 23.05,-6.14 44.94,-7.3 65.68,-3.46 20.74,3.85 39.95,11.53 57.62,23.05 17.67,11.52 33.8,25.35 48.4,41.49 14.59,16.13 27.27,31.88 38.02,47.24 7.69,10.76 12.3,22.28 13.83,34.57 1.54,12.29 -3.07,23.81 -13.83,34.57 -23.04,16.9 -43.02,15.36 -59.92,-4.61 -26.12,-32.26 -48.01,-51.85 -65.68,-58.77 -17.67,-6.91 -41.87,-0.38 -72.6,19.59 -30.72,21.51 -64.53,54.16 -101.4,97.95 -36.88,43.79 -71.06,92.19 -102.56,145.19 -31.49,53.01 -56.46,107.55 -74.9,163.63 -18.44,56.08 -24.58,107.94 -18.44,155.57 4.61,41.48 27.66,71.06 69.14,88.73 41.49,17.66 88.73,25.73 141.74,24.19 53.01,-1.53 106.01,-11.52 159.02,-29.96 53.01,-18.43 94.11,-43.02 123.3,-73.75 -1.54,-26.11 -3.07,-52.62 -4.61,-79.51 -1.54,-26.88 -2.3,-53.39 -2.3,-79.51 -33.81,3.08 -67.61,5.77 -101.41,8.07 -33.8,2.3 -68.37,5.76 -103.71,10.37zm1447.32 -186.68c-27.65,15.37 -56.46,31.5 -86.42,48.4 -29.96,16.9 -59.92,36.49 -89.88,58.77 -29.97,22.28 -58.39,48.4 -85.28,78.36 -26.88,29.96 -51.08,65.68 -72.59,107.17 -30.73,58.38 -51.47,117.92 -62.23,178.61 -10.75,60.68 -17.67,120.22 -20.74,178.61 0,27.65 -6.53,55.69 -19.59,84.12 -13.06,28.42 -31.11,42.63 -54.16,42.63 -29.19,0 -52.62,-14.98 -70.29,-44.94 -17.67,-29.96 -29.58,-58.77 -35.72,-86.42 -26.12,-109.09 -47.63,-217.02 -64.53,-323.81 -16.9,-106.78 -31.5,-213.18 -43.79,-319.19 0,-21.51 6.53,-35.34 19.59,-41.48 13.06,-6.15 28.04,-8.45 44.94,-6.92 18.44,1.54 36.1,6.15 53.01,13.83 16.9,7.68 26.88,19.97 29.96,36.87 6.14,56.85 13.82,116.39 23.04,178.61 9.22,62.23 18.44,115.62 27.66,160.18 6.14,-52.24 23.04,-102.94 50.7,-152.11 27.66,-49.17 61.84,-93.72 102.56,-133.67 40.71,-39.95 86.81,-73.75 138.28,-101.4 51.47,-27.66 104.09,-46.1 157.86,-55.32 23.05,-3.07 42.26,-3.07 57.62,0 15.37,3.08 26.12,8.45 32.27,16.14 6.14,7.68 7.29,19.97 3.45,36.87 -3.84,16.9 -15.75,32.27 -35.72,46.09zm714.44 -57.61c6.15,43.02 11.14,88.73 14.98,137.12 3.84,48.4 6.92,97.18 9.22,146.35 2.31,49.17 3.46,96.8 3.46,142.89 0,46.09 -0.77,87.58 -2.31,124.45 49.17,33.8 78.75,63.76 88.73,89.88 9.99,26.12 11.14,49.17 3.46,69.14 -9.22,27.66 -25.73,41.87 -49.55,42.64 -23.81,0.76 -51.09,-7.3 -81.81,-24.2 -21.51,15.36 -46.1,31.88 -73.75,49.55 -27.66,17.67 -56.85,34.57 -87.58,50.7 -30.73,16.13 -61.46,30.34 -92.19,42.64 -30.72,12.29 -59.15,20.74 -85.27,25.35 -49.16,7.68 -93.34,-1.54 -132.52,-27.66 -39.17,-26.12 -65.68,-65.3 -79.51,-117.54 -9.21,-35.33 -11.52,-71.82 -6.91,-109.47 4.61,-37.64 16.13,-73.75 34.57,-108.32 18.44,-34.57 43.4,-65.68 74.9,-93.33 31.5,-27.66 68.76,-49.17 111.78,-64.53 10.75,-4.61 25.73,-8.45 44.94,-11.53 19.2,-3.07 39.18,-4.22 59.92,-3.45 20.74,0.76 41.87,4.99 63.38,12.67 21.51,7.68 41.48,20.74 59.92,39.18 0,-26.12 -0.39,-54.93 -1.16,-86.42 -0.76,-31.5 -1.92,-63.38 -3.45,-95.65 -1.54,-32.26 -3.46,-62.61 -5.76,-91.03 -2.31,-28.42 -5,-52.62 -8.07,-72.6 -3.07,-23.04 -11.91,-37.26 -26.5,-42.63 -14.6,-5.38 -32.65,-4.23 -54.16,3.45 -36.88,12.3 -79.9,36.11 -129.06,71.45 -49.17,35.34 -96.03,72.98 -140.59,112.93 -13.83,13.82 -29.57,19.97 -47.24,18.43 -17.67,-1.53 -32.65,-8.45 -44.94,-20.74 -12.29,-12.29 -19.21,-26.5 -20.75,-42.63 -1.53,-16.14 4.61,-33.42 18.44,-51.86 26.12,-27.66 55.31,-56.08 87.58,-85.27 32.26,-29.19 66.07,-55.7 101.4,-79.51 35.34,-23.82 71.45,-43.41 108.32,-58.77 36.88,-15.36 73.75,-23.82 110.63,-25.35 53.77,-1.54 95.25,10.37 124.45,35.72 29.19,25.35 46.86,58 53,97.95zm-267.34 495.5c-19.97,4.61 -41.1,14.21 -63.37,28.81 -22.28,14.59 -42.26,32.26 -59.93,53 -17.66,20.74 -30.72,43.79 -39.17,69.14 -8.45,25.35 -8.84,50.32 -1.16,74.9 3.08,9.22 9.61,16.14 19.59,20.75 9.99,4.6 21.13,5.37 33.42,2.3 36.87,-7.68 78.74,-22.66 125.6,-44.94 46.87,-22.28 84.12,-46.48 111.78,-72.6 0,-9.22 -4.61,-21.12 -13.83,-35.72 -9.22,-14.6 -19.97,-29.19 -32.26,-43.79 -12.29,-14.59 -25.74,-27.27 -40.33,-38.02 -14.6,-10.76 -28.04,-15.37 -40.34,-13.83zm1048.62 -235.08c-10.75,6.15 -23.81,8.07 -39.18,5.77 -15.36,-2.31 -28.42,-11.91 -39.18,-28.81 -24.58,-32.27 -54.54,-48.4 -89.88,-48.4 -32.26,0 -61.07,7.3 -86.42,21.89 -25.35,14.6 -47.63,33.81 -66.84,57.62 -19.2,23.81 -34.95,50.32 -47.24,79.51 -12.3,29.19 -20.75,58.38 -25.35,87.58 -7.69,53.77 1.53,99.1 27.65,135.97 26.12,36.88 66.84,55.31 122.15,55.31 44.55,1.54 94.87,-7.3 150.95,-26.5 56.08,-19.21 108.7,-44.17 157.87,-74.9 21.51,-9.22 41.48,-14.6 59.92,-16.13 18.44,-1.54 33.8,7.68 46.09,27.65 15.37,24.58 11.53,49.55 -11.52,74.9 -23.05,25.35 -53.77,48.02 -92.18,67.99 -38.42,21.51 -78.75,40.33 -121,56.46 -42.25,16.14 -84.89,27.66 -127.91,34.57 -43.02,6.92 -85.65,7.3 -127.91,1.16 -42.25,-6.15 -81.81,-20.75 -118.68,-43.79 -58.39,-39.95 -93.73,-96.8 -106.02,-170.55 -12.29,-73.75 -6.91,-149.8 16.13,-228.16 9.22,-29.19 22.28,-58.77 39.18,-88.73 16.9,-29.96 37.26,-57.23 61.08,-81.81 23.81,-24.58 50.31,-45.71 79.51,-63.38 29.19,-17.67 61.45,-29.58 96.79,-35.72 56.85,-9.22 111.39,-3.46 163.63,17.28 52.24,20.75 86.81,58.77 103.71,114.08 3.07,12.3 3.07,24.97 0,38.03 -3.07,13.06 -11.52,23.43 -25.35,31.11zm691.39 -348c-3.07,15.37 -13.83,23.82 -32.26,25.35 -18.44,1.54 -33.8,2.31 -46.1,2.31 -38.41,1.53 -77.97,5.37 -118.69,11.52 -40.71,6.15 -83.35,15.36 -127.9,27.66 -18.44,6.14 -38.41,3.84 -59.92,-6.92 -21.51,-10.75 -34.57,-32.26 -39.18,-64.53 0,-12.29 4.61,-22.28 13.82,-29.96 9.22,-7.68 19.98,-14.59 32.27,-20.74 19.97,-9.22 43.79,-17.28 71.44,-24.2 27.66,-6.91 55.7,-11.91 84.12,-14.98 28.43,-3.07 55.7,-4.22 81.82,-3.46 26.12,0.77 47.63,3.46 64.53,8.07 24.58,7.68 44.17,19.21 58.77,34.57 14.59,15.36 20.35,33.8 17.28,55.31zm-53.01 767.45c10.76,24.58 16.52,51.09 17.29,79.51 0.77,28.42 -7.3,48.01 -24.2,58.77 -21.51,13.83 -44.56,13.06 -69.14,-2.31 -24.58,-15.36 -43.02,-36.1 -55.31,-62.22 -16.9,-32.27 -29.96,-71.83 -39.18,-118.69 -9.22,-46.86 -16.13,-93.34 -20.74,-139.43 -4.61,-46.1 -7.3,-89.12 -8.07,-129.06 -0.77,-39.95 -1.15,-69.91 -1.15,-89.88 1.54,-21.51 7.68,-41.49 18.44,-59.92 10.75,-18.44 24.58,-29.2 41.48,-32.27 27.66,1.54 49.94,14.21 66.84,38.03 16.9,23.81 24.58,53.39 23.04,88.73 0,27.65 0.77,58.38 2.31,92.18 1.53,33.8 4.61,67.61 9.22,101.41 4.61,33.8 9.98,66.45 16.13,97.94 6.14,31.5 13.83,57.24 23.04,77.21zm799.72 -679.87c6.15,43.02 11.14,88.73 14.98,137.12 3.84,48.4 6.92,97.18 9.22,146.35 2.31,49.17 3.46,96.8 3.46,142.89 0,46.09 -0.77,87.58 -2.31,124.45 49.17,33.8 78.75,63.76 88.73,89.88 9.99,26.12 11.14,49.17 3.46,69.14 -9.22,27.66 -25.73,41.87 -49.55,42.64 -23.81,0.76 -51.09,-7.3 -81.81,-24.2 -21.51,15.36 -46.1,31.88 -73.75,49.55 -27.66,17.67 -56.85,34.57 -87.58,50.7 -30.73,16.13 -61.46,30.34 -92.19,42.64 -30.72,12.29 -59.15,20.74 -85.27,25.35 -49.16,7.68 -93.34,-1.54 -132.52,-27.66 -39.17,-26.12 -65.68,-65.3 -79.51,-117.54 -9.21,-35.33 -11.52,-71.82 -6.91,-109.47 4.61,-37.64 16.13,-73.75 34.57,-108.32 18.44,-34.57 43.4,-65.68 74.9,-93.33 31.5,-27.66 68.76,-49.17 111.78,-64.53 10.75,-4.61 25.73,-8.45 44.94,-11.53 19.2,-3.07 39.18,-4.22 59.92,-3.45 20.74,0.76 41.87,4.99 63.38,12.67 21.51,7.68 41.48,20.74 59.92,39.18 0,-26.12 -0.39,-54.93 -1.16,-86.42 -0.76,-31.5 -1.92,-63.38 -3.45,-95.65 -1.54,-32.26 -3.46,-62.61 -5.76,-91.03 -2.31,-28.42 -5,-52.62 -8.07,-72.6 -3.07,-23.04 -11.91,-37.26 -26.5,-42.63 -14.6,-5.38 -32.65,-4.23 -54.16,3.45 -36.88,12.3 -79.9,36.11 -129.06,71.45 -49.17,35.34 -96.03,72.98 -140.59,112.93 -13.83,13.82 -29.57,19.97 -47.24,18.43 -17.67,-1.53 -32.65,-8.45 -44.94,-20.74 -12.29,-12.29 -19.21,-26.5 -20.75,-42.63 -1.53,-16.14 4.61,-33.42 18.44,-51.86 26.12,-27.66 55.31,-56.08 87.58,-85.27 32.26,-29.19 66.07,-55.7 101.4,-79.51 35.34,-23.82 71.45,-43.41 108.32,-58.77 36.88,-15.36 73.75,-23.82 110.63,-25.35 53.77,-1.54 95.25,10.37 124.45,35.72 29.19,25.35 46.86,58 53,97.95zm-267.34 495.5c-19.97,4.61 -41.1,14.21 -63.37,28.81 -22.28,14.59 -42.26,32.26 -59.93,53 -17.66,20.74 -30.72,43.79 -39.17,69.14 -8.45,25.35 -8.84,50.32 -1.16,74.9 3.08,9.22 9.61,16.14 19.59,20.75 9.99,4.6 21.13,5.37 33.42,2.3 36.87,-7.68 78.74,-22.66 125.6,-44.94 46.87,-22.28 84.12,-46.48 111.78,-72.6 0,-9.22 -4.61,-21.12 -13.83,-35.72 -9.22,-14.6 -19.97,-29.19 -32.26,-43.79 -12.29,-14.59 -25.74,-27.27 -40.33,-38.02 -14.6,-10.76 -28.04,-15.37 -40.34,-13.83zm949.52 -331.87c-3.07,-16.9 -6.15,-33.03 -9.22,-48.4 -3.07,-15.36 -10.75,-25.35 -23.04,-29.96 -26.12,-7.68 -53.78,-8.45 -82.97,-2.3 -29.19,6.14 -56.08,15.74 -80.67,28.8 -24.58,13.06 -45.32,27.66 -62.22,43.79 -16.9,16.13 -26.12,30.35 -27.66,42.64 -4.61,23.04 1.54,45.32 18.44,66.83 16.9,21.51 41.48,43.02 73.75,64.53 53.77,32.27 109.85,65.3 168.24,99.1 58.38,33.8 107.55,68.37 147.5,103.71 39.94,35.34 67.22,74.14 81.81,116.39 14.6,42.25 11.14,90.26 -10.37,144.04 -16.9,41.48 -48.4,75.28 -94.49,101.4 -46.09,26.12 -96.8,46.48 -152.11,61.08 -55.31,14.59 -110.62,24.58 -165.93,29.96 -55.31,5.37 -102.17,8.06 -140.59,8.06 -9.21,0 -20.35,-3.45 -33.41,-10.37 -13.06,-6.91 -25.35,-14.98 -36.88,-24.2 -11.52,-9.22 -21.51,-18.82 -29.96,-28.81 -8.45,-9.98 -12.67,-18.82 -12.67,-26.5 0,-27.65 12.29,-46.86 36.87,-57.62 24.58,-10.75 49.94,-16.13 76.05,-16.13 36.88,0 76.44,-1.92 118.69,-5.76 42.26,-3.84 82.59,-9.99 121,-18.44 38.41,-8.45 72.98,-19.59 103.71,-33.41 30.73,-13.83 52.24,-31.5 64.53,-53.01 10.75,-18.44 4.22,-40.33 -19.59,-65.68 -23.82,-25.35 -55.31,-51.86 -94.49,-79.51 -39.18,-27.66 -81.43,-54.55 -126.76,-80.67 -45.32,-26.12 -84.12,-49.93 -116.38,-71.44 -32.27,-21.51 -59.92,-47.25 -82.97,-77.21 -23.05,-29.96 -37.64,-67.22 -43.79,-111.77 -1.54,-39.95 6.92,-78.36 25.35,-115.23 18.44,-36.88 42.64,-69.53 72.6,-97.95 29.96,-28.43 64.15,-51.09 102.56,-67.99 38.41,-16.9 76.82,-25.35 115.23,-25.35 66.07,3.07 120.61,21.13 163.63,54.16 43.02,33.03 68.37,81.81 76.05,146.34 0,21.51 -3.45,39.18 -10.37,53.01 -6.91,13.83 -18.82,22.28 -35.72,25.35 -21.51,3.07 -38.8,0.39 -51.86,-8.06 -13.06,-8.45 -20.35,-19.59 -21.89,-33.42z"/>
   <path class="fil5" d="M7550.21 1829.7c-223.68,22.21 -424.21,237.34 -304.3,383.96 98.03,119.87 406.81,48.28 508.49,-135.53 86.65,-156.63 -43.07,-264.43 -204.19,-248.43z"/>
   <path class="fil5" d="M6216.98 1891.1c-119.76,30.91 -2.65,281.36 117.6,250.82 57.12,-14.52 61.88,-97.6 24.85,-161.51 -21.71,-37.44 -74.86,-106.74 -142.45,-89.31z"/>
   <path class="fil1" d="M6764.55 1894.06l6.12 79.76c68.87,6.45 105.57,-38.12 120.56,-41.31 58.1,-12.38 45.22,90.02 -110.71,96.35 -61.69,2.51 -132.53,-19.03 -162.67,-52.15 -17.45,-19.15 -3.67,-61.78 30.05,-44.24 20.41,10.62 17.2,24.76 73.62,37.33l-5.83 -80.54c-37.92,-21.06 -100.7,-33.86 -80.76,-98.89 13.29,-43.34 72.84,-66.52 127.46,-63.05 108.05,6.88 167.99,119.62 21.19,160.03 -15.44,4.25 -6.32,-0.02 -19.03,6.71zm-8.35 -215.46c-78.15,10.78 -121.67,42.56 -156.84,85.74 -82.1,100.79 -56.45,271.96 65.2,331.37 101.14,49.39 240.25,57.31 329.22,-17.37 57.64,-48.39 94.46,-144.22 72.1,-227.85 -32.48,-121.57 -153.7,-193.41 -309.68,-171.89z"/>
   <path class="fil6" d="M6764.55 1894.06c12.71,-6.73 3.59,-2.46 19.03,-6.71 146.8,-40.41 86.86,-153.15 -21.19,-160.03 -54.62,-3.47 -114.17,19.71 -127.46,63.05 -19.94,65.03 42.84,77.83 80.76,98.89l5.83 80.54c-56.42,-12.57 -53.21,-26.71 -73.62,-37.33 -33.72,-17.54 -47.5,25.09 -30.05,44.24 30.14,33.12 100.98,54.66 162.67,52.15 155.93,-6.33 168.81,-108.73 110.71,-96.35 -14.99,3.19 -51.69,47.76 -120.56,41.31l-6.12 -79.76z"/>
   <path class="fil6" d="M7142.72 1735.06c-79.05,24.36 -76.54,228.9 52.34,203.41 99.37,-19.67 45.46,-233.56 -52.34,-203.41z"/>
   <path class="fil6" d="M6399.76 1742.49c-34.11,15.46 -53.44,53.85 -53.51,104.35 -0.09,52.4 27.43,80.25 82.8,68.43 81.53,-17.4 63.22,-214.71 -29.29,-172.78z"/>
  </g>
 </g>
</svg>
