<?xml version="1.0" encoding="UTF-8"?>
<!DOCTYPE svg PUBLIC "-//W3C//DTD SVG 1.1//EN" "http://www.w3.org/Graphics/SVG/1.1/DTD/svg11.dtd">
<!-- Creator: CorelDRAW Standard 2021 (64-Bit Versión de evaluación) -->
<svg xmlns="http://www.w3.org/2000/svg" xml:space="preserve" width="110mm" height="50mm" version="1.1" style="shape-rendering:geometricPrecision; text-rendering:geometricPrecision; image-rendering:optimizeQuality; fill-rule:evenodd; clip-rule:evenodd"
viewBox="0 0 11000 5000"
 xmlns:xlink="http://www.w3.org/1999/xlink"
 xmlns:xodm="http://www.corel.com/coreldraw/odm/2003">
 <defs>
  <style type="text/css">
   <![CDATA[
    .str0 {stroke:#09AD60;stroke-width:7.62;stroke-miterlimit:22.9256}
    .str1 {stroke:#FD4951;stroke-width:7.62;stroke-miterlimit:22.9256}
    .fil6 {fill:black}
    .fil2 {fill:#09AD60}
    .fil0 {fill:#7740D1}
    .fil1 {fill:#FD4951}
    .fil3 {fill:#FDC60E}
    .fil4 {fill:#FDFDFD}
    .fil5 {fill:#FEFEFE}
   ]]>
  </style>
 </defs>
 <g id="Capa_x0020_1">
  <metadata id="CorelCorpID_0Corel-Layer"/>
  <g id="_1177744187424">
   <polygon class="fil0" points="6372.67,1053.33 6378.41,1053.33 6373.63,1046.63 "/>
   <polygon class="fil1" points="5069.4,1053.33 5069.4,1047.59 5062.71,1052.37 "/>
   <path class="fil2" d="M4185.25 1608.09c45.3,-0.22 60.83,-79.02 26.39,-86.4 -27.8,-5.95 -59.12,58.28 -26.39,86.4z"/>
   <path class="fil1" d="M5270.01 2528.7c0.04,29.57 6.26,38.67 34.79,38.43 22.86,-22.25 28.71,-78.28 -22.67,-71.28 -7.25,9.24 -12.14,15.9 -12.12,32.85z"/>
   <path class="fil2 str0" d="M9215.35 2223.69c-37.9,17.49 -6.04,59.74 31.29,44.19 33.27,-13.86 7.78,-62.22 -31.29,-44.19z"/>
   <path class="fil2 str0" d="M9239.83 3295.95c33.37,21.89 61.63,3.36 45.55,-34.46 -11.47,-26.96 -54.81,-28.24 -45.55,34.46z"/>
   <path class="fil2 str0" d="M9467.44 2993.98c-24.32,24.12 -0.24,69.75 30.51,48.78 26.12,-17.81 2.11,-81.14 -30.51,-48.78z"/>
   <path class="fil0" d="M2068.84 3033.89c4.54,14.5 0.58,22.7 21.97,26.79 46.68,8.91 68.19,-55.21 -7.43,-48.56l-14.54 21.77z"/>
   <path class="fil0" d="M1593.67 3015.04c19.24,-57.23 -39.42,-46.45 -49.87,-32.96 -23.92,30.89 13.58,49.46 49.87,32.96z"/>
   <path class="fil3" d="M3632.5 3109.7c31.57,7.65 34.84,6.97 52.61,-12.66 0.95,-36.52 -12.6,-35.9 -48.53,-31.41 -13.05,15.88 -12.88,26.7 -4.08,44.07z"/>
   <path class="fil3" d="M3672.37 2762.22c1.26,-26.42 -4.76,-38.01 -32.11,-36.77 -52.15,2.37 -23.67,83.33 32.11,36.77z"/>
   <path class="fil0" d="M7268.31 1775.72l29.89 -2.63c7.31,-19.29 7.69,-22.49 2.04,-46.39 -44.94,-30.12 -62.51,17.3 -31.93,49.02z"/>
   <path class="fil0" d="M2690.52 3071.71c11.92,-17.07 11,-26.87 2.59,-43.88 -31.33,-6.45 -61.25,-2.91 -49.46,37.96 20.64,11.17 19.95,10.02 46.87,5.92z"/>
   <path class="fil2 str0" d="M9231.05 1214.96l44.7 4.61 9.44 -14.59 -2.76 -27.91c-35.12,-16.29 -68.02,-4.59 -51.38,37.89z"/>
   <path class="fil1" d="M5196.62 2442.09l16.22 9.71c34.6,-4.17 35.98,-31.26 20.64,-57.75 -37.59,-10.1 -44.22,14.35 -36.86,48.04z"/>
   <path class="fil0" d="M6132.85 2082.23c6.49,-23.4 -1.45,-62.03 1.66,-94.71 4.36,-45.64 11.24,-50.83 21.5,-88.95 10.71,-39.8 5.48,-63.29 5.9,-105.05 0.39,-37.95 18.67,-47.44 10.77,-80.89 -16.91,-71.59 -20.76,-328.63 6.39,-393.75 18.12,-43.47 85.93,-87.23 131.76,-54.83 55.06,38.93 29.87,102.26 40.61,172.82 16.34,107.35 -8.67,186.57 16.96,303.78 9.01,41.19 -4.04,421.66 0.58,523.52 5,109.95 35.5,268.58 14.52,396.58 -13.65,83.24 -13.42,105.56 -10.19,195.18 3.58,99.63 11.78,287.03 -111.29,314.21 -96.98,21.41 -126.37,-50.06 -124.05,-84.58 22.48,-12.36 38.13,-6.26 61.58,-22 5.59,-57.11 -41.52,-30.86 -79.22,-30.57 -46.37,-76.44 21.64,-120.91 -86.5,-176.86 -0.57,-33.9 3.24,-66.37 -7.3,-95.62 -12.83,-35.61 -24.01,-41.18 -18.48,-88.59 4.13,-35.4 70.47,-145.68 -15.38,-137.9 -12.39,25.12 -5.38,33.22 -16.15,57.91 -9.59,22 -16.79,21.46 -19.22,51.28 -5.22,64.03 -0.5,78.59 18.48,125.91 -51.33,12.62 -97.02,35.55 -78.35,114.31 19.25,10.53 36.48,17.6 45.17,-16.09 9.72,-37.7 -4.62,-41.77 40.05,-45.95 0,64.18 -27.44,85.62 -28.01,160.64 -0.42,54.53 11.92,121.54 -10.73,162.5 -54.31,98.22 -186.58,95.93 -180.39,-53.82l47.32 -26.15c5.83,-62.79 13.42,-108.84 -47.85,-80.98 -3.11,-42.58 0.29,-85.39 -1.27,-127.81 -1.22,-33.19 -10.23,-72.39 -13.45,-111.49 -6.45,-78.37 -10.73,-677.58 0.62,-720.76 10.45,-5.24 -0.43,-1.31 12.97,-2.33l32.73 -1.72c8.76,-29.29 10.59,-90.71 -0.95,-117.16 -21.96,-8.31 -20.89,-7.08 -44.36,3.2l0.56 -149.57c29.33,23.54 14.87,48.85 58.97,25.34 5.86,-26.05 -4.95,-42.24 -8.96,-73.81 -4.88,-38.42 -22.98,-33.07 -49.81,-21.26 -2.31,-50.07 -8.25,-199.8 8.32,-236.95 21.66,-48.56 64.81,-94.59 138.15,-96.91 84.25,125.93 56.19,116.22 76.14,227.27 4.31,23.97 12.56,51.68 18.71,79.15 7.77,34.75 2.19,60.61 10.9,92.01 27.7,99.89 16.97,89.39 31.68,168.95 6.88,37.26 29.11,26.05 52.21,46.38 -3.71,45.67 -8.41,87.27 11.45,122.09l35.25 -5.97zm-32.28 -171c-28.98,-13.96 -14.65,-16.42 -28.35,-85.88 -6.69,-33.9 -15.88,-61.31 -22.87,-92.32 -7.44,-32.96 -3.99,-61.88 -13.42,-101.72 -8.55,-36.11 -13.77,-59.35 -17.46,-99.89 -6,-66.07 -24.47,-122.75 -55.86,-171.22 -39.2,-60.52 -59.57,-81.13 -148.1,-38.34 -49.1,23.74 -86.62,63.73 -105.87,118.37 -18.46,52.39 -10.52,152.74 -10.52,215.88 0,152.8 1.92,306.69 -2.12,459.26 -4.35,163.92 -11.67,503.29 5.17,665.98 14.4,139.13 -4.85,336.43 36.74,416.63 26.08,50.29 84.64,84.16 161.95,51.99 44.72,-18.61 93.45,-70.95 105.36,-125.19 13.2,-60.13 -10.26,-136.72 10.34,-218.43 51.2,25.64 25.32,31.07 35.28,86.75 6.95,38.83 31.15,62.63 35.15,87.19 10.23,62.72 -1.89,38.18 32.54,87.03 21.42,30.38 20,47.58 66.51,53.85 296.15,39.93 230.81,-333.86 234.89,-474.61 1.58,-54.55 24.38,-86.27 20.03,-217.57 -1.16,-34.92 -1.88,-77.92 -4.17,-115.17 -2.12,-34.38 -11.13,-68.38 -13.96,-103.95 -9.75,-122.76 -3.7,-351.94 -0.45,-481.54 2.15,-85.74 -14.24,-143.49 -14.37,-229.63 -0.07,-39.34 5.23,-82.97 1.52,-120.78 -3.85,-39.35 -11.9,-66.68 -12.81,-108.66 -2.18,-100.64 -9.44,-121.21 -78.35,-163.24 -34.99,-21.34 -131.61,12.79 -164.36,58.31 -43.15,60 -39.53,117.81 -39.53,202.33 0,53.84 -6.29,195.98 3.76,238.34 9.9,41.77 -6.33,48.79 -4.92,100.33 1.51,55.38 -0.85,59.55 -11.75,105.9z"/>
   <path class="fil1" d="M4983.06 2003.24c13.45,-208.89 70.55,-436.53 108.94,-645.07 8.03,-43.6 18.6,-65.48 43.36,-83.84 54.73,-40.57 55.85,-40.1 117.77,-40.1 33.86,0 64.4,40.07 69.95,52.81 12.58,28.83 11.21,55.89 26.97,88.28 22.03,45.25 30.25,139.84 34.85,196.33 -51.99,-31.98 -61.55,23.5 -40.04,61.35l30.1 -0.49c9.25,-14.15 8.54,-21.13 15.26,-36.92 5.23,82.82 23.49,161.9 31.58,247.95 22.46,238.88 53.64,521.24 67.82,749.94 -21.76,-10.91 -14.13,-11.48 -40.61,-5.68 -8.43,14.62 -18.04,55.57 -7.83,80.59 7.13,17.44 26.68,23.39 43.67,6.33l11.17 -15.9c8.8,112.23 18.81,229.16 29.51,342.71 6.29,66.71 3.14,106.52 -33.94,144.3 -27.47,27.98 -82.45,55.34 -139.58,41.41 -26.62,-45.71 -60.28,-270.12 -60.28,-337.05l2.53 -100.62c21.44,12.1 18.57,16.75 45.39,9.19 10.32,-27.75 12.18,-64.32 -0.74,-92.1 -10.44,-3.12 -24.93,-8.55 -35.84,3.56 -5.02,5.58 -4.42,8.29 -7.18,15.18l-6.71 16.84c-16.19,-133.41 -154.46,-123.46 -175.56,-36.97 -41.63,170.7 -20.47,350.14 -47.09,467.85 -32.11,141.97 -107.74,112.48 -187.11,33.38 -43.8,-43.66 -50.83,-37.96 -42.45,-120.04l20.15 10.08c15.6,6.26 11.38,8.43 34.55,-7.22l-4.16 -45.15c-27.1,-7.9 -24.12,-7.31 -45.11,6.9l77.19 -557.13c17.25,8.59 21.91,11.82 42.79,7.05 15.85,-27.63 9.57,-46.09 3.39,-76.93 -15.49,-7.6 -16.14,-9.21 -35.35,-6.1l48.82 -360.68c7.93,13.77 12.26,42.35 42.44,29.4 20.29,-8.7 13.73,-35.27 8.85,-53.18 -22.12,-8.83 -33.12,-1.77 -47.47,9.74zm257.75 841.21c0,65.25 19.31,171.37 29.9,234.57 16.2,96.69 23.27,162.67 108.72,162.67 106.26,0 199.37,-74.96 199.37,-196.32 0,-85.28 -48.13,-567.33 -59.33,-692.2 -13.93,-155.22 -70.46,-885.1 -127.88,-1007.92 -13,-27.8 -10.77,-44.99 -18.68,-72.67 -3.2,-11.18 -58.95,-86.5 -102.08,-88.62 -26.56,-1.3 -71.74,-3.83 -94.53,4.74 -30.39,11.42 -88.52,60.29 -106.64,83.03 -24.57,30.81 -32.31,101.7 -41.14,148.45 -19.92,105.38 -39.32,211.81 -63.96,314.79l-180.12 1330.25c-5.09,35.42 -11.72,46.4 3.81,71.64 77.98,126.69 298.25,268.92 335.67,-41.74 15.93,-132.19 3.29,-188.55 28.46,-351.59 3.84,-24.89 3.87,-59.06 16.24,-75.89 17.09,-23.25 42.51,-16.25 57.05,3.23 29.73,39.82 15.14,119.84 15.14,173.58z"/>
   <path class="fil0" d="M7127.61 1667.59c0,-98.91 -38.25,-178.52 -13.81,-343.12 22.55,-151.84 63.97,-168.3 176.99,-196.83 50.34,-12.71 97.96,-26.87 149.91,-39.36 23.8,-5.73 56.59,-8.53 77.7,-14.91 29.46,-8.92 21.4,-20.06 65.59,-23.72 150.08,-12.43 213.1,-43.72 220.4,136.01 -26.78,-9.87 -12.45,-16.72 -48.46,-12.09 -12.57,23.49 -10.6,28.68 8.78,49.07 25.99,27.33 13.84,11.18 46.97,25.87l0.18 97.6c-3.83,23.54 -57.24,8.69 -37.77,97.47 5.54,25.29 2.1,11.84 14.02,19.84 14.66,9.85 18.64,-6.92 18.64,26.21 0,277.37 5.07,262.73 -134.45,329.48 -91.32,43.7 -65.79,26.63 -71.46,158.73 -2.91,67.77 -2.16,150.29 -8.64,220.12 -20.03,-5.46 -18.77,-3.33 -35.22,4.49 -16.74,66.43 20.3,73.14 36.37,80.15 8.32,72.64 12.3,31.76 9.65,131.79 -26.74,-15.29 -56.8,-18.47 -47.76,32.7 0.3,1.69 6.85,22.71 7.04,23.07 15.78,29.98 34.67,7.65 41.24,29.84l-2.69 162.77c-25.88,-17.74 -9.71,-31.42 -50.81,-24.02 -15.62,22.58 -6.28,32.9 2.07,58.36 16.56,50.54 40.06,7.91 46.36,32.52l-3.77 133.39c-10.59,-18.17 -3.27,-25.35 -23.52,-30.88 -21.32,-5.83 -27.4,5.48 -30.45,19.3 -3.29,14.96 -14.17,70.41 -10.22,87.02 39.58,12.74 32.48,4.41 55.31,-30.24l5.58 -7c3.77,151.71 -2.49,161.75 -75.23,236.93 -20.56,21.25 -27.67,28.5 -69.86,28.5 -75.33,0 -84.16,-86.9 -74.58,-104.06 0.51,-0.92 35.83,-17.46 34.93,-57.88 -1.34,-59.82 -49.33,-18.52 -51.66,-17.03 -4.18,-49.68 -6.03,-69.14 0.92,-118.71 20.33,36.97 52.1,33 52.1,-18.78 0,-53.55 0.73,-72.5 -52.06,-45.73 -1.41,-38.14 -11.1,-79.1 -13.75,-120.61 -11.98,-187.52 -1.98,-406.82 -0.26,-597.18 1.04,-114.9 15.51,-227.25 -111.38,-243.36 -67.88,-8.62 -60.67,-1.98 -73.61,-24.2 -26.22,-45.03 -29.33,-98.25 -29.33,-151.52zm527.51 218.15c57.67,-44.41 185.36,-49.79 193.97,-183.44 7.4,-114.88 13.65,-252.46 13.75,-367.46 0.09,-105.72 -0.37,-253.24 -60.48,-316.11 -38.53,-40.3 -90.11,-28.12 -155.07,-23.24 -29.27,2.2 -64.69,2.05 -91.52,6.41 -34.69,5.63 -32.46,20.55 -69.77,26.56 -49.65,8 -265.59,61.21 -302.97,77.04 -17.19,7.29 -43.43,29.95 -52.06,40.09 -79.35,93.17 -84.37,292.99 -67.71,400.72 21.82,141.01 7.02,69.53 15.47,178.76 3.14,40.58 26.39,115.72 47.4,142.06 28.87,36.22 118.67,13.56 147.29,47.97 35.3,42.46 15.6,282.43 15.11,355.27 -0.83,123.53 -5.85,259.97 1.87,379.53 3.16,48.99 17.17,133.08 15.2,169.47 -11.47,212.15 8.83,162.71 13.57,260.44 3,61.77 23.19,88.37 69.34,126.77 18.88,15.7 58.48,11.89 84.04,8.69 50.34,-6.29 84.48,-38.69 113.6,-75.87 43.6,-55.66 43.9,-47.99 51.07,-138.82 9.18,-116.14 12.23,-247.62 14.55,-368.54l2.89 -287.28c-0.83,-37.26 -12.26,-49.63 -13.13,-85.58l13.59 -373.44z"/>
   <path class="fil1" d="M6879.48 1574.02c-27.48,-18.18 -24.75,-19.63 -50.79,-2.85 -7.91,61.76 59.87,77.09 62.21,84.94 -0.59,34.51 -3.38,66.11 -6.52,98.43 -4.91,50.6 16.06,118.12 5.4,211.78 -4.84,42.61 -14.79,45.64 -6.44,93 5.58,31.68 9.73,63.47 10.08,97.33 0.45,44.68 -21.81,59.62 -21.51,85.2 0.29,25.44 19.49,36.96 19.14,91.6 -0.28,44.19 2.26,61.5 -8.15,102.53 -7.45,29.31 7.81,54.79 8.93,92.57 3.69,124.17 11.41,309.67 -1.29,426.36 -3.74,34.31 -13.79,61.35 -15.61,91.4 -2.8,46.31 9.33,58.29 -20.17,90.8 -91.25,100.55 -71.2,9.4 -107.14,-46.35 -75.1,-1.99 -17.76,89.07 -8.05,114.4 -40.26,20.34 -47.59,10.63 -82.07,-8.14 -7.37,-37.19 -10.74,-72.38 -21.01,-111.43 -11.99,-45.58 -19.25,-71.56 -1.89,-116.56 26.11,-67.68 27.04,-28.84 1.43,-95.3 -14.12,-36.63 -9.43,-91.24 -4.91,-132.91 33.85,-8.64 46.33,-20.06 49.59,-57.86 4.14,-48.13 -17.84,-61.54 -49.54,-33.18 -3,-28.2 1.19,-49.88 -6.54,-75.05 -12.19,-39.67 -8.71,-21.13 2.92,-62.66 11.55,24.15 7.45,32.66 43.67,27.48 32.36,-51.22 4.67,-145.36 -33.17,-102.33 -10.18,11.58 -6.17,39.27 -8.44,56.02 -30.63,-63.5 -17.61,-326.14 -14.97,-414.05 12.54,15.57 17.8,23.04 46.16,18.73 13.5,-30.83 26.66,-121.07 -42.9,-88.46 -0.2,-31.16 -8.99,-55.35 -9.19,-83.67 -0.29,-40.65 14.87,-28.72 3.52,-78.16 -25.72,-112.1 -20.09,-499.06 38.15,-591.13 15.28,-24.16 24.63,-32.42 52.79,-44.71 22.14,-9.67 51.99,-13.38 78.78,-15.95 102.61,-9.83 78.45,148.42 87.34,186.82 16.54,71.5 3.52,122.75 10.19,191.36zm-116.9 -425.4c-103.93,14.35 -154.62,48.09 -180.47,143 -62.04,227.78 -17.5,584.7 -20.77,598.5 -8.92,37.77 5.89,98.13 4.58,144.87l-5.05 321.53c0.75,36.54 16.08,133.53 13.06,153.74 -5.62,37.72 -14.41,25.17 -0.77,70.72 8.52,28.46 6.7,42.89 6.57,74.01 -0.24,55.19 -2.82,112.5 -2.71,166.64 0.14,67.98 33.49,72.8 13.31,125.36 -20.46,53.3 -20.08,81.95 -5.63,138.83 3.96,15.64 26.75,133.59 26.81,133.68 12.16,21.67 75.77,56.44 121.98,44.24 24.12,-6.37 37.95,-24.62 51.04,-29.87 28.88,-11.58 36.44,7.76 64.67,-16.09 90.62,-76.55 71.36,-113.32 75.69,-166.2 1.85,-22.61 8.47,-43.93 12.31,-68.06 19.94,-125.06 8.92,-350.76 3.39,-478.02 -1.38,-31.67 -12.59,-39.91 -7.01,-64.59 7.92,-35 10.98,-116.1 6.61,-152.97 -3.57,-30.09 -21.41,-32.39 -10.43,-62.92 19.08,-53.03 16.09,-86.57 7.51,-147.02 -9.95,-70.04 2.14,-78.24 5.34,-146.28 2.53,-53.57 -9.71,-107.23 -9.18,-155.05 0.58,-52.92 9.19,-103.06 6.96,-161.02 -1.2,-31.36 -9.54,-42.66 -11.79,-68.57 -1.97,-22.76 0.86,-56.02 0.56,-80.52 -0.71,-57.26 -17.61,-99.99 -16.67,-148.98 1.39,-73.24 9.08,-78.24 -33.47,-127.5 -38.82,-44.95 -34.23,-52.81 -116.44,-41.46z"/>
   <path class="fil4" d="M2191.32 3774.45c3.15,16.18 15.91,45.61 27.02,55.39 15.96,14.05 42.65,16.27 52.15,-1.1 5.15,-9.42 -13.03,-118.14 -11.26,-151.92 1.38,-26.44 8.67,-57.33 -12.03,-71.81 -69.54,-48.68 -62.95,133.16 -55.88,169.44z"/>
   <path class="fil0" d="M6096.69 2345.29c26.33,2.66 25.9,5.45 38.31,-10.62 0.75,40.51 -19,70.2 2.19,85.75 49.65,26.69 54.66,-86.99 46.9,-116.42 -40.05,-12.92 -23.97,2.25 -49.71,10.78 -8.77,-23.89 -10.12,-89.67 -49.11,-62.71 -31.44,21.74 2.89,79.45 11.42,93.22z"/>
   <path class="fil4" d="M2129.9 3485.78c4.32,52.15 46.64,31.18 87.08,25.4 23.68,-3.38 105,3.11 111.08,-19.74 14.93,-56.15 -164.38,-31.66 -198.16,-5.66z"/>
   <path class="fil0" d="M1399.33 2056.65c-6.37,22.93 -4.98,54.38 -5.17,81.93 -0.18,27.65 -3.91,57.41 28.8,52.72 37.1,-5.33 25.56,-103.57 14.87,-136.96l-38.5 2.31z"/>
   <path class="fil2" d="M4570.12 2253.15l0 68.89c0,43.32 19.01,42.7 46.99,30.66l4.71 -30.55 -0.8 -69c0,-41.93 -50.9,-46.05 -50.9,0z"/>
   <path class="fil0" d="M2429.14 2299.12c-45.06,0.76 -36.63,24.96 -36.44,63.01 0.11,24.12 -9.69,69.75 19.53,75.45 36.8,7.18 30.83,-36.67 30.72,-63.74 -0.17,-42.61 6.2,-49.8 -13.81,-74.72z"/>
   <path class="fil0" d="M2953.94 1928.55c53.67,15.01 43.23,-21.19 50.16,-64.16 6,-37.2 21.93,-72.97 -29.96,-69.03 -18.73,25.97 -30.26,94.25 -20.2,133.19z"/>
   <path class="fil2" d="M4570.12 2689.44l3.45 105.62c24.1,9.47 20.19,9.43 43.49,-0.39 27.76,-177.47 -46.94,-138.04 -46.94,-105.23z"/>
   <path class="fil2" d="M4054.49 2418.73c-37.27,-9.09 -41.19,8.2 -41.08,46.46 0.08,24.43 -8.89,73.48 11.56,86.43 55.84,35.34 37.74,-116.76 29.52,-132.89z"/>
   <path class="fil0" d="M5776.87 2775.56l0 63.14 3.63 34.33c30.77,10.67 46.01,0.57 46.01,-34.33l0 -63.14c0,-43.49 -49.64,-56.61 -49.64,0z"/>
   <path class="fil2" d="M4067.05 2019c-17.77,11.71 -12.65,3.28 -15.53,32.56 -2.51,25.57 -1.63,18.24 -7.98,43.85 -8.39,33.83 10.64,58.27 34.75,40.12 26.25,-19.76 41.54,-151.33 -11.24,-116.53z"/>
   <path class="fil0" d="M2437.67 2704.79c-13.56,35.16 2.43,98.33 19.72,123.17l30.54 -5.06c10.09,-28.1 0.85,-50.06 -3.74,-81.8 -5.19,-35.93 -8.7,-45.06 -46.52,-36.31z"/>
   <path class="fil0" d="M2410.02 2627.79c76.06,21.27 43.5,-108.41 38.28,-113.89 -23.03,-24.18 -42.23,2.35 -43.2,31.49 -0.89,26.98 -1.27,61.48 4.92,82.4z"/>
   <path class="fil3" d="M8618.01 1959.06c35.7,-2.09 36.5,-17.98 31.36,-52.95 -3.79,-25.86 -4.39,-66.05 -27.53,-72.01 -57.16,-14.74 -20.65,108.92 -3.83,124.96z"/>
   <path class="fil0" d="M1456.77 2752.59c0,-54.11 -48.73,-57.68 -50,5.27 -0.93,46.06 -12.07,100.48 47.08,75.88l2.92 -29.48 0 -51.67z"/>
   <path class="fil0" d="M1445.99 2495.73c-38.81,-5.35 -39.04,14.34 -39.19,49.86 -0.1,23.09 -7.58,62.36 14.99,72.34 34.73,15.35 35.34,-25.7 35.3,-48.71 -0.07,-36.14 4.98,-51.16 -11.1,-73.49z"/>
   <path class="fil2" d="M4361.76 2276.11c0,55.62 -7.7,91.36 43.55,81.84 11.15,-29.7 12.57,-93.22 -2.19,-120.6 -32.24,-6.83 -41.36,6.92 -41.36,38.76z"/>
   <path class="fil0" d="M1842.32 1525.25c-11.62,25.94 -9.82,80.82 -4.39,113.19 38.08,18.92 47.24,3.23 47.29,-45.27 0.04,-44.65 10.74,-79.29 -42.9,-67.92z"/>
   <path class="fil3" d="M8640.04 2293.33c0,40.89 -8.31,92.33 46.14,74.47 7.58,-27.31 4.81,-54.28 4.81,-85.95 0,-27.49 -9.86,-36.07 -38.02,-32.89 -7.66,11.39 -12.93,22.31 -12.93,44.37z"/>
   <path class="fil0" d="M2898.98 2940.55c10.93,-16.33 28.32,-143.08 -24.28,-120.79 -22.04,9.34 -14.47,51.22 -14.67,76.7 -0.3,38.96 -4.17,53.11 38.95,44.09z"/>
   <path class="fil0" d="M2423.76 2213.66c4.2,-14.22 3.19,-23.41 5.53,-40.18 2.75,-19.72 8.33,-23.91 10.57,-37.07 5.52,-32.45 -23.97,-42.36 -41.94,-23.21 -16.96,18.07 -49.36,119.4 25.84,100.46z"/>
   <path class="fil2" d="M4077.23 1857.04c0,41.47 -4.79,50.47 10.73,73.05 47.46,8.78 40.22,-16.38 40.22,-73.05 0,-33.55 -6.4,-39.88 -41.46,-34.97 -4.45,9.77 -9.49,18.62 -9.49,34.97z"/>
   <path class="fil0" d="M5931.84 1765.18c0,38.15 -3.97,47.48 8.86,73.93 44.85,6.27 41.95,-8.07 42.37,-50.89 0.38,-39.17 4.91,-64.51 -41.01,-56.74 -7.45,11.83 -10.22,13.14 -10.22,33.7z"/>
   <path class="fil0" d="M2949.23 2069.44c0,51.08 -5.91,74.99 41.75,67.88 13.99,-26.03 13.72,-81.26 0.61,-107.7 -36.93,-5.1 -42.36,2.71 -42.36,39.82z"/>
   <path class="fil2" d="M4554.32 2986.47c40.84,43.62 65.85,-77.31 44.8,-97.3 -25.63,-24.35 -39.21,5.86 -42.5,28.56 -4.01,27.62 -19.41,51.14 -2.3,68.74z"/>
   <path class="fil0" d="M5898.32 2565.32c-7.18,24.84 -16.91,108.4 20.07,106.12 37.09,-2.3 29.36,-82.64 17.52,-107.77 -12.09,-4.86 -23.34,-7.56 -37.59,1.65z"/>
   <path class="fil0" d="M1603.35 2242.59c7.88,-15.88 47.41,-129.21 -11.39,-109.62 -18.2,6.06 -21.79,42.65 -25.48,63.86 -6.53,37.5 -0.72,47.32 36.87,45.76z"/>
   <path class="fil1" d="M6826.12 2867.41c0,129.22 50.9,72.07 50.9,40.18 0,-30.55 3.44,-51.99 -10.37,-73.97 -33.49,-6.12 -40.53,1.72 -40.53,33.79z"/>
   <path class="fil1" d="M6631.75 2258.89c0,38.62 -4.44,50.07 11.19,73.97l29.26 0.89c12.92,-28.12 9.19,-37.63 9.19,-74.86 0,-52.07 -49.64,-51.25 -49.64,0z"/>
   <path class="fil0" d="M7136.06 1604.44c0,107.21 50.92,72.58 50.92,34.45 0,-37.05 3.99,-48.55 -5.83,-73.71 -30.49,-10.35 -45.09,3.11 -45.09,39.26z"/>
   <path class="fil0" d="M1770.43 1994.81c0,12.9 5.62,18.99 10.99,26.29 58.77,8.41 44.74,-84.9 24.26,-109.62 -43.96,-1.54 -35.25,20.04 -35.25,83.33z"/>
   <path class="fil3" d="M8064.07 2704.09c-9.04,27.38 -7.23,17.79 1.25,42.72 7.77,22.82 3.46,30.09 9.19,49.2 84.78,28.95 45.04,-120.86 -10.44,-91.92z"/>
   <path class="fil0" d="M2558.08 2953.52c-1.73,-59.33 -39.97,-118.32 -59.58,-67.37 -9.1,23.63 1.14,56.07 13.11,70.65 21.8,26.56 32.61,10.43 46.47,-3.28z"/>
   <path class="fil0" d="M5974.56 1929.16c-9.09,42.46 -1.82,108.9 53.82,88.82 6.33,-21.23 -3.26,-43.33 -8,-68.17 -5.27,-27.67 -25.25,-36.16 -45.82,-20.65z"/>
   <path class="fil2" d="M4278.49 2874.12c14.92,-52.13 -9.24,-99.71 -35.65,-96.95 -35.07,18.61 -19.37,26.21 -12.01,56.94 8.35,34.82 5.44,52.6 47.66,40.01z"/>
   <path class="fil2" d="M4537.45 2484.83c5.79,-18.82 -7.02,-106.81 -62.02,-90.43 -12.98,25.12 7.69,108.1 62.02,90.43z"/>
   <path class="fil0" d="M6026.05 2190.68c17.04,20.6 22.4,16.93 42.81,6.35 19.21,-110.95 -73.45,-116.23 -53.77,-52.1l10.96 45.75z"/>
   <path class="fil2" d="M4426.86 1724.8c18.16,-23.9 44.38,-83.79 -0.48,-101.1 -26.38,10.51 -23.57,20.95 -31.74,52.99 -9.41,36.95 -9.06,48.52 32.22,48.11z"/>
   <path class="fil1" d="M6829.81 2629.8c-24.44,140.16 68.84,109.92 45.93,15.15 -8.53,-35.3 -25.51,-17.91 -45.93,-15.15z"/>
   <path class="fil2" d="M4220.17 2730.76c18.09,-17.22 9.41,-28.28 1.06,-59.64 -5.62,-21.06 -17.88,-47.43 -40.61,-32.31 -23.48,15.61 -6.1,118.91 39.55,91.95z"/>
   <path class="fil2" d="M4134.89 2966.33c-6.49,25.86 0.02,41.54 6.73,66.12 7.27,26.65 16.26,31.73 43.58,24.7 12.28,-35.26 1.87,-118.05 -50.31,-90.82z"/>
   <path class="fil3" d="M8551.17 2919.08l7.82 34.82c39.33,8.88 36.61,-7.48 50.05,-61.07 3.51,-14.02 1.5,-21.53 -2.09,-32.07 -37.38,-10.53 -55.78,15.51 -55.78,58.32z"/>
   <path class="fil0" d="M7555.42 1964.39c-26.27,13.83 -27.14,116.29 19.45,96.16 26.12,-11.29 24.01,-119.03 -19.45,-96.16z"/>
   <path class="fil3" d="M8647.07 2469.96c-23.89,10.62 -20.23,28.44 -18.98,59.14 0.95,23.55 10.49,49.45 37,36.19 24.32,-12.17 22.73,-113.42 -18.02,-95.33z"/>
   <path class="fil2" d="M4570.12 2494.26l0 28.7 3.67 24.8c23.59,10.05 47.23,11.76 47.23,-24.8l0 -28.7c0,-55.07 -50.9,-53.53 -50.9,0z"/>
   <path class="fil0" d="M6152.88 2138.33c0,37.35 -6.65,86.4 45.7,57.09 7.15,-42.64 5.28,-41.63 -0.91,-86.26 -29.76,-8.69 -44.79,-7.96 -44.79,29.17z"/>
   <path class="fil0" d="M6295.15 2505.74c0,22.58 -1.54,39.06 7.02,58.94 47.02,12.35 42.63,-20.75 42.63,-58.94 0,-51.1 -49.65,-55.12 -49.65,0z"/>
   <path class="fil2 str0" d="M9261.23 2785.89c49.51,7.86 61.02,-43.4 45.68,-79.88 -35.82,-13.49 -35.28,-3.98 -45.04,26.32 -7.67,23.83 -17.87,29.34 -0.64,53.56z"/>
   <path class="fil2 str0" d="M9101.4 2886.57c5.85,-25.04 -14,-113.83 -50.57,-74.29 -19.76,21.37 -6.44,93.55 50.57,74.29z"/>
   <path class="fil2" d="M4181.4 1868.52c0.1,48.15 40.06,65.02 59.53,-14.38 13.19,-53.77 -59.63,-38.29 -59.53,14.38z"/>
   <path class="fil0" d="M1879.66 2264.63c16.56,-51.96 -35.91,-64.64 -52.29,-3.41 -6.64,24.83 -6.73,50.06 20.5,47.65 21.91,-1.93 25.36,-24.04 31.79,-44.24z"/>
   <path class="fil2 str0" d="M9553.79 1720.41c27.99,-88.07 -35.15,-106.7 -44.4,-57.26 -8.15,43.63 1.22,69.17 44.4,57.26z"/>
   <path class="fil2" d="M4459.86 2874.89l31.17 5.5c20.84,-29.91 30.63,-59.89 15.69,-86.02 -52.6,-11.66 -53.98,58.37 -46.86,80.52z"/>
   <path class="fil2" d="M4079.28 2823.81c-21.86,15.71 -14.2,24.45 -5.2,50.98 5.87,17.31 17.11,42.94 41.96,26.77 22,-14.32 0.71,-104.67 -36.76,-77.75z"/>
   <path class="fil3" d="M8121.8 2896.11c0,72.16 50.9,50.87 50.9,17.22 0,-30.15 2.65,-29.77 -6.61,-53.45 -31.75,-6.21 -44.29,-1.01 -44.29,36.23z"/>
   <path class="fil3" d="M3311.38 1788.15c0,-59.8 -47.56,-63.75 -50.33,-11.57 -4.23,80.03 50.33,64.32 50.33,11.57z"/>
   <path class="fil0" d="M7552.68 1805.37c0,37.29 1.09,66.55 46.58,38.37 2.91,-27.91 9.4,-74.38 -21.48,-76.45 -21.84,-1.47 -25.1,15.74 -25.1,38.08z"/>
   <path class="fil1" d="M5413.56 2425.37l0 11.48c0,59.52 48.37,53.27 48.37,5.74l0 -17.22c0,-52.12 -48.37,-48.6 -48.37,0z"/>
   <path class="fil0" d="M1814.17 2410.63c18.92,-44.92 -26.65,-71.1 -49.84,-17.59 -22.53,51.96 30.63,63.22 49.84,17.59z"/>
   <path class="fil2 str0" d="M9025.14 2126.09c26.79,-22.92 13.82,-45.3 -10.06,-73.1 -27.66,0.94 -41.82,4.68 -33.68,36.09 6.65,25.69 16.43,37.72 43.74,37.01z"/>
   <path class="fil2 str0" d="M9216.25 2820.6c-21.48,8.26 -7.39,-4.18 -20.39,16.82 -2.38,3.85 -8.39,19.71 -8.86,25.28 -1.89,22.41 12.11,37.75 35.74,25.85 26.13,-13.15 37.01,-84.67 -6.49,-67.95z"/>
   <path class="fil3" d="M8596.58 2744.8c45.08,11.45 58.29,-28.62 51.76,-63.85 -23.06,-9.64 -32.55,-10.87 -45.59,10.77 -11.52,19.11 -16.25,32.92 -6.17,53.08z"/>
   <path class="fil0" d="M1660.04 2333.71c22.11,4.13 31.74,-12.87 27.95,-33.25 -7.95,-42.74 -68.53,-59.96 -57.97,-7.13 2.37,11.84 14.75,37.53 30.02,40.38z"/>
   <path class="fil0" d="M2692.52 2547.18c-65.24,64.23 65.95,124 30.42,2.07l-30.42 -2.07z"/>
   <path class="fil1" d="M5024.87 2764.07c0,27.6 2.14,25.77 16.93,38.23 59.5,-6.65 34.5,-86.03 0.19,-76.31 -14.15,11.14 -17.12,12.21 -17.12,38.08z"/>
   <path class="fil2" d="M4311.02 2943.48c17.39,11.24 35.06,23.84 47.36,-0.58 12.16,-24.16 1.01,-46.44 -12.37,-59.04 -42.54,-3.03 -35.15,19.71 -34.99,59.62z"/>
   <path class="fil0" d="M1735.9 2406.86c-50.15,-13.34 -51.53,25.88 -37.34,64.8 50.08,18.53 51.91,-29.12 37.34,-64.8z"/>
   <path class="fil2" d="M4250.77 3066.93c-61.88,-12.75 -47.71,57.68 -33.05,67.32 38.65,25.39 46.67,-33.7 33.05,-67.32z"/>
   <path class="fil0" d="M7331.69 1765.18l1.87 26.36c53.16,36.09 54.12,-22.72 39.29,-61.5 -31.3,-2.7 -44.26,0.64 -41.16,35.14z"/>
   <path class="fil1" d="M4910.57 2647.75c18.94,12.27 41.92,20.61 47.14,-15.32 5.26,-36.13 -6.96,-52.82 -42.08,-44.42 -10.74,21 -9.58,33.48 -5.06,59.74z"/>
   <path class="fil1" d="M5050.26 1621.66c0,22.45 1.98,35.12 20.59,38.16 22.17,3.62 29.07,-10.66 29.07,-32.41 0,-62.51 -49.66,-51.55 -49.66,-5.75z"/>
   <path class="fil1" d="M4888.35 2859c12.02,6.34 22.69,6.51 36.82,2.06 12.4,-31.3 10.06,-46.74 -4.93,-67.85 -44.51,-3.85 -46.63,29.5 -31.89,65.79z"/>
   <path class="fil2" d="M4512.98 3080.93c-8.66,19.36 -7.7,43.27 -3.18,64.96 53.48,17.34 54.57,-32.42 37.53,-67.54l-34.35 2.58z"/>
   <path class="fil2" d="M4402.45 2425.37l0 5.74c0,45.35 48.34,45.65 48.34,0l0 -5.74c0,-49.45 -48.34,-50.97 -48.34,0z"/>
   <path class="fil0" d="M2796.95 2983.17c-3.78,23.76 -3.18,44.94 6.27,63.03l32.02 -3c11.48,-19.52 9.14,-46.29 1.47,-67.39 -19.08,-3.92 -27.1,-0.37 -39.76,7.36z"/>
   <path class="fil2" d="M4252.38 1772.69c45.78,15.07 71.67,-31.73 47.03,-52.86 -18.14,-15.57 -61.4,11.22 -47.03,52.86z"/>
   <path class="fil0" d="M5875.96 3042.71c37.77,13.13 70.16,-32.23 44.73,-50.9 -23.54,-17.3 -68.75,13.93 -44.73,50.9z"/>
   <path class="fil3" d="M8510.03 3006.3c-46.95,33.64 -16.46,67.23 18.55,48.53 31.68,-16.91 18.38,-74.99 -18.55,-48.53z"/>
   <path class="fil0" d="M2605.25 2550.27c-11.51,43.95 32.25,72.27 52.59,47.38 16.26,-19.91 -9.96,-60.47 -52.59,-47.38z"/>
   <path class="fil1" d="M5011.94 2976.48c7.08,33.26 59.73,25 48.26,-22.9 -8.19,-34.25 -58.47,-25.05 -48.26,22.9z"/>
   <path class="fil0" d="M5941.58 2435.32c-6.73,5.25 -4.46,-5.3 -9.22,14.59 -6.29,26.33 13.24,54.1 39.88,34.88 22.99,-16.58 5.86,-77.99 -30.66,-49.47z"/>
   <path class="fil2" d="M4523.1 2158.86c-30.81,11.57 -20.68,69.62 16.06,58.1 30.36,-9.51 20.2,-71.72 -16.06,-58.1z"/>
   <path class="fil2 str0" d="M9166.14 3261.24c-11.69,34.59 2.59,82.36 34.75,52.12 22.63,-21.28 3.5,-70.8 -34.75,-52.12z"/>
   <path class="fil1" d="M4990.3 3055.7c-25.73,-7.81 -46.89,-5.56 -44.01,29.76 2.44,29.74 20.48,29.42 43.01,23.54 7.03,-18.05 8.09,-34.9 1,-53.3z"/>
   <path class="fil2" d="M3760.55 3031.7c-39.39,-16.36 -59.64,14 -41.12,43.36 18.39,29.17 54.3,9.3 41.12,-43.36z"/>
   <path class="fil0" d="M2769.56 3054.75c-51.27,-16.28 -64.07,23.06 -44.66,38.73 17.22,13.9 74.33,10.16 44.66,-38.73z"/>
   <path class="fil0" d="M7617.58 1683.46c14.53,-20.37 13.09,-33.3 2.53,-56.21 -57.84,-11.93 -60.86,66.27 -2.53,56.21z"/>
   <path class="fil3" d="M8306.74 3147.82c19.28,-38.79 -4.45,-79.36 -33.99,-51.42 -15.08,14.27 -14.13,62.07 33.99,51.42z"/>
   <path class="fil2 str0" d="M9381.1 1621.28c61.83,0 34.68,-51.76 5.74,-48.42l-23.59 2.19c-7.62,17.08 -15.31,46.23 17.85,46.23z"/>
   <path class="fil1" d="M5055.96 1860.79c6.62,-23.2 6.81,-24.32 -0.23,-47.45 -63.51,-29.25 -60.89,77.17 0.23,47.45z"/>
   <path class="fil2" d="M3733.54 2783.44c9.84,-31.51 11.21,-44.52 -19.07,-57.16 -42.18,14.77 -35.85,74.32 19.07,57.16z"/>
   <path class="fil1" d="M5058.22 2590.34l28.29 3.01c14.64,-19.34 16.36,-37.49 3.67,-56.72 -46.07,-13.6 -44.87,25.4 -31.96,53.71z"/>
   <path class="fil1 str1" d="M1774.32 1729.09c6.37,-27.34 18.52,-21.23 28.66,-49.7l26.31 -216.42c10.06,-105.12 3.19,-203.79 63.4,-250.65 39.65,-30.86 152.3,-64.44 188.17,-35.29 82.95,67.39 40.51,106.2 38.44,180.53 -1.14,40.89 5.79,104.23 9.33,143.55l-32.3 17.56c-4.12,32.93 -4.98,83.49 2.81,110.88 7.97,2.62 11.24,2.16 19.34,4.1l18.88 5.18 2.73 84.57c-45.43,-26.08 -46.13,16.06 -46.04,53.19 0.1,46.88 -9.34,71.6 43.19,62.5l6.74 -31.82c14.73,4.9 9.62,3.46 12.42,28.5 16.17,144.29 10.36,518.72 10.36,664.23l-6.36 545.37c-1.15,146.17 -1.15,84.63 -33.71,145.06 -60.44,-0.63 -91.4,0.68 -108.9,-27.25 -25.35,-40.46 -16.21,-62.34 -16.1,-114.53 29.62,-0.05 27.54,1.84 49.55,-8.62l-2.94 -33.99c-14.4,-7.44 -34.14,-6.79 -51.29,-10.26 -1.85,-3.66 -1.64,-0.1 -5.11,-12.49l-11.31 -127.34c0.3,-20.7 7.81,-22.46 6.1,-45.6 -1.26,-16.95 -7.86,-22.23 -9.95,-41.26 -1.68,-15.32 -0.16,-35.19 -0.34,-51.06 -0.4,-34.95 -12.08,-58.7 -10.05,-83.8 2.8,-34.41 7.91,-59.54 2.8,-99.26 -5.58,-43.37 -15.07,-46.36 -26.3,-78.07 -14.45,-40.83 12.36,-48.23 3.05,-82.89 -8.77,-32.64 -7.6,-57.66 -14.08,-83.54 -73.82,-18.54 -37.63,61.99 -37,100.52 0.98,58.93 -31.79,60.4 -53.26,96.34 -23.93,40.09 -15.2,74.41 -46.4,103.05 -32.44,29.78 -66.61,6.49 -110.77,-2.42 2.17,-42.81 -5.82,-66.94 -14.84,-104.54 -10.96,-45.64 -16.64,-40.53 -55.73,-58.5 -1.5,-28.71 8.39,-71.24 -24.15,-73.57 -33.18,-2.37 -28.31,35.34 -28.02,62.78 1.02,93.57 43.07,6.81 67.8,115.4 18.6,81.66 -28.93,71.97 -5.61,143.16 10.71,32.71 6.08,134.19 7.41,177.5 1.89,61.52 4.3,116.15 5.78,177.96 1.81,76.12 9.52,106.47 -42.06,142.59 -39.44,27.62 -107.14,31.95 -150.72,14.78 -46.74,-18.42 -39.56,-97.69 -39.56,-148.73 26.28,-9.47 33.7,-7.89 52.85,-31.52l4.63 48.15c23.17,10.01 18.12,10.4 43.76,0.09 8.44,-45.23 -1.97,-93.49 -47.74,-53.55 -1.4,-16.83 2.77,-54.07 -4.02,-66.52 -8.98,-16.47 -29.78,-17.97 -44.96,1.48 -6.6,-48.54 -0.52,-88.67 -11.22,-139.63 -9.91,-47.25 -3.74,-79.33 -3.46,-128.75 0.53,-95.48 2.54,-190.76 2.31,-285.01l37.71 2.64c13.18,-26.85 17.53,-67.3 -1.06,-94.57 -29.41,-5.41 -20.52,2.33 -41.08,2.11 -1.7,-36.42 -9.82,-62.26 -12.1,-95.85 -2.3,-33.95 2.83,-277.95 8.94,-290.6 17.63,30.37 -6.86,61.93 47.74,50.09 10.22,-22.17 12.29,-42.9 -0.57,-70.73 -13.82,-29.86 -22.05,-26.51 -50.19,-22.65l-3.6 -119.48c23.82,9.58 24.25,10.82 44.91,-2.14 7.42,-28.8 6.07,-76.5 0.24,-105.54l-17.38 -12.48 -27.37 12.26 -1.85 84.33c-20.2,-66.56 -25.53,-222.63 -18.18,-300.65 7.63,-80.91 8.41,-74.83 50.18,-117.21 37.04,-37.59 60.52,-38.18 119.63,-18.51 -3.69,42 -25.71,62.42 -17.61,99.27 56.24,25.14 47.73,-40.01 69.25,-77.19 19.52,4.77 31.81,27.82 37.85,44.29 17.91,48.82 -22.01,74.43 19.12,129.66 17.66,23.72 12.13,25.84 12.13,62.71 -6.43,25.84 -39.1,-9.54 -38.49,86.21 0.25,38.8 9.71,78.05 55.4,68.07 14.79,-35.22 -5.71,-42.15 0.11,-57.45 12.06,18.93 6.81,34.2 20.88,54.53 15.83,22.88 28.82,12.1 26.32,60.58 -43.31,0.33 -46.64,1.98 -58.24,41.36 -32.19,109.27 28.09,139.08 42.28,94.7 8.89,-27.78 -10.71,-49.15 8.95,-83.98 19.06,6.19 8.39,-1.89 10.26,18.89 1.6,17.83 -3.6,65.96 5.02,75.5 29.27,21.02 49.15,-13.65 50.96,-32.23 1.9,-19.5 -8.84,-34.97 0.54,-68.45l7.86 -18.21c23.84,17.67 -0.84,27.3 22.29,43.71 41.25,29.27 40.92,-50.61 45.51,-66.47 6.74,-23.24 8.26,-18.89 -2.75,-39.9 -50.84,-10.36 -2.95,15.59 -76.13,10.94zm-22.56 -54.27c-23.28,-5.76 -19.13,-5.19 -25.61,-34.45l-21.99 -104.51c-0.26,-19.17 3.75,-42.97 -2.18,-60.26 -6.71,-19.59 -18.16,-16.36 -24.81,-33.47 -7.27,-18.69 -1.57,-41.88 -0.71,-61.77 1.94,-44.88 -13.91,-63.97 -31.96,-94.1 -23.96,-40.01 -41.88,-24.68 -79.32,-41.09 -35.51,-15.56 -52.39,-29.23 -100.66,-24.38 -64.65,6.51 -127.29,75.62 -137.95,109.08 -19.52,61.26 -18.73,291.09 -6.32,348.78 25.42,118.15 10.99,339.97 10.71,471.35 -0.12,54.43 0.76,54.98 8.26,106.62 19.68,135.43 8.01,337.88 3.46,478.78 -1.62,50.05 7.63,64.04 11.85,108.79 9.55,101.36 -16.73,285.33 22.92,350.65 56.34,92.82 292.62,58.19 310.88,-80.65 5.61,-42.65 -6.68,-291.2 -8.72,-367.35 -1.6,-59.92 0.85,-58.26 -14.24,-109.27 30.01,-0.43 47.16,9.61 76,15.8 5.25,26.01 -2.05,55.8 27.62,57.26 31.7,1.57 23.37,-31.33 25.38,-58.73 115.78,-77.46 46.62,-110.34 110.53,-161.53 14.79,36.82 20.37,65.34 15.45,111.19 -10.94,102.02 5.32,53.48 6.42,116.37 0.37,21.12 -2.6,42.69 0.74,63.25 6.51,40.03 9.95,15 2.2,58.96 -6.38,36.23 21.92,185.54 21.08,239.66 -0.98,62.82 -0.18,63.69 24.79,108.43 27,48.4 23,41.79 85.19,47.45 60.64,5.52 75.67,20.4 106.6,-20.81 25.74,-34.29 40.61,-31.1 41.94,-88.79 1.01,-44.05 -0.52,-88.47 0.78,-132.62 2.46,-83.11 2.98,-172.14 4.82,-258.09 5.22,-243.34 6.57,-552.23 -1.82,-798.08 -2.86,-83.85 -15.61,-154.33 -22.02,-238.7 -4.59,-60.5 -26.34,-319.05 -17.32,-370.57 20.33,-116.07 -1.67,-129.33 -64.43,-191.07 -50.16,-49.33 -223.19,-11.59 -284.86,76.09 -51.61,73.39 -41.72,360.45 -72.7,461.78z"/>
   <path class="fil2 str0" d="M9442.97 1202.59c0,-26.3 -6.16,-50.47 7.51,-63.43 16.17,-15.32 35.8,-6.18 40.45,12.48 5.91,23.74 -46.95,105.01 5.11,106.64 27.1,0.85 23.82,-36.13 40.07,-53.79 55.42,21.93 7.49,88.84 6.58,90.88 -25.77,57.67 27.43,55.02 66.17,69 17.42,110.14 -19.94,80.69 -0.86,144.17 25.98,86.44 -43.17,261.94 -77.63,271.03 -37.38,-0.53 -66.55,-33.95 -84.16,-54.57 17.57,-21.02 40.76,-45.24 31.39,-90.93 -51.25,-28.51 -38.34,19.66 -63.41,49.38 -14.66,17.39 -19.56,17.54 -49.98,19.36 -27.7,1.67 -37.95,8.48 -65.11,11.07 -9.34,-20.14 -15.28,-21.78 -31.92,-41.4 -15.72,-18.53 -17.53,-26 -48.57,-18.19 -7.21,18.45 -9.48,28.73 7.4,47.75 15.51,17.46 17.2,16.21 31.42,40.18 -36.73,74.85 -34.29,40.3 -34.29,155 0,26.16 10.66,42.28 19.2,63.15 -13.42,15.05 -39.81,24.13 -42.28,46.71 -2.45,22.49 15.84,57.66 25.12,68.24l30.32 -3.98c9.82,-26.35 0.63,-29.86 0.91,-57.1 75.43,-39.35 19.99,26.4 21.79,61.23 1.26,24.37 22.03,33.56 37.65,21.05 13.65,-10.93 15.31,-37.06 25.06,-55.15 78.97,-18.57 10.9,17.7 32.35,82.26 43.3,10.78 35.88,-0.48 48.03,-37 37.28,1.34 26.12,13.82 42.33,43.96 2.85,5.3 70.99,69.66 48.76,115.86 -0.03,0.07 -27.94,49.73 -9.84,69.01 13.45,6.13 34.25,8.88 54.18,9.79 15.16,25.37 31.41,100.76 30.48,136 -25.18,-17.37 -12.59,-38.28 -55.59,-28.83 -23.01,48.53 25.08,71.48 49.67,83.68 20.41,144.86 -6.28,79.38 -6.28,184.83 0,53.28 22.51,20.76 6.94,142.93 -36.53,14.99 -95.34,29.57 -60.4,71.93 30.17,6.19 28.45,-6.39 53.46,-13.22 -2.29,40.16 -48.66,240.17 -127.37,258.63 -28.03,-92.05 -60.18,-36.57 -52.93,3.44 4.31,23.79 9.64,18.87 21.65,35.73 -17.4,143.31 -255.57,276.2 -376.51,134.64 -24.59,-28.79 -44.78,-54.55 -65.58,-89.48 -30.87,-51.86 -35.76,-45.96 -40.66,-119.72 -2.62,-39.54 -11.92,-119.08 -4.39,-153.34 4.36,-19.81 13.53,-42.31 17.92,-63.25 5.48,-26.17 -3.96,-53.86 -2.1,-87.74l9.04 -81.84c24.11,5.79 12.04,8.69 29.76,26.08 19.48,19.11 68.37,14.63 24.41,-53.72 -22.62,-35.16 -70.55,-15.6 -33.2,-66.73 23.26,2.42 41.06,32.73 80.38,59.74 28.59,19.64 66.05,37.36 112.01,28.18 73.76,-14.73 106.69,-89.52 127.93,-164.5 12.87,23.6 -2.66,29.31 22.74,50.54 37.66,0.35 37.74,-23.83 32.99,-61.47 -4.74,-37.56 -18.85,-35.43 -49.72,-46.59 -3.01,-70.38 11.52,-56.91 -29.59,-96.96 -151.57,-147.67 -155.24,-67.87 -231.45,-159.03 -35.66,-42.66 -64.96,-112.9 -82.45,-175.68 -3.61,-12.94 -16.42,-102.96 -15.94,-112.05 1.22,-22.82 9.84,-27.77 0.61,-55.87 -14.64,-44.54 -17.85,6.86 -17.85,-100.47 0,-25.11 5.36,-18.08 17.65,-25.43 32.87,-19.68 34.56,-15.79 34.56,-66.42 0,-97.57 -87.66,19.74 -34.97,-158.2 19.84,-5.35 72.7,-14.27 55.8,-72.96 -25.59,-9.21 -28.48,-2.95 -47.1,6.98 -0.56,-40.2 14.5,-113.5 46.65,-126.41 7.16,26.34 2.9,38.4 33.59,46.24 28.72,-2.57 37.29,-58.89 -18.15,-97.51 6.59,-41.25 19.97,-54.56 44.02,-71.79 13.38,16.44 14.04,94.46 53.19,59.43 11.9,-10.65 22.89,-57.91 -21.38,-95.92 37.06,-82.52 191.58,-156.23 319.22,-102.71 -8.95,37.15 -20.5,30.36 -15.81,90.93 4.07,52.43 51,44.25 51,5.25zm-454.3 1357.16c-32.24,-2.5 -30.01,6.26 -37.26,31.81 -9.67,34.05 -21.32,22.92 -33.85,47.42 -9.31,18.2 -3.15,45.03 -5.61,67.66 -2.53,23.19 -10.9,44.13 -13.63,69.21 -4.73,43.64 2.96,107.45 -4.65,138.44 -16.19,65.89 -19.94,59 -15.14,136.6 11,178.13 -2.12,155.03 133.66,328.84 22.62,28.95 64.57,49.58 101.31,58.77 145.11,36.33 300.95,-72.82 342.72,-191.76 14.35,-40.88 -0.18,-27.94 32.64,-47.67 60.52,-36.37 89.27,-109.85 112.87,-197.04 17.58,-64.93 48.95,-202.95 30.26,-270.77 -19.62,-71.15 21.96,-106.32 0.91,-208.27 -9.79,-47.43 22.16,-89.73 -17.7,-193.51 -10.71,-27.89 -11.42,-27.28 -18.77,-57.71 -7.36,-30.43 -18.16,-20.38 -29.17,-49.06 -6.13,-15.97 -11.08,-41.74 -16.29,-58.97 -12.51,-41.42 -14.56,-24.25 -34.82,-45.56 -37.08,-39.02 6.13,-35.51 -72.58,-82.32 -26.06,-15.5 -14.89,-21.96 -37.62,-37.07 -17.78,-11.82 -47.71,-6.29 -64.54,-16.75 -15.74,-9.78 0.97,-5.69 -19.59,-19.6 -13.29,-9 -16.44,-4.85 -26.52,-14.02 -34.3,-31.22 -31.63,-152.92 9.1,-180.2 25.97,-17.39 78.64,-26.7 119.33,6.07 30.41,24.49 43.98,55.76 100.98,55.84 42.83,0.06 51.3,-9.05 84.86,-72.09 29.21,-54.86 68.73,-181.09 50.34,-254.29 -11.41,-45.42 12.72,-73.47 1.84,-133.56 -16.26,-89.81 -8.91,-85.81 -49.83,-110.89 -5.79,-133.55 -52.96,-66.92 -77.25,-129.82 -13.43,-34.8 -15.93,-38.49 -57.14,-46.35 -37.39,-7.13 -43.94,-22.18 -75.92,-33.21 -123.01,-42.45 -254.89,20.69 -316.87,80.23 -18.68,17.94 -27.59,33.84 -46.73,56.9 -15.49,18.66 -41.16,38.12 -52.95,55.82 -13.33,20.01 -18.24,50.8 -27.45,75.61 -10.34,27.84 -29.34,46.02 -39.47,69.62 -17.85,41.61 -17.32,132.51 -30.26,182.46 -14.42,55.61 -20.8,236.63 -13.61,303.94 4.4,41.2 26.57,37.75 19.14,75.09 -15.59,78.22 44.73,248.2 93.7,318.53 86.57,124.34 119.06,49.01 246.66,178.14 47.72,48.29 -8.07,301.47 -142.83,223.27 -18.66,-10.83 -42.81,-33.46 -57.1,-46.2 -50.71,-45.2 -19.38,-29.52 -45.17,-63.58z"/>
   <path class="fil0" d="M2387.04 1962.32c14.06,79.88 52.89,46.6 54.2,21.35 0.11,-2.2 -12.5,-79.21 -13.07,-80.8 -12.85,-35.88 -35.83,-15.75 -52,1.46 0.27,-29.95 -2.08,-93.66 3.24,-119.78 10.62,-52.18 35.5,-27.78 9.58,-89.14 -24.25,-57.39 -21.44,-149.31 -6.5,-211.52 24.48,-13.56 32.14,-2.91 33.32,-39.92 -10.04,-9.37 -39.02,-20.76 -19.24,-43.18 29.62,-33.6 173.15,-49.39 178.15,84.62 1.42,37.89 0.01,32.25 -20.59,49.85 -43.04,36.78 -27.35,71.54 19.13,90.86 0,36.87 4.35,103.87 -3.9,136.68 -14.66,58.34 7.19,51.45 6.69,111.33 -0.39,46.27 -12.03,83.13 -13.54,121.61 -1.17,30.01 12.59,81.88 14,119.61 1.72,46.35 -14.78,87.52 -11.98,126.52 2.58,35.67 34.17,55.36 20.71,111.84 -9.32,39.12 -49.5,40.16 -36.69,100.22 5.15,24.1 37.63,44.45 50,-6.36l7.85 -24.71c31.14,21.79 17.29,29.64 68.6,29.06 54.8,-0.62 39.1,-1.9 75.56,17.89 -5.88,27.56 -11.42,28.17 -2.19,55.86l31.28 2.54c30.26,-32.55 41.92,-78.22 -17.67,-109.05 5.13,-34.49 27.11,-70.27 36.33,-106.62 9.81,-38.69 -1.37,-31.94 -2.79,-59.78 -0.94,-18.45 8.35,-38.35 10.54,-58.87 2.45,-23.05 -1.36,-46.26 0.15,-67.16 1.74,-23.97 12.04,-33.16 11.66,-57.17 -0.53,-33.18 -14.82,-16.07 -13.59,-126.55 0.69,-62.8 23.69,-51.45 5.38,-117.02 -22.99,-82.27 10.45,-167.91 7.62,-191.26 -3.1,-25.65 -34.01,-99.94 1.55,-175.32 30.67,15.71 6.99,18.1 16.57,43.15 8.17,21.39 22.07,17.59 41.29,10.28 23.15,-62.51 -7.39,-59.02 -12.43,-99.89 43.84,-42.83 120.07,-16.21 132.04,14.72 8.64,22.34 17.21,144.28 15.35,170.38 -63.33,-60.92 -56.9,94.48 -36.36,126.38l26.85 -1.25c18.65,-28.04 6.18,-15.73 15.72,-44.78 0,153.61 17.85,430.33 -11.44,567.14 -17.45,-11.41 -6.02,-20.17 -28.5,-23.82 -36.17,-5.88 -26.07,54.9 -32.87,78.36 -6.31,21.75 -15.65,19.95 1.12,38.17 30.63,28.35 45.92,-16.24 54.44,-38.14 27.82,240.74 -52.07,152.48 -49.72,205.07 2.04,45.65 44.88,-11.08 38.92,86.53l-21.71 105.08c-0.18,-0.28 -23.62,-63.3 -51.35,-24.46 -12.56,17.6 4.52,53.53 9.04,70.2l35.23 10.06c2.77,63.08 -25.97,188.94 -45.86,245.48 -103.77,294.86 -306,282.55 -434.55,-16.49 -90.48,-210.45 -56.99,-268.54 -80.1,-361.93 -13.42,-54.27 -5.3,-77.71 -11.3,-131.24 -27.57,-246.14 -14.32,-327.61 -14.03,-564.85l4.56 9.44c12.85,33.03 -6.35,-23.47 3.47,9.67 0.37,1.23 3.4,17.21 3.83,19.65zm322.7 437.77c-58.97,3.32 -38.85,4.18 -74.69,-20.65 -2.04,-35.74 5.55,-73.95 -6.29,-108.24 -31.9,-92.34 13.68,-65.77 -8.57,-223.42 -14.19,-100.52 17.04,-135.26 4.26,-213.52 -2.8,-17.1 -10.72,-29.68 -9.9,-45.02 0.87,-16.28 8.63,-26.4 9.68,-52.48 1.38,-34.18 -4.22,-88.69 0.9,-119.66 2.74,-16.58 11.42,-24.32 12.9,-42.96 1.45,-18.36 -8.84,-30.36 -12.08,-46.03 -7.45,-36.06 4.27,-63.62 -11.67,-104 -12.37,-31.35 -30.79,-51.21 -53.33,-67.04 -63.78,-44.79 -121.69,-36.9 -187.19,-2.27 -43.52,23.01 -32.38,30.46 -34.29,82.72 -1.68,46.12 -32.25,110.1 -14.13,213.89 4.81,27.51 24.25,68.88 16.89,90.38 -21.45,62.75 -17.87,138.21 -17.95,218.58 -0.27,260.18 -12.3,415.94 30.51,687.49 11.78,74.76 8.46,127.9 29.03,206.32 129.39,493.2 447.65,521.65 569.79,182.38 69.78,-193.83 44.23,-252.17 79.1,-397.71 8.02,-33.49 11.28,-62.42 4.18,-98.54 -10.93,-55.64 4.74,-44.79 13.5,-95.04 7.44,-42.67 4.9,-75.17 3.02,-117.49 -2.19,-49.74 4.31,-69.45 8.3,-110.56 14.83,-152.57 10.78,-526.37 -3.11,-692.96 -6.98,-83.6 -0.98,-138.53 -71.67,-168.32 -74.47,-31.37 -122.96,-18.62 -165.95,38.11 -21,27.71 -7.4,7.25 -33.45,23.91 -14.86,9.5 -16.87,17.27 -23.39,39.98 -28.78,100.25 10.33,161.27 -3.42,209.31 -21.45,74.89 9.98,186.75 1.26,218.78 -24.64,90.47 10.74,157.13 -3.17,215.19 -8.27,34.54 1.7,77.78 -7.59,113.06 -9.86,37.43 10.72,114.44 -41.48,185.81z"/>
   <path class="fil2" d="M4346.62 2695.19c23.29,-14.97 20.94,-7.4 33.51,-34.75 9.85,-21.45 10.9,-24.82 29.03,-32.74 29.72,33.5 21.64,45.69 2.7,90.7 -43.01,3.95 -48.09,9.74 -65.24,-23.21zm-328.07 -476.49c-2.32,-25.69 49.73,-401.12 61.49,-437.2 39.43,-121 76.76,-266.32 129.09,-371.22 32.93,-66.02 75.61,-157.88 156.16,-170.01 108.06,-16.28 166.4,104.8 164.84,163.08 -2.43,90.61 -25.97,201.22 -47.22,286.5 -59.31,237.97 -135.26,5.8 -243.31,255.98 -37.45,86.68 -23.59,38.03 -81.44,78.52 -9.4,74.14 6.42,75.08 35.96,87.46 0.56,28.1 7.77,58.22 -2.08,85.1 -8.77,23.95 -28.45,33.55 -19.63,62.51 21.67,71.2 22.37,-3.73 21.65,153.12 -42.14,23.55 -66.95,11.05 -38.95,106.42 9.96,33.93 34.82,19.34 53.1,9.42 15.45,30.18 20.56,73.55 38.89,110.63 14.92,30.16 16.53,21.16 33.83,40.82 12.95,14.71 11.81,26.23 23.13,45.77 32.75,56.57 121.01,61.41 150.85,15.47 37.51,-57.74 36.49,-121.12 -16.65,-155.22 -37.06,-23.78 -63.06,-15.45 -68.82,-74.88 -8.65,-89.26 -25.5,-170.13 -26.66,-263.56 -1.35,-109.46 9.7,-167.46 123.56,-174 44.64,-2.57 95.76,7.45 127.25,24.22 39.24,20.89 47.32,36.73 52.21,91.95 14.73,166.46 10.66,387 -2.44,556.35 -14.05,181.56 -11.37,300.23 -99.55,485.8 -36.84,77.53 -53.62,133.1 -163.62,130.61 -67.54,-1.54 -131.71,-85.73 -162.27,-125.73 -146.07,-191.22 -105.18,-197.8 -124.38,-243.33 -7.72,-18.31 -17.05,-23.53 -23.76,-51.16 -9.44,-38.88 -15.91,-80.22 -24.16,-118.06 -9.07,-41.61 -16.67,-83.25 -26.02,-124.25 -11.17,-48.98 -3.38,-88.95 -11.16,-131.92 -16.29,-89.94 -1.8,-181.99 0.27,-275.86 8.83,24.46 -5.07,47.72 22.58,54.3 28.12,6.7 31.68,-12.88 32.51,-35.47 2.67,-72.86 3.62,-62.6 -45.25,-92.16zm338.27 384.63l-56.48 29.38c-36.79,-70.81 -35.97,-115.12 -52.95,-193.82 -6.75,-31.28 -1.64,-82.92 -2.09,-117.11 -0.74,-56.61 -32.31,-58.63 -14.7,-91.74 33.66,-63.3 -0.85,-116.59 33.22,-214.24 77.75,-222.85 149.91,-129.26 197.49,-169.84 74.8,-63.77 135.01,-419.3 112.99,-492.5 -16.6,-55.21 -71.41,-126.46 -103.96,-149.1 -20.98,-14.59 -77.6,-17.01 -107.18,-14.17 -142.61,13.66 -223.71,240.06 -263.22,357.26 -84.33,250.22 -89.5,342.7 -127.05,613.59 -10.77,77.72 -15.25,149.78 -18.37,229.83 -1.66,42.56 -4.97,78.69 -5.64,120.83 -0.67,42.77 13.63,63.98 12.07,114.6 -1.87,60.75 25.02,151.91 36.71,211.24l33.99 149.37c11.54,22.89 14.91,15.4 18.81,42.32 14.2,97.96 124.05,241.33 187.9,307.4 104.3,107.93 245.65,105.52 319.64,-21.82 41.87,-72.05 117.11,-279.1 125.68,-373.08 3.57,-39.22 -1.44,-79.95 2.57,-120.02 17.05,-170.77 21.4,-429.44 12.24,-597.16 -5.18,-94.91 -14.45,-134.93 -83.31,-171.61 -79.86,-42.54 -296.05,-69.16 -319.39,115.36 -13.97,110.46 12.3,237.42 23.85,346.16 11.27,106.27 27.02,43.21 37.18,88.87z"/>
   <path class="fil3" d="M3601.12 2115.1c29.68,44.78 46.88,70.39 51.24,143.55 1.93,32.24 4.6,159.04 -12.34,178.45 -53.81,61.7 -82.74,11.36 -140.99,36.2 -18.05,7.7 -105.71,125.78 11.7,190.54 45.16,24.91 157.92,-54.3 233.96,-16.55 39.56,19.63 39.64,97.86 41.76,151.45 8.1,204.28 42.91,359.11 -130.91,422.71 -65.7,24.04 -283.16,44.67 -327.13,-2.55 -47.1,-50.59 -25.9,-258.17 -34.01,-344.62 -14.9,-158.82 4.88,-202.77 -20.78,-357.86l-13.18 -372.48c-8.39,-195.69 -18.52,-135.46 -8.5,-366.46 5.09,-117.43 -6.9,-244.04 47.48,-335.44 69.2,-116.31 171.55,-93.44 257.88,-121.22 50.08,-16.11 128.85,-20.22 156.92,19.76 56.86,81.02 60.25,399.61 8.51,495.93 -94.81,176.49 -165.05,1.06 -249.08,84.03 -26.23,25.9 -45.58,105.31 -18.18,149.61 23.72,38.35 85.01,48.88 145.65,44.95zm-84.45 405.29c71.02,-13.56 71.64,31.51 162.62,-49.78 28.28,-25.27 22.19,-37.36 22.02,-85.35 -0.39,-106.39 15.29,-190.46 -46.1,-279.49 -17.96,-26.06 -24.79,-40.31 -66.73,-40.44 -37.33,-0.13 -66.52,-1.79 -90.52,-19.75 -16.45,-59.37 3.24,-115.38 67.97,-91.56 60.86,22.39 74.57,27.72 130.76,-11.24 63.77,-44.23 105.56,-131.24 107.64,-240.61 2,-105.4 8.17,-233.97 -20.33,-327.66 -29.81,-97.97 -105.11,-140.58 -226.71,-105.31 -106.65,30.93 -189.03,22.98 -259.38,91.16 -67.64,65.55 -87.73,166.24 -90.65,261.31 -3.4,110.92 -11.01,227.51 -10.45,338.93 0.4,78.52 17.84,217.32 19.27,333.01 0.66,53.33 1.21,111.66 4.09,166.22 3.34,63.27 15.21,102.49 17.87,160.53 2.63,57.47 -2.84,114.88 -1.75,172.53 1.05,56.03 11.53,107.16 12.67,166.36 1.99,103.74 -16.56,245.95 49.77,300.94 63.3,52.48 416.74,79.73 517.15,-107.74 43.21,-80.67 28.88,-393.95 6.27,-478.46 -30.04,-112.36 -161.1,-91.62 -245.82,-66.01 -75.54,22.83 -87.28,-23.09 -59.66,-87.59z"/>
   <path class="fil3" d="M8183.31 1536.3c26.07,-80.86 72.87,-169.81 164.58,-179.16 70.6,-7.2 79.51,24.21 113.89,58.6 39.5,39.51 48.64,35.55 68.64,102.59 -18.86,23.05 -34.32,36.13 -28.77,82.26 39.08,17.85 36.63,4.53 52.7,-30.93 24.5,11.82 41.61,36.19 32.87,73.63 -7.56,32.37 -42.08,23.8 -35.93,69.28 19.84,24.11 31.77,18.04 71.02,16.73 6.76,43.88 25.09,103.72 37.6,148.58 27,96.78 51.93,422.99 42.35,505.58 -12.92,111.47 -9.54,232.4 -32.22,336.01 -21.76,99.46 -47.2,196.41 -75.47,290.23 -23.7,78.67 -87.48,199.56 -135.37,233.3 -26.41,18.61 -140.28,14.9 -163.06,-2.66 -155.72,-120.05 -259.92,-490.93 -253.34,-661.21 57.33,45.45 61.51,-28.89 50.77,-78.59 -5.39,-25 -33.1,-28.62 -45.34,-7.9 -7.88,13.33 -4.25,54.04 -5.23,71.54 -16.82,-37.67 -6.27,-154.16 -4.68,-203.35 42.46,-2.92 62.88,-18.78 53.49,-81.47 -28,-10.64 -31.8,-5.17 -49.6,9.44l1.35 -106.34c18.31,6.83 20.88,12.35 43.12,4.98 21.25,-46.26 -0.38,-57.97 -16.46,-81.29 -20.45,-29.66 -3.12,-60.41 -1.65,-94.11 0.6,-13.54 0.57,-37.89 7.1,-48.48 9.02,-14.62 75.06,-32.6 49.98,-89.23 -21.24,-4.63 -27.02,0.46 -42.93,7.92 0.53,-28.86 8.55,-45.78 12.04,-76.95 2.92,-26.08 13.71,-45.16 24.68,-61.66 3.58,13.08 6.48,32.48 11.31,45.08l32.93 -1.61c38.46,-67.72 -26.78,-95.83 -29.11,-108.04 0.17,-33.82 11.46,-64 29.38,-87.94l11.51 25.17c7.02,14.53 -5.19,8.51 13.77,15.94 19.88,7.78 31.79,-5.7 33.81,-22.16 5.52,-44.99 -24.36,-56.57 -39.73,-73.78zm137.07 -225.63c-95.05,21.98 -132.91,80.97 -172.92,174.32 -16.98,39.62 -33.69,82.8 -49.69,122.53 -32.52,80.79 10.02,46.87 -39.63,137.94 -33.75,61.9 -24.29,220.21 -47.59,297.69 -12,39.89 2.54,35.8 1.45,66.21 -0.43,11.95 -14.84,46.09 -18.28,65.07 -11.07,61.1 3.28,117.39 -4.6,172.75 -13.92,97.81 -2.22,237.2 7.57,331.81 10.5,101.5 40.49,188.09 68.53,281.1 21.49,71.26 71.12,180.02 112.58,232.18 20.19,25.4 60.98,62.73 85.52,86.63 31.08,30.26 98.9,29.79 153.49,25.76 80.06,-5.92 76.62,-16.4 112.57,-60.66 29.73,-36.61 42.72,-60.18 67.27,-104.56 59.89,-108.3 138.05,-423.85 142.54,-553.45 4.56,-131.88 19.48,-195.43 10.79,-327.58l-21.41 -324.41c-4.77,-24.15 -67.58,-265.63 -74.11,-274.92 -12.48,-17.74 -9.51,4.64 -14,-26.11 -2.27,-15.54 1.79,-26.21 -2.63,-43.44 -9.28,-36.16 -45.72,-43.62 -65.05,-106.81 -19.68,-64.37 -46.81,-72.35 -115.74,-142.66 -37.39,-38.15 -67.88,-45.29 -136.66,-29.39z"/>
   <path class="fil5" d="M7876.54 3837.6c-19.06,20.42 -234.69,100.44 -181.63,8 12.89,-22.46 58.97,-51.51 91.5,-59.47 46.54,-11.4 79.25,22.51 90.13,51.47zm-257.79 -188.95c40.08,31.85 62.31,8.79 103.12,-12.08 188.66,-96.48 216.55,-95.85 180.98,107.08 -45.51,-13.97 -45.1,-24.06 -111.35,-18.98 -35.53,2.72 -79.18,17.75 -104.51,32.08 -41.74,23.59 -124.82,99.17 -66.97,165.37 72.47,82.92 240.09,-5.39 313.01,-28.58 49.98,-15.9 47.49,26.45 104.48,-13.67 6.3,-48.23 -20.73,-53.19 -49.36,-71.86 11.57,-61.45 18.78,-126.48 19.48,-194.35 0.82,-80.65 -19.82,-107.49 -102.03,-106.85 -85.96,0.66 -171.85,45.37 -239.8,85.2 -25.26,14.81 -46.82,19.72 -47.05,56.64z"/>
   <path class="fil5" d="M8918.85 3981.11c27.77,39.6 67.86,41.11 129.25,38.19 83.11,-3.96 393.33,-23.83 338.84,-152.96 -41.38,-98.06 -324.88,-134.28 -294.59,-202.25 11.38,-25.52 82.72,-47.41 116.54,-51.33 134.4,-15.56 28.97,64.59 120.49,55.7 60.78,-5.9 39.96,-74.28 6.97,-96.09 -154.79,-102.32 -499.81,82.33 -269.76,195.31 65.56,32.2 177.11,71.69 216.82,113.86 -6.02,36.54 -36.86,40.28 -73.67,48.19 -148.94,32.01 -269.91,-6.02 -290.89,51.38z"/>
   <path class="fil3" d="M8348.46 1982.3c47.48,-20.24 51.42,8.48 71.36,32.23 26.97,32.14 26.96,22.88 34.3,74 36.03,251.14 40.48,138.88 6.05,393.01 -10.71,79.04 -7.32,123.75 -73.45,149.77 -103.34,40.66 -140.67,-204.98 -135.86,-297.8 1.78,-34.31 8.72,-67.89 12.21,-100.74 8.14,-76.65 4.24,-215.88 85.39,-250.47zm-2.23 -53.38c-72.41,20.41 -93.52,64.72 -117.14,153.72 -12.42,46.78 -11.02,75.15 -13.93,124.82 -2.55,43.57 -12.27,81.08 -14.26,126.03 -5.72,129.48 44.73,392.63 196.12,347.98 90.04,-26.56 100.89,-101.4 108.63,-162.29 6.87,-54.15 33.62,-194.47 27.72,-240.54 -9.05,-70.65 -21.28,-164.08 -34.76,-232.61 -6.17,-31.33 -37.26,-61.66 -57.09,-81.93 -29.87,-30.52 -26.7,-54.51 -95.29,-35.18z"/>
   <path class="fil5" d="M8547.6 3698.78c14.67,-54.72 196.33,-88.95 212.39,-33.41 -43.23,21.56 -158.47,33.36 -212.39,33.41zm-4.55 59.75c87.2,-0.21 168.5,-11.95 245.97,-35.99 33.34,-10.34 83.43,-21.69 65.28,-69.33 -48.15,-126.33 -462.55,-96.29 -411.39,129.77 34.2,151.13 262.9,149.39 384.76,69.69 14.45,-9.45 35.22,-22.48 37.1,-39.4 6.52,-58.79 -103.65,7.41 -143.08,18.79 -70.49,20.35 -194.72,14.53 -178.64,-73.53z"/>
   <path class="fil5" d="M6411.69 3622.42c42.88,-16.14 57.35,20.06 87.97,25.63 24.33,4.43 32.8,-4.85 53.69,8.93 52.59,34.68 24.32,126.32 -78.42,168.11 -204.81,83.3 -190.39,-154.8 -63.24,-202.67zm248.97 123.32c21.38,-61.27 -10.24,-115.51 -47.94,-142.51 -15.25,-10.93 -46.2,-26.81 -69.07,-28.12 -48.28,-2.77 6.87,10.49 -77.31,-8.95 -254.25,-58.69 -362.61,381.44 -39.38,342.2 99,-12.02 208.13,-89.34 233.7,-162.62z"/>
   <path class="fil5" d="M5727.65 3929.45c40.45,63.83 217.8,30.5 287.95,11.04 111.1,-30.81 161.57,-105.3 51.41,-176.21 -84.68,-54.5 -238.77,-87.42 -185.5,-141.89 17.09,-17.46 99.02,-44.02 133.77,-35.4 36.15,8.98 7.55,33.49 36.43,49.43 21.45,11.83 42.57,1.32 52.54,-16.86 47.41,-96.23 -208.03,-152.44 -305.47,-11.39 -87.19,126.22 221.36,157.5 237.06,240.91 -57.82,81.03 -285.26,9.26 -308.19,80.37z"/>
   <path class="fil5" d="M5611.22 3829.72c87.19,11.57 65.76,-63.49 51.63,-120.98 -13.44,-54.68 -37.43,-100.61 -76.45,-123.65 -110.44,-65.19 -195.72,95.91 -240.47,136.14 -14.01,-71.67 5.39,-213.63 -104.35,-170.78 -8.85,30.65 12.27,143.84 14.19,189.66 1.89,44.91 -12.57,170.39 72.91,127.15 12.24,-6.2 77.47,-99.78 92.61,-119.81 172.54,-228.13 139.85,4.14 189.93,82.27z"/>
   <path class="fil5" d="M4324.67 3900.74c25.79,82.27 309.36,26.35 355.08,-27.78 93.82,-111.1 -174.94,-178.43 -212.81,-219.79 -33.33,-36.41 27.03,-60.79 60.63,-70.29 97.55,-27.57 78.85,17.72 94.67,41.18 89.05,14.82 73.77,-92.17 -35.08,-108.29 -78.76,-11.66 -152.3,28.88 -185.68,67.43 -109,125.9 177.66,162.78 211.67,242.91 -44.86,80.21 -258.36,17.6 -288.48,74.63z"/>
   <path class="fil5" d="M2490.06 3759.08c-3.72,-44.13 -9.96,-96.19 11.95,-129.15 15.06,-22.65 69.32,-60.37 105.41,-28.71 57.53,50.47 -76.47,161.56 -117.36,157.86zm-13.21 -214.26c-4.56,-73.25 46.74,-177.12 -50.41,-166.3 -38.1,99.07 -13.15,315.26 -3.2,419.92 -24.57,9.4 -41.43,17.4 -43.93,43.5 41.8,45.47 118.69,-10.84 159.32,-31.91 108.02,-56.01 211.05,-183.69 107.32,-258.65 -76.92,-55.59 -148.12,13.15 -167.43,24.64l-1.67 -31.2z"/>
   <path class="fil5" d="M3685.76 3927.42c60.98,0 158.39,-14.93 205.55,-39.36 76.09,-39.43 69.23,-102.98 5.34,-146.39 -44.23,-30.05 -122.47,-57.47 -159.97,-87.11 -69.32,-54.82 58.82,-94.05 121.23,-79.8 10.47,24.86 -2.14,37.84 24.22,44.73 53.55,14 71.25,-66.91 -5.98,-98.6 -73.39,-30.11 -150.98,0.94 -197.44,39.81 -156.33,130.76 157.48,176.5 186.28,253.93 -25.91,49.95 -156.58,47.76 -213.88,49.13 -104.63,2.51 -59.67,63.66 0.2,63.66l34.45 0z"/>
   <path class="fil5" d="M6785.5 3613.71c0,63.55 11.68,198.43 28.54,253.36 10.85,35.38 42.67,67.82 79.87,38.5 26.45,-20.85 28.4,-65.49 40.31,-97.78 81.23,-220.2 301.1,-186.35 303.09,-255.37 -49.23,-31.27 -173.32,19.69 -214.17,40.18 -72.39,36.32 -96.47,66.47 -140.85,129.85l-11.77 -147.24c-32.37,-12.18 -55.72,-17.95 -83.46,-0.45l-1.56 38.95z"/>
   <path class="fil5" d="M3333.79 3593.54c25.1,-3.96 39.94,21.92 76.5,26.73 90.4,11.88 69.6,118.74 -40.07,165.86 -181.71,78.08 -142.49,-175.86 -36.43,-192.59zm203.29 112.02c23.87,-81.85 -48.15,-150.25 -104.08,-152.42 -56.02,-2.16 -1.19,6.64 -67.11,-9.62 -104.57,-25.8 -176.41,59.05 -195.38,146.26 -55.1,253.35 314.07,195.78 366.57,15.78z"/>
   <path class="fil5" d="M4871.28 3663.23c18.51,-56.4 129.99,-70.93 175.36,-39.82 -9.85,21.4 -36.99,23.79 -75.74,29.74 -32.53,4.99 -64.73,8.62 -99.62,10.08zm-5.73 55.92c66.04,-12.76 314.53,-13.74 251.34,-112.69 -52.58,-82.32 -216.35,-57.15 -284.77,-6.22 -85.13,63.36 -66.42,193.09 32.23,235.4 47.94,20.55 114.44,21.82 167.75,4.49 42.63,-13.86 104.56,-44.6 101.22,-89.61 -36.75,-13.61 -51.74,7.31 -83.91,21.27 -60.93,26.45 -186.96,45.62 -183.86,-52.64z"/>
   <path class="fil5" d="M8302.69 3504.63c1.98,-21.62 7.52,-53.22 -6.35,-68.99 -13.68,-15.56 -44.11,-17.03 -60.53,-2.75 -48.55,42.2 -31.84,392.21 -29.14,456.7 1.65,39.44 26.25,108.13 77.85,74.32 25.72,-16.85 16.69,-104.72 14.69,-142.3 -5.07,-94.91 -5.24,-221.83 3.48,-316.98z"/>
   <path class="fil1" d="M5150.7 1954.63c0,-76.02 -4.31,-180.79 56.5,-207.51 95.74,73.42 58,288.56 26.11,336.96 -40.6,61.61 -82.61,-31.67 -82.61,-95.01l0 -34.44zm-49.59 -40.19c0,99.26 -9.5,124.95 40.91,202.94 11.17,17.27 16.77,31.9 37.6,35.62 22.13,3.96 56.28,2.77 68.94,-7.78 69.15,-57.61 93.36,-276.29 40.75,-376.08 -13.81,-26.2 -52.2,-76.43 -82.73,-78.34 -28.48,-1.78 -71.03,52.85 -82.73,76.98 -22.41,46.18 -22.74,90.88 -22.74,146.66z"/>
   <path class="fil5" d="M1717.99 3769.29c16.52,-103.46 46.44,-190.88 60.86,-266.62 9.01,-47.35 -23.77,-54.19 -51.39,-33.08 -25.28,19.33 -43.02,123.92 -52.05,166.54 -43.08,203.24 -56.03,216.41 87.44,190.22 65.51,-11.95 237.39,-34.3 287.72,-56.73 11.69,-5.2 13.02,-2.99 20.19,-14.7 29.15,-47.58 -129.14,-14.01 -175.16,-7.98 -46.06,6.03 -132.15,24.5 -177.61,22.35z"/>
   <path class="fil5" d="M2768.89 3590.74c0,34.21 3.05,315.09 87.46,256.06 49.36,-34.52 -13.71,-172.08 210.64,-272.23 33.85,-15.11 65.22,-14.19 65.9,-51.39 -53.94,-19.72 -129.12,14.27 -171.07,38.43 -87.59,50.45 -91.37,92.26 -115.18,110.53l-10.45 -127.44c-67.26,-23.95 -67.3,-4.13 -67.3,46.04z"/>
   <path class="fil5" d="M7448.64 3762.97c0,-44.99 27.09,-118.76 -37.02,-119.81 -51.87,-0.84 -54.54,71 -54.54,119.81 0,58.45 3.3,163.02 76.96,158.49 62.1,-3.82 14.6,-86.45 14.6,-158.49z"/>
   <path class="fil5" d="M7285.44 3516.11c-0.85,57.91 65,34.21 108.52,28.31 39.16,-5.3 115.75,0.44 146.12,-14.55 17.54,-43.07 -50.25,-48.19 -88.05,-48.25 -49.41,-0.07 -135.59,5.4 -166.59,34.49z"/>
   <path class="fil0" d="M1931.14 2176.46c17.43,34.26 -2.68,65.14 51.49,50.08 11.83,-31.42 3.32,-67.43 -16.73,-90.55 -24.11,-27.8 -18.78,-55.08 -60.34,-38.29 -15.78,41.1 13.69,55.41 25.58,78.76z"/>
   <path class="fil0" d="M5762.91 2339.26l0 68.89 2.49 32.54c26.52,17.2 47.1,15.49 47.1,-26.8l0 -74.63c0,-57.79 -49.59,-55.33 -49.59,0z"/>
   <path class="fil0" d="M5762.91 2144.07l0 63.15c0,51.99 49.59,52.16 49.59,0 0,-33.19 3.63,-74 -5.72,-99.57 -33.26,-6.55 -43.87,-0.49 -43.87,36.42z"/>
   <path class="fil2" d="M4492.62 2620.56c0,33.62 -2.98,68.39 5.97,99.97l37.94 0.14c9.17,-30.76 5.71,-63.56 5.71,-100.11 0,-55.17 -49.62,-46.58 -49.62,0z"/>
   <path class="fil0" d="M5905.18 1552.78c0,29.98 -3.67,64.49 9.07,90.84l32.4 1.6c12.42,-26.54 8.12,-62.58 8.12,-98.19 0,-55.25 -49.59,-53.47 -49.59,5.75z"/>
   <path class="fil2" d="M4088.75 2723.89c0,-114.17 -74.99,-109.16 -56.79,-43.13 4.42,16.02 5.91,63.9 13.67,73.77 17.78,22.6 43.12,4.48 43.12,-30.64z"/>
   <path class="fil0" d="M1621.2 2784.54c-36.01,-11.97 -45.08,-3.86 -45.66,36.46 -0.3,20.66 -5.74,63.39 7.99,76.91 48.32,47.6 47.27,-73.85 37.67,-113.37z"/>
   <path class="fil0" d="M6295.18 1621.66c0,32.39 -3.67,63.31 6.35,87.44l37.01 0.76c34.6,-132.51 -43.36,-159.86 -43.36,-88.2z"/>
   <path class="fil0" d="M2137.33 2707.48c8.03,-21.6 7.87,-54.32 7.13,-81.68 -1.21,-44.7 -57.33,-94.28 -50.51,46.96 1.71,35.46 12.83,41.04 43.38,34.72z"/>
   <path class="fil0" d="M2101.21 2161.5c-10.26,23.88 -9.46,90.5 -2.24,116.16 47.8,15.01 45.28,-16.26 45.27,-58.95 -0.01,-43.07 4.45,-73.61 -43.03,-57.21z"/>
   <path class="fil0" d="M6295.18 1857.04c0,30.91 -3.74,62.86 8.28,85.81 49.61,7.71 41.32,-13.45 41.32,-85.81 0,-51.26 -49.6,-53.39 -49.6,0z"/>
   <path class="fil0" d="M2136.81 2367c-31.12,-7.21 -41.66,-0.15 -42.91,34.79 -4.96,137.71 49.27,92.59 50.55,47.06 0.81,-28.5 1.63,-61.09 -7.64,-81.85z"/>
   <path class="fil0" d="M6295.18 2712.41l0 51.66c0,40.86 21.56,44.23 46.51,26.64l3.73 -32.32 -0.64 -45.98c0,-48.93 -49.6,-56.82 -49.6,0z"/>
   <path class="fil0" d="M5762.88 2568.89l0 45.93c0,57.04 49.65,61.97 49.65,5.74l0 -51.67c0,-51.63 -49.65,-51 -49.65,0z"/>
   <path class="fil0" d="M2140.12 2040.06c31.97,-137.45 -71.93,-146.23 -42.77,-0.97 17.76,11.02 24.69,11.94 42.77,0.97z"/>
   <path class="fil0" d="M6339.73 2032.68c-68.8,-27.42 -45.18,89.83 -36.18,100.43 13.89,16.37 36.53,7.4 40.78,-17.76 4.48,-26.57 1.34,-59.96 -4.6,-82.67z"/>
   <path class="fil0" d="M7357.11 2190c0,27.77 -2.64,41.7 8.49,62.83l34.15 1.24c14.03,-32.66 8.02,-71.32 3.34,-106.31 -38.95,-11.68 -45.98,1.74 -45.98,42.24z"/>
   <path class="fil3" d="M8628.61 2075.18l0 40.19c0,46.18 18.42,39.97 47.4,30.01l2.73 -29.97 -0.45 -40.23c0,-47.23 -49.68,-51.8 -49.68,0z"/>
   <path class="fil0" d="M6295.18 2287.59c0,38.49 -6.81,98.72 46.56,61.17 5.98,-43.38 3.94,-53.15 -0.99,-96.79 -33.82,-8.57 -45.57,-3.64 -45.57,35.62z"/>
   <path class="fil0" d="M6295.18 2930.56l0 40.18c0,56.38 49.6,48.71 49.6,0l0 -34.44c0,-61.68 -49.6,-50.17 -49.6,-5.74z"/>
   <path class="fil2 str0" d="M9204.71 1797.78c-30.83,-6.97 -42.23,-8.18 -44.19,30.01 -1.15,22.23 -4.93,61.16 9.93,73.91 47.45,40.66 39.92,-81.52 34.26,-103.92z"/>
   <path class="fil0" d="M7357.11 2408.15c0,28.6 -3.86,52.24 21.46,55.75 34.71,4.81 29.4,-36.96 29.4,-61.49 0,-56.01 -50.86,-54.31 -50.86,5.74z"/>
   <path class="fil0" d="M7357.11 1983.33l0 11.48c0,55.5 50.86,57.8 50.86,5.74l0 -22.96c0,-59.85 -50.86,-59.86 -50.86,5.74z"/>
   <path class="fil0" d="M7357.11 2614.82l6.82 52.22 37.69 3.06c33.49,-104.81 -44.51,-136.54 -44.51,-55.28z"/>
   <path class="fil0" d="M2100.36 2809.15c-8.78,26.9 -9.76,65.9 0.79,92.95l34.8 0.14c11.68,-22.35 11.42,-69.33 1.98,-95.78l-37.57 2.69z"/>
   <path class="fil1" d="M6612.01 1669.46c17,4.21 20.98,4.23 37.08,-0.86 9.06,-22.5 9.09,-54.25 1.32,-77.8 -57.66,-17.32 -50.89,45.12 -38.4,78.66z"/>
   <path class="fil2" d="M4132.81 1743.57c72.26,28.18 44.02,-65.49 43.21,-67.03 -4.06,-7.76 -56.41,-51.31 -43.21,67.03z"/>
   <path class="fil2" d="M4327.43 3198.8c14.12,-30.27 10.53,-91.77 -30.74,-66.55 -10.3,6.29 -34.28,84.12 30.74,66.55z"/>
   <path class="fil2 str0" d="M9282.48 2368.82c20.88,5.67 49.39,4.48 43.63,-29.56l-4.94 -36.81c-52.77,-12.46 -52.33,25.74 -38.69,66.37z"/>
   <path class="fil6" d="M2191.32 3774.45c-7.07,-36.28 -13.66,-218.12 55.88,-169.44 20.7,14.48 13.41,45.37 12.03,71.81 -1.77,33.78 16.41,142.5 11.26,151.92 -9.5,17.37 -36.19,15.15 -52.15,1.1 -11.11,-9.78 -23.87,-39.21 -27.02,-55.39zm5507.77 -2950.75l9.92 0c229.44,1.46 269.12,213.71 274.19,409.44 0.6,23.17 1.69,65.5 -0.79,94.91 -4.74,56.07 -7.92,109.45 -7.92,167.32l17.35 -34.31c4.32,-11.16 7.5,-20.96 12.21,-33.72 7.88,-21.38 17.58,-43.73 27.83,-64.03 20.85,-41.29 41.95,-80.97 73.25,-116.2 10.96,-12.33 36.59,-38.77 49.75,-47.85 15,-10.35 41.53,-26.22 57.81,-34.04 55.39,-26.63 89.26,-25.86 152.38,-25.88 60.15,-0.02 97.79,8.96 138.55,39.35 37.79,28.18 61.88,60.88 95.23,94.22 39.65,39.65 56.56,51.12 79.41,110.04 22.22,57.3 62.32,79.25 65.56,118.16 22.53,-16.51 15.67,-42.37 18.46,-78.92 1.53,-20.01 2.31,-33.83 8.7,-65.99 19.17,-96.49 36.46,-81.26 56.73,-132.88l29.03 -79.14c14.14,-30.57 57.88,-66.87 78.96,-94.17 41.18,-53.31 96.68,-99.36 156.52,-130.53l68.47 -29.13c45.62,-15.14 158.91,-33.27 208.6,-19.8l40.57 10.49c40.78,9.48 66.16,32.06 98.34,39.83 27.86,6.72 39.38,8.53 62.48,23.23 24.74,15.76 33.95,20.66 49.75,47.89 34.55,59.55 69.87,53.27 97.99,143.13 7.81,24.96 27.67,37.32 36.02,61.57 13.71,39.85 29.96,166.2 26.15,204.38 -6.71,67.26 5.94,108.5 -4.24,179.52 -5.77,40.29 -15.38,86.85 -30.59,124.35 -33.02,81.37 -87.57,209.5 -192.42,209.5l43.99 65.09c18.83,33 53.16,55 63.98,92.7l25.79 75.87c30.22,56.14 44.63,118.27 60.23,180.29l6.85 102.5c-5.96,66.05 6.1,108.8 -0.28,177.96 -5.61,60.83 -7.61,17.05 -0.36,81.26 7.42,65.72 -5.18,124.1 -11.72,187.8 -9.47,92.31 -40.64,198.29 -87.01,274.67 -8.76,14.42 -13.73,16.73 -15.36,36.31 129.58,0 250.52,29.87 345.55,113.75 99.4,87.75 154.32,186.71 174.63,318.94 0.87,5.67 1.62,11.32 2.28,16.95l0 105.07c-7.74,65.54 -29.82,127.78 -63.34,185.66 -36.73,63.44 -76.86,108 -135.02,152.03 -20.31,15.38 -38.38,25.67 -59.59,38.01 -59.21,34.45 -122.93,50.31 -190.27,57l-315.37 0 -126.04 0c-2644.9,-0.15 -5289.82,-4.71 -7934.72,0l-23.67 0c-27.78,-0.12 -50.46,-0.86 -65.46,-4.42 -78.16,-18.6 -166.13,-44.68 -225.33,-100.2l-45.39 -40.73c-1.11,-1.25 -3.85,-5.28 -4.86,-6.62 -42.96,-56.68 -61.85,-70.17 -94.44,-140.93 -4.78,-10.37 -13.01,-27.76 -15.89,-35.79 -4.5,-12.56 -6.39,-22.39 -9.49,-36.45 -8.62,-39.07 -13.61,-75.72 -14.94,-111.04l0 -37.92c2.22,-58.12 14.79,-113.56 37.75,-171.48 6.78,-17.1 6.88,-21.85 14.97,-36.71 5.38,-9.9 11.17,-19.16 17.27,-28.66l79.85 -98.11c0.81,-0.86 1.99,-2.09 2.82,-2.93 58.09,-58.75 166.13,-123.94 249.23,-123.94 -2.04,-24.5 -14.03,-50.31 -19.68,-77.92 -14.94,-72.95 -11.72,-158.43 -5.35,-231.09l0.7 -11.62c0.06,-1.22 0.19,-2.85 0.24,-4.11 2.16,-52.22 -14.43,-123.86 -16.23,-174.51l7.55 -181.07c4.87,-50.61 -1.87,-64.72 -1.69,-129.1 0.22,-83.94 -3.83,-101.26 -10.39,-173.93 -10.63,-117.8 -1.08,-175.14 -1.08,-325.54 0,-174.32 -18.32,-230.11 -22.87,-344.01 -6.7,-167.92 -11.37,-278.6 73.57,-386.03 28.92,-36.58 66.79,-65.99 107.94,-87.26 26.86,-13.89 40.73,-16.83 75.29,-22.13 103.97,-15.97 213.24,52.24 265.56,64.43 35.44,-52.92 81.34,-96.82 139.6,-124.49 105.32,-50.03 247.86,-76.95 344.53,2.07 65.29,53.37 118.7,115.79 118.7,208.53 25.9,-13.7 72.27,-32.89 103.61,-39.92 87.01,-19.5 184.03,6.4 249.63,65.61l17.3 17.14c11.17,11.14 15.92,14.86 19.87,31.8 26.77,-2.23 34.83,-20.28 50.23,-35.88 79.45,-80.45 211.72,-89.94 309.62,-36.9 38.38,20.79 67.77,49.46 87.97,78.52l11.48 11.48c6.86,-29.42 69.99,-88.34 96.33,-104.6 42.34,-26.14 80.07,-46.28 137.52,-57.68 22.79,-4.52 60.59,-11.42 75.85,-13.4 39.33,-5.11 141.86,-49.48 249.54,-21.84 106.19,27.25 157.53,102.2 192.12,198.27 5.03,13.99 8.02,28.57 10.78,41.04 3.38,15.26 6.82,24.06 8.53,34.11l6.32 162.35c-0.04,16.14 -2.95,51.89 3.82,66.01 0.77,-1.21 1.53,-2.99 1.89,-3.85l57.15 -192.32c10.73,-35.13 58.72,-128.04 84.18,-171.93 6.21,-10.71 1.02,-0.27 7.04,-12.41 8.51,-17.15 -4.75,7.95 3.64,-8.37 4.12,-8.01 7.46,-11.81 12.31,-18.61 12.03,-16.91 19.13,-31.48 31.41,-49.35 53.2,-77.43 159.59,-123.83 256.1,-123.21 44.09,0.28 77.07,4.57 116.93,20.67 107.29,43.35 59.91,34.7 122.34,107.57 62.13,72.52 84.34,182.76 78.52,249.93 -4.31,49.82 -11.22,90.87 -18.99,133.78 -5.99,33.12 -10.63,71.27 -21.02,116.38 -29.54,128.2 -41.29,126.62 -88.48,215.8 153.51,35.76 193.68,125.22 212.43,137.77l40.09 -270.07c5.38,-98.69 30.07,-167.1 46.09,-263.76 7.61,-45.9 38.76,-235.95 62.51,-279.33l32.48 -44.76c6.23,-7.91 13.91,-14.83 19.68,-20.51l43.63 -36.74c10.33,-8.11 12.08,-11.47 21.42,-18.77 18.99,-14.83 14.73,-2.45 17.48,-11.23 0.54,-1.73 2.53,-1.25 3.68,-2.05 95.39,-50.47 190.99,-63.01 291.03,-9.7 36.93,19.69 43.2,37.23 70.67,55.63 11.07,16.53 17.37,19.25 29.23,39.66l53.78 141.42c17.47,43.82 31.82,166.59 31.82,226.51l5.74 0c0,-139.2 43.96,-236.33 150.07,-314.94 26.3,-19.49 42,-26.02 76.16,-39.06l28.11 -10.79c1.41,-0.32 5.57,-0.87 7.17,-1.14 36.49,-6.28 64.89,-12.02 103.99,-4.85 16.94,3.11 40.71,4.1 51.28,11.66l48.26 37.64c20.97,-78.51 198.03,-207.81 355.96,-132.04l7.32 4.17c0.91,0.56 2.57,1.53 3.57,2.16l19.71 14.74c41.55,33.18 60.01,62.25 72.75,70.78 4.84,-18.13 28.79,-48.04 41.54,-61.79 56.66,-61.08 112.03,-87.58 195.36,-103.18 143.86,-26.94 186.01,7.13 268.33,101.82 8.24,-30.87 47.74,-69.54 70.25,-90.49 41.97,-39.07 75.8,-48.02 130.39,-64.21l181.06 -49.18c2.99,-0.83 10.44,-2.79 13.49,-3.74l12.44 -4.78c115.66,-9.63 42.88,-44.05 310.21,-45.93zm-1038.43 2922.04c-25.57,73.28 -134.7,150.6 -233.7,162.62 -323.23,39.24 -214.87,-400.89 39.38,-342.2 84.18,19.44 29.03,6.18 77.31,8.95 22.87,1.31 53.82,17.19 69.07,28.12 37.7,27 69.32,81.24 47.94,142.51zm-3123.58 -40.18c-52.5,180 -421.67,237.57 -366.57,-15.78 18.97,-87.21 90.81,-172.06 195.38,-146.26 65.92,16.26 11.09,7.46 67.11,9.62 55.93,2.17 127.95,70.57 104.08,152.42zm3911.56 57.41c0,72.04 47.5,154.67 -14.6,158.49 -73.66,4.53 -76.96,-100.04 -76.96,-158.49 0,-48.81 2.67,-120.65 54.54,-119.81 64.11,1.05 37.02,74.82 37.02,119.81zm1094.41 -4.44c-16.08,88.06 108.15,93.88 178.64,73.53 39.43,-11.38 149.6,-77.58 143.08,-18.79 -1.88,16.92 -22.65,29.95 -37.1,39.4 -121.86,79.7 -350.56,81.44 -384.76,-69.69 -51.16,-226.06 363.24,-256.1 411.39,-129.77 18.15,47.64 -31.94,58.99 -65.28,69.33 -77.47,24.04 -158.77,35.78 -245.97,35.99zm-3677.5 -39.38c-3.1,98.26 122.93,79.09 183.86,52.64 32.17,-13.96 47.16,-34.88 83.91,-21.27 3.34,45.01 -58.59,75.75 -101.22,89.61 -53.31,17.33 -119.81,16.06 -167.75,-4.49 -98.65,-42.31 -117.36,-172.04 -32.23,-235.4 68.42,-50.93 232.19,-76.1 284.77,6.22 63.19,98.95 -185.3,99.93 -251.34,112.69zm4053.3 261.96c20.98,-57.4 141.95,-19.37 290.89,-51.38 36.81,-7.91 67.65,-11.65 73.67,-48.19 -39.71,-42.17 -151.26,-81.66 -216.82,-113.86 -230.05,-112.98 114.97,-297.63 269.76,-195.31 32.99,21.81 53.81,90.19 -6.97,96.09 -91.52,8.89 13.91,-71.26 -120.49,-55.7 -33.82,3.92 -105.16,25.81 -116.54,51.33 -30.29,67.97 253.21,104.19 294.59,202.25 54.49,129.13 -255.73,149 -338.84,152.96 -61.39,2.92 -101.48,1.41 -129.25,-38.19zm-3677.27 -430.66c109.74,-42.85 90.34,99.11 104.35,170.78 44.75,-40.23 130.03,-201.33 240.47,-136.14 39.02,23.04 63.01,68.97 76.45,123.65 14.13,57.49 35.56,132.55 -51.63,120.98 -50.08,-78.13 -17.39,-310.4 -189.93,-82.27 -15.14,20.03 -80.37,113.61 -92.61,119.81 -85.48,43.24 -71.02,-82.24 -72.91,-127.15 -1.92,-45.82 -23.04,-159.01 -14.19,-189.66zm486.07 379c22.93,-71.11 250.37,0.66 308.19,-80.37 -15.7,-83.41 -324.25,-114.69 -237.06,-240.91 97.44,-141.05 352.88,-84.84 305.47,11.39 -9.97,18.18 -31.09,28.69 -52.54,16.86 -28.88,-15.94 -0.28,-40.45 -36.43,-49.43 -34.75,-8.62 -116.68,17.94 -133.77,35.4 -53.27,54.47 100.82,87.39 185.5,141.89 110.16,70.91 59.69,145.4 -51.41,176.21 -70.15,19.46 -247.5,52.79 -287.95,-11.04zm1891.1 -280.8c0.23,-36.92 21.79,-41.83 47.05,-56.64 67.95,-39.83 153.84,-84.54 239.8,-85.2 82.21,-0.64 102.85,26.2 102.03,106.85 -0.7,67.87 -7.91,132.9 -19.48,194.35 28.63,18.67 55.66,23.63 49.36,71.86 -56.99,40.12 -54.5,-2.23 -104.48,13.67 -72.92,23.19 -240.54,111.5 -313.01,28.58 -57.85,-66.2 25.23,-141.78 66.97,-165.37 25.33,-14.33 68.98,-29.36 104.51,-32.08 66.25,-5.08 65.84,5.01 111.35,18.98 35.57,-202.93 7.68,-203.56 -180.98,-107.08 -40.81,20.87 -63.04,43.93 -103.12,12.08zm-3294.08 252.09c30.12,-57.03 243.62,5.58 288.48,-74.63 -34.01,-80.13 -320.67,-117.01 -211.67,-242.91 33.38,-38.55 106.92,-79.09 185.68,-67.43 108.85,16.12 124.13,123.11 35.08,108.29 -15.82,-23.46 2.88,-68.75 -94.67,-41.18 -33.6,9.5 -93.96,33.88 -60.63,70.29 37.87,41.36 306.63,108.69 212.81,219.79 -45.72,54.13 -329.29,110.05 -355.08,27.78zm-638.91 26.68l-34.45 0c-59.87,0 -104.83,-61.15 -0.2,-63.66 57.3,-1.37 187.97,0.82 213.88,-49.13 -28.8,-77.43 -342.61,-123.17 -186.28,-253.93 46.46,-38.87 124.05,-69.92 197.44,-39.81 77.23,31.69 59.53,112.6 5.98,98.6 -26.36,-6.89 -13.75,-19.87 -24.22,-44.73 -62.41,-14.25 -190.55,24.98 -121.23,79.8 37.5,29.64 115.74,57.06 159.97,87.11 63.89,43.41 70.75,106.96 -5.34,146.39 -47.16,24.43 -144.57,39.36 -205.55,39.36zm3099.74 -313.71l1.56 -38.95c27.74,-17.5 51.09,-11.73 83.46,0.45l11.77 147.24c44.38,-63.38 68.46,-93.53 140.85,-129.85 40.85,-20.49 164.94,-71.45 214.17,-40.18 -1.99,69.02 -221.86,35.17 -303.09,255.37 -11.91,32.29 -13.86,76.93 -40.31,97.78 -37.2,29.32 -69.02,-3.12 -79.87,-38.5 -16.86,-54.93 -28.54,-189.81 -28.54,-253.36zm-4016.61 -22.97c0,-50.17 0.04,-69.99 67.3,-46.04l10.45 127.44c23.81,-18.27 27.59,-60.08 115.18,-110.53 41.95,-24.16 117.13,-58.15 171.07,-38.43 -0.68,37.2 -32.05,36.28 -65.9,51.39 -224.35,100.15 -161.28,237.71 -210.64,272.23 -84.41,59.03 -87.46,-221.85 -87.46,-256.06zm4516.55 -74.63c31,-29.09 117.18,-34.56 166.59,-34.49 37.8,0.06 105.59,5.18 88.05,48.25 -30.37,14.99 -106.96,9.25 -146.12,14.55 -43.52,5.9 -109.37,29.6 -108.52,-28.31zm-5567.45 253.18c45.46,2.15 131.55,-16.32 177.61,-22.35 46.02,-6.03 204.31,-39.6 175.16,7.98 -7.17,11.71 -8.5,9.5 -20.19,14.7 -50.33,22.43 -222.21,44.78 -287.72,56.73 -143.47,26.19 -130.52,13.02 -87.44,-190.22 9.03,-42.62 26.77,-147.21 52.05,-166.54 27.62,-21.11 60.4,-14.27 51.39,33.08 -14.42,75.74 -44.34,163.16 -60.86,266.62zm6584.7 -264.66c-8.72,95.15 -8.55,222.07 -3.48,316.98 2,37.58 11.03,125.45 -14.69,142.3 -51.6,33.81 -76.2,-34.88 -77.85,-74.32 -2.7,-64.49 -19.41,-414.5 29.14,-456.7 16.42,-14.28 46.85,-12.81 60.53,2.75 13.87,15.77 8.33,47.37 6.35,68.99zm-6172.79 -18.85c33.78,-26 213.09,-50.49 198.16,5.66 -6.08,22.85 -87.4,16.36 -111.08,19.74 -40.44,5.78 -82.76,26.75 -87.08,-25.4zm346.95 59.04l1.67 31.2c19.31,-11.49 90.51,-80.23 167.43,-24.64 103.73,74.96 0.7,202.64 -107.32,258.65 -40.63,21.07 -117.52,77.38 -159.32,31.91 2.5,-26.1 19.36,-34.1 43.93,-43.5 -9.95,-104.66 -34.9,-320.85 3.2,-419.92 97.15,-10.82 45.85,93.05 50.41,166.3zm6255.48 -470.74l17.23 114.81 -63.16 0c2.05,-24.59 1.58,-10.96 10.14,-30.05 5.59,-12.48 7.29,-16.57 13.12,-27.07 11.31,-20.37 16.45,-30.98 22.67,-57.69zm-5626.44 -160.75l6.1 212.05c1.63,22.8 9.27,41.2 11.12,63.51l-132.04 0 114.82 -275.56zm-775.07 160.75l68.9 114.81 -91.87 0c4.3,-18.42 13.14,-32.57 15.93,-52.97 3.81,-28 -3.5,-39.88 7.04,-61.84zm-522.46 17.22c7.92,12.47 4.53,51.9 28.71,97.59l-63.15 0c5.04,-21.64 12.03,-25.02 18.86,-44.29 7.58,-21.38 5.83,-32.97 15.58,-53.3zm2175.95 97.59l-68.9 0c6.4,-27.49 20.16,-35.21 22.96,-68.89 13.23,9.69 16.34,19.35 24.25,35.77 0.59,1.2 1.95,4.3 2.55,5.43 0.32,0.59 1.08,2.03 1.42,2.61l17.72 25.08zm-2175.95 -97.59c-5.82,-7.7 -5.74,12.07 -5.74,-17.22 5.31,7.01 3.73,-6.46 5.74,17.22zm522.46 -17.22l0 0zm2909.99 -229.63c0,-53.74 14.59,-133.76 -15.14,-173.58 -14.54,-19.48 -39.96,-26.48 -57.05,-3.23 -12.37,16.83 -12.4,51 -16.24,75.89 -25.17,163.04 -12.53,219.4 -28.46,351.59 -37.42,310.66 -257.69,168.43 -335.67,41.74 -15.53,-25.24 -8.9,-36.22 -3.81,-71.64l180.12 -1330.25c24.64,-102.98 44.04,-209.41 63.96,-314.79 8.83,-46.75 16.57,-117.64 41.14,-148.45 18.12,-22.74 76.25,-71.61 106.64,-83.03 22.79,-8.57 67.97,-6.04 94.53,-4.74 43.13,2.12 98.88,77.44 102.08,88.62 7.91,27.68 5.68,44.87 18.68,72.67 57.42,122.82 113.95,852.7 127.88,1007.92 11.2,124.87 59.33,606.92 59.33,692.2 0,121.36 -93.11,196.32 -199.37,196.32 -85.45,0 -92.52,-65.98 -108.72,-162.67 -10.59,-63.2 -29.9,-169.32 -29.9,-234.57zm3629.31 -424.82l0 0zm0 0c-10.49,-25.4 5.75,-53.34 5.75,-103.33l11.48 0c9.34,35 45.12,50.54 57.41,68.88 -34.84,2.9 -48.54,20.64 -74.64,34.45zm-549.74 -1108.96c68.78,-15.9 99.27,-8.76 136.66,29.39 68.93,70.31 96.06,78.29 115.74,142.66 19.33,63.19 55.77,70.65 65.05,106.81 4.42,17.23 0.36,27.9 2.63,43.44 4.49,30.75 1.52,8.37 14,26.11 6.53,9.29 69.34,250.77 74.11,274.92l21.41 324.41c8.69,132.15 -6.23,195.7 -10.79,327.58 -4.49,129.6 -82.65,445.15 -142.54,553.45 -24.55,44.38 -37.54,67.95 -67.27,104.56 -35.95,44.26 -32.51,54.74 -112.57,60.66 -54.59,4.03 -122.41,4.5 -153.49,-25.76 -24.54,-23.9 -65.33,-61.23 -85.52,-86.63 -41.46,-52.16 -91.09,-160.92 -112.58,-232.18 -28.04,-93.01 -58.03,-179.6 -68.53,-281.1 -9.79,-94.61 -21.49,-234 -7.57,-331.81 7.88,-55.36 -6.47,-111.65 4.6,-172.75 3.44,-18.98 17.85,-53.12 18.28,-65.07 1.09,-30.41 -13.45,-26.32 -1.45,-66.21 23.3,-77.48 13.84,-235.79 47.59,-297.69 49.65,-91.07 7.11,-57.15 39.63,-137.94 16,-39.73 32.71,-82.91 49.69,-122.53 40.01,-93.35 77.87,-152.34 172.92,-174.32zm-1264.5 643.96c38.9,18.66 56.34,17.22 97.61,17.22l-2.52 95.75c-9.35,90.73 -5.74,540.03 3.32,626.78 16.99,162.72 4.94,57.41 4.94,161.55l5.21 92c3.48,53.27 18.18,164.3 38.84,213.23l19.1 27.73 -218.17 0c5.08,-19.03 6.73,-9.77 13.74,-27.34l12.69 -37.94c9.16,-30.15 7.72,-63.07 11.96,-91.52 5.16,-34.68 10.1,-62.27 11.99,-80.47l12.78 -84.21c0,-70.62 3.05,-150.83 -2.86,-219.53l-2.27 -177.87c-17.94,-103.83 -0.61,-70.98 -0.61,-147.97l-5.41 -91.7c-3.41,-56.4 0.94,-42.44 6.85,-76.35 0.85,-4.87 0.75,-6.91 0.67,-18.48 -0.45,-63.56 -7.24,-87.95 -11.41,-141.67 -1.54,-19.82 3.55,-16.53 3.55,-39.21zm-3197.88 -45.93c0,72.73 -34.45,221.73 -34.45,275.56l-5.74 0c0,-41.42 -9.87,-66.95 -20.77,-99.79 -6.6,-19.87 -8.74,-28.45 -17.73,-45.88l-18.91 -32.29c37.6,-10.04 78.01,-83.25 97.6,-97.6zm0 0l0 0zm4007.4 114.82c0,66.7 12.36,2.79 -7.8,78.15 -15.6,58.34 -8.98,202.99 -9.29,272.33 -0.16,37.7 -3.13,46.27 -3.01,64.33l-0.09 71.31c0.34,13.21 1.56,10.5 2.58,30.4 1.95,38.08 4.3,57.55 6.65,91.85 6.47,94.43 70.72,329.73 115.33,435.42l55.78 104.97c5.55,7.54 6.98,8.99 12.09,16.61l-367.44 0c39.69,-59.27 48.55,-45.97 78.54,-145.73 18.41,-61.25 19.06,-485.99 19.06,-554.64 0,-35.23 -1.63,-71.79 1.68,-106.25 8.17,-85.03 -0.76,-92.85 -7.13,-169.61 -3.24,-39.1 2.74,-78.35 2.67,-90.21l2.88 -110.28c1.78,-20.75 6.15,-23.95 13.48,-43.98 6.19,-16.92 10.44,-25.57 15.5,-40.21 11.02,-31.86 23.59,-14.9 58.46,-46.56 15.39,-13.96 11.77,-18.71 33.03,-24.38 0,44.37 -9.39,17.64 -11.32,80.14l-11.65 86.34zm-4348.73 496.87c-27.62,64.5 -15.88,110.42 59.66,87.59 84.72,-25.61 215.78,-46.35 245.82,66.01 22.61,84.51 36.94,397.79 -6.27,478.46 -100.41,187.47 -453.85,160.22 -517.15,107.74 -66.33,-54.99 -47.78,-197.2 -49.77,-300.94 -1.14,-59.2 -11.62,-110.33 -12.67,-166.36 -1.09,-57.65 4.38,-115.06 1.75,-172.53 -2.66,-58.04 -14.53,-97.26 -17.87,-160.53 -2.88,-54.56 -3.43,-112.89 -4.09,-166.22 -1.43,-115.69 -18.87,-254.49 -19.27,-333.01 -0.56,-111.42 7.05,-228.01 10.45,-338.93 2.92,-95.07 23.01,-195.76 90.65,-261.31 70.35,-68.18 152.73,-60.23 259.38,-91.16 121.6,-35.27 196.9,7.34 226.71,105.31 28.5,93.69 22.33,222.26 20.33,327.66 -2.08,109.37 -43.87,196.38 -107.64,240.61 -56.19,38.96 -69.9,33.63 -130.76,11.24 -64.73,-23.82 -84.42,32.19 -67.97,91.56 24,17.96 53.19,19.62 90.52,19.75 41.94,0.13 48.77,14.38 66.73,40.44 61.39,89.03 45.71,173.1 46.1,279.49 0.17,47.99 6.26,60.08 -22.02,85.35 -90.98,81.29 -91.6,36.22 -162.62,49.78zm3245.91 -1371.77c82.21,-11.35 77.62,-3.49 116.44,41.46 42.55,49.26 34.86,54.26 33.47,127.5 -0.94,48.99 15.96,91.72 16.67,148.98 0.3,24.5 -2.53,57.76 -0.56,80.52 2.25,25.91 10.59,37.21 11.79,68.57 2.23,57.96 -6.38,108.1 -6.96,161.02 -0.53,47.82 11.71,101.48 9.18,155.05 -3.2,68.04 -15.29,76.24 -5.34,146.28 8.58,60.45 11.57,93.99 -7.51,147.02 -10.98,30.53 6.86,32.83 10.43,62.92 4.37,36.87 1.31,117.97 -6.61,152.97 -5.58,24.68 5.63,32.92 7.01,64.59 5.53,127.26 16.55,352.96 -3.39,478.02 -3.84,24.13 -10.46,45.45 -12.31,68.06 -4.33,52.88 14.93,89.65 -75.69,166.2 -28.23,23.85 -35.79,4.51 -64.67,16.09 -13.09,5.25 -26.92,23.5 -51.04,29.87 -46.21,12.2 -109.82,-22.57 -121.98,-44.24 -0.06,-0.09 -22.85,-118.04 -26.81,-133.68 -14.45,-56.88 -14.83,-85.53 5.63,-138.83 20.18,-52.56 -13.17,-57.38 -13.31,-125.36 -0.11,-54.14 2.47,-111.45 2.71,-166.64 0.13,-31.12 1.95,-45.55 -6.57,-74.01 -13.64,-45.55 -4.85,-33 0.77,-70.72 3.02,-20.21 -12.31,-117.2 -13.06,-153.74l5.05 -321.53c1.31,-46.74 -13.5,-107.1 -4.58,-144.87 3.27,-13.8 -41.27,-370.72 20.77,-598.5 25.85,-94.91 76.54,-128.65 180.47,-143zm-662.01 762.61c10.9,-46.35 13.26,-50.52 11.75,-105.9 -1.41,-51.54 14.82,-58.56 4.92,-100.33 -10.05,-42.36 -3.76,-184.5 -3.76,-238.34 0,-84.52 -3.62,-142.33 39.53,-202.33 32.75,-45.52 129.37,-79.65 164.36,-58.31 68.91,42.03 76.17,62.6 78.35,163.24 0.91,41.98 8.96,69.31 12.81,108.66 3.71,37.81 -1.59,81.44 -1.52,120.78 0.13,86.14 16.52,143.89 14.37,229.63 -3.25,129.6 -9.3,358.78 0.45,481.54 2.83,35.57 11.84,69.57 13.96,103.95 2.29,37.25 3.01,80.25 4.17,115.17 4.35,131.3 -18.45,163.02 -20.03,217.57 -4.08,140.75 61.26,514.54 -234.89,474.61 -46.51,-6.27 -45.09,-23.47 -66.51,-53.85 -34.43,-48.85 -22.31,-24.31 -32.54,-87.03 -4,-24.56 -28.2,-48.36 -35.15,-87.19 -9.96,-55.68 15.92,-61.11 -35.28,-86.75 -20.6,81.71 2.86,158.3 -10.34,218.43 -11.91,54.24 -60.64,106.58 -105.36,125.19 -77.31,32.17 -135.87,-1.7 -161.95,-51.99 -41.59,-80.2 -22.34,-277.5 -36.74,-416.63 -16.84,-162.69 -9.52,-502.06 -5.17,-665.98 4.04,-152.57 2.12,-306.46 2.12,-459.26 0,-63.14 -7.94,-163.49 10.52,-215.88 19.25,-54.64 56.77,-94.63 105.87,-118.37 88.53,-42.79 108.9,-22.18 148.1,38.34 31.39,48.47 49.86,105.15 55.86,171.22 3.69,40.54 8.91,63.78 17.46,99.89 9.43,39.84 5.98,68.76 13.42,101.72 6.99,31.01 16.18,58.42 22.87,92.32 13.7,69.46 -0.63,71.92 28.35,85.88zm-2173.68 -312.53l-3.16 12.34 3.16 -12.34zm-1217.15 801.39c52.2,-71.37 31.62,-148.38 41.48,-185.81 9.29,-35.28 -0.68,-78.52 7.59,-113.06 13.91,-58.06 -21.47,-124.72 3.17,-215.19 8.72,-32.03 -22.71,-143.89 -1.26,-218.78 13.75,-48.04 -25.36,-109.06 3.42,-209.31 6.52,-22.71 8.53,-30.48 23.39,-39.98 26.05,-16.66 12.45,3.8 33.45,-23.91 42.99,-56.73 91.48,-69.48 165.95,-38.11 70.69,29.79 64.69,84.72 71.67,168.32 13.89,166.59 17.94,540.39 3.11,692.96 -3.99,41.11 -10.49,60.82 -8.3,110.56 1.88,42.32 4.42,74.82 -3.02,117.49 -8.76,50.25 -24.43,39.4 -13.5,95.04 7.1,36.12 3.84,65.05 -4.18,98.54 -34.87,145.54 -9.32,203.88 -79.1,397.71 -122.14,339.27 -440.4,310.82 -569.79,-182.38 -20.57,-78.42 -17.25,-131.56 -29.03,-206.32 -42.81,-271.55 -30.78,-427.31 -30.51,-687.49 0.08,-80.37 -3.5,-155.83 17.95,-218.58 7.36,-21.5 -12.08,-62.87 -16.89,-90.38 -18.12,-103.79 12.45,-167.77 14.13,-213.89 1.91,-52.26 -9.23,-59.71 34.29,-82.72 65.5,-34.63 123.41,-42.52 187.19,2.27 22.54,15.83 40.96,35.69 53.33,67.04 15.94,40.38 4.22,67.94 11.67,104 3.24,15.67 13.53,27.67 12.08,46.03 -1.48,18.64 -10.16,26.38 -12.9,42.96 -5.12,30.97 0.48,85.48 -0.9,119.66 -1.05,26.08 -8.81,36.2 -9.68,52.48 -0.82,15.34 7.1,27.92 9.9,45.02 12.78,78.26 -18.45,113 -4.26,213.52 22.25,157.65 -23.33,131.08 8.57,223.42 11.84,34.29 4.25,72.5 6.29,108.24 35.84,24.83 15.72,23.97 74.69,20.65zm2836.19 -887.5l1.71 1.71c-0.11,-0.11 -2.28,-1.14 -1.71,-1.71zm3442.74 1047.16c25.79,34.06 -5.54,18.38 45.17,63.58 14.29,12.74 38.44,35.37 57.1,46.2 134.76,78.2 190.55,-174.98 142.83,-223.27 -127.6,-129.13 -160.09,-53.8 -246.66,-178.14 -48.97,-70.33 -109.29,-240.31 -93.7,-318.53 7.43,-37.34 -14.74,-33.89 -19.14,-75.09 -7.19,-67.31 -0.81,-248.33 13.61,-303.94 12.94,-49.95 12.41,-140.85 30.26,-182.46 10.13,-23.6 29.13,-41.78 39.47,-69.62 9.21,-24.81 14.12,-55.6 27.45,-75.61 11.79,-17.7 37.46,-37.16 52.95,-55.82 19.14,-23.06 28.05,-38.96 46.73,-56.9 61.98,-59.54 193.86,-122.68 316.87,-80.23 31.98,11.03 38.53,26.08 75.92,33.21 41.21,7.86 43.71,11.55 57.14,46.35 24.29,62.9 71.46,-3.73 77.25,129.82 40.92,25.08 33.57,21.08 49.83,110.89 10.88,60.09 -13.25,88.14 -1.84,133.56 18.39,73.2 -21.13,199.43 -50.34,254.29 -33.56,63.04 -42.03,72.15 -84.86,72.09 -57,-0.08 -70.57,-31.35 -100.98,-55.84 -40.69,-32.77 -93.36,-23.46 -119.33,-6.07 -40.73,27.28 -43.4,148.98 -9.1,180.2 10.08,9.17 13.23,5.02 26.52,14.02 20.56,13.91 3.85,9.82 19.59,19.6 16.83,10.46 46.76,4.93 64.54,16.75 22.73,15.11 11.56,21.57 37.62,37.07 78.71,46.81 35.5,43.3 72.58,82.32 20.26,21.31 22.31,4.14 34.82,45.56 5.21,17.23 10.16,43 16.29,58.97 11.01,28.68 21.81,18.63 29.17,49.06 7.35,30.43 8.06,29.82 18.77,57.71 39.86,103.78 7.91,146.08 17.7,193.51 21.05,101.95 -20.53,137.12 -0.91,208.27 18.69,67.82 -12.68,205.84 -30.26,270.77 -23.6,87.19 -52.35,160.67 -112.87,197.04 -32.82,19.73 -18.29,6.79 -32.64,47.67 -41.77,118.94 -197.61,228.09 -342.72,191.76 -36.74,-9.19 -78.69,-29.82 -101.31,-58.77 -135.78,-173.81 -122.66,-150.71 -133.66,-328.84 -4.8,-77.6 -1.05,-70.71 15.14,-136.6 7.61,-30.99 -0.08,-94.8 4.65,-138.44 2.73,-25.08 11.1,-46.02 13.63,-69.21 2.46,-22.63 -3.7,-49.46 5.61,-67.66 12.53,-24.5 24.18,-13.37 33.85,-47.42 7.25,-25.55 5.02,-34.31 37.26,-31.81zm-4631.85 43.58c-10.16,-45.66 -25.91,17.4 -37.18,-88.87 -11.55,-108.74 -37.82,-235.7 -23.85,-346.16 23.34,-184.52 239.53,-157.9 319.39,-115.36 68.86,36.68 78.13,76.7 83.31,171.61 9.16,167.72 4.81,426.39 -12.24,597.16 -4.01,40.07 1,80.8 -2.57,120.02 -8.57,93.98 -83.81,301.03 -125.68,373.08 -73.99,127.34 -215.34,129.75 -319.64,21.82 -63.85,-66.07 -173.7,-209.44 -187.9,-307.4 -3.9,-26.92 -7.27,-19.43 -18.81,-42.32l-33.99 -149.37c-11.69,-59.33 -38.58,-150.49 -36.71,-211.24 1.56,-50.62 -12.74,-71.83 -12.07,-114.6 0.67,-42.14 3.98,-78.27 5.64,-120.83 3.12,-80.05 7.6,-152.11 18.37,-229.83 37.55,-270.89 42.72,-363.37 127.05,-613.59 39.51,-117.2 120.61,-343.6 263.22,-357.26 29.58,-2.84 86.2,-0.42 107.18,14.17 32.55,22.64 87.36,93.89 103.96,149.1 22.02,73.2 -38.19,428.73 -112.99,492.5 -47.58,40.58 -119.74,-53.01 -197.49,169.84 -34.07,97.65 0.44,150.94 -33.22,214.24 -17.61,33.11 13.96,35.13 14.7,91.74 0.45,34.19 -4.66,85.83 2.09,117.11 16.98,78.7 16.16,123.01 52.95,193.82l56.48 -29.38zm3284.71 -344.15c0.87,35.95 12.3,48.32 13.13,85.58l-2.89 287.28c-2.32,120.92 -5.37,252.4 -14.55,368.54 -7.17,90.83 -7.47,83.16 -51.07,138.82 -29.12,37.18 -63.26,69.58 -113.6,75.87 -25.56,3.2 -65.16,7.01 -84.04,-8.69 -46.15,-38.4 -66.34,-65 -69.34,-126.77 -4.74,-97.73 -25.04,-48.29 -13.57,-260.44 1.97,-36.39 -12.04,-120.48 -15.2,-169.47 -7.72,-119.56 -2.7,-256 -1.87,-379.53 0.49,-72.84 20.19,-312.81 -15.11,-355.27 -28.62,-34.41 -118.42,-11.75 -147.29,-47.97 -21.01,-26.34 -44.26,-101.48 -47.4,-142.06 -8.45,-109.23 6.35,-37.75 -15.47,-178.76 -16.66,-107.73 -11.64,-307.55 67.71,-400.72 8.63,-10.14 34.87,-32.8 52.06,-40.09 37.38,-15.83 253.32,-69.04 302.97,-77.04 37.31,-6.01 35.08,-20.93 69.77,-26.56 26.83,-4.36 62.25,-4.21 91.52,-6.41 64.96,-4.88 116.54,-17.06 155.07,23.24 60.11,62.87 60.57,210.39 60.48,316.11 -0.1,115 -6.35,252.58 -13.75,367.46 -8.61,133.65 -136.3,139.03 -193.97,183.44l-13.59 373.44zm-5889.77 -584.36c30.98,-101.33 21.09,-388.39 72.7,-461.78 61.67,-87.68 234.7,-125.42 284.86,-76.09 62.76,61.74 84.76,75 64.43,191.07 -9.02,51.52 12.73,310.07 17.32,370.57 6.41,84.37 19.16,154.85 22.02,238.7 8.39,245.85 7.04,554.74 1.82,798.08 -1.84,85.95 -2.36,174.98 -4.82,258.09 -1.3,44.15 0.23,88.57 -0.78,132.62 -1.33,57.69 -16.2,54.5 -41.94,88.79 -30.93,41.21 -45.96,26.33 -106.6,20.81 -62.19,-5.66 -58.19,0.95 -85.19,-47.45 -24.97,-44.74 -25.77,-45.61 -24.79,-108.43 0.84,-54.12 -27.46,-203.43 -21.08,-239.66 7.75,-43.96 4.31,-18.93 -2.2,-58.96 -3.34,-20.56 -0.37,-42.13 -0.74,-63.25 -1.1,-62.89 -17.36,-14.35 -6.42,-116.37 4.92,-45.85 -0.66,-74.37 -15.45,-111.19 -63.91,51.19 5.25,84.07 -110.53,161.53 -2.01,27.4 6.32,60.3 -25.38,58.73 -29.67,-1.46 -22.37,-31.25 -27.62,-57.26 -28.84,-6.19 -45.99,-16.23 -76,-15.8 15.09,51.01 12.64,49.35 14.24,109.27 2.04,76.15 14.33,324.7 8.72,367.35 -18.26,138.84 -254.54,173.47 -310.88,80.65 -39.65,-65.32 -13.37,-249.29 -22.92,-350.65 -4.22,-44.75 -13.47,-58.74 -11.85,-108.79 4.55,-140.9 16.22,-343.35 -3.46,-478.78 -7.5,-51.64 -8.38,-52.19 -8.26,-106.62 0.28,-131.38 14.71,-353.2 -10.71,-471.35 -12.41,-57.69 -13.2,-287.52 6.32,-348.78 10.66,-33.46 73.3,-102.57 137.95,-109.08 48.27,-4.85 65.15,8.82 100.66,24.38 37.44,16.41 55.36,1.08 79.32,41.09 18.05,30.13 33.9,49.22 31.96,94.1 -0.86,19.89 -6.56,43.08 0.71,61.77 6.65,17.11 18.1,13.88 24.81,33.47 5.93,17.29 1.92,41.09 2.18,60.26l21.99 104.51c6.48,29.26 2.33,28.69 25.61,34.45z"/>
   <path class="fil6" d="M6411.69 3622.42c-127.15,47.87 -141.57,285.97 63.24,202.67 102.74,-41.79 131.01,-133.43 78.42,-168.11 -20.89,-13.78 -29.36,-4.5 -53.69,-8.93 -30.62,-5.57 -45.09,-41.77 -87.97,-25.63z"/>
   <path class="fil6" d="M3333.79 3593.54c-106.06,16.73 -145.28,270.67 36.43,192.59 109.67,-47.12 130.47,-153.98 40.07,-165.86 -36.56,-4.81 -51.4,-30.69 -76.5,-26.73z"/>
   <path class="fil6" d="M2490.06 3759.08c40.89,3.7 174.89,-107.39 117.36,-157.86 -36.09,-31.66 -90.35,6.06 -105.41,28.71 -21.91,32.96 -15.67,85.02 -11.95,129.15z"/>
   <path class="fil6" d="M7876.54 3837.6c-10.88,-28.96 -43.59,-62.87 -90.13,-51.47 -32.53,7.96 -78.61,37.01 -91.5,59.47 -53.06,92.44 162.57,12.42 181.63,-8z"/>
   <path class="fil6" d="M8547.6 3698.78c53.92,-0.05 169.16,-11.85 212.39,-33.41 -16.06,-55.54 -197.72,-21.31 -212.39,33.41z"/>
   <path class="fil6" d="M4871.28 3663.23c34.89,-1.46 67.09,-5.09 99.62,-10.08 38.75,-5.95 65.89,-8.34 75.74,-29.74 -45.37,-31.11 -156.85,-16.58 -175.36,39.82z"/>
   <path class="fil2" d="M4346.62 2695.19c17.15,32.95 22.23,27.16 65.24,23.21 18.94,-45.01 27.02,-57.2 -2.7,-90.7 -18.13,7.92 -19.18,11.29 -29.03,32.74 -12.57,27.35 -10.22,19.78 -33.51,34.75z"/>
   <polygon class="fil1" points="5431.1,1099.26 5436.85,1099.26 5432.06,1092.56 "/>
   <polygon class="fil0" points="7388.88,869.63 7388.88,863.89 7382.18,868.67 "/>
   <polygon class="fil3" points="3134.6,1282.96 3140.34,1282.96 3135.55,1276.26 "/>
  </g>
 </g>
</svg>
