<?xml version="1.0" encoding="UTF-8"?>
<!DOCTYPE svg PUBLIC "-//W3C//DTD SVG 1.1//EN" "http://www.w3.org/Graphics/SVG/1.1/DTD/svg11.dtd">
<!-- Creator: CorelDRAW Standard 2021 (64-Bit Versión de evaluación) -->
<svg xmlns="http://www.w3.org/2000/svg" xml:space="preserve" width="110mm" height="50mm" version="1.1" style="shape-rendering:geometricPrecision; text-rendering:geometricPrecision; image-rendering:optimizeQuality; fill-rule:evenodd; clip-rule:evenodd"
viewBox="0 0 11000 5000"
 xmlns:xlink="http://www.w3.org/1999/xlink"
 xmlns:xodm="http://www.corel.com/coreldraw/odm/2003">
 <defs>
  <style type="text/css">
   <![CDATA[
    .fil0 {fill:#373435}
   ]]>
  </style>
 </defs>
 <g id="Capa_x0020_1">
  <metadata id="CorelCorpID_0Corel-Layer"/>
  <g id="_1173784908816">
   <path class="fil0" d="M8760.5 2853.3c16.16,-14.58 14,-16.51 6.89,-35.88 -7.12,-19.37 -3.97,-23.76 -16.47,-39.21 -60.14,-7.33 -35.9,87.31 9.58,75.09z"/>
   <path class="fil0" d="M1837.34 3004.82c15.64,4.32 30.68,8.64 37.74,-9.18 26.42,-66.81 -74.08,-79.44 -37.74,9.18z"/>
   <path class="fil0" d="M3043.67 2963.15c0,33.78 12.04,38.12 39.09,30.35 8.35,-22.8 12.1,-41.75 -5.09,-62.74 -25.97,-3.57 -34,5.85 -34,32.39z"/>
   <path class="fil0" d="M5055.58 1882.68c0.56,18.27 -1.26,35.42 13.41,41.55 17.66,7.37 29.09,-3.01 31.8,-16 8.22,-39.27 -18.72,-45.63 -45.21,-25.55z"/>
   <path class="fil0" d="M8881.15 1325.59c24.85,16.12 34.36,21 55.71,-1.27 0.28,-21.51 -1.9,-30.8 -24.65,-31.68 -25.53,-0.98 -29.23,9.7 -31.06,32.95z"/>
   <path class="fil0" d="M1907.73 2969.82c78.19,22.8 58.01,-71.16 -4.01,-31.09l4.01 31.09z"/>
   <path class="fil0" d="M5895.63 2487.85l31.7 1.08c21.16,-32.2 5.24,-68.2 -34.87,-43.58l3.17 42.5z"/>
   <path class="fil0" d="M6023.93 2327.38c9.57,34.3 25.04,39 54.74,25.3 -4.31,19.55 -19.77,110.47 25.74,75.14 14.33,-11.12 25.91,-83.62 15.84,-98.94 -19.27,-25.98 -26.51,-5.25 -46.06,3.9l-12.59 -58.03c-40.42,-12.96 -47.51,17.44 -37.67,52.63z"/>
   <path class="fil0" d="M5776.47 2453.67c8.99,-20.78 22.58,-132.79 -12.46,-135.88 -39.38,-3.47 -28.87,104.98 -21.23,134.21l33.69 1.67z"/>
   <path class="fil0" d="M2245.33 2132.56c-28.52,13.93 -4.88,48.63 7.98,64.7 16.7,20.9 11.17,70.58 45.3,55.93 22.35,-9.58 13,-57.31 0.07,-76.05 -28.25,-40.93 -33.51,-54.28 -53.35,-44.58z"/>
   <path class="fil0" d="M3191.11 1982.21l33.16 1.01c7.46,-20.1 7.38,-48.06 12.1,-70.75 4.3,-20.71 16.05,-54.15 -17.72,-53.36 -35.92,0.83 -37.7,98.55 -27.54,123.1z"/>
   <path class="fil0" d="M5780.94 2147.18c-66.56,-31.91 -41.54,105.11 -38.04,110.42 6.4,9.75 19.69,15.17 33.07,5.12 15.5,-11.64 8.18,-100.7 4.97,-115.54z"/>
   <path class="fil0" d="M4695.39 2769.76c9.14,-21.03 7.58,-54.69 6.99,-81.83 -0.61,-28.09 -16.35,-59.43 -40.49,-33.52 -9.84,10.57 -6.55,62.05 -6.4,80.08 0.31,33.75 5.89,45.47 39.9,35.27z"/>
   <path class="fil0" d="M1772.92 2118.28l0 76.35c0,30.02 46.22,45.5 46.22,-10.18 0,-47.44 6.13,-64.8 -13.72,-89.32 -20.33,-1.22 -32.5,2.28 -32.5,23.15z"/>
   <path class="fil0" d="M4655.83 2276.06c0,65.92 -9.97,108.14 40.36,92.49 8.89,-23.94 5.88,-58.25 5.88,-87.4 0,-45.94 -46.24,-46.18 -46.24,-5.09z"/>
   <path class="fil0" d="M5791.1 2723.12c-34.39,-12.6 -40.24,0.33 -40.06,36.07 0.09,18.19 -5.31,67.38 7.08,79.09 7.09,6.7 21.37,7.38 29.3,0.25 18.98,-17.06 7.74,-104.1 3.68,-115.41z"/>
   <path class="fil0" d="M4585.33 2611.97c0,65.52 -9.18,101.4 39.42,86.8 11.41,-26.74 5.54,-88.63 1.39,-119.34 -31.9,-7.56 -40.81,-1.57 -40.81,32.54z"/>
   <path class="fil0" d="M8320.08 2002.81c17.52,6.82 20.72,6.69 38.06,-0.18 5.05,-26.38 3.23,-103.01 -27.54,-107.87 -44.43,-7.01 -16.12,82.36 -10.52,108.05z"/>
   <path class="fil0" d="M2714.23 2051.91c17.87,-19.6 5.1,-40.41 1.46,-66.86 -2.78,-20.18 -7.37,-60.29 -37.84,-40.9 -20.78,13.21 -7.58,48.36 -3.38,71.88 4.58,25.67 10.75,47.69 39.76,35.88z"/>
   <path class="fil0" d="M1793.22 2698.49c-13.1,10.61 -16.26,92.84 -0.16,106.2 7.28,6.03 21.22,5.67 28.39,-0.6 13.66,-11.93 19.77,-144.5 -28.23,-105.6z"/>
   <path class="fil0" d="M4180.56 2169.64c61.71,18.02 52.65,-86.16 43.32,-108.94 -32.81,-5.32 -36.14,3.72 -38.98,37 -2.6,30.53 -16.58,45.09 -4.34,71.94z"/>
   <path class="fil0" d="M3461.43 2050.01c63.02,12.74 45.19,-90.3 33.97,-112.21 -33.14,-2.53 -35.7,6.75 -35.71,40.15 -0.02,30.65 -12.72,46.33 1.74,72.06z"/>
   <path class="fil0" d="M2688.86 2606.64c0.93,0.82 2.21,1.04 2.63,2.62 2.59,9.73 28.4,14.29 36.94,6.78 13.1,-25.08 12.22,-79.71 1.52,-106.38l-32.18 -2.2c-13.21,27.29 -3.84,63.25 -8.91,99.18z"/>
   <path class="fil0" d="M4212.19 2734.54c20.52,-44.8 -8.7,-141.31 -43.65,-104.59 -13.83,14.52 3.73,38.63 4.94,63.9 1.76,36.21 1.32,50.92 38.71,40.69z"/>
   <path class="fil0" d="M2761.54 2792.14c0.78,-0.74 11.86,1.88 7.94,-30.47 -4.44,-36.77 -10.66,-99.13 -45.82,-74.8 -14.7,10.18 -10.61,129.96 37.88,105.27z"/>
   <path class="fil0" d="M6253.25 2659.04c-37.16,0.63 -31.78,12.72 -31.67,49.5 0.08,26.94 -5.8,59.77 18.64,64.59 29.66,5.86 27.02,-29.6 27.01,-48.99 -0.03,-37.79 5.56,-45.06 -13.98,-65.1z"/>
   <path class="fil0" d="M2173.05 1644.96c0,27.84 -3.24,56.9 5.27,76.91 40.7,13.24 40.14,-8.09 39.99,-46.17 -0.17,-39.79 10.78,-71.78 -39.43,-60.37 -3.15,8.24 -5.83,17.75 -5.83,29.63z"/>
   <path class="fil0" d="M4466.72 2296.42l0 45.8c0,37.56 46.21,50.87 46.21,-5.08l0 -45.81c0,-44.17 -46.21,-48.82 -46.21,5.09z"/>
   <path class="fil0" d="M5748.4 2642.14c37.26,4.71 35.76,-11.8 35.56,-45.18 -0.15,-21.87 5.75,-56.26 -11.77,-64.64 -49.48,-23.64 -36.3,90.54 -23.79,109.82z"/>
   <path class="fil0" d="M2408.3 2413.48l0 40.71c0,55.04 45.05,46.11 45.05,5.09 0,-31.7 3.88,-59.47 -8.96,-81.43 -33.55,-3.89 -36.09,4.33 -36.09,35.63z"/>
   <path class="fil0" d="M6221.83 1700.95c0,28.55 -3.69,60.15 7.33,80.29l30.27 3.18c10.1,-30.1 14.18,-84.52 -2.15,-112.29 -28.17,-3.63 -35.45,0.18 -35.45,28.82z"/>
   <path class="fil0" d="M1829.52 2576.35l0 -50.9 -3.62 -27.67c-49.49,-12.7 -41.87,27.68 -41.78,68.75 0.16,63.6 45.4,51.02 45.4,9.82z"/>
   <path class="fil0" d="M8350.57 2311.68c0,118.83 46.23,72.81 46.23,40.73 0,-58.98 8.2,-83.79 -34.61,-80.83 -7.69,11.18 -11.62,19.03 -11.62,40.1z"/>
   <path class="fil0" d="M2408.3 2220.08l3.21 77.62c12.84,4.19 16.42,5.53 32.25,2.83 14.54,-21.58 9.59,-42.52 9.59,-80.45 0,-45.5 -45.05,-44.72 -45.05,0z"/>
   <path class="fil0" d="M2408.3 2611.97l3.01 73.4c50.3,20.34 42.04,-19.67 42.04,-73.4 0,-26.46 -6.55,-36.62 -33.84,-34.62 -7.14,9.99 -11.21,15.34 -11.21,34.62z"/>
   <path class="fil0" d="M6221.83 1914.71l3.78 78.32c48.73,12.88 41.42,-15.98 41.42,-73.23 0,-16.07 -3.14,-24.56 -8.23,-35.53 -26.82,-3.28 -36.97,2.94 -36.97,30.44z"/>
   <path class="fil0" d="M4215 1982.05l33.24 1.33c8.69,-25.07 6.38,-42.09 6.38,-68.67 0,-66.1 -77.8,-29.82 -39.62,67.34z"/>
   <path class="fil0" d="M3479.9 1860.18l33.24 -1.48c6.54,-25.72 2.79,-42.48 0.55,-68.97 -5.59,-65.86 -80.04,-23.14 -33.79,70.45z"/>
   <path class="fil0" d="M2691.95 2145.92c-43.07,28.99 -27.07,126.58 11.33,94.02 12.28,-10.41 4.35,-18.61 17.76,-64.78 6.85,-23.6 -7.39,-43.86 -29.09,-29.24z"/>
   <path class="fil0" d="M6744.19 2803.91c-48.1,-12.43 -41.79,17.76 -40.78,62.78 1.68,74.52 72.3,35.12 40.78,-62.78z"/>
   <path class="fil0" d="M4636.09 2940.9c25.63,19.16 39.68,5.88 47.79,-25.11 4.15,-15.86 10.89,-49.92 -1.44,-62.41 -38.51,-38.97 -49.92,70.74 -46.35,87.52z"/>
   <path class="fil0" d="M6226.78 2274.57c-6.02,18.04 -7.63,49.9 -5.09,73.27 2.74,25.24 22.53,36.65 39.46,17.78 4.3,-4.78 29.63,-112.52 -34.37,-91.05z"/>
   <path class="fil0" d="M5892.02 1823.09l0 45.81c0,44.88 46.24,50.5 46.24,-5.08l0 -30.54 -3.7 -27.1c-15.19,-6.42 -42.54,-13.31 -42.54,16.91z"/>
   <path class="fil0" d="M1962.12 2266.72c8.74,-16.63 42.89,-118.24 -9.12,-100.5 -17.82,6.07 -19.71,36.84 -22.98,54.39 -6.5,34.83 -4.51,46.74 32.1,46.11z"/>
   <path class="fil0" d="M6985.21 1685.68c0,43.88 -4.48,71.44 38.63,61.39 10.87,-22.67 7.61,-35.43 7.61,-66.48 0,-49.84 -46.24,-45.45 -46.24,5.09z"/>
   <path class="fil0" d="M3184.39 2108.11l0 35.63c0,35.89 46.22,45.11 46.22,0l0 -40.72c0,-48.41 -46.22,-43.15 -46.22,5.09z"/>
   <path class="fil0" d="M7854.81 2550.89c0,-24.85 2.82,-46.82 -7.15,-65.66l-30.33 -0.72c-8.13,16.33 -13.24,66.11 -5.64,85.92 7.56,19.74 43.12,29.29 43.12,-19.54z"/>
   <path class="fil0" d="M2114.26 1996.14c0,34.88 -4.28,48.31 10.06,69.46 42.16,4.85 36.15,-25.07 36.15,-64.37 0,-48.5 -46.21,-50.77 -46.21,-5.09z"/>
   <path class="fil0" d="M5857.43 2632.33c0,28.6 25.79,23.38 42.21,17.36 4.08,-46.5 5.53,-44.6 -0.86,-90.46 -49.43,-21.24 -41.35,16.97 -41.35,73.1z"/>
   <path class="fil0" d="M6228.55 2169.02c43.71,15.44 39.89,-21.87 38.84,-61.08 -1.33,-49.89 -45.56,-51.98 -45.56,-4.92 0,25.34 -2.63,45.84 6.72,66z"/>
   <path class="fil0" d="M6572.47 2316.78l0 -35.63c0,-51.1 -45.07,-46.03 -45.07,0l0 35.63c0,34.04 19.42,38.66 42.08,26.33l2.99 -26.33z"/>
   <path class="fil0" d="M6228.78 2957.64c43.04,15.09 39.48,-25.32 38.61,-60.82 -1.22,-50.45 -45.56,-52.47 -45.56,-4.93 0,25.69 -2.73,45.57 6.95,65.75z"/>
   <path class="fil0" d="M2445.61 2088.41c1.17,-2.23 37.19,-115.86 -30.38,-95.92 -3.07,6.76 -32.69,103.49 30.38,95.92z"/>
   <path class="fil0" d="M8340.2 2118.28l0 30.54c0,52.55 45.06,48.71 45.06,0l0 -30.54c0,-47.88 -45.06,-54.08 -45.06,0z"/>
   <path class="fil0" d="M4625.84 2486.46c9.77,-29.23 -25.37,-109.15 -55.98,-81.14 -16.48,15.09 0.4,40.11 7.72,54.06 14.36,27.37 16.76,36.96 48.26,27.08z"/>
   <path class="fil0" d="M5979.5 2063.11c9.41,-30.05 -0.96,-25.4 -6.39,-56.81 -3.73,-21.56 -15.63,-45.73 -38.06,-23.75 -17.69,17.34 -10.64,97.7 44.45,80.56z"/>
   <path class="fil0" d="M5963.9 2169.19c1.55,10.7 6.55,11.28 9.62,30.85 8.77,55.76 45.69,37.18 45.98,-0.21 0.54,-70.74 -61.81,-73.48 -55.6,-30.64z"/>
   <path class="fil0" d="M4393.27 2834.91c8.77,-99.78 -53,-94.75 -53.7,-60.04 -0.35,16.84 2.68,8.31 7.23,22.75 5.11,16.19 -1.27,68.17 46.47,37.29z"/>
   <path class="fil0" d="M6095.41 2147.66c-26.04,120.29 66.85,110.19 38.68,2.61 -18.42,-12.05 -17.33,-13.39 -38.68,-2.61z"/>
   <path class="fil0" d="M4267.55 2921.25c-19.3,11.08 -9.85,23.08 -2.36,53.83 4.29,17.64 12.97,48.26 38.66,30.04 18.56,-13.16 2.57,-106.18 -36.3,-83.87z"/>
   <path class="fil0" d="M4536.51 1707c-27.77,-3.68 -30.67,9.32 -36.3,33.25 -4.52,19.18 -17.59,45.43 4.67,54.58 23.3,9.59 31.72,-13.31 36.53,-28.86 8.85,-28.61 10.61,-40.68 -4.9,-58.97z"/>
   <path class="fil0" d="M7351.9 2041.95c0,21.38 -1.94,38.12 5.08,57.54l27.12 3.97c23.09,-28.01 16.55,-80.86 1.76,-88.82 -23.45,-12.6 -33.96,4.62 -33.96,27.31z"/>
   <path class="fil0" d="M4312.59 2712.9l25.63 1.17c17.6,-29.44 -0.64,-86.27 -21.34,-90.23 -48.09,-9.19 -12.89,76.63 -4.29,89.06z"/>
   <path class="fil0" d="M8345.37 2557.55l28.09 5.29c18.4,-31.83 18.42,-83.48 -3.54,-91.13 -41.46,-14.41 -32.25,65.63 -24.55,85.84z"/>
   <path class="fil0" d="M6228.63 2474.87c-9.88,20.08 -9.49,61.67 -1.61,82.56 34.89,12.7 40.43,-7.73 40.41,-42.16 -0.03,-32.37 -2.72,-54.37 -38.8,-40.4z"/>
   <path class="fil0" d="M4655.83 2494.91c0,21.62 -1.67,31.53 7.52,51.78 42.36,9.59 38.72,-20.45 38.72,-51.78 0,-51.78 -46.24,-48.4 -46.24,0z"/>
   <path class="fil0" d="M2408.28 2810.46c0,15.7 -3.3,44.58 7.79,53.11 32.95,9.73 37.3,-2.33 37.3,-32.76l-2.23 -47.76c-28.31,-12.01 -42.86,-4.7 -42.86,27.41z"/>
   <path class="fil0" d="M6703.84 2678.13c0,10.99 3.25,14.41 6.95,23.2l32.35 -2.36c8.39,-21.04 6.95,-28.76 6.95,-51.38 0,-35.5 -46.25,-79.32 -46.25,30.54z"/>
   <path class="fil0" d="M8961.84 2713.76c0,-24.75 -9.17,-32.04 -34.65,-30.34 -6.06,8.81 -28.01,56.62 -17.95,68.81 23.42,28.39 52.6,-8.62 52.6,-38.47z"/>
   <path class="fil0" d="M2188.19 2248.29c-21.62,8.7 -45.46,86.63 0.1,77.73 26.88,-5.26 45.04,-95.89 -0.1,-77.73z"/>
   <path class="fil0" d="M4232.41 2789.96l-25.99 -0.84c-34.29,66.18 59.5,114.2 45.07,43.46 -3.5,-17.16 -12,-33.92 -19.08,-42.62z"/>
   <path class="fil0" d="M4296.59 1687.12c51.18,16.15 56.6,-57.59 44.16,-69.67 -30.33,-29.44 -53.97,36.79 -44.16,69.67z"/>
   <path class="fil0" d="M3536.28 1559.41c52.36,11.77 51.54,-62.17 38.11,-73.16 -32.7,-26.77 -50.66,41.23 -38.11,73.16z"/>
   <path class="fil0" d="M4594.44 2764.97c-46.91,0.36 -54.07,74.67 -25.23,79.38 21.21,3.47 25.05,-14.68 31.01,-32.29 8.82,-26.05 9.98,-28.97 -5.78,-47.09z"/>
   <path class="fil0" d="M9139.32 1751.85l0 10.17c0,46.24 46.26,49.49 46.26,0l0 -10.17c0,-50.18 -46.26,-45.84 -46.26,0z"/>
   <path class="fil0" d="M4259.03 1811.42c18.18,10.64 35.57,12.46 41.67,-10.26 8.04,-29.99 0.75,-48.72 -17.89,-60.56 -36.19,6.39 -28.98,36.63 -23.78,70.82z"/>
   <path class="fil0" d="M3509.36 1686.44c19.01,9.06 36.5,9.41 40.65,-13.75 5.48,-30.55 -3.37,-48.61 -22.94,-58.83 -35.52,9.43 -25.79,38.95 -17.71,72.58z"/>
   <path class="fil0" d="M7880.08 2861.35c0,17.8 -0.17,24.12 9.96,38.58l31.38 0.77c6.25,-24.28 9.03,-51.64 -3.69,-73.67 -30.33,-7.12 -37.65,6.87 -37.65,34.32z"/>
   <path class="fil0" d="M7363.46 1868.9l0 15.27c0,43.49 43.93,41.08 43.93,0l0 -15.27c0,-49.18 -43.93,-45.92 -43.93,0z"/>
   <path class="fil0" d="M1997.17 2286.32c-18.54,12.31 -12.88,22.7 -3.11,42.5 7.95,16.1 19.74,31.32 39.67,16.24 19.96,-15.09 -7.91,-77.77 -36.56,-58.74z"/>
   <path class="fil0" d="M8866.42 2794.95c-33.82,26.07 -18.77,78.92 14.95,56.44 27.84,-18.57 24.75,-87.04 -14.95,-56.44z"/>
   <path class="fil0" d="M8669.9 2099.07c-9.47,6.73 -10.95,2.06 -11.23,18.41 -0.09,5.35 5.1,18.47 7.18,22.64 6.65,13.37 18.95,31.59 39.8,17.11 20.49,-14.23 -6.69,-78.82 -35.75,-58.16z"/>
   <path class="fil0" d="M2107.44 2439.75l27.39 5.42c14.25,-16.88 40.53,-60.49 8.17,-67.79 -30.38,-6.85 -42.58,38.49 -35.56,62.37z"/>
   <path class="fil0" d="M4434.75 2849.3c-24.87,11.91 -20.43,81.13 19.3,62.73 29.11,-13.47 12.42,-77.93 -19.3,-62.73z"/>
   <path class="fil0" d="M8937.19 2382.88l29.43 -0.34c44.45,-85.35 -78.19,-82.7 -29.43,0.34z"/>
   <path class="fil0" d="M8311.46 2718.36c0.42,0.35 6.32,11.11 23.52,5.44 7.82,-2.57 11.77,-8.87 16.09,-16.06 9.79,-16.33 10.82,-30.53 3.48,-46.89 -50.86,-9.2 -51.63,45.92 -43.09,57.51z"/>
   <path class="fil0" d="M4397.5 3105.65c0,50.67 48.99,41.52 46.48,-4.44 -1.9,-34.49 -46.48,-52.19 -46.48,4.44z"/>
   <path class="fil0" d="M4331.63 3072.53c15.15,7.96 18.84,6.92 34.53,3.35 8.01,-22.94 10.01,-39.23 -2.23,-61 -42.63,-8.2 -44.28,22.61 -32.3,57.65z"/>
   <path class="fil0" d="M5068.67 2739.21c0,20.11 -0.05,18.61 7.16,31.34 37.76,11.49 42.31,-17.43 35.05,-54.91 -25.61,-18.98 -42.21,-10.48 -42.21,23.57z"/>
   <path class="fil0" d="M4943.82 2768.29c-5.61,19.35 -5.52,40.84 -1.1,59.76l32.59 3.5c15.76,-28.29 12.62,-43.23 -3.73,-66.9l-27.76 3.64z"/>
   <path class="fil0" d="M7162.82 1833.28c0,49.48 45.07,46.4 45.07,0 0,-12.58 -3.35,-22.1 -6.55,-30.9 -26.8,-6.14 -38.52,-1.05 -38.52,30.9z"/>
   <path class="fil0" d="M5091.72 1700.95l3.22 32.2c60.26,17.56 42.5,-44.47 32.13,-61.15 -23.9,-2.72 -38.85,1.37 -35.35,28.95z"/>
   <path class="fil0" d="M4962.56 2611.97c0,43.28 45.09,46.73 45.09,0 0,-49.06 -45.09,-50.64 -45.09,0z"/>
   <path class="fil0" d="M2937.58 2576.35c0,16.01 1.69,15.99 7.58,28.3l30.41 3.8c31.51,-71.87 -37.99,-92.82 -37.99,-32.1z"/>
   <path class="fil0" d="M2043.82 2444.02c0,48.07 45.15,47.46 45.15,5.09 0,-54.72 -45.15,-48.82 -45.15,-5.09z"/>
   <path class="fil0" d="M5291.22 2525.45l4.04 30.83 32.17 6.11c37.15,-80.72 -43.99,-83.8 -36.21,-36.94z"/>
   <path class="fil0" d="M4601.46 3026.03l-3.97 28.64 0.68 5.18 3.35 26.84c50.29,15.77 49.46,-34.51 31.07,-60.37l-31.13 -0.29z"/>
   <path class="fil0" d="M4503.63 2423.65l0 10.19 2.16 27.7c26.44,9.57 41.73,9.27 41.73,-27.7l0 -5.09c0,-40.98 -43.89,-35.56 -43.89,-5.1z"/>
   <path class="fil0" d="M4367.76 1839.99c40.04,12.72 63.83,-28.88 42.57,-47.94 -18.87,-16.94 -56.03,12.03 -42.57,47.94z"/>
   <path class="fil0" d="M3620.12 1705.72c40.97,9.29 61.16,-34.17 38.36,-51.37 -20.23,-15.28 -54.81,16.73 -38.36,51.37z"/>
   <path class="fil0" d="M8224.65 3007.25c43.03,2.67 56.86,-48.32 24.57,-53.75 -23.24,-3.92 -54.22,23.86 -24.57,53.75z"/>
   <path class="fil0" d="M5062.01 2902.07c-21.85,23.55 10.01,69.64 34.85,40.33 17.33,-20.44 -6.21,-71.2 -34.85,-40.33z"/>
   <path class="fil0" d="M2879.34 2546.97c-22.95,0 -8.97,61.2 39.44,45.35 11.9,-32.8 -17.3,-62.97 -39.44,-45.35z"/>
   <path class="fil0" d="M5836.34 2989.04c24.9,15.62 59.93,-1.56 49.56,-39.97 -28.64,-15.2 -55.09,4.41 -49.56,39.97z"/>
   <path class="fil0" d="M8864.4 2287.85c20.29,5.16 25.51,6.6 45.53,-3.21 8.03,-27.62 1.95,-41.42 -27.88,-38.57 -26.28,2.51 -27.88,18.34 -17.65,41.78z"/>
   <path class="fil0" d="M2906.31 3015.5c13.84,4.83 27.56,6.59 45.54,1.87 9.36,-18.1 8.55,-17.39 3.68,-35.93 -36.47,-12.73 -58.59,-6.4 -49.22,34.06z"/>
   <path class="fil0" d="M8864.98 3198.56c-31.66,-23.77 -53.9,0.74 -39.79,33.6 9.8,22.83 49.48,20.12 39.79,-33.6z"/>
   <path class="fil0" d="M2387.51 2971.91c-2.71,23.16 1.56,37.26 26.29,37.84 27,0.64 28.99,-12.66 25,-37.63 -22.52,-13.19 -29.42,-10.5 -51.29,-0.21z"/>
   <path class="fil0" d="M4997.17 3029.31c0,31.2 24.99,25.1 37.28,24.61 33.38,-54.4 -37.28,-75.93 -37.28,-24.61z"/>
   <path class="fil0" d="M8894.61 3189.88c-4.35,28.45 -2.32,28.43 12.73,43.41l25.55 -5.15c15.78,-37.65 -4.07,-70.01 -38.28,-38.26z"/>
   <path class="fil0" d="M7386.51 1731.49l6.26 26.78c41.55,8.22 51.03,-18.41 30.2,-49.83 -21.69,-5.87 -36.46,1.32 -36.46,23.05z"/>
   <path class="fil0" d="M8046.42 3089.18c12,-19.69 13.1,-24.77 2.37,-51.48 -55.04,-10.24 -53.17,59.73 -2.37,51.48z"/>
   <path class="fil0" d="M5237.25 2402.98c-33.93,16.16 -12.7,63.57 16.64,50.84 21.34,-9.26 16.06,-66.42 -16.64,-50.84z"/>
   <path class="fil0" d="M4601.43 2192.06c-23.97,86.61 79.53,51.44 27.69,-2.41l-27.69 2.41z"/>
   <path class="fil0" d="M9093.16 2968.23l2.4 20.02c52.05,34.17 63.99,-59.32 6.34,-43.73 -3.27,5.23 -10.38,12.83 -8.74,23.71z"/>
   <path class="fil0" d="M2975.8 3010.03l1.52 29.85c82.58,26.95 54.17,-75.94 -1.52,-29.85z"/>
   <path class="fil0" d="M5097.7 2581.55c46.5,12.27 48.98,-27.76 25.43,-50.88 -37.94,-2.46 -35.54,22.7 -25.43,50.88z"/>
   <path class="fil0" d="M8124.97 2024.63c43.6,67.22 46.87,32.07 62.48,140.38 8.04,55.72 26.35,124.7 18.94,179.8 -7.88,58.63 -16.53,119.69 -24.49,178.61 -5.75,42.51 -2.31,48.38 -27.97,73.92 -116.28,115.7 -168.78,-161.36 -153.04,-285.6 6.78,-53.57 7.22,-133.14 21.34,-181.76 16.85,-58.03 30.25,-109.94 102.74,-105.35zm-173.36 337.95c0,120.56 50.48,365.59 192.42,295.94 69.02,-33.86 74.27,-66.1 86.65,-157.22 8.87,-65.32 29.53,-157.57 20.14,-220.75 -33.53,-225.45 -5.05,-176.25 -89.11,-277.54 -18.93,-22.8 -29.33,-40.33 -90.06,-17.57 -42.76,16.02 -44.43,18.12 -63.96,58.32 -45.61,93.85 -35.37,108.42 -43.69,201.87 -3.57,40.15 -12.39,74.42 -12.39,116.95z"/>
   <path class="fil0" d="M5182.9 2006.32c0,-74.67 -1.6,-160.48 49.25,-190.87 110.61,80.8 39.05,407.32 -24.35,304.69 -28.73,-46.49 -24.9,-59.16 -24.9,-113.82zm-45.01 -35.63c0,97.79 -8.77,115.98 45.15,194.69 18,26.27 40.23,20.52 83.96,19.31 46.04,-62.13 51.65,-69.18 63.23,-159.24 11.53,-89.62 3.93,-197.2 -73.34,-249.64 -33.65,-22.83 -46.22,-3.88 -66.9,17.3 -48.25,49.41 -52.1,91.84 -52.1,177.58z"/>
   <path class="fil0" d="M2693.39 2319.92c-22.43,10.62 -14.11,49.34 -14.26,73.4 -0.14,24.18 -0.97,63.05 31.95,48.33 20.69,-9.26 13.31,-50.23 13.5,-74.19 0.16,-22.41 0.06,-62.34 -31.19,-47.54z"/>
   <path class="fil0" d="M4155.99 2545.39c31.73,11.18 39.83,-0.24 40.14,-34.82 0.2,-21.36 4.38,-67.13 -7.75,-79.84 -49.75,-52.1 -39.94,94.76 -32.39,114.66z"/>
   <path class="fil0" d="M5867.81 1639.88c0,57.65 -8.47,97.51 39.81,81.68 8.11,-19.93 8.7,-96.16 -0.48,-117.07 -32.91,-11.66 -39.33,0.16 -39.33,35.39z"/>
   <path class="fil0" d="M1937.82 2785.02l0 45.79c0,50.91 45.04,52.9 45.04,0l0 -40.71 -4.03 -32.63c-26.39,-7.31 -41.01,-4.89 -41.01,27.55z"/>
   <path class="fil0" d="M3103.7 2820.64l0 50.89c0,34.82 12.65,35 40.02,26.44l4.59 -26.31 -0.76 -51.02c0,-44.14 -43.85,-47.45 -43.85,0z"/>
   <path class="fil0" d="M7189.55 2182.59l-4.4 37.41 0.76 20.44c0,53.94 46.16,54.57 46.16,0l0 -25.46c0,-33.07 -15.8,-50.87 -42.52,-32.39z"/>
   <path class="fil0" d="M8834.07 1861.48c-18.31,9.84 -21.39,126.23 24.02,96.81 14.38,-9.31 23.07,-122.14 -24.02,-96.81z"/>
   <path class="fil0" d="M2823.08 2919.28c13,-15.6 7.37,-13.35 -0.21,-33.54 -6.6,-17.58 -3.91,-29.88 -9.87,-46.3 -78.94,-20.54 -32.54,116.2 10.08,79.84z"/>
   <path class="fil0" d="M7821.83 2714.64c26.1,28.57 -4.39,71.11 51.65,55.34 24.55,-75.54 -48.32,-125.54 -51.65,-55.34z"/>
   <path class="fil0" d="M8269.86 2881.72c0,29.86 5.38,36.6 36.65,29.51 4.29,-2.92 23.86,-69.39 14.34,-80.34 -26.36,-30.35 -50.99,20.04 -50.99,50.83z"/>
   <path class="fil0" d="M7185.91 2606.88c0,37.53 5,64.38 43.96,39.24 4.2,-37.89 2.89,-37.87 -1.27,-76.69 -35.66,-10.89 -42.69,0.68 -42.69,37.45z"/>
   <path class="fil0" d="M7185.91 2413.48l2.64 47.81c22.72,9.02 25.94,5.69 40.8,-4.04 16.11,-114.7 -43.44,-94.57 -43.44,-43.77z"/>
   <path class="fil0" d="M7185.91 2026.68c0,69.61 46.16,81.14 46.16,-5.1 0,-45.83 -46.16,-48.42 -46.16,5.1z"/>
   <path class="fil0" d="M4302.98 1924.88c0,17.85 3.92,25.41 10.07,34.84 22.27,2.98 28.51,0.49 33.94,-16.03l5.47 -20.67c4.69,-12.79 9.11,-3.82 6.53,-23.16 -5.58,-41.6 -56.01,-5.01 -56.01,25.02z"/>
   <path class="fil0" d="M3562.74 1795.78c1.51,17.79 6.05,24.98 12.98,33.86 22.44,1.09 28.44,-1.92 32.46,-18.84l3.7 -21.05c3.6,-13.14 8.76,-4.58 4.55,-23.64 -9.07,-40.97 -56.23,-0.26 -53.69,29.67z"/>
   <path class="fil0" d="M6549.39 1711.13l-5.63 -35.37c-38.37,-16.25 -44.67,12.66 -39.92,50.54 3.92,31.33 45.55,40.67 45.55,-15.17z"/>
   <path class="fil0" d="M5421.55 2428.75l5.46 47.4c41.82,11.24 38.41,-8.68 38.41,-47.4 0,-43.92 -43.87,-35.79 -43.87,0z"/>
   <path class="fil0" d="M7097.68 1840.12c51.05,15.11 45.89,-35.32 31.61,-47.57 -28.61,-24.53 -42.25,14.04 -31.61,47.57z"/>
   <path class="fil0" d="M9024.22 1702.24c32.59,0 35.14,-11.39 27.76,-39.13 -6.64,-1.99 -13.27,-4.73 -22.67,-4.73 -41.82,0 -38.61,43.86 -5.09,43.86z"/>
   <path class="fil0" d="M6304.22 3465.07c28.91,-6.07 50.86,-3.26 79.84,4.43 13.71,3.64 21.74,7.84 37.76,7.96 20.22,0.17 19.63,-4.52 43.79,1.74 41.97,10.87 78.49,45.19 90.26,87.68 48.16,173.99 -354.82,316.98 -393.73,113.24 -15.84,-83.01 43.28,-194.31 142.08,-215.05zm1153.14 -2486.83l63.94 0c46.81,3.3 90.02,15.99 133.11,50.75 134.02,108.12 91.51,400.59 91.51,554.9 11.14,-8.16 11.13,-14.14 16.88,-28.95l23.3 -63.23c31.76,-79.57 83.54,-144.99 154.75,-191.76l8.18 -5.28c41.65,-23.37 89.5,-31.67 148.35,-31.6 121.91,0.13 156.15,62.17 217.66,123.6 78.84,78.73 57.23,95.9 87.72,136.28 16.82,22.27 38.27,39.83 40.88,71.12 17.04,-12.48 19.19,-44.33 20.3,-66.36 7.7,-152.04 35.1,-123.83 58.16,-191.14l35.79 -82.07c0.28,-0.53 0.87,-1.85 1.14,-2.37l125.11 -135.33c8.42,-7.17 13.64,-10.89 22.62,-18.11 31.48,-25.32 75.96,-46.78 114.31,-58.83l60.73 -15.59c72.06,-12.39 147.33,-10.09 215.49,23.45 25.55,12.58 30.02,13.79 58.79,22.68 50.36,15.58 66.08,37.53 95.81,77.3 11.7,15.64 31.21,26.94 43.77,42.78 42.74,53.97 12.47,40.1 58.72,114.35 18.96,30.46 13.52,30.03 20.07,66.89 5.76,32.44 13.96,107.93 10.71,134.98 -8.43,70.27 5.77,148.98 -16.4,222.89l-34.61 97.87c-4.79,9.77 -9.59,19.18 -13.61,27.12 -10.7,21.13 -20.09,34.28 -35.22,51.31 -18.17,20.45 -20.44,25.67 -45.45,41.11 -20.22,12.48 -32.95,17.91 -57.78,23.69l57.83 79.63c0.65,0.84 1.53,2.07 2.17,2.92l21.4 29.75c0.72,1.11 8.82,14.99 9.1,15.58 6.21,12.87 0.86,-0.87 4.61,13.98l50.68 134.88c18.93,49.68 46.73,146.32 35.22,199.76 -5.26,24.42 -7.14,10.41 -3.38,32.78 6.75,40.17 8.87,93.31 -0.57,130.95 -8.4,33.51 13.07,94.12 0.27,172.64 -1.86,11.44 -0.69,8.08 -2.39,16.19l-27.51 147.09c-16.19,61.57 -70.75,175.75 -71.03,179.17 93.21,0 161.75,10.9 244.2,56.23 126.63,69.6 209.24,196.33 228.1,342.07 0.54,4.13 0.97,8.26 1.33,12.38l0 57.46c-2.16,29.8 -7.06,59.35 -11.57,88.83 -2.08,13.54 -2.38,13.76 -7.34,29.37 -10.42,32.76 -24.64,55.95 -40.39,87.28 -10.86,21.59 -21.36,32.62 -35.27,51.28l-45.11 51.62c-0.77,0.71 -1.91,1.7 -2.68,2.41 -43.25,39.9 -99.41,74.72 -155.31,94.18 -35.8,12.45 -73.95,19.2 -114.36,22.64l-280.6 0 -98.43 0 -98.43 0 -98.44 0 -98.43 0 -98.43 0 -98.44 0 -98.44 0 -98.43 0 -98.44 0 -98.43 0 -98.44 0 -98.43 0 -98.43 0 -98.44 0 -98.43 0 -98.43 0 -98.44 0 -98.43 0 -98.44 0 -98.44 0 -98.43 0 -98.44 0 -98.43 0 -98.43 0 -98.44 0 -98.43 0 -98.43 0 -98.44 0 -98.43 0 -98.44 0 -98.43 0 -98.43 0 -98.45 0 -98.43 0 -98.43 0 -98.44 0 -98.43 0 -98.43 0 -98.44 0 -98.43 0 -98.44 0 -98.43 0 -98.43 0 -98.44 0 -98.44 0 -98.43 0 -98.44 0 -98.43 0 -98.43 0 -98.44 0 -98.43 0 -98.43 0 -98.44 0 -98.43 0 -98.44 0 -98.43 0 -98.43 0 -98.45 0 -98.43 0 -98.43 0 -98.44 0 -98.43 0 -98.43 0 -98.44 0 -16.47 0 -1040.11 0 -47.49 -3.85c-41.07,-7.03 -76.42,-23.78 -113.83,-38.45 -44.73,-17.55 -67.59,-37.21 -99.83,-65.88 -9.88,-8.8 -16.37,-12.61 -25.07,-20.75 -33.39,-31.19 -60.31,-75.75 -82.22,-114.83l-4.46 -10c-4.7,-11.96 -6.82,-15.9 -11.84,-25.97 -18.34,-36.79 -27.21,-77.6 -30.5,-118.83l0 -86.36 0.59 -8.28c1.37,-17.94 1.46,-13.28 2.63,-30.06 0.09,-1.28 0.27,-4.97 0.46,-6.26 0.12,-0.8 0.38,-2.28 0.54,-3.09 37.94,-187.32 181.01,-315.81 362.46,-358.05 -32.81,-61.97 -25.77,-211.94 -25.43,-310.5 0.11,-33.86 -1.54,-53.41 -4.83,-71.46 -13.8,-75.86 -0.29,-142.29 -0.29,-228.78 0,-50.89 3.66,-117.58 -0.96,-166.46l-14.53 -143.8c-1.05,-94.07 -7.77,-143.68 2.5,-217.55 2.06,-14.84 3.22,-48.61 2.92,-73.1 -1.24,-101.4 -20.61,-188.37 -20.49,-284.66 0.13,-108.46 -17.04,-234.26 45.22,-326.34l59.4 -62.79c81.82,-64.36 153.5,-80.26 252.52,-44.13 35.74,13.04 88.83,27.95 116.49,46.46 5.61,-24.09 34.41,-54.63 53.05,-69.13l69.18 -47.94c76.91,-36.87 200.43,-60.89 271.45,-26.98 45.79,21.87 70.91,52.93 99.01,84.28 28.78,32.09 52.24,72.78 52.24,131.02 17.47,-1.45 38.08,-14.2 53.86,-22.58 20.62,-10.95 16.74,-4.39 48.77,-12.44 78.44,-19.7 138.99,13.28 193.73,43.68l14.35 8.04c0.8,0.65 13.91,13.6 17.16,16.85 5.24,5.25 13.88,13.89 17.58,18.2l16.14 19.5c38.9,-20.58 18.57,-32.17 86.13,-71.69 75.77,-44.32 166.45,-28.07 237.39,7.94 36.49,18.52 57.77,42.53 78.81,73.93 45.17,-30.23 43.71,-88.79 203.05,-138.09 22.56,-6.98 42.8,-12.51 71.91,-14.65 34.09,-2.49 99.27,-37.84 218.49,-24.84 93.51,10.19 147.93,76.52 185.75,155.37 36.02,75.09 33.79,216.59 33.79,307.22l18.31 -52.96c37.63,-151.55 84.06,-244.4 169.09,-370.51 12.69,-18.81 13.77,-21.5 31.47,-34.7 31.02,-23.15 45.5,-35.25 85.9,-51.59 72.05,-29.1 145.3,-26.62 224.31,1.38 67.16,23.82 59.34,39.19 107.49,101.25 51.4,66.25 77.71,155.65 65.52,243.2 -13.39,96.26 -40.57,279.38 -91.14,362.23 -8.79,14.4 -16.88,25.05 -25.27,40.9 62.84,1.4 175.96,73.73 188.43,127.24 16.13,-11.81 8.21,1.07 10.61,-25.4l7.55 -73.26c6.92,-41.6 10.85,-73.88 18.91,-113.67l60.77 -352.29c1.69,-6.03 3.83,-11.16 5.64,-22.51 13.98,-87.43 14.97,-143.95 80.33,-211.45l7.78 -7.49c47.54,-43.91 111.04,-91.58 177.83,-98.6 128.71,-13.55 237.32,53.14 275.59,173.56l42.39 156.13c1.9,22.98 3.43,35.37 6.13,60.04 1.16,10.53 3.08,47.12 9.28,56.89 7.27,-15.15 3.4,-17.43 4.06,-32.11 1.49,-33.51 4.45,-65.2 16.33,-95.11 28.19,-70.99 48.28,-99.02 107.61,-146.94 78.86,-63.68 218.36,-91.28 294.7,-10.86 7.96,-34.15 48.89,-72.08 76.3,-91.69 84.99,-60.79 199.52,-69.16 282.47,-7.27 21.29,15.87 39.8,45.5 58.84,58.25 8.38,-31.36 56.47,-79.51 83.01,-95.18 53.7,-31.66 57.36,-37.07 127.02,-51.19 91.51,-18.54 151.49,-10.44 214.64,52.8 0.74,0.74 1.75,1.86 2.49,2.6 11.11,11.01 21.44,17.53 26.1,34.98 12.8,-9.36 16.02,-21.56 26.56,-34.52 77.86,-95.61 86.36,-79.31 168.89,-106.06l217.66 -57.32c44.52,-10.66 68.19,-28.37 116.42,-30.77 31.4,-1.57 60.68,-4.08 88.43,-5.44zm-3740.67 2621.09c-17.14,54.51 -102.23,126.52 -178.92,135.63 -110.1,13.1 -174.75,-48.82 -152.05,-156.62 16.14,-76.7 78.68,-152.57 173.8,-131.73l66.23 9.76c47.88,3.63 115.91,63.55 90.94,142.96zm3552.31 50.9c0,66.08 45.29,142.05 -16.79,140.4 -64.83,-1.73 -66.32,-91.45 -66.32,-145.49 0,-45.2 2.19,-109.8 50.33,-107.17 57.87,3.15 32.78,71.34 32.78,112.26zm993.86 -7.55c-18.07,65.71 69.31,81.34 129.55,73.17 37.15,-5.03 182.96,-77.41 160.04,-18.53 -5.2,13.36 -39.76,35.63 -50.27,42.19 -79.45,49.65 -216.68,52.89 -292.71,-8.04 -69.53,-55.72 -82.18,-251.57 198.52,-251.57 106.4,0 190.28,85.09 107.08,120.12 -67.78,28.54 -167.69,41.21 -252.21,42.66zm-3337.99 -37.62c-5.38,59.71 48.44,73.81 104.71,67.61 50.53,-5.56 92.61,-46.59 136.55,-39.77 14.03,60.02 -132.66,119.2 -235.67,82.67 -92.26,-32.73 -117.04,-154.37 -39.13,-215.54 61.57,-48.34 213.72,-69.72 260.5,4.49 34.68,55.01 -26.93,67.1 -69.37,78.96 -56.31,15.72 -94.53,18.94 -157.59,21.58zm-2432.37 -10.81c0,-15.42 1.99,-43.46 4.69,-59.72 3.71,-22.46 7.54,-23.37 21.23,-37.67 59.05,1.82 38.71,42.34 38.71,92.29 0,45.18 20.64,93.82 8.71,121.39 -62.24,27.51 -73.34,-60.16 -73.34,-111.21l0 -5.08zm6441.99 167.95c-14.22,-35.79 -116.26,-76.13 -161.05,-95.28 -343.78,-146.99 262.28,-340.5 236.06,-122.34 -77.24,52.48 -73.24,-24.16 -82.05,-30.63 -52.32,-18.15 -154.78,11.05 -169.49,49.76 20.96,77.19 354.18,114.63 259.16,236.96 -55.3,71.18 -378.24,117.55 -413.36,42.96 19.3,-46.15 123.54,-29.12 175.81,-33.11 48.71,-3.72 135.81,-8.3 154.92,-48.32zm-3572 -156.62c31.62,-25.74 38.14,-58.14 85.58,-93.81 35.36,-26.57 73.77,-56.03 131.14,-27.1 32.84,16.58 58.42,66.41 69.1,114.46 11.51,51.76 32.46,118.7 -46.46,107.33 -30.03,-38.51 -29.3,-237.2 -123.48,-133.96 -41.61,45.63 -121.37,167.05 -143.26,172.24 -66.73,15.84 -53.15,-51.28 -55.87,-99.8 -2.81,-50.2 -6.1,-96.17 -13.88,-140.48 -17.04,-97.05 64.27,-48.11 71.55,-37.53 10.79,15.72 11.63,46.22 14.61,67.94 1.71,12.41 2.68,24.34 3.85,36.73l7.12 33.98zm625.13 115.9c-35.68,-76.79 -320.78,-111.6 -201.01,-232.63 36.14,-36.52 106.87,-70.3 179.01,-58.87 124.07,19.67 96.63,134.32 32.59,99.41 -22.69,-16.45 0.2,-20.22 -22.17,-39.69 -49.28,-15.26 -116.85,15 -139.19,38.06 0.95,51.89 71.72,63.98 136.66,96.9 175.48,88.95 93.99,172.79 -77.33,197.34 -56.11,8.04 -173.64,26.99 -189.41,-29.27 23.66,-38.49 105.96,-23.61 153.74,-27.76 46.67,-4.06 110.36,-11.65 127.11,-43.49zm1436.64 -176.57c-2.54,-40.8 44.87,-57.33 103.44,-87.53 37.48,-19.32 103.43,-41.9 152,-43.19 82.17,-2.18 97.65,23.98 96.73,98.61 -0.83,67.45 -11.77,114.93 -16.98,178.62 29.96,9.17 73.01,50.52 28.6,72.3 -23.03,11.3 -36.25,0.6 -55.64,-2.53 -16.15,-2.61 -32.42,8.01 -49.45,14.47 -56.79,21.54 -155.04,62.05 -219.79,40.28 -93.38,-31.38 -52.77,-124.37 4.53,-163.9 48.51,-33.48 135.2,-55.69 191.95,-31.99l22.17 4.73c6.19,-24.33 10.52,-87.87 9.71,-117.62 -1.29,-47.85 -38.65,-34.33 -88.41,-15.09 -95.45,36.92 -134.05,84.38 -178.86,52.84zm-2729.9 161.3c-9.79,-45.51 -131.52,-83.7 -174.59,-114.6 -116.49,-83.51 64.83,-204.84 182.58,-162.35 73.18,26.41 63.59,106.68 9.48,93.01 -17.39,-4.39 -11.91,-3.25 -16.82,-18.88 -6.7,-21.28 4.61,-14.48 -12.15,-23.65 -22.32,-12.22 -100.44,4.09 -130.41,40.72 4.64,32.65 30.06,43.51 58.61,56.37 64.3,28.97 202.82,81.9 150.22,159.65 -50.25,74.28 -334.96,99.66 -328.62,35.9 4.78,-47.89 209.08,1.78 261.7,-66.17zm-678.62 -15.26c-24.64,-44.63 -135.43,-76.52 -176.31,-111.72 -73.84,-63.57 10.09,-130.57 67.8,-151.73 118.64,-43.5 200.5,47.11 154.23,83.07 -19.02,14.79 -38.79,6.43 -45.18,-10.46 -9.74,-25.77 -1.05,-32.04 -43.96,-28.96 -39.33,2.82 -77.81,18.53 -93.27,46.75 20.95,75.27 269.86,98.83 200.03,208.39 -40.37,63.33 -305.68,108.82 -314.97,29.88 43.95,-41.95 225.37,4.72 251.63,-65.22zm2655.42 -219.16c25.92,-9.37 54.38,-4.47 75.14,6.53 3.85,34.99 -0.68,103.16 11.62,129.79 29.54,-39.06 29.84,-59.96 93.6,-98.34 40.65,-24.46 84.01,-44.88 137.51,-56.56 81.2,-17.74 136.18,7.48 41.69,41.87 -89.69,32.64 -178.26,72.32 -218.9,168.17 -18.26,43.07 -23.36,123.4 -74.14,121.54 -53.16,-1.93 -54.17,-86.62 -60.37,-136.33 -5.08,-40.74 -17.08,-146.41 -6.15,-176.67zm-3574.97 91.28c66.79,-110.78 207.55,-163.11 255.13,-131.69 -4.44,30.9 -37.55,33.97 -89.85,58.22 -34.55,16.03 -62.22,39.5 -81.29,61.29 -84.54,96.58 -33.06,185.62 -116.08,175.24 -18.8,-24.87 -19.97,-23.36 -25.92,-58.53 -4.02,-23.76 -7.36,-47.68 -9.88,-70.5 -10.34,-93.98 -27.44,-161.29 26.84,-156.36 44.3,4.02 26.84,46.95 33.77,100.31l7.28 22.02zm4023.45 -142.33c38.97,-21.85 98.38,-29.66 152.65,-29.63 39.22,0.01 87.41,1.87 81.83,45.72 -33.87,8.43 -94.57,5.75 -137.4,11.67 -41.93,5.8 -95.04,26.71 -97.08,-27.76zm-5051.32 233.24c53.09,-4.57 289.38,-46.29 319.63,-34.29 20.97,46.23 -137.37,60.2 -172.68,66.31 -36,6.23 -71.14,11.32 -109.83,18.36 -46.31,8.44 -64.5,20.19 -100.41,-1.37 -9.29,-46.47 16.76,-145.64 27.7,-193.69 22.13,-97.27 20.88,-146.98 87.65,-135.4 11.21,42.24 -51.9,213.5 -52.06,280.08zm5884.43 -34.29c0,-59.33 -0.72,-214.17 19.81,-256.97 18.38,-38.34 73.6,-35.52 74.41,17.67 0.6,39.51 -7.68,89.81 -7.68,132.42l0 157.77c0,53.86 15.42,143.65 -13.26,159.86 -83.11,32.55 -73.28,-118.13 -73.28,-180.21l0 -30.54zm-5447.69 -246.18c27.64,-4.79 85.88,-10.33 107.16,7.84 41.87,35.75 -46.38,31.83 -62.49,33.35 -28.64,2.7 -85.83,18.94 -102.38,3.01 -30.74,-29.57 32.74,-39.87 57.71,-44.2zm188.08 57.87c0,-30.8 3.42,-61.35 6.56,-90.81 2.98,-28.04 4.64,-55.57 40.31,-42.39 43.79,16.2 12.62,91.06 16.64,177.62 21.01,-9.42 26.9,-25.34 63.8,-34.73 28.61,-7.29 58.74,-5.22 83.15,9.71 49.31,30.16 55.44,92.47 20.67,144.73 -26.44,39.72 -183.28,168.18 -255.21,125.97 -2.61,-30.2 18.9,-33.34 38,-45.84 -8.93,-104.43 -13.92,-140.53 -13.92,-244.26zm5699.57 -310.46l0 0zm-5169.2 0l0 0zm-1054.21 0l0 0zm6223.41 0c13.04,-27.17 29.84,-86.35 50.93,-101.79l5.09 106.88c-32.12,-6.8 -29.1,7.82 -56.02,-5.09zm-6223.41 0c-25.33,12.14 -35.45,-1.3 -50.93,5.09l25.54 -86.44c0.34,-1.38 0.64,-2.8 0.99,-4.1l4.03 -11.26c4.63,55.73 18.54,74.8 20.37,96.71zm1914.89 -55.98c11.23,8.21 13.36,14.24 19.66,26.15l15.99 34.92 -47 -1.76c-13.5,-1.7 -2.48,2.25 -14.11,-3.33l22.56 -39.46c0.11,-0.34 2.9,-16.45 2.9,-16.52zm-1461.63 -40.73c19.07,13.98 28.23,48.88 36.96,61.25 11.09,15.73 13.77,11.33 29.24,40.55l-86.57 0c11.05,-47.43 10.2,-7.87 16.26,-79.98l4.11 -21.82zm-478.73 -10.17l1.52 1.51c-0.1,-0.1 -2.03,-1 -1.52,-1.51zm1079.68 106.88c31.35,-59.22 26.95,-40.39 58.14,-114.94 10,-23.91 16.38,-34.56 24.72,-61.82l17.49 -63.96c0.3,-0.81 0.81,-2.49 1.5,-3.58 6.52,15.76 -2.23,166.75 15.28,249.39 -19.99,0 -100.76,2.76 -117.13,-5.09zm101.85 -244.3l0 0zm1942.58 -142.51c1.8,-43.72 -24.18,-132.5 -66.13,-84.22 -35.38,40.7 -32.66,367.96 -54.27,450.22 -47,178.84 -188.56,114.84 -285,-9.11 -29.27,-37.61 -12.05,-80.97 -4.7,-133.03 27.9,-197.88 56.26,-394.03 82.66,-595.17l83.06 -593.55c21.84,-96.69 36.35,-191.11 55.51,-285.91 13.34,-66.09 8.18,-76.47 49.97,-117.49 22.26,-21.84 64.97,-59.75 105.81,-60.53 98.95,-1.86 74.79,-2.56 125.99,46.07 46.67,44.31 6.26,34.09 49.59,118.35 16.68,32.41 39.17,238.14 46.22,290.61 19.29,143.76 49.33,461.18 61.76,613.37 6.31,77.11 53.15,564.85 53.15,625.05 0,158.63 -214.49,232.47 -255.97,128.23 -11.68,-29.38 -17.97,-66.94 -23.39,-99.11 -27.7,-164.59 -29.77,-151.9 -24.26,-293.78zm3297.92 -402.06l61.12 66.16c-33.61,0.75 -52.04,17.65 -71.3,30.54 0,-20.59 1.55,-38.18 2.39,-46.19 1.21,-11.55 6.59,-36.05 7.79,-50.51zm-504.4 -912.91c99.69,-21.76 113.38,19.63 201.22,106.38 40.44,39.94 10.21,49.95 55.06,102.97 9.17,10.84 28.84,32.35 31.87,48.97 2.32,12.73 -0.71,26.67 1.97,38.22 5.1,21.98 4.26,6.52 14.14,22.26 2.08,3.31 62.17,232.55 65.34,249.2 8.41,44.14 6.83,103.09 10.34,149.36 3.9,51.2 5.4,97.37 9.24,148.08 4.68,61.71 4.35,90.41 -1.39,149.49 -4.67,48.01 -7.12,99.66 -8.78,147.29 -5.34,153.05 -91.89,484.51 -193.22,597.76 -32.87,36.75 -35.47,46.33 -100.56,51.48 -42.77,3.39 -107.56,4.34 -134.25,-19.7 -148.87,-134.18 -162.18,-230.81 -218.47,-413.42 -34.34,-111.43 -50.84,-319.12 -34.97,-433.27 7.17,-51.55 -4.29,-99.45 3.69,-153.62 3.12,-21.26 16.71,-49.29 17.68,-62.18 2.21,-28.98 -12.56,-24.62 -0.06,-66.76 20.6,-69.42 7.52,-196.53 44.34,-271.58 44.04,-89.79 2.1,-46.71 34.91,-123.07 48.97,-113.94 76.58,-240.54 201.9,-267.86zm-1150.76 587.18c18.73,4.36 33.48,12.59 51.77,14.49 8.14,0.85 22.56,-0.16 28.82,1.85 22.47,7.25 5.99,2.28 5.99,19.29 0,108.47 -4.96,525.92 2.31,599.07 0.36,3.56 0.24,9.64 0.24,12.83l10.3 94.54c-1.37,36.35 -6.06,109.2 -0.81,154.1l13.54 106.35c3.28,67.56 33.23,89.52 35.53,117.17l-193.52 0c3.99,-14.94 9.96,-19.59 17.59,-33.37 13.93,-25.19 14.12,-96.6 20.18,-132.46 21.39,-126.62 18.25,-67.11 18.25,-200.62 0,-72.9 0.93,-146.37 0.11,-219.2l-5.21 -254.12c0,-31.26 -7.46,-49.53 -2.47,-78.57 9.41,-54.69 8.55,-70.87 -1.17,-136.85 -1.66,-11.25 -3.66,-29.09 -3.84,-32.42 -0.74,-13.12 2.39,-11.01 2.39,-32.08zm-2933.46 203.58l-5.09 0c0,-49.96 -23.49,-116.83 -50.93,-157.78 62.04,-41.51 54.78,-54.27 91.67,-96.7 0,20.09 -4.87,42.24 -7.98,63.28l-18.1 124.01c-3.08,20.18 -9.57,43.91 -9.57,67.19zm3819.61 911.02l-325.94 5.09c42.01,-62.71 58.52,-65.81 73.55,-160.38 8.6,-54.02 7.64,-95.8 7.82,-145.25 0.11,-37.58 4.04,-35.66 5.14,-65.56l2.66 -124.03c4.68,-35.08 6.68,-329.7 -0.84,-364.28 -7.3,-33.59 -11.19,-44.11 -5.46,-85.76 5.04,-36.58 -0.47,-83.87 4.22,-123.03 1.68,-14.18 27.53,-86.06 34.78,-92.47l57.1 -34.55c9.06,-6.64 9.84,-9.43 19.65,-15.99l-21.32 146.7c-1.86,20.86 0.62,46.88 -6.51,75.27 -11.12,44.17 -5.12,34.98 -9.84,73.85 -3.18,26.12 5.45,118 1.46,171.9 -5.81,78.39 -2.94,245.61 14.63,322.36 5.79,25.32 11.28,47.38 18.57,73.04l21.56 75.17c13.89,51.18 30.24,97.01 46.83,141.51 17.26,46.28 57.77,110.81 61.94,126.41zm-4107.3 -539.49c14,30.94 27.47,27.68 60.76,17.66 68.13,-20.5 174.02,-38.24 213.6,26.1 30.51,49.6 32.37,261.02 32.52,332.85 0.24,122.45 -42.67,191.94 -133.65,231.56 -80.2,34.91 -226.08,45.35 -318.14,22.85 -105.05,-25.67 -87.67,-163.36 -88.03,-279.86 -0.19,-60.64 -11.21,-115.71 -11.68,-173.01 -0.48,-59.01 5.5,-118.4 -0.04,-177.11 -2.63,-27.83 -11.68,-50.6 -13.35,-77.26l-7.51 -264.6c-3.7,-151.73 -14.7,-179.85 -11.13,-351.35 2.09,-100.18 -2.99,-253.51 31.5,-334.14 36.2,-84.66 96.33,-143.24 206.8,-154.15 74.99,-7.41 219.05,-74.84 276.04,39.53 43.15,86.59 35.91,219.19 33.5,326.64 -2.51,111.62 -42.49,204.73 -122.81,242.53 -65.85,31 -104.88,-28.29 -139.14,-6.92 -8.69,5.42 -63.91,92.17 33.73,101.74 44.65,4.36 68.59,-19.87 111.85,70.46 21.54,44.99 24.62,98.66 24.05,157.1 -0.9,92.88 10.69,110.65 -31.34,149.91 -58.99,55.1 -59.54,23.86 -141.51,37.26l-6.02 62.21zm2345.29 -617.03c14.14,-4.35 4.36,9.3 14.87,-15.01 8.01,-18.53 12.49,-164.95 10.86,-171.7 -9.53,-39.71 -3.7,-165.3 -3.7,-214.16 0,-68.18 -1.55,-138.1 34.27,-182.46 35.37,-43.79 116.85,-76.39 151.05,-55.66 78.19,47.4 69.77,84.08 70.95,146.54 0.73,38.62 8.7,66.55 11.83,101.89 2.99,33.68 -1.67,71.8 -1.6,106.75 0.12,79.84 15.08,131.11 13.07,208.67 -3.02,116.51 -8.57,332.59 0.7,442.03 7.75,91.57 13.69,82.99 16.25,199.33 2.64,120.27 -17.9,151.88 -18.39,198.22 -1.44,136.42 50.91,465.42 -216.83,425.27 -41.7,-6.25 -40.69,-24.07 -59.16,-52.29 -33.99,-51.93 -13.81,-21.78 -27.73,-80.52 -3.96,-16.72 -27.37,-43.39 -32.12,-78.79 -8.8,-65.59 15.79,-36.17 -28.62,-74.28 -27.78,59.97 -2.12,131.77 -10.13,189.41 -16.77,120.62 -178.54,181.23 -236.69,89.25 -52.18,-82.55 -23.56,-239.6 -39.72,-377.88 -17.54,-150.06 -8.77,-452.24 -6.41,-604.92 1.12,-72.75 -4.3,-574.42 8.6,-617.43 15.27,-50.89 51.91,-91.95 95.02,-114.55 20.52,-10.76 58.44,-23.05 85.07,-20.35 23.67,2.38 39.22,29.17 51.82,49.3 55.58,88.75 45.05,151.57 68.06,248.14 8.48,35.58 5.39,58.05 11.6,90.68 2.57,13.53 36.79,163.95 37.08,164.52zm417.63 -263.45c0,-103.87 4.45,-207.94 30.28,-299.93 26.64,-94.9 92.2,-131.16 198.77,-131.16 52.44,0 53.28,21.01 81.23,54.95 29.95,36.38 19.6,50.31 19.6,101.31 0,56.69 15.01,81.54 15.01,132.32 0,73.43 10.36,118.79 10.36,147.6l-6.24 147.75c1.83,36.5 8.56,72.99 8.56,111.81 0,48.4 -11.22,79.88 -11.47,106.92 -0.26,27.15 11.47,65.08 11.47,96.67 0,85.2 -13.51,65.12 -15.39,92.27 -1.43,20.43 13.07,22.12 13.07,55.32l0 101.79c0,17.66 -6.8,23.52 -7.72,36.48 -1.05,14.79 4.82,19.71 6.94,35.6 2.98,22.46 2.92,62.17 3.14,85.88l4.57 223.75c0,107.93 -21.19,173.92 -21.86,218.72 -0.8,52.42 -3.81,60.58 -30.39,91.27 -78.28,90.33 -63.99,28.36 -112.1,65.92 -44.23,34.55 -85.69,20.99 -126.49,-9.64 -30.32,-22.76 -18.28,-52.49 -28.12,-93.35 -7.8,-32.38 -20.17,-63.67 -20.17,-99.88 0,-43.22 21.35,-70.63 21.93,-92 0.48,-17.93 -19.62,-47.31 -19.62,-86.13l2.32 -188.31c0,-50.21 -18.85,-29.85 -5.51,-94.56 4,-19.37 -7.39,-70.69 -9.54,-96.19 -10.97,-130.94 10.38,-311.93 -3.66,-429.38 -6.76,-56.45 13.42,-14.66 -0.65,-90.37 -11.04,-59.39 -8.32,-133.58 -8.32,-195.43zm-3482.05 709.1c7.79,-26.25 22.61,-55.16 29.93,-82.09 7.98,-29.35 -6.76,-43.36 5.33,-92.01 8.37,-33.68 -1.65,-70.63 7.58,-103.86 11.46,-41.26 -22.17,-93.29 3.47,-195.88 4.65,-18.66 -9.02,-56.22 -8.84,-92.74 0.18,-36.07 -3.46,-68.44 6.68,-102.83 9.92,-33.67 -6.66,-46.76 -6.75,-90.49 -0.33,-165.17 35.01,-114.77 62.61,-158.1 32.21,-50.56 95.81,-56.82 155.68,-27.64 58.81,28.66 51.49,84.47 58.4,159.4 12.32,133.44 16.33,520.43 0.25,633.14 -9.86,69.08 3.87,144.99 -11.39,206.45 -13.16,53.01 -18.95,19.65 -8.61,76.69 5.78,31.84 1.56,59.71 -5.98,91.49 -4.49,18.91 -3.13,31.62 -6.44,50.01 -4.39,24.39 -8.61,17.15 -10.77,46.97 -11.88,164.08 -77.56,476.16 -287.82,462.2 -114.66,-7.62 -180.42,-120.62 -224.83,-211.83 -79.62,-163.42 -60.75,-209.36 -84.69,-347.64 -38.25,-220.85 -26.97,-410.11 -27.22,-630.06 -0.05,-35.69 2.25,-70.64 2.32,-106.91 0.17,-89.11 10.9,-57.94 16.44,-88.45 2.08,-11.45 -16.58,-64.17 -19.27,-89.47 -10.84,-102.05 12.84,-134.55 14.19,-203.94 1.46,-74.59 135.86,-109.71 215.04,-39.46 60.99,54.12 25.71,88.85 50.95,162.21 13.01,37.82 -7.68,44.99 -7.62,90.93 0.04,30.15 3.76,78.25 -2.81,105.89 -5.63,23.64 -10.79,15.32 -3.24,40.8 13.92,47.09 9.73,88.43 0.79,139.75 -11.5,66.08 16.53,117.91 4.4,193.15 -18.86,116.9 20.9,31.38 9.26,182.3 29.98,28.55 22.81,22.02 72.96,22.02zm2575.41 -785.44c-1.83,-9.63 6.41,-18.1 3.22,-3.22 -0.07,0.34 0.15,20.98 -3.22,3.22zm0 -20.36l2.14 2.14c-0.03,-0.03 -0.58,-0.58 -0.63,-0.63 -0.1,-0.1 -2.02,-1 -1.51,-1.51zm1367.9 -55.99c0,-108.34 12.21,-216.98 68.44,-279.72 31.88,-35.54 60.35,-40.16 117.95,-54.81l208.12 -50.61c31.99,-6.46 26.71,-19.37 64.9,-23.88 37.51,-4.44 122.32,-11.16 159.72,-10.8 83.2,0.77 112.09,139.6 112.09,226.42l-10.76 371.54c-5.85,107.61 -16.09,137.05 -99.14,176.27 -111.78,52.79 -74.58,9.84 -84.92,190.17 -2.53,44.12 -0.45,91.28 -3.97,134.47 -8.17,100.35 9.65,83.55 9.65,125.1 0,200.45 -1.35,360.48 -13.03,565.45 -5.89,103.18 -0.83,95.62 -43.85,156.57 -10.9,15.46 -35.45,38.46 -49.87,51.89 -27.52,25.64 -67.23,23.92 -102.23,23.92 -42.27,0 -83.26,-54.92 -91.08,-86.07 -6.7,-26.63 -3.22,-52.3 -10.13,-81.17 -19.53,-81.63 -3.36,-144.05 -6.12,-207.73 -0.9,-20.55 -7.57,-46.97 -10.09,-70.4 -14.92,-138.72 -3.9,-461.6 -2.57,-612.03 1.07,-121.02 -2.01,-135.63 -84.61,-146.42 -68.8,-8.99 -72.94,-18.73 -93.33,-80.13 -21.34,-64.3 -13.33,-87.56 -17.15,-155.34 -3.33,-59.44 -18.02,-89.09 -18.02,-162.69zm-1367.9 45.81l0 0zm3119.51 959.47c27.23,30.9 -7.71,12.15 40.4,56.1 14.66,13.4 34.78,33.12 52.7,43.9 23.1,13.9 47.3,21.49 76.64,8.56 49.3,-21.71 97.81,-168.79 55.45,-211.88 -103.07,-104.83 -149.51,-52.16 -222.99,-158.64 -47.27,-68.52 -99.02,-212.25 -87.13,-291.46 5.62,-37.52 -15.89,-33.62 -17.73,-75.23 -1.29,-29.15 0.09,-62.03 0.09,-91.61 0,-144.83 10.31,-140.42 23.85,-264.66 10.11,-92.69 32.96,-95.41 51.98,-141.48 8.95,-21.67 13.63,-52.98 26.2,-70.2l67.45 -75.04c9.68,-10.5 14.18,-13.07 23.07,-22.76 54.69,-59.59 176.73,-114.04 287.13,-75.35 28.69,10.05 34.23,23.15 67.25,29.78 33.34,6.69 42.03,13.46 53.69,43.15 21.97,55.95 62.5,-3.23 69.77,118.38 28.54,13.82 30.37,13.97 33.87,50.83 2.82,29.72 11.97,39.62 13.19,71.22 1.35,35.25 -8.98,58.18 -9.01,76.47 -0.05,41.93 30.73,72.12 -22.06,209.69 -18.4,47.95 -35.2,72.57 -60.95,105.97 -146.74,17.29 -94.72,-105.85 -225.68,-57.84 -18.4,6.74 -6.03,-2.76 -17.87,13.78 -26.4,36.85 -35.72,137.25 12.79,161.17 25.27,12.46 21.09,20.52 34.6,25.76 15.91,6.16 37.75,3.43 51.33,11.23 17.31,9.94 14.41,17.46 27.15,28.65 28.85,25.34 44.94,10.38 63.14,59.22 17.39,46.63 29.54,12.93 45.83,71.22 4.1,14.66 8.27,35.06 13.15,47.91 9.2,24.18 17.11,15.58 24.54,37 6.32,18.23 5.53,26.31 13.86,46.75 14.26,34.96 30.15,107.58 20.77,144.51 -7.71,30.41 5.84,66.56 5.34,102.91 -0.53,39.35 -14.8,71.71 -11.32,105.44 1.98,19.14 8.76,26.65 10.33,47.47 1.14,14.97 0.88,40.11 -0.53,55.07 -1.58,16.8 -7.8,30.31 -9.52,47.89 -7.67,78.26 -0.72,54.06 -31.1,148.08 -21.2,65.59 -44.19,119.69 -91.53,148.14 -37.25,22.38 -24.82,38.62 -46.28,75.94 -13.42,23.31 -34.7,50.36 -50.86,66.12 -33.43,32.62 -94.55,72.59 -159.76,80.6 -154.01,18.91 -206.87,-86.81 -279.08,-201.06 -17.03,-26.95 -24.98,-176.12 -23.79,-213.38 0.87,-27.16 21.77,-62.82 20.88,-93.62 -4.49,-154.3 5.82,-93.2 13.01,-159.97 2.17,-20.15 -3.2,-38.82 2.91,-57.38 6.51,-19.78 17.88,-21.02 26.71,-34.42 8.46,-12.81 8.74,-27.5 13.43,-41.08l24.69 -1.85zm-4563.04 68.61c0,-46.1 -9.28,-65.68 -10.53,-101.54 -1.13,-32.68 3.05,-73.31 4.49,-106.85 2.83,-66.5 4.65,-133.41 14.1,-198.24 9.44,-64.78 43.93,-333.42 55.15,-372.13 49.44,-170.72 84.92,-309.01 183.7,-457.69 21.52,-32.41 21.61,-31.27 55.93,-51.1 27.76,-16.03 43.03,-24.38 81.38,-24.38 72.18,0 83.79,12.72 115.98,50.82 23.49,27.82 47.22,60.15 58.67,103.89 17.67,67.47 -30.66,328.66 -81.74,410.32 -41.94,67.02 -41.61,24.01 -112.4,50.02 -42.65,15.66 -54.58,53.17 -72.35,96.22 -29,70.33 -34.13,97.4 -32.79,168.05 1.83,96.01 -38.95,38.18 -7.15,111.36 12.52,28.8 4.94,88.94 5.78,122.96l17.44 108.73c8.87,30.42 16.59,63.32 34.51,87.64 17.64,-4.46 -9.42,-5.24 49.92,-22.25 -5.38,-40.11 -26.07,-6.08 -31.84,-62.12 -13.03,-126.58 -26.11,-163.17 -26.11,-300.51 0,-135.96 88.13,-188.89 224.72,-163.25 144.14,27.07 144.51,102.7 146.76,249.61 3.08,202.75 -4.4,297.67 -15.81,483.61 -1.92,31.4 1.73,65.36 -1.01,96.26 -7.3,82.76 -97.97,377.49 -182.95,411.04 -132.97,52.49 -208.8,-32.39 -262.95,-99.9 -40.16,-50.06 -90.65,-122.74 -116.88,-183.13 -14.04,-32.28 -7.26,-50.33 -22.17,-75.07 -17.96,-29.77 -71.85,-290.65 -71.85,-332.37zm-2009.4 -871.12c15.57,-18.7 13.16,-73.97 18.95,-102.65 34.72,-171.9 -34.03,-369.49 210.24,-401.05 40.91,-5.28 72.36,-11.44 98.2,14.32 58.84,58.66 78.08,65.09 60.66,170.68 -9.12,55.25 9.72,270.5 14.67,334.02 5.9,75.82 17.5,145.7 20.42,224.7 11.07,299.33 3.62,659.64 -2.75,961.92 -2.76,131.46 17.29,128.24 -39.2,197.76 -28.47,35.04 -48.65,21.46 -96.23,17.09 -60.22,-5.52 -51.59,0.97 -78.63,-44.52 -22.27,-37.46 -21.93,-47.31 -21.2,-99.07 0.47,-32.3 -23.81,-195.59 -19.3,-215.76 7.44,-33.37 7.34,-13.15 -0.43,-46.2 -9.3,-39.52 6.98,-36.36 -10.61,-111.74 -11.74,-50.25 21.97,-41.36 -9.39,-158.37 -62.04,37.22 8.73,69.34 -102.9,145.67 -0.99,40.55 -1.39,68.83 -42.99,45.07l-3.97 -43.93 -68.99 -15.02c13.39,49.19 11.19,55.88 12.66,110.16 1.9,70.57 12.94,283.53 7.62,324.16 -15.97,121.86 -226.54,159.5 -281.87,71.67 -36.49,-57.91 -12.86,-222.76 -20.86,-314.61 -3.59,-41.14 -12.51,-56.4 -11.05,-101.54 4.17,-127.85 14.74,-311.5 -3,-434.51 -22.84,-158.28 15.69,-365.52 -17.77,-526.44 -11.69,-56.23 -10.91,-254.71 5.36,-311.97 8.44,-29.68 30.65,-44.5 48.82,-63.02 52.5,-53.53 103.81,-47.95 165.97,-18.42 33.48,15.9 55.3,3.48 74.23,37.73 14.46,26.12 31.01,44.88 29.46,84.83 -3.64,93.52 11.24,44.52 23.14,87.04 9.85,35.21 -8.8,24.36 11.64,98.98 3.41,12.45 6.92,35.49 9.79,48.4 5.18,23.36 2.4,26.6 19.31,34.62z"/>
   <path class="fil0" d="M4452.64 2678.13l11.85 20.63 47.24 -0.26c12.71,-29.09 30.02,-60.89 -4.83,-82.6 -16.37,12.74 -15.23,11.42 -24.58,32.4 -9.75,21.87 -14.57,16.98 -29.68,29.83z"/>
   <polygon class="fil0" points="2169.3,1130.92 2169.3,1125.83 2163.36,1130.08 "/>
  </g>
 </g>
</svg>
